/* XPM */
static char *result[] = {
/* columns rows colors chars-per-pixel */
"80 80 82 1 ",
"  c black",
". c #010101",
"X c #020202",
"o c gray1",
"O c #040404",
"+ c gray2",
"@ c #060606",
"# c #070707",
"$ c gray3",
"% c #090909",
"& c gray4",
"* c #0B0B0B",
"= c #0C0C0C",
"- c gray5",
"; c #0E0E0E",
": c gray6",
"> c #101010",
", c #111111",
"< c gray7",
"1 c #131313",
"2 c gray8",
"3 c #151515",
"4 c #161616",
"5 c gray9",
"6 c #181818",
"7 c #191919",
"8 c gray10",
"9 c #1B1B1B",
"0 c gray11",
"q c #1D1D1D",
"w c #1E1E1E",
"e c gray12",
"r c #202020",
"t c gray13",
"y c #222222",
"u c #232323",
"i c gray14",
"p c #252525",
"a c gray15",
"s c #272727",
"d c #282828",
"f c gray16",
"g c #2A2A2A",
"h c gray17",
"j c #2C2C2C",
"k c #2D2D2D",
"l c gray18",
"z c #2F2F2F",
"x c gray19",
"c c #313131",
"v c #323232",
"b c gray20",
"n c #343434",
"m c #353535",
"M c gray21",
"N c #373737",
"B c gray22",
"V c #393939",
"C c gray23",
"Z c #3C3C3C",
"A c gray24",
"S c #3E3E3E",
"D c #3F3F3F",
"F c gray25",
"G c gray26",
"H c #434343",
"J c gray27",
"K c gray28",
"L c #484848",
"P c gray29",
"I c #4B4B4B",
"U c #4C4C4C",
"Y c gray31",
"T c #505050",
"R c gray32",
"E c #535353",
"W c #555555",
"Q c #585858",
"! c gray35",
"~ c gray37",
"^ c #848484",
"/ c None",
/* pixels */
"////////////////////////////////////////////////////////////////////////////////",
"////////////////////////////////fp7>3&@,:==:<*&1=9ub////////////////////////////",
"////////////////////////////z4>$X.                .Xo;4wM///////////////////////",
"/////////////////////////v6@O            ..            X+>tj////////////////////",
"//////////////////////g0*X          .$,w-51>q:O.           +*i//////////////////",
"////////////////////x<o           @,r//////////q;o           .&9////////////////",
"///////////////////4+           X<a//////////////r=            .$0//////////////",
"/////////////////q@            of//////////////////6             X>j////////////",
"///////////////J5.            +a////////////////////7.             O1///////////",
"//////////////v=             Xf//////////////////////4              .@//////////",
"/////////////pO              8////////////////////////=               ;/////////",
"////////////8               &T////////////////////////NO               %m///////",
"///////////5               Xk//////////////////////////0                -G//////",
"//////////r.               ,///////////////////////////M@                -//////",
"/////////do               Xe////////////////////////////,                .3/////",
"////////vO                &Y////////////////////////////bo                 s////",
"///////~:                 2//////////////////////////////#                 OS///",
"///////y                 .k//////////////////////////////5                  :///",
"//////Bo                 OT//////////////////////////////B                  .i//",
"//////;                  <///////////////////////////////Uo                  -L/",
"/////go                  d////////////////////////////////3                   g/",
"/////2                   n////////////////////////////////t                   %W",
"////d.                  oJ////////////////////////////////d                    g",
"////>                   -/////////////////////////////////yO                   %",
"///KX                   9/////////////////////////////////D&                    ",
"///w.                   6//////////////////////////////////;                    ",
"///=                    f//////////////////////////////////7                    ",
"//N#                   .8//////////////////////////////////>                    ",
"//uX                   Oy//////////////////////////////////2                    ",
"//q                    @V//////////////////////////////////t                    ",
"//1                    #C//////////////////////////////////7.                   ",
"/V@                    @t//////////////////////////////////1X                   ",
"/BX                    &///////////////////////////////////pO                   ",
"/j                     ;///////////////////////////////////v+                   ",
"/v                     ,///////////////////////////////////S@                   ",
"/2                     3///////////////////////////////////P#                   ",
"/$                     5///////////////////////////////////R$                   ",
"/3                     6///////////////////////////////////W$                   ",
"/4                     7///////////////////////////////////!%                   ",
"/,                     3///////////////////////////////////jo                   ",
"/-                     6///////////////////////////////////I#                   ",
"/,                     6^//////////////////////////////////Q%                   ",
"/4                     5///////////////////////////////////E$                   ",
"/2                     4///////////////////////////////////Y$                   ",
"/%                     2///////////////////////////////////J#                   ",
"/5                     ,///////////////////////////////////V@                   ",
"/n                     -///////////////////////////////////jO                   ",
"/h                     &///////////////////////////////////ro                   ",
"/BX                    +///////////////////////////////////1.                   ",
"/v@                    @c//////////////////////////////////i                    ",
"//2                    @C//////////////////////////////////0                    ",
"//0                    Oa//////////////////////////////////;                    ",
"//yX                   .4//////////////////////////////////2                    ",
"//M#                    h//////////////////////////////////5                    ",
"///=                    8//////////////////////////////////&                    ",
"///y.                   3/////////////////////////////////b#                   =",
"///Uo                   </////////////////////////////////rX                   m",
"////2                   ON////////////////////////////////f                   &/",
"////lX                  .Z////////////////////////////////r                   j/",
"/////1                   b////////////////////////////////:                  -//",
"/////do                  6///////////////////////////////Po                 Xi//",
"//////>                  @///////////////////////////////m                  =///",
"//////NO                 XA//////////////////////////////1                 ox///",
"///////a                 .8/////////////////////////////Q+                 7////",
"////////4                 &/////////////////////////////iX                >/////",
"////////H=                Ol////////////////////////////:                =F/////",
"/////////N+                7///////////////////////////z+               Ob//////",
"//////////x#               ok//////////////////////////7               @f///////",
"///////////io               1/////////////////////////gX              Og////////",
"////////////c$               p///////////////////////C$              #z/////////",
"//////////////#              Ox//////////////////////-              =k//////////",
"///////////////3X             #u////////////////////:.            o1////////////",
"////////////////c-X            o6/////////////////G,            X#z/////////////",
"//////////////////w#            o4M//////////////y$            +7///////////////",
"////////////////////e%            +3h/////////M>$X           @q/////////////////",
"//////////////////////w;@           .$<e-1,:0=o           O&9///////////////////",
"////////////////////////b5%@X                          o&7a/////////////////////",
"///////////////////////////Gi8>+X.               ..O=7qa////////////////////////",
"////////////////////////////////C97:1#-3,;;1,+=,1ilC////////////////////////////",
"////////////////////////////////////////////////////////////////////////////////"
};
