/* XPM */
static char *result[] = {
/* columns rows colors chars-per-pixel */
"80 80 79 1 ",
"  c black",
". c #010101",
"X c #020202",
"o c gray1",
"O c #040404",
"+ c gray2",
"@ c #060606",
"# c #070707",
"$ c gray3",
"% c #090909",
"& c gray4",
"* c #0B0B0B",
"= c #0C0C0C",
"- c gray5",
"; c #0E0E0E",
": c gray6",
"> c #101010",
", c #111111",
"< c gray7",
"1 c #131313",
"2 c gray8",
"3 c #151515",
"4 c #161616",
"5 c gray9",
"6 c #181818",
"7 c #191919",
"8 c gray10",
"9 c #1B1B1B",
"0 c gray11",
"q c #1D1D1D",
"w c #1E1E1E",
"e c gray12",
"r c #202020",
"t c gray13",
"y c #222222",
"u c #232323",
"i c gray14",
"p c #252525",
"a c gray15",
"s c #272727",
"d c #282828",
"f c gray16",
"g c #2A2A2A",
"h c gray17",
"j c #2C2C2C",
"k c #2D2D2D",
"l c gray18",
"z c gray19",
"x c #313131",
"c c #323232",
"v c gray20",
"b c #343434",
"n c #353535",
"m c gray21",
"M c #373737",
"N c gray22",
"B c #393939",
"V c #3A3A3A",
"C c gray23",
"Z c #3C3C3C",
"A c gray24",
"S c #3E3E3E",
"D c gray25",
"F c #414141",
"G c gray26",
"H c #434343",
"J c gray27",
"K c #464646",
"L c gray28",
"P c #484848",
"I c #494949",
"U c gray29",
"Y c #4C4C4C",
"T c gray30",
"R c #505050",
"E c #5F5F5F",
"W c gray39",
"Q c #6A6A6A",
"! c None",
/* pixels */
"!!!!!!!!!!!!!!!!!!!!!!!!!!!!!!!!!!!!!!!!!!!!!!!!!!!!!!!qfb!!!!!!!!!!!!!!!!!!!!!!",
"!!!!!!!!!!!!!!!!!!!!!!!!!!!!!!!!!!!!!!!!!!!!!!!!!!!!!I2..X@>$:x!!!!!!!!!!!!!!!!!",
"!!!!!!!!!!!!!!!!!!!!!!!!!!!!!!!!!!!!!!!!!!!!!!!!!!!i5o        i!!!!!!!!!!!!!!!!!",
"!!!!!!!!!!!!!!!!!!!!!!!!!!!!!!!!!!!!!!!!!!!!!!!!!5%X         .d!!!!!!!!!!!!!!!!!",
"!!!!!!!!!!!!!!!!!!!!!!!!!!!!!!!!!!!!!!!!!!!!!Fp5%            .f!!!!!!!!!!!!!!!!!",
"!!!!!!!!!!!!!!!!!!!!!!!!!!!!!!!!!!!!!!!!bfr,$O               .j!!!!!!!!!!!!!!!!!",
"!!K9wpNcB!!!!!!!!!!!!!!!!!!!!!!!!b0k07@$$X                   .l!!!!!!!!!!!!!!!!!",
"!!5o   X++$,61#<8890qwer02&#36:$OO.                          .z!!!!!!!!!!!!!!!!!",
"!E%                                                          .c!!!!!!!!!!!!!!!!!",
"Wk#                                                          .b!!!!!!!!!!!!!!!!!",
"!!Ze,-#o                                                     .m!!!!!!!!!!!!!!!!!",
"!!!!!!!iae4=$@OO.XX.                                         .M!!!!!!!!!!!!!!!!!",
"!!!!!!!!!!!!!!IM2ja1=r91;&@X%7rwe6@                          .B!!!!!!!!!!!!!!!!!",
"!!!!!!!!!!!!!!!!!!!!!!!!!!!!!!!!!Qg                          XC!!!!!!!!!!!!!!!!!",
"!!!!!!!!!!!!!!!!!!!!!!!!!!!!!!!!!!x                          XA!!!!!!!!!!!!!!!!!",
"!!!!!!!!!!!!!!!!!!!!!!!!!!!!!!!!!!k                          XS!!!!!!!!!!!!!!!!!",
"!!!!!!!!!!!!!!!!!!!!!!!!!!!!!!!!!!h                          XD!!!!!!!!!!!!!!!!!",
"!!!!!!!!!!!!!!!!!!!!!!!!!!!!!!!!!!f                          XG!!!!!!!!!!!!!!!!!",
"!!!!!!!!!!!!!!!!!!!!!!!!!!!!!!!!!!s                          XD!!!!!!!!!!!!!!!!!",
"!!!!!!!!!!!!!!!!!!!!!!!!!!!!!!!!!!p                           <!!!!!!!!!!!!!!!!!",
"!!!!!!!!!!!!!!!!!!!!!!!!!!!!!!!!!!i                            !!!!!!!!!!!!!!!!!",
"!!!!!!!!!!!!!!!!!!!!!!!!!!!!!!!!!!y                           O!!!!!!!!!!!!!!!!!",
"!!!!!!!!!!!!!!!!!!!!!!!!!!!!!!!!!!r                           $!!!!!!!!!!!!!!!!!",
"!!!!!!!!!!!!!!!!!!!!!!!!!!!!!!!!!!e                           &!!!!!!!!!!!!!!!!!",
"!!!!!!!!!!!!!!!!!!!!!!!!!!!!!!!!!!q                           -!!!!!!!!!!!!!!!!!",
"!!!!!!!!!!!!!!!!!!!!!!!!!!!!!!!!!!9                           :!!!!!!!!!!!!!!!!!",
"!!!!!!!!!!!!!!!!!!!!!!!!!!!!!!!!!!7                           <!!!!!!!!!!!!!!!!!",
"!!!!!!!!!!!!!!!!!!!!!!!!!!!!!!!!!!6                           3!!!!!!!!!!!!!!!!!",
"!!!!!!!!!!!!!!!!!!!!!!!!!!!!!!!!!!5                           4!!!!!!!!!!!!!!!!!",
"!!!!!!!!!!!!!!!!!!!!!!!!!!!!!!!!!!5                          .8!!!!!!!!!!!!!!!!!",
"!!!!!!!!!!!!!!!!!!!!!!!!!!!!!!!!!!3                          .0!!!!!!!!!!!!!!!!!",
"!!!!!!!!!!!!!!!!!!!!!!!!!!!!!!!!!!2                          .q!!!!!!!!!!!!!!!!!",
"!!!!!!!!!!!!!!!!!!!!!!!!!!!!!!!!!!1                          .e!!!!!!!!!!!!!!!!!",
"!!!!!!!!!!!!!!!!!!!!!!!!!!!!!!!!!!,                          .t!!!!!!!!!!!!!!!!!",
"!!!!!!!!!!!!!!!!!!!!!!!!!!!!!!!!!!>                          .u!!!!!!!!!!!!!!!!!",
"!!!!!!!!!!!!!!!!!!!!!!!!!!!!!!!!!!:                          .a!!!!!!!!!!!!!!!!!",
"!!!!!!!!!!!!!!!!!!!!!!!!!!!!!!!!!!:                          .d!!!!!!!!!!!!!!!!!",
"!!!!!!!!!!!!!!!!!!!!!!!!!!!!!!!!!!:                          .d!!!!!!!!!!!!!!!!!",
"!!!!!!!!!!!!!!!!!!!!!!!!!!!!!!!!!!-                          .g!!!!!!!!!!!!!!!!!",
"!!!!!!!!!!!!!!!!!!!!!!!!!!!!!!!!!!=                          .j!!!!!!!!!!!!!!!!!",
"!!!!!!!!!!!!!!!!!!!!!!!!!!!!!!!!!!=                          .l!!!!!!!!!!!!!!!!!",
"!!!!!!!!!!!!!!!!!!!!!!!!!!!!!!!!!!=                          .z!!!!!!!!!!!!!!!!!",
"!!!!!!!!!!!!!!!!!!!!!!!!!!!!!!!!!!&                          .v!!!!!!!!!!!!!!!!!",
"!!!!!!!!!!!!!!!!!!!!!!!!!!!!!!!!!!%                          .v!!!!!!!!!!!!!!!!!",
"!!!!!!!!!!!!!!!!!!!!!!!!!!!!!!!!!!%                          .n!!!!!!!!!!!!!!!!!",
"!!!!!!!!!!!!!!!!!!!!!!!!!!!!!!!!!!$                          .m!!!!!!!!!!!!!!!!!",
"!!!!!!!!!!!!!!!!!!!!!!!!!!!!!!!!!!#                          .M!!!!!!!!!!!!!!!!!",
"!!!!!!!!!!!!!!!!!!!!!!!!!!!!!!!!!!#                          .N!!!!!!!!!!!!!!!!!",
"!!!!!!!!!!!!!!!!!!!!!!!!!!!!!!!!!!#                          .V!!!!!!!!!!!!!!!!!",
"!!!!!!!!!!!!!!!!!!!!!!!!!!!!!!!!!!@                          .Z!!!!!!!!!!!!!!!!!",
"!!!!!!!!!!!!!!!!!!!!!!!!!!!!!!!!!!+                          .A!!!!!!!!!!!!!!!!!",
"!!!!!!!!!!!!!!!!!!!!!!!!!!!!!!!!!!+                          .A!!!!!!!!!!!!!!!!!",
"!!!!!!!!!!!!!!!!!!!!!!!!!!!!!!!!!!O                          .A!!!!!!!!!!!!!!!!!",
"!!!!!!!!!!!!!!!!!!!!!!!!!!!!!!!!!!O                          .S!!!!!!!!!!!!!!!!!",
"!!!!!!!!!!!!!!!!!!!!!!!!!!!!!!!!!!O                          .S!!!!!!!!!!!!!!!!!",
"!!!!!!!!!!!!!!!!!!!!!!!!!!!!!!!!!!o                          .D!!!!!!!!!!!!!!!!!",
"!!!!!!!!!!!!!!!!!!!!!!!!!!!!!!!!!!o                          .G!!!!!!!!!!!!!!!!!",
"!!!!!!!!!!!!!!!!!!!!!!!!!!!!!!!!!!X                          .H!!!!!!!!!!!!!!!!!",
"!!!!!!!!!!!!!!!!!!!!!!!!!!!!!!!!!!X                          .J!!!!!!!!!!!!!!!!!",
"!!!!!!!!!!!!!!!!!!!!!!!!!!!!!!!!!!.                          .J!!!!!!!!!!!!!!!!!",
"!!!!!!!!!!!!!!!!!!!!!!!!!!!!!!!!!!.                          .J!!!!!!!!!!!!!!!!!",
"!!!!!!!!!!!!!!!!!!!!!!!!!!!!!!!!!!.                          .J!!!!!!!!!!!!!!!!!",
"!!!!!!!!!!!!!!!!!!!!!!!!!!!!!!!!!!.                          .K!!!!!!!!!!!!!!!!!",
"!!!!!!!!!!!!!!!!!!!!!!!!!!!!!!!!!!.                          .K!!!!!!!!!!!!!!!!!",
"!!!!!!!!!!!!!!!!!!!!!!!!!!!!!!!!!!.                          .K!!!!!!!!!!!!!!!!!",
"!!!!!!!!!!!!!!!!!!!!!!!!!!!!!!!!!!.                          .K!!!!!!!!!!!!!!!!!",
"!!!!!!!!!!!!!!!!!!!!!!!!!!!!!!!!!!.                          .K!!!!!!!!!!!!!!!!!",
"!!!!!!!!!!!!!!!!!!!!!!!!!!!!!!!!!!.                          .K!!!!!!!!!!!!!!!!!",
"!!!!!!!!!!!!!!!!!!!!!!!!!!!!!!!!!!.                          .K!!!!!!!!!!!!!!!!!",
"!!!!!!!!!!!!!!!!!!!!!!!!!!!!!!!!!!.                          .L!!!!!!!!!!!!!!!!!",
"!!!!!!!!!!!!!!!!!!!!!!!!!!!!!!!!!!                           .I!!!!!!!!!!!!!!!!!",
"!!!!!!!!!!!!!!!!!!!!!!!!!!!!!!!!!!                           .I!!!!!!!!!!!!!!!!!",
"!!!!!!!!!!!!!!!!!!!!!!!!!!!!!!!!!!                           .Y!!!!!!!!!!!!!!!!!",
"!!!!!!!!!!!!!!!!!!!!!!!!!!!!!!!!!!                           .T!!!!!!!!!!!!!!!!!",
"!!!!!!!!!!!!!!!!!!!!!!!!!!!!!cUDN8                           .hBPj!!!!!!!!!!!!!!",
"!!!!!!!!!!N63<>=%+o%41,;*%@o.o+OoX                            .o+oXO%->1-X#*>2qR",
"!!!!!!!!!!s                                                                   +L",
"!!!!!!!!!!d                                                                   @P",
"!!!!!!!!!!d oO+#$%*=:12570r6$o@%=:,270ertuipsdh2.+0jfspurq84<;&+@9e851>-&%#@+o$P",
"!!!!!!!!!!!!!!!!!!!!!!!!!!!!!!!!!!!!!!!!!!!!!!!!!!!!!!!!!!!!!!!!!!!!!!!!!!!!!!!!"
};
