/* XPM */
static char *result[] = {
/* columns rows colors chars-per-pixel */
"80 80 85 1 ",
"  c black",
". c #010101",
"X c #020202",
"o c gray1",
"O c #040404",
"+ c gray2",
"@ c #060606",
"# c #070707",
"$ c gray3",
"% c #090909",
"& c gray4",
"* c #0B0B0B",
"= c #0C0C0C",
"- c gray5",
"; c #0E0E0E",
": c gray6",
"> c #101010",
", c #111111",
"< c gray7",
"1 c #131313",
"2 c gray8",
"3 c #151515",
"4 c #161616",
"5 c gray9",
"6 c #181818",
"7 c #191919",
"8 c gray10",
"9 c #1B1B1B",
"0 c gray11",
"q c #1D1D1D",
"w c #1E1E1E",
"e c gray12",
"r c #202020",
"t c gray13",
"y c #222222",
"u c #232323",
"i c gray14",
"p c #252525",
"a c gray15",
"s c #272727",
"d c #282828",
"f c gray16",
"g c #2A2A2A",
"h c gray17",
"j c #2C2C2C",
"k c #2D2D2D",
"l c gray18",
"z c #2F2F2F",
"x c gray19",
"c c #313131",
"v c #323232",
"b c gray20",
"n c #343434",
"m c #353535",
"M c gray21",
"N c #373737",
"B c gray22",
"V c #393939",
"C c #3A3A3A",
"Z c gray23",
"A c #3C3C3C",
"S c gray24",
"D c #3E3E3E",
"F c gray25",
"G c #414141",
"H c gray26",
"J c #434343",
"K c gray27",
"L c #464646",
"P c gray28",
"I c #494949",
"U c gray29",
"Y c #4E4E4E",
"T c #505050",
"R c gray32",
"E c #535353",
"W c gray33",
"Q c gray34",
"! c #5B5B5B",
"~ c #5D5D5D",
"^ c #5F5F5F",
"/ c gray38",
"( c #646464",
") c #656565",
"_ c None",
/* pixels */
"______________________________uAe1vBxfagznb-9Bzu________________________________",
"_______________________Bd9<:*%X..           ...@:&;<wjV_________________________",
"___________________k72$X.                            .o&;<n_____________________",
"________________k8@O          .X.oo...                    +%5i__________________",
"_____________h5#          .&<5yf=ug1eg64=o                   X*3n_______________",
"___________r,+          #,0______________7;+.                   $:n_____________",
"__________8+         X#q____________________3>.                   O:____________",
"________4+          .3________________________1O                   .,Z__________",
"_______2X          @y__________________________b%                    +w_________",
"______>           og____________________________m@                    .0________",
"_____2           .3______________________________g.                    .a_______",
"____5.           OR_______________________________2                     Xl______",
"___jo            &________________________________G                      $R_____",
"__H>             >Y________________________________=                     .5_____",
"__d              X%-rV_____________________________y                      %G____",
"__,                  X17___________________________D                      oe____",
"_IO                     *v_________________________pX                      8____",
"_W                       +x________________________dO                      3____",
"_J                        :L_______________________f+                      2E___",
"_H                         h_______________________z.                      :S___",
"_H                         9_______________________D                       :S___",
"_vo                        q_______________________e                       2T___",
"__9                        0_______________________8                       ,____",
"__AX                       8______________________So                       9____",
"___w                      -G______________________u                       oy____",
"____>                    Op______________________(@                       &K____",
"_____0o                 Oi_______________________7                       .6_____",
"______q2X             X45_______________________xo                       $T_____",
"________z6;#.      %:rz________________________Q:                       .a______",
"____________fM0$;dh____________________________6                        w_______",
"______________________________________________6X                       6________",
"_____________________________________________6                        7_________",
"____________________________________________1                       X6__________",
"__________________________________________6*                       +s___________",
"_________________________________________i+                       *h____________",
"________________________________________q+                      $y______________",
"______________________________________0.                      o=c_______________",
"_____________________________________f@                     .;q_________________",
"___________________________________v<.                    o:q___________________",
"__________________________________*+                    O>p_____________________",
"________________________________t$                   X#0l_______________________",
"______________________________A$                   o&y__________________________",
"____________________________z>O                 o*4h____________________________",
"___________________________2$                .#4j_______________________________",
"_________________________f=                o*6__________________________________",
"_______________________Z*.              #,j_____________________________________",
"______________________,@             O-yV_______________________________________",
"____________________f*            .&4l__________________________________________",
"__________________2-.          .%-0_____________________________________________",
"_________________8X          +*u________________________________________________",
"_______________G2X        X#4l__________________________________________________",
"______________k%        X;y_____________________________________________________",
"_____________.        @1s_______________________________________________________",
"___________f+       $0__________________________________________________________",
"__________i+      o6_____________________________________________________TSj4h__",
"_________tO     o6l_____________________________________________________O... 8__",
"________4     .>s_______________________________________________________-    &__",
"_______1     O4_________________________________________________________9    ./_",
"______w     +9__________________________________________________________3     )_",
"_____w.    $k__________________________________________________________l#     !_",
"____g+    &V___________________________________________________________,      !_",
"___P-    =C________Vsq>3,@-;*&*=;:$%16*640Na_________________________B=      .^_",
"___i    *B_____Gr<&o.                    .X.o$<403dpH_____________x62X       $__",
"__CO   Xr____5,@.                                 XO#+%#;9urepw1&@+.         6__",
"__2    ;___e=.                                                               a__",
"_U    Ot_z#                                                                 .B__",
"_u    O2@X                                                                  &N__",
"~+                                                                          q___",
"D.                                                                         +s___",
"r.                                                                         7____",
"=         .o=1,213$oX                                                     %F____",
"$        &uS________g3;X                                                 oc_____",
"O      of______________r8*X                                             Oh______",
".     or__________________t>+                                          #b_______",
"     .7_____________________n3;.                                     X&l________",
"     +T________________________g<%X                                 %a__________",
"     3____________________________d0$+.                          @=7____________",
"-----h_______________________________M91,+..                .X#-1C______________",
"__________________________________________sj44&2,&#O.o#&2<,6sz__________________",
"________________________________________________________________________________"
};
