/* XPM */
static char *result[] = {
/* columns rows colors chars-per-pixel */
"80 80 80 1 ",
"  c black",
". c #010101",
"X c #020202",
"o c gray1",
"O c #040404",
"+ c gray2",
"@ c #060606",
"# c #070707",
"$ c gray3",
"% c #090909",
"& c gray4",
"* c #0B0B0B",
"= c #0C0C0C",
"- c gray5",
"; c #0E0E0E",
": c gray6",
"> c #101010",
", c #111111",
"< c gray7",
"1 c #131313",
"2 c gray8",
"3 c #151515",
"4 c #161616",
"5 c gray9",
"6 c #181818",
"7 c #191919",
"8 c gray10",
"9 c #1B1B1B",
"0 c gray11",
"q c #1D1D1D",
"w c #1E1E1E",
"e c gray12",
"r c #202020",
"t c gray13",
"y c #222222",
"u c #232323",
"i c gray14",
"p c #252525",
"a c gray15",
"s c #272727",
"d c #282828",
"f c gray16",
"g c #2A2A2A",
"h c gray17",
"j c #2C2C2C",
"k c #2D2D2D",
"l c gray18",
"z c #2F2F2F",
"x c gray19",
"c c #313131",
"v c #323232",
"b c gray20",
"n c #343434",
"m c #353535",
"M c gray21",
"N c #373737",
"B c gray22",
"V c #3A3A3A",
"C c gray23",
"Z c #3C3C3C",
"A c gray24",
"S c #3E3E3E",
"D c #3F3F3F",
"F c gray25",
"G c #414141",
"H c gray26",
"J c #434343",
"K c #464646",
"L c #484848",
"P c #494949",
"I c gray29",
"U c #4B4B4B",
"Y c gray30",
"T c gray31",
"R c gray32",
"E c #535353",
"W c gray33",
"Q c #5D5D5D",
"! c gray43",
"~ c None",
/* pixels */
"~~~~~~~~~~~~~~~~~~~~~~~~~~~~~~~~~~~~~~~~~~~~~~~~~~~~~~~~~~~~~~~~~~~~~~~~~~~~~~~~",
"~~~~~~~~~~~~~~~~~~~~~~~~~~~~~hnwe9&:73<>,151#>8>ju~~~~~~~~~~~~~~~~~~~~~~~~~~~~~~",
"~~~~~~~~~~~~~~~~~~~~~~~~q33;@X..                ..o%,33r~~~~~~~~~~~~~~~~~~~~~~~~",
"~~~~~~~~~~~~~~~~~~~~~8,OX                             .o+2eH~~~~~~~~~~~~~~~~~~~~",
"~~~~~~~~~~~~~~~~~~r<+         .X++@;-++O.                 .%>e~~~~~~~~~~~~~~~~~~",
"~~~~~~~~~~~~~~~~,%         X%5yv~~~~~~~Vd6%O                 X$9~~~~~~~~~~~~~~~~",
"~~~~~~~~~~~~~~<@         +-e~~~~~~~~~~~~~~~g8#                 .#9~~~~~~~~~~~~~~",
"~~~~~~~~~~~~4%         .:s~~~~~~~~~~~~~~~~~~~x8.                 op~~~~~~~~~~~~~",
"~~~~~~~~~~~:.          1~~~~~~~~~~~~~~~~~~~~~~~3o                  -~~~~~~~~~~~~",
"~~~~~~~~~~<          O0~~~~~~~~~~~~~~~~~~~~~~~~~sX                 .2~~~~~~~~~~~",
"~~~~~~~~W:          .8~~~~~~~~~~~~~~~~~~~~~~~~~~~5                   w~~~~~~~~~~",
"~~~~~~~~2           @J~~~~~~~~~~~~~~~~~~~~~~~~~~~M@                  XB~~~~~~~~~",
"~~~~~~~q.           <~~~~~~~~~~~~~~~~~~~~~~~~~~~~~=                   ;~~~~~~~~~",
"~~~~~~F$            n~~~~~~~~~~~~~~~~~~~~~~~~~~~~~uX                  XC~~~~~~~~",
"~~~~~~q             7qc~~~~~~~~~~~~~~~~~~~~~~~~~~~EO                  .3~~~~~~~~",
"~~~~~A#               +#,~~~~~~~~~~~~~~~~~~~~~~~~~!+                   -~~~~~~~~",
"~~~~~S                   #:~~~~~~~~~~~~~~~~~~~~~~~~@                   $H~~~~~~~",
"~~~~~u                     <~~~~~~~~~~~~~~~~~~~~~~~*                   o4~~~~~~~",
"~~~~~w                      7~~~~~~~~~~~~~~~~~~~~~~$                   .;~~~~~~~",
"~~~~~5                      Xn~~~~~~~~~~~~~~~~~~~~~+                   #A~~~~~~~",
"~~~~~e                      .0~~~~~~~~~~~~~~~~~~~~QO                   ;~~~~~~~~",
"~~~~~w                       *~~~~~~~~~~~~~~~~~~~~bX                  .9~~~~~~~~",
"~~~~~B.                      &~~~~~~~~~~~~~~~~~~~~5.                  OE~~~~~~~~",
"~~~~~~;                     .r~~~~~~~~~~~~~~~~~~~~&                   0~~~~~~~~~",
"~~~~~~aX                    OU~~~~~~~~~~~~~~~~~~~z+                  -~~~~~~~~~~",
"~~~~~~~3                    r~~~~~~~~~~~~~~~~~~~~2                  #c~~~~~~~~~~",
"~~~~~~~~6.                .,~~~~~~~~~~~~~~~~~~~~zX                 op~~~~~~~~~~~",
"~~~~~~~~~s$              #y~~~~~~~~~~~~~~~~~~~~L%                 +y~~~~~~~~~~~~",
"~~~~~~~~~~~1#+X       o#3z~~~~~~~~~~~~~~~~~~~~~,                 @v~~~~~~~~~~~~~",
"~~~~~~~~~~~~~~try,+:u90~~~~~~~~~~~~~~~~~~~~~~~<                .$u~~~~~~~~~~~~~~",
"~~~~~~~~~~~~~~~~~~~~~~~~~~~~~~~~~~~~~~~~~~~~~,.               %y~~~~~~~~~~~~~~~~",
"~~~~~~~~~~~~~~~~~~~~~~~~~~~~~~~~~~~~~~~~~~~r%               O$~~~~~~~~~~~~~~~~~~",
"~~~~~~~~~~~~~~~~~~~~~~~~~~~~~~~~~~~~~~~~~~0@              o;q~~~~~~~~~~~~~~~~~~~",
"~~~~~~~~~~~~~~~~~~~~~~~~~~~~~~~~~~~~~~~~~%.             X*e~~~~~~~~~~~~~~~~~~~~~",
"~~~~~~~~~~~~~~~~~~~~~~~~~~~~~~~~~~~~~~~8$             #2s~~~~~~~~~~~~~~~~~~~~~~~",
"~~~~~~~~~~~~~~~~~~~~~~~~~~~~~~~~~~~~~0$            X*3f~~~~~~~~~~~~~~~~~~~~~~~~~",
"~~~~~~~~~~~~~~~~~~~~~~~~~~~~~~~~~~~6=.          o%7u~~~~~~~~~~~~~~~~~~~~~~~~~~~~",
"~~~~~~~~~~~~~~~~~~~~~~~~~~~~~~~~p,$            OjT~~~~~~~~~~~~~~~~~~~~~~~~~~~~~~",
"~~~~~~~~~~~~~~~~~~~~~~~~~~~~~Su>o              X:1>3:$5=5f~~~~~~~~~~~~~~~~~~~~~~",
"~~~~~~~~~~~~~~~~~~~~~~~~~~~e2+.                         .XX$16z~~~~~~~~~~~~~~~~~",
"~~~~~~~~~~~~~~~~~~~~~~~~~2O.                                  +$1s~~~~~~~~~~~~~~",
"~~~~~~~~~~~~~~~~~~~~~~~~~k.   .o;;3t803*&O                       +=t~~~~~~~~~~~~",
"~~~~~~~~~~~~~~~~~~~~~~~~~~<@&3az~~~~~~~~~Vw<%.                     o=0~~~~~~~~~~",
"~~~~~~~~~~~~~~~~~~~~~~~~~~Pk~~~~~~~~~~~~~~~~~u-                      o0~~~~~~~~~",
"~~~~~~~~~~~~~~~~~~~~~~~~~~~~~~~~~~~~~~~~~~~~~~~>#                      ,D~~~~~~~",
"~~~~~~~~~~~~~~~~~~~~~~~~~~~~~~~~~~~~~~~~~~~~~~~~k&                      %b~~~~~~",
"~~~~~~~~~~~~~~~~~~~~~~~~~~~~~~~~~~~~~~~~~~~~~~~~~A-                      *~~~~~~",
"~~~~~~~~~~~~~~~~~~~~~~~~~~~~~~~~~~~~~~~~~~~~~~~~~~IO                      7~~~~~",
"~~~~~~~~~~~~~~~~~~~~~~~~~~~~~~~~~~~~~~~~~~~~~~~~~~~u                      .k~~~~",
"~~~~~~~~~~~~~~~~~~~~~~~~~~~~~~~~~~~~~~~~~~~~~~~~~~~~1                      *~~~~",
"~~~~~~~~~~~~~~~~~~~~~~~~~~~~~~~~~~~~~~~~~~~~~~~~~~~~M.                     +l~~~",
"~~~~~~~~~~~~~~~~~~~~~~~~~~~~~~~~~~~~~~~~~~~~~~~~~~~~~:                      6~~~",
"~~~~~~~~~~~~~~~~~~~~~~~~~~~~~~~~~~~~~~~~~~~~~~~~~~~~~8                      2~~~",
"~~~~~~~~~~~a1,y0t16g~~~~~~~~~~~~~~~~~~~~~~~~~~~~~~~~~r                      :Y~~",
"~~~~~~~~g2+o       o#4l~~~~~~~~~~~~~~~~~~~~~~~~~~~~~~5X                     =D~~",
"~~~~~~q=              @q~~~~~~~~~~~~~~~~~~~~~~~~~~~~~r+                     &n~~",
"~~~~~3.                 5~~~~~~~~~~~~~~~~~~~~~~~~~~~~d#                     -K~~",
"~~~E,                   .u~~~~~~~~~~~~~~~~~~~~~~~~~~~q+                     %n~~",
"~~~3                     %J~~~~~~~~~~~~~~~~~~~~~~~~~~0.                     ;~~~",
"~~jX                     Op~~~~~~~~~~~~~~~~~~~~~~~~~~w                      6~~~",
"~~1                      .&~~~~~~~~~~~~~~~~~~~~~~~~~~0                     Xq~~~",
"~L.                      o9~~~~~~~~~~~~~~~~~~~~~~~~~G-                     +C~~~",
"~x                       @v~~~~~~~~~~~~~~~~~~~~~~~~~c.                     4~~~~",
"~*                       :~~~~~~~~~~~~~~~~~~~~~~~~~~2                     oR~~~~",
"~,                      +N~~~~~~~~~~~~~~~~~~~~~~~~~F.                     i~~~~~",
"~v                     .f~~~~~~~~~~~~~~~~~~~~~~~~~~,                     >~~~~~~",
"~Go                  o;4~~~~~~~~~~~~~~~~~~~~~~~~~~h.                    %Z~~~~~~",
"~~2               .&1l~~~~~~~~~~~~~~~~~~~~~~~~~~~M@                    Oz~~~~~~~",
"~~f.            .3c~~~~~~~~~~~~~~~~~~~~~~~~~~~~~m$                    #i~~~~~~~~",
"~~K-            .0~~~~~~~~~~~~~~~~~~~~~~~~~~~~~N-                   .$k~~~~~~~~~",
"~~~xO            -L~~~~~~~~~~~~~~~~~~~~~~~~~~~m@                    &~~~~~~~~~~~",
"~~~~uX            6~~~~~~~~~~~~~~~~~~~~~~~~~~pO                   &3~~~~~~~~~~~~",
"~~~~~uX           .:y~~~~~~~~~~~~~~~~~~~~~~5@                   $4~~~~~~~~~~~~~~",
"~~~~~~9#.           +2~~~~~~~~~~~~~~~~~~~1$X                 .%w~~~~~~~~~~~~~~~~",
"~~~~~~~~0#            O>5x~~~~~~~~~~~s8>@                  O&i~~~~~~~~~~~~~~~~~~",
"~~~~~~~~~~9;o            XO&;6e9r0>#O.                  #;9p~~~~~~~~~~~~~~~~~~~~",
"~~~~~~~~~~~~7,%OX                                  X+&64b~~~~~~~~~~~~~~~~~~~~~~~",
"~~~~~~~~~~~~~~~Mi21&X...                    ...@*45qH~~~~~~~~~~~~~~~~~~~~~~~~~~~",
"~~~~~~~~~~~~~~~~~~~~~ph43>+,3-$@OX.o@%=3-%13aeh~~~~~~~~~~~~~~~~~~~~~~~~~~~~~~~~~",
"~~~~~~~~~~~~~~~~~~~~~~~~~~~~~~~~~~~~~~~~~~~~~~~~~~~~~~~~~~~~~~~~~~~~~~~~~~~~~~~~"
};
