/* XPM */
static char *result[] = {
/* columns rows colors chars-per-pixel */
"80 80 77 1 ",
"  c black",
". c #010101",
"X c #020202",
"o c gray1",
"O c #040404",
"+ c gray2",
"@ c #060606",
"# c #070707",
"$ c gray3",
"% c #090909",
"& c gray4",
"* c #0B0B0B",
"= c #0C0C0C",
"- c gray5",
"; c #0E0E0E",
": c gray6",
"> c #101010",
", c #111111",
"< c gray7",
"1 c #131313",
"2 c gray8",
"3 c #151515",
"4 c #161616",
"5 c gray9",
"6 c #181818",
"7 c gray10",
"8 c #1B1B1B",
"9 c gray11",
"0 c #1D1D1D",
"q c #1E1E1E",
"w c gray12",
"e c #202020",
"r c gray13",
"t c #222222",
"y c #232323",
"u c gray14",
"i c #252525",
"p c gray15",
"a c #272727",
"s c #282828",
"d c gray16",
"f c #2A2A2A",
"g c gray17",
"h c #2D2D2D",
"j c gray18",
"k c #2F2F2F",
"l c gray19",
"z c #313131",
"x c #323232",
"c c gray20",
"v c #343434",
"b c #353535",
"n c gray21",
"m c #373737",
"M c gray22",
"N c #393939",
"B c #3A3A3A",
"V c gray23",
"C c #3C3C3C",
"Z c #3E3E3E",
"A c #3F3F3F",
"S c gray25",
"D c #414141",
"F c gray26",
"G c #434343",
"H c #444444",
"J c gray27",
"K c #464646",
"L c gray28",
"P c #4B4B4B",
"I c #4C4C4C",
"U c gray30",
"Y c gray31",
"T c #505050",
"R c #515151",
"E c #5D5D5D",
"W c None",
/* pixels */
"WWWWWWWWWWWWWWWWWWWWWWWWWWWWWWWWWWWWWWWWWWWWWWWWWWWWWWWWWWWWWWWWWWWWWWWWWWWWWWWW",
"WWWWWWWWWWWWWWWWWWWWWWWWWWWWWWWWWWWWWWWWWWWWWk:;;;;;;;;;;;;;;;;-3bWWWWWWWWWWWWWW",
"WWWWWWWWWWWWWWWWWWWWWWWWWWWWWWWWWWWWWWWWWWWWz@                  $jWWWWWWWWWWWWWW",
"WWWWWWWWWWWWWWWWWWWWWWWWWWWWWWWWWWWWWWWWWWWn%                   %kWWWWWWWWWWWWWW",
"WWWWWWWWWWWWWWWWWWWWWWWWWWWWWWWWWWWWWWWWWWN*                    %kWWWWWWWWWWWWWW",
"WWWWWWWWWWWWWWWWWWWWWWWWWWWWWWWWWWWWWWWWWW;                     %kWWWWWWWWWWWWWW",
"WWWWWWWWWWWWWWWWWWWWWWWWWWWWWWWWWWWWWWWWW;                      %kWWWWWWWWWWWWWW",
"WWWWWWWWWWWWWWWWWWWWWWWWWWWWWWWWWWWWWWWW>                       %kWWWWWWWWWWWWWW",
"WWWWWWWWWWWWWWWWWWWWWWWWWWWWWWWWWWWWWWW,                        %kWWWWWWWWWWWWWW",
"WWWWWWWWWWWWWWWWWWWWWWWWWWWWWWWWWWWWWW5.                        %kWWWWWWWWWWWWWW",
"WWWWWWWWWWWWWWWWWWWWWWWWWWWWWWWWWWWWWwX                         %kWWWWWWWWWWWWWW",
"WWWWWWWWWWWWWWWWWWWWWWWWWWWWWWWWWWWWy.                          %kWWWWWWWWWWWWWW",
"WWWWWWWWWWWWWWWWWWWWWWWWWWWWWWWWWWWiX  =$                       %kWWWWWWWWWWWWWW",
"WWWWWWWWWWWWWWWWWWWWWWWWWWWWWWWWWWdX  ;Je.                      %kWWWWWWWWWWWWWW",
"WWWWWWWWWWWWWWWWWWWWWWWWWWWWWWWWWgO  -HW8.                      %kWWWWWWWWWWWWWW",
"WWWWWWWWWWWWWWWWWWWWWWWWWWWWWWWWj+  $NWW0.                      %kWWWWWWWWWWWWWW",
"WWWWWWWWWWWWWWWWWWWWWWWWWWWWWWWv$  $jWWW0.                      %kWWWWWWWWWWWWWW",
"WWWWWWWWWWWWWWWWWWWWWWWWWWWWWWB&  OaWWWW0.                      %kWWWWWWWWWWWWWW",
"WWWWWWWWWWWWWWWWWWWWWWWWWWWWWF%  ovWWWWW0.                      %kWWWWWWWWWWWWWW",
"WWWWWWWWWWWWWWWWWWWWWWWWWWWWK*  XzWWWWWW0.                      %hWWWWWWWWWWWWWW",
"WWWWWWWWWWWWWWWWWWWWWWWWWWWU=  .dWWWWWWW0.                      $wWWWWWWWWWWWWWW",
"WWWWWWWWWWWWWWWWWWWWWWWWWWW<  oiWWWWWWWW0.                      $8WWWWWWWWWWWWWW",
"WWWWWWWWWWWWWWWWWWWWWWWWWW4  .0WWWWWWWWW0.                      &uWWWWWWWWWWWWWW",
"WWWWWWWWWWWWWWWWWWWWWWWWW9. .3WWWWWWWWWW0.                      %jWWWWWWWWWWWWWW",
"WWWWWWWWWWWWWWWWWWWWWWWW9   ,WWWWWWWWWWW0.                      %kWWWWWWWWWWWWWW",
"WWWWWWWWWWWWWWWWWWWWWWWe   >WWWWWWWWWWWW0.                      %kWWWWWWWWWWWWWW",
"WWWWWWWWWWWWWWWWWWWWWWy.  -WWWWWWWWWWWWW0.                      %kWWWWWWWWWWWWWW",
"WWWWWWWWWWWWWWWWWWWWWpo  &mWWWWWWWWWWWWW0.                      %kWWWWWWWWWWWWWW",
"WWWWWWWWWWWWWWWWWWWWgO  -BWWWWWWWWWWWWWW0.                      %kWWWWWWWWWWWWWW",
"WWWWWWWWWWWWWWWWWWWv+  $AWWWWWWWWWWWWWWW0.                      %kWWWWWWWWWWWWWW",
"WWWWWWWWWWWWWWWWWWC@  @VWWWWWWWWWWWWWWWW0.                      %kWWWWWWWWWWWWWW",
"WWWWWWWWWWWWWWWWWZ+  obWWWWWWWWWWWWWWWWW0.                      %kWWWWWWWWWWWWWW",
"WWWWWWWWWWWWWWWWg@  ohWWWWWWWWWWWWWWWWWW0.                      %kWWWWWWWWWWWWWW",
"WWWWWWWWWWWWWWWz#  osWWWWWWWWWWWWWWWWWWW0.                      %kWWWWWWWWWWWWWW",
"WWWWWWWWWWWWWWb&  XrWWWWWWWWWWWWWWWWWWWW0.                      %kWWWWWWWWWWWWWW",
"WWWWWWWWWWWWWW-  X9WWWWWWWWWWWWWWWWWWWWW0.                      %kWWWWWWWWWWWWWW",
"WWWWWWWWWWWWW:  .5WWWWWWWWWWWWWWWWWWWWWW0.                      %kWWWWWWWWWWWWWW",
"WWWWWWWWWWWW>   ,WWWWWWWWWWWWWWWWWWWWWWW0.                      %kWWWWWWWWWWWWWW",
"WWWWWWWWWWW,   :WWWWWWWWWWWWWWWWWWWWWWWW0.                      %kWWWWWWWWWWWWWW",
"WWWWWWWWWW3.  4WWWWWWWWWWWWWWWWWWWWWWWWW0.                      %kWWWWWWWWWWWWWW",
"WWWWWWWWW7X  >TWWWWWWWWWWWWWWWWWWWWWWWWW0.                      %kWWWWWWWWWWWWWW",
"WWWWWWWWeo  -LWWWWWWWWWWWWWWWWWWWWWWWWWW0.                      %kWWWWWWWWWWWWWW",
"WWWWWWWt.  $DWWWWWWWWWWWWWWWWWWWWWWWWWWW0.                      %kWWWWWWWWWWWWWW",
"WWWWWWdX  OmWWWWWWWWWWWWWWWWWWWWWWWWWWWW0.                      %kWWWWWWWWWWWWWW",
"WWWWWgo  +lWWWWWWWWWWWWWWWWWWWWWWWWWWWWW0.                      %kWWWWWWWWWWWWWW",
"WWWWj+  ofWWWWWWWWWWWWWWWWWWWWWWWWWWWWWW0.                      %kWWWWWWWWWWWWWW",
"WWWx#  OuWWWWWWWWWWWWWWWWWWWWWWWWWWWWWWW0.                      %kWWWWWWWWWWWWWW",
"WWn$  X0WWWWWWWWWWWWWWWWWWWWWWWWWWWWWWWW0.                      %kWWWWWWWWWWWWWW",
"WB*  X8WWWWWWWWWWWWWWWWWWWWWWWWWWWWWWWWW0.                      $zWWWWWWWWWWWWWW",
"W0   .,766666666666666666666666666666667%                       X,766666666666SW",
"W9                                                                            bW",
"W9                                                                            bW",
"W9                                                                            bW",
"W9                                                                            bW",
"W9                                                                            bW",
"W9                                                                            bW",
"W9                                                                            bW",
"W9                                                                            bW",
"W9                                                                            bW",
"W9                                     Xo                       .o.           bW",
"WWWWWWWWWWWWWWWWWWWWWWWWWWWWWWWWWWWWWWWW7.                      $pWWWWWWWWWWWWWW",
"WWWWWWWWWWWWWWWWWWWWWWWWWWWWWWWWWWWWWWWW0.                      %lWWWWWWWWWWWWWW",
"WWWWWWWWWWWWWWWWWWWWWWWWWWWWWWWWWWWWWWWW0.                      %kWWWWWWWWWWWWWW",
"WWWWWWWWWWWWWWWWWWWWWWWWWWWWWWWWWWWWWWWW0.                      %kWWWWWWWWWWWWWW",
"WWWWWWWWWWWWWWWWWWWWWWWWWWWWWWWWWWWWWWWW0.                      %kWWWWWWWWWWWWWW",
"WWWWWWWWWWWWWWWWWWWWWWWWWWWWWWWWWWWWWWWW0.                      %kWWWWWWWWWWWWWW",
"WWWWWWWWWWWWWWWWWWWWWWWWWWWWWWWWWWWWWWWW0.                      %kWWWWWWWWWWWWWW",
"WWWWWWWWWWWWWWWWWWWWWWWWWWWWWWWWWWWWWWWW0.                      %kWWWWWWWWWWWWWW",
"WWWWWWWWWWWWWWWWWWWWWWWWWWWWWWWWWWWWWWWW0.                      %kWWWWWWWWWWWWWW",
"WWWWWWWWWWWWWWWWWWWWWWWWWWWWWWWWWWWWWWWW0.                      %kWWWWWWWWWWWWWW",
"WWWWWWWWWWWWWWWWWWWWWWWWWWWWWWWWWWWWWWWW0.                      %kWWWWWWWWWWWWWW",
"WWWWWWWWWWWWWWWWWWWWWWWWWWWWWWWWWWWWWWWW0.                      %kWWWWWWWWWWWWWW",
"WWWWWWWWWWWWWWWWWWWWWWWWWWWWWWWWWWWWWWWW0.                      %kWWWWWWWWWWWWWW",
"WWWWWWWWWWWWWWWWWWWWWWWWWWWWWWWWWWWWWWWW0.                      %hWWWWWWWWWWWWWW",
"WWWWWWWWWWWWWWWWWWWWWWWWWWWWWWWWWWWWWWWWq.                      +eWWWWWWWWWWWWWW",
"WWWWWWWWWWWWWWWWWWWWWWWWWWWWWWWWWERFxy1==                        %umd=rmUYWWWWWW",
"WWWWWWWWWWWWWWWWWWWWWWWWWv:=*$+X.XXX..                            ... ..XX.O$=>R",
"WWWWWWWWWWWWWWWWWWWWWWWWWd                                                    .P",
"WWWWWWWWWWWWWWWWWWWWWWWWWf              ..oOO+@#@#$%&&+ @&&%$##+OoX           XI",
"WWWWWWWWWWWWWWWWWWWWWWWWWfX#=:159ihcBGK2O&;149einmghlz7Wwczjfpt05,%&DFMhy84<-$+U"
};
