/* XPM */
static char *result[] = {
/* columns rows colors chars-per-pixel */
"80 80 88 1 ",
"  c black",
". c #010101",
"X c #020202",
"o c gray1",
"O c #040404",
"+ c gray2",
"@ c #060606",
"# c #070707",
"$ c gray3",
"% c #090909",
"& c gray4",
"* c #0B0B0B",
"= c #0C0C0C",
"- c gray5",
"; c #0E0E0E",
": c gray6",
"> c #101010",
", c #111111",
"< c gray7",
"1 c #131313",
"2 c gray8",
"3 c #151515",
"4 c #161616",
"5 c gray9",
"6 c #181818",
"7 c #191919",
"8 c gray10",
"9 c #1B1B1B",
"0 c gray11",
"q c #1D1D1D",
"w c #1E1E1E",
"e c gray12",
"r c #202020",
"t c gray13",
"y c #222222",
"u c #232323",
"i c gray14",
"p c #252525",
"a c gray15",
"s c #272727",
"d c #282828",
"f c gray16",
"g c #2A2A2A",
"h c gray17",
"j c #2C2C2C",
"k c #2D2D2D",
"l c gray18",
"z c #2F2F2F",
"x c gray19",
"c c #313131",
"v c #323232",
"b c gray20",
"n c #343434",
"m c #353535",
"M c gray21",
"N c #373737",
"B c gray22",
"V c #393939",
"C c #3A3A3A",
"Z c gray23",
"A c #3C3C3C",
"S c gray24",
"D c #3E3E3E",
"F c gray25",
"G c #414141",
"H c gray26",
"J c #434343",
"K c #444444",
"L c gray27",
"P c #464646",
"I c gray28",
"U c #484848",
"Y c #494949",
"T c gray29",
"R c #4B4B4B",
"E c gray30",
"W c gray31",
"Q c #505050",
"! c #515151",
"~ c gray33",
"^ c #585858",
"/ c #5A5A5A",
"( c gray36",
") c #5D5D5D",
"_ c #626262",
"` c #646464",
"' c DimGray",
"] c None",
/* pixels */
"]]]]]]]]]]]]]]]]]]]]]]]]]]]]]]]]]]]]]]]]]]]]]]]]]]]]]]]]]]]]]]]]]]]]]]]]]]]]]]]]",
"]]]]]]]]]]]]]]]]]]]]]]]]]]]]]]]]]]]]]]]]]]]]]]]]]]]]]]]]]]]]]]]]]]]]Ntkj]]]]]]]]",
"]]]]]]]]]]]]]]]]]]]]]]]]]]]]]]]]]]]]]]]]]]]]]]]]]]]]]]]]]]]]]]]]]]]i#  .Ol]]]]]]",
"]]]]]]]]]]]]]]]]]]]]]]]]]]]]]]]]]]]]]]]]]]]]]]]]]]]]]]]]]]]]]]]]]u$.    +M]]]]]]",
"]]]]]]]]]].+*$@;;<a3dx3j]]]]]]]]]]]]]]]]]]]]]]]]]]]]]]]]]]]]]zu:@       5]]]]]]]",
"]]]]]]]]]]            X+#+;5&=65-8lB62gSY!^`R])'`(QPz4az1<-&@.         @g]]]]]]]",
"]]]]]]]]]]                       ..X...XXXXoX XooXXX....              .6]]]]]]]]",
"]]]]]]]]]]                                                            #L]]]]]]]]",
"]]]]]]]]]]                                                           .h]]]]]]]]]",
"]]]]]]]]]]                                                           1]]]]]]]]]]",
"]]]]]]]]]]                                                          ;]]]]]]]]]]]",
"]]]]]]]]]]                                                         =S]]]]]]]]]]]",
"]]]]]]]]]]                                                        $x]]]]]]]]]]]]",
"]]]]]]]]]]                                                       *H]]]]]]]]]]]]]",
"]]]]]]]]]]                                                      %]]]]]]]]]]]]]]]",
"]]]]]]]]]]                                                   .&>]]]]]]]]]]]]]]]]",
"]]]]]]]]]]                                                  #7]]]]]]]]]]]]]]]]]]",
"]]]]]]]]]]                                               o*3]]]]]]]]]]]]]]]]]]]]",
"]]]]]]]]]]     %w:@OX                                 o%2t]]]]]]]]]]]]]]]]]]]]]]",
"]]]]]]]]]]     6]]]ip53>#ooo                    Xoo=7et]]]]]]]]]]]]]]]]]]]]]]]]]",
"]]]]]]]]]]     7]]]]]]]]]]kg58-93%:;=&%*=;@*67198c]]]]]]]]]]]]]]]]]]]]]]]]]]]]]]",
"]]]]]]]]]]     7]]]]]]]]]]]]]]]]]]]]]]]]]]]]]]]]]]]]]]]]]]]]]]]]]]]]]]]]]]]]]]]]",
"]]]]]]]]]]     7]]]]]]]]]]]]]]]]]]]]]]]]]]]]]]]]]]]]]]]]]]]]]]]]]]]]]]]]]]]]]]]]",
"]]]]]]]]]]     7]]]]]]]]]]]]]]]]]]]]]]]]]]]]]]]]]]]]]]]]]]]]]]]]]]]]]]]]]]]]]]]]",
"]]]]]]]]]]     7]]]]]]]]]]]]]]]]]]]]]]]]]]]]]]]]]]]]]]]]]]]]]]]]]]]]]]]]]]]]]]]]",
"]]]]]]]]]]     7]]]]]]]]]]]]]]]]]]]]]]]]]]]]]]]]]]]]]]]]]]]]]]]]]]]]]]]]]]]]]]]]",
"]]]]]]]]]]     7]]]]]]]]]]]]]]]]]]]]]]]]]]]]]]]]]]]]]]]]]]]]]]]]]]]]]]]]]]]]]]]]",
"]]]]]]]]]]     7]]]]]]]]]]]]]]]]]]]]]]]]]]]]]]]]]]]]]]]]]]]]]]]]]]]]]]]]]]]]]]]]",
"]]]]]]]]]]     7]]]]]]]]]]]]]]]]]]]]]]]]]]]]]]]]]]]]]]]]]]]]]]]]]]]]]]]]]]]]]]]]",
"]]]]]]]]]]     7]]]]]]]]]]]]]]]]]]]]]]]]]]]]]]]]]]]]]]]]]]]]]]]]]]]]]]]]]]]]]]]]",
"]]]]]]]]]]     7]]]]]]]]]]]]]]]]]]]]]]]]]]]]]]]]]]]]]]]]]]]]]]]]]]]]]]]]]]]]]]]]",
"]]]]]]]]]]     7]]]]]]]]]]]]]]]]]]]]]]]]]]]]]]]]]]]]]]]]]]]]]]]]]]]]]]]]]]]]]]]]",
"]]]]]]]]]]     7]]]]]]]]]]]]]]]]]]]]]]]]]]]]]]]]]]]]]]]]]]]]]]]]]]]]]]]]]]]]]]]]",
"]]]]]]]]]]     7]]]]]]]]]]]]]]]]]]]]]]]]]]]]]]]]]]]]]]]]]]]]]]]]]]]]]]]]]]]]]]]]",
"]]]]]]]]]]     7]]]]]]]]]]]]]]]]]]]nwg03t81=O.@&>w43p0]]]]]]]]]]]]]]]]]]]]]]]]]]",
"]]]]]]]]]]     7]]]]]]]]]]]]]]he<*&+X                XO*-3d]]]]]]]]]]]]]]]]]]]]]",
"]]]]]]]]]]     7]]]]]]]]]]u12@                             +=7S]]]]]]]]]]]]]]]]]",
"]]]]]]]]]]     7]]]]]]]f5+X                                   O-6]]]]]]]]]]]]]]]",
"]]]]]]]]]]     7]]]]f4#.                                        .#r]]]]]]]]]]]]]",
"]]]]]]]]]]     6]]y=o       ..+=79$,1=:4&X                         %r]]]]]]]]]]]",
"]]]]]]]]]]     %9:o      O%2ux]]]]]]]]]]]ke3&                       .:]]]]]]]]]]",
"]]]]]]]]]]            #1aa]]]]]]]]]]]]]]]]]]]a-.                      *Z]]]]]]]]",
"]]]]]]]]]]         X>7C]]]]]]]]]]]]]]]]]]]]]]]]5X                      $z]]]]]]]",
"]]]]]]]]]]7;+    +>e]]]]]]]]]]]]]]]]]]]]]]]]]]]]7-                      $Z]]]]]]",
"]]]]]]]]]]]]Dw<*<g]]]]]]]]]]]]]]]]]]]]]]]]]]]]]]]]>                      =E]]]]]",
"]]]]]]]]]]]]]]]]]]]]]]]]]]]]]]]]]]]]]]]]]]]]]]]]]]W-                      5]]]]]",
"]]]]]]]]]]]]]]]]]]]]]]]]]]]]]]]]]]]]]]]]]]]]]]]]]]]TO                     Xv]]]]",
"]]]]]]]]]]]]]]]]]]]]]]]]]]]]]]]]]]]]]]]]]]]]]]]]]]]]s                      =]]]]",
"]]]]]]]]]]]]]]]]]]]]]]]]]]]]]]]]]]]]]]]]]]]]]]]]]]]]_&                     oa]]]",
"]]]]]]]]]]]]]]]]]]]]]]]]]]]]]]]]]]]]]]]]]]]]]]]]]]]]]j                      5]]]",
"]]]]]]]]]]]]]]]]]]]]]]]]]]]]]]]]]]]]]]]]]]]]]]]]]]]]]Co                     ;]]]",
"]]]]]]]]]]]]]]]]]]]]]]]]]]]]]]]]]]]]]]]]]]]]]]]]]]]]]],                     +v]]",
"]]]]]]]]]]]]]]]]]]]]]]]]]]]]]]]]]]]]]]]]]]]]]]]]]]]]]]9                     .k]]",
"]]]]]]]]]]]]]]]]]]]]]]]]]]]]]]]]]]]]]]]]]]]]]]]]]]]]]]x                      Z]]",
"]]]]]]]]]]]]Gn5#7N]]]]]]]]]]]]]]]]]]]]]]]]]]]]]]]]]]]]8.                     l]]",
"]]]]]]]]M81#X     O&1z]]]]]]]]]]]]]]]]]]]]]]]]]]]]]]]]qo                     f]]",
"]]]]]]l:O            X-M]]]]]]]]]]]]]]]]]]]]]]]]]]]]]]uo                     B]]",
"]]]]]3+                +0]]]]]]]]]]]]]]]]]]]]]]]]]]]]]0o                     s]]",
"]]]]:                   +k]]]]]]]]]]]]]]]]]]]]]]]]]]]]1.                    Xw]]",
"]]]<                     2]]]]]]]]]]]]]]]]]]]]]]]]]]]]j                     &c]]",
"]]0                       D]]]]]]]]]]]]]]]]]]]]]]]]]]]0                     4]]]",
"]U@                       5]]]]]]]]]]]]]]]]]]]]]]]]]]]3                    X9]]]",
"]k                        6]]]]]]]]]]]]]]]]]]]]]]]]]]Mo                    &I]]]",
"]3                        D]]]]]]]]]]]]]]]]]]]]]]]]]]c                    .t]]]]",
"]4                       ;]]]]]]]]]]]]]]]]]]]]]]]]]]];                    &]]]]]",
"]5                      Xy]]]]]]]]]]]]]]]]]]]]]]]]]]J.                   .V]]]]]",
"]9                     ow]]]]]]]]]]]]]]]]]]]]]]]]]]]-                   .u]]]]]]",
"]b                   .:a]]]]]]]]]]]]]]]]]]]]]]]]]]]e.                  Xq]]]]]]]",
"]Fo               O$2a]]]]]]]]]]]]]]]]]]]]]]]]]]]]N+                  .1]]]]]]]]",
"]]9              wm]]]]]]]]]]]]]]]]]]]]]]]]]]]]]]K-                  .2]]]]]]]]]",
"]]V#             v]]]]]]]]]]]]]]]]]]]]]]]]]]]]]]k=                  -j]]]]]]]]]]",
"]]]do            &/]]]]]]]]]]]]]]]]]]]]]]]]]]]]k@                 .6~]]]]]]]]]]]",
"]]]]eX            -A]]]]]]]]]]]]]]]]]]]]]]]]]]4O                 -r]]]]]]]]]]]]]",
"]]]]]4O            %4]]]]]]]]]]]]]]]]]]]]]]]5+                .-7]]]]]]]]]]]]]]]",
"]]]]]]0,O           .-4i]]]]]]]]]]]]]]]]]h=O                X-s]]]]]]]]]]]]]]]]]",
"]]]]]]]]p>o            X&6288nUPIECqr58$O.               o%ru]]]]]]]]]]]]]]]]]]]",
"]]]]]]]]]]kt&X             .o@%$$%#o.                .o=4q]]]]]]]]]]]]]]]]]]]]]]",
"]]]]]]]]]]]]]y12%X.                             ..+<8ak]]]]]]]]]]]]]]]]]]]]]]]]]",
"]]]]]]]]]]]]]]]]]ga7*&-#OX               .oO=%,1ik]]]]]]]]]]]]]]]]]]]]]]]]]]]]]]",
"]]]]]]]]]]]]]]]]]]]]]]]]Dp6Vcu3=$oo%,7tBg7xq]]]]]]]]]]]]]]]]]]]]]]]]]]]]]]]]]]]]"
};
