/* XPM */
static char *result[] = {
/* columns rows colors chars-per-pixel */
"80 80 83 1 ",
"  c black",
". c #010101",
"X c #020202",
"o c gray1",
"O c #040404",
"+ c gray2",
"@ c #060606",
"# c #070707",
"$ c gray3",
"% c #090909",
"& c gray4",
"* c #0B0B0B",
"= c #0C0C0C",
"- c gray5",
"; c #0E0E0E",
": c gray6",
"> c #101010",
", c #111111",
"< c gray7",
"1 c #131313",
"2 c gray8",
"3 c #151515",
"4 c #161616",
"5 c gray9",
"6 c #181818",
"7 c #191919",
"8 c gray10",
"9 c #1B1B1B",
"0 c gray11",
"q c #1D1D1D",
"w c #1E1E1E",
"e c gray12",
"r c #202020",
"t c gray13",
"y c #222222",
"u c #232323",
"i c gray14",
"p c #252525",
"a c gray15",
"s c #272727",
"d c #282828",
"f c gray16",
"g c #2A2A2A",
"h c gray17",
"j c #2C2C2C",
"k c #2D2D2D",
"l c gray18",
"z c #2F2F2F",
"x c gray19",
"c c #313131",
"v c #323232",
"b c gray20",
"n c #343434",
"m c #353535",
"M c gray21",
"N c #373737",
"B c gray22",
"V c #393939",
"C c #3A3A3A",
"Z c gray23",
"A c #3C3C3C",
"S c gray24",
"D c #3E3E3E",
"F c #3F3F3F",
"G c gray25",
"H c #414141",
"J c gray26",
"K c #434343",
"L c #444444",
"P c gray27",
"I c #464646",
"U c gray28",
"Y c #484848",
"T c #494949",
"R c gray29",
"E c #4B4B4B",
"W c gray30",
"Q c #4E4E4E",
"! c #515151",
"~ c gray33",
"^ c gray34",
"/ c gray50",
"( c None",
/* pixels */
"(((((((((((((((((((((((((((((((((((((((((((((TIMvVK(((((((((((((((((((((((((((((",
"((((((((((((((((((((((((((((((((((((Sdq:,-:@o$$@@@$@$>&<ey((((((((((((((((((((((",
"((((((((((((((((((((((((((((((((k44&O..                 ..O:,r((((((((((((((((((",
"(((((((((((((((((((((((((((((l8&O                            X#1p(((((((((((((((",
"((((((((((((((((((((((((((m8%o          .X&23$,2&6;+            X*5(((((((((((((",
"((((((((((((((((((((((((h-O           +=dj(((((((((DqO             *x(((((((((((",
"((((((((((((((((((((((k,o          .@9((((((((((((((((-X            o<((((((((((",
"(((((((((((((((((((((4O            =V((((((((((((((((((q.            .,G((((((((",
"(((((((((((((((((((7%            O8(((((((((((((((((((((<              =Q(((((((",
"((((((((((((((((((*.            +f((((((((((((((((((((((zO              ;(((((((",
"(((((((((((((((((&.            +g(((((((((((((((((((((((jO              Xt((((((",
"(((((((((((((((g;             Xu((((((((((((((((((((((2,o                3((((((",
"((((((((((((((V#              :((((((((((((((((((((((9.                  .h(((((",
"(((((((((((((H=              OE(((((((((((((((((((((ho                    y(((((",
"((((((((((((I-               w(((((((((((((((((((((V#                     0(((((",
"((((((((((((;               OR(((((((((((((((((((((t                      4(((((",
"(((((((((((6                w((((((((((((((((((((((;                      6(((((",
"((((((((((so               Ov(((((((((((((((((((((!=                      8(((((",
"(((((((((P*                <(((((((((((((((((((((((=                     Xj(((((",
"(((((((((6                 5(((((((((((((((((((((((7                     :((((((",
"((((((((S.                +f(((((((((((((((((((((((nO                   Ok((((((",
"((((((((-                 &(((((((((((((((((((((((((y                  op(((((((",
"(((((((p.                 >((((((((((((((((((((((((((4.               O2((((((((",
"(((((((:                 .e(((((((((((((((((((((((((((4&.           %6((((((((((",
"((((((uo                 XF(((((((((((((((((((((((((((((y<@+o..O++2uJ(((((((((((",
"((((((4                  oL((((((((((((((((((((((((((((((((Jd-:xA(((((((((((((((",
"(((((NO                  #((((((((((((((((((((((((((((((((((((((((((((((((((((((",
"(((((k                   4((((((((((((((((((((((((((((((((((((((((((((((((((((((",
"(((((,                   s((((((((((((((((((((((((((((((((((((((((((((((((((((((",
"((((Io                   u((((((((((((((((((((((((((((((((((((((((((((((((((((((",
"((((l                    Y((((((((((((((((((((((((((((((((((((((((((((((((((((((",
"((((,                   XB((((((((((((((((((((((((((((((((((((((((((((((((((((((",
"((((+                   $z((((((((((((((((((((((((((((((((((((((((((((((((((((((",
"(((T+                   ;^((((((((((((((((((((((((((((((((((((((((((((((((((((((",
"(((tX                   =((((((((((((((((d2it,&oo%,yl3dN((((((((((((((((((((((((",
"(((5                    ,(((((((((((de:&#O.          .O#&-2iz(((((((((((((((((((",
"(((*                    y((((((((6:$                        O=8B((((((((((((((((",
"((/,                    x(((((k<@.                             X-9((((((((((((((",
"((W=                    f((((<@                                   +0((((((((((((",
"((V#                    &((s#         .@*=*#X.                      #0((((((((((",
"((L#                    7(wX      X#<el(((((Np,%.                    .@(((((((((",
"((v+                    :;      O;0(((((((((((((7*                     Xu(((((((",
"((sO                          o2c(((((((((((((((((=X                    #h((((((",
"((9o                         %r((((((((((((((((((((0@                    +f(((((",
"((:.                        =l((((((((((((((((((((((g+                    +K((((",
"((O.                       *(((((((((((((((((((((((((r.                    >((((",
"((@.                      $G((((((((((((((((((((((((((-                    .r(((",
"((:X                      y(((((((((((((((((((((((((((no                    -W((",
"((7o                     1(((((((((((((((((((((((((((((4                    .s((",
"((fO                     G(((((((((((((((((((((((((((((pX                    7((",
"((Y#                    =((((((((((((((((((((((((((((((F;                    +n(",
"((Z@                    t(((((((((((((((((((((((((((((((2                     v(",
"((T*                    g(((((((((((((((((((((((((((((((8                     g(",
"(((,                   Xa(((((((((((((((((((((((((((((((io                    7(",
"(((2                   %a(((((((((((((((((((((((((((((((P#                    -(",
"(((y.                  =M(((((((((((((((((((((((((((((((qo                    o(",
"(((SO                  &j((((((((((((((((((((((((((((((((O                    %(",
"((((+                  #0((((((((((((((((((((((((((((((((@                    4(",
"((((5                  Xe((((((((((((((((((((((((((((((((+                    p(",
"((((m                   l((((((((((((((((((((((((((((((((X                    d(",
"(((((*                  w(((((((((((((((((((((((((((((((G@                   .F(",
"(((((k                  r(((((((((((((((((((((((((((((((l+                   :((",
"(((((K$                 -(((((((((((((((((((((((((((((((8.                   r((",
"((((((q                 .b((((((((((((((((((((((((((((((<                   @n((",
"((((((I%                 r((((((((((((((((((((((((((((((;                   1(((",
"(((((((pX                @(((((((((((((((((((((((((((((zo                  @H(((",
"((((((((;                .d((((((((((((((((((((((((((((r                   h((((",
"((((((((J-                &~((((((((((((((((((((((((((U#                  <(((((",
"(((((((((m@               .8((((((((((((((((((((((((((7                  :((((((",
"((((((((((f#               +p((((((((((((((((((((((((ZX                 :(((((((",
"(((((((((((s#               @z((((((((((((((((((((((I&                 ;((((((((",
"((((((((((((m%               @z(((((((((((((((((((((*                .O(((((((((",
"((((((((((((((3X              $j((((((((((((((((((Y:               .%4((((((((((",
"(((((((((((((((h=.             .3j(((((((((((((((a$               $4((((((((((((",
"(((((((((((((((((r@              @1j(((((((((((6%               %7((((((((((((((",
"(((((((((((((((((((q&o             X-7,hbnce6=+              O*i((((((((((((((((",
"(((((((((((((((((((((j3+o              oOOO.             .+%9g((((((((((((((((((",
"((((((((((((((((((((((((u3:#..                       .O=>8m(((((((((((((((((((((",
"((((((((((((((((((((((((((((sq6=>$$+X        .+%@:,<6z((((((((((((((((((((((((((",
"((((((((((((((((((((((((((((((((((Dh-8ICjgnDYyfY(((((((((((((((((((((((((((((((("
};
