/* XPM */
static char *result[] = {
/* columns rows colors chars-per-pixel */
"80 80 86 1 ",
"  c black",
". c #010101",
"X c #020202",
"o c gray1",
"O c #040404",
"+ c gray2",
"@ c #060606",
"# c #070707",
"$ c gray3",
"% c #090909",
"& c gray4",
"* c #0B0B0B",
"= c #0C0C0C",
"- c gray5",
"; c #0E0E0E",
": c gray6",
"> c #101010",
", c #111111",
"< c gray7",
"1 c #131313",
"2 c gray8",
"3 c #151515",
"4 c #161616",
"5 c gray9",
"6 c #181818",
"7 c #191919",
"8 c gray10",
"9 c #1B1B1B",
"0 c gray11",
"q c #1D1D1D",
"w c #1E1E1E",
"e c gray12",
"r c #202020",
"t c gray13",
"y c #222222",
"u c #232323",
"i c gray14",
"p c #252525",
"a c gray15",
"s c #272727",
"d c #282828",
"f c gray16",
"g c #2A2A2A",
"h c gray17",
"j c #2C2C2C",
"k c #2D2D2D",
"l c gray18",
"z c #2F2F2F",
"x c gray19",
"c c #313131",
"v c #323232",
"b c gray20",
"n c #343434",
"m c #353535",
"M c gray21",
"N c #373737",
"B c gray22",
"V c #393939",
"C c #3A3A3A",
"Z c gray23",
"A c #3C3C3C",
"S c gray24",
"D c #3E3E3E",
"F c #3F3F3F",
"G c #414141",
"H c gray26",
"J c #434343",
"K c #444444",
"L c gray28",
"P c gray29",
"I c #4B4B4B",
"U c #4C4C4C",
"Y c gray30",
"T c #4E4E4E",
"R c #505050",
"E c #515151",
"W c gray32",
"Q c #535353",
"! c #585858",
"~ c #5D5D5D",
"^ c gray39",
"/ c #686868",
"( c #6A6A6A",
") c gray44",
"_ c #838383",
"` c None",
/* pixels */
"`````````````````````````````YBAH```````````````````````````````````````````````",
"``````````````````````w63>:+@%@#$@-2=;yd````````````````````````````````````````",
"``q#   *S`````````h7;+.                .o=<j````````````````````````````````````",
"``J.   ;T```````e*o                        o#4d``````````````````````````i#+++&`",
"``T    -T````B:O                              .&r````````````````````````&    q`",
"``n    O````:@                                   +:f````````````````````do    j`",
"``7    #``u+                                       X1d`````````````````v#     T`",
"``h    -!d&                                          o&q``````````````a*     @T`",
"``x    +6#                                             .%<q`````````p1.      ,``",
"``e                                                       .#36<qpy:*o        k``",
"``:                                                            ...          +Z``",
"``$                                                                         8```",
"`/#                                                                        Xx```",
"`G+                                                                        4````",
"`tX                                                                       Of````",
"`L                                                              .+$5%     1`````",
"`R              XooX                                        o@$9g``L%    @A`````",
"`v         O;0e:3ye2ad32&+OoX                        .XO@=9w9``````4    .9``````",
"`6        1C``````````````bfp9612$++oX..  .XXo+O&3,618qN``````````p.    ;```````",
"`0      $a`````````````````````````Wzr5-o@>0pN```````````````````xO    @U```````",
"`w     +a```````````````````````````````````````````````````````j#    .m````````",
"`<    .0```````````````````````````````````````````````````````l#    .0`````````",
"`$    #E``````````````````````````````````````````````````````s$     q``````````",
"(X    -``````````````````````````````````````````````````````t+    .1```````````",
")X   .s`````````````````````````````````````````````````````q.     =T```````````",
"K.   .n````````````````````````````````````````````````````6.     *K````````````",
"p$###%Q``````````````````````````````````````````````````G=      *P`````````````",
"`llllz``````````````````````````````````````````````````i:      &H``````````````",
"```````````````````````````````````````````````````````0.      =D```````````````",
"`````````````````````````````````````````````````````L3       *Z````````````````",
"````````````````````````````````````````````````````<o       *A`````````````````",
"```````````````````````````````````````````````````2o       &D``````````````````",
"`````````````````````````````````````````````````B;.       &H```````````````````",
"````````````````````````````````````````````````f#        @G````````````````````",
"```````````````````````````````````````````````#.        #V`````````````````````",
"`````````````````````````````````````````````6O         +x``````````````````````",
"````````````````````````````````````````````5o         +d```````````````````````",
"``````````````````````````````````````````H:          +d````````````````````````",
"`````````````````````````````````````````=+          Xe`````````````````````````",
"```````````````````````````````````````J;.           ,``````````````````````````",
"``````````````````````````````````````w%            #L``````````````````````````",
"`````````````````````````````````````9X            Xv```````````````````````````",
"````````````````````````````````````>o             r````````````````````````````",
"``````````````````````````````````K*              4`````````````````````````````",
"`````````````````````````````````ao              XF`````````````````````````````",
"````````````````````````````````wO               q``````````````````````````````",
"```````````````````````````````0o               Ov``````````````````````````````",
"``````````````````````````````1.                6```````````````````````````````",
"`````````````````````````````,                 +k```````````````````````````````",
"```````````````````````````G:                  ;````````````````````````````````",
"``````````````````````````B&                  X8````````````````````````````````",
"`````````````````````````M*                   Ox````````````````````````````````",
"````````````````````````M&                    %~````````````````````````````````",
"```````````````````````R>                     #`````````````````````````````````",
"```````````````````````8                      -`````````````````````````````````",
"``````````````````````r                       ,`````````````````````````````````",
"`````````````````````z.                      .4`````````````````````````````````",
"````````````````````K@                       Xz`````````````````````````````````",
"````````````````````2                        oF`````````````````````````````````",
"```````````````````gX                        oI`````````````````````````````````",
"```````````````````*                         XC`````````````````````````````````",
"``````````````````pO                          @`````````````````````````````````",
"``````````````````5                           -`````````````````````````````````",
"`````````````````S-                          .2`````````````````````````````````",
"`````````````````eo                          .0`````````````````````````````````",
"`````````````````y                           Xj`````````````````````````````````",
"`````````````````2                           XK`````````````````````````````````",
"`````````````````@                           o^`````````````````````````````````",
"`````````````````&                           O_`````````````````````````````````",
"`````````````````q                           #``````````````````````````````````",
"`````````````````s.                          w``````````````````````````````````",
"`````````````````z%                          G``````````````````````````````````",
"``````````````````3                         ;```````````````````````````````````",
"``````````````````F#                       .k```````````````````````````````````",
"```````````````````go                      r````````````````````````````````````",
"````````````````````i@                   X3`````````````````````````````````````",
"`````````````````````v5o               .%v``````````````````````````````````````",
"```````````````````````l;O.         .o-i````````````````````````````````````````",
"``````````````````````````n2*&1<36-90c``````````````````````````````````````````",
"````````````````````````````````````````````````````````````````````````````````"
};
