/* XPM */
static char *result[] = {
/* columns rows colors chars-per-pixel */
"80 80 81 1 ",
"  c black",
". c #010101",
"X c #020202",
"o c gray1",
"O c #040404",
"+ c gray2",
"@ c #060606",
"# c #070707",
"$ c gray3",
"% c #090909",
"& c gray4",
"* c #0B0B0B",
"= c #0C0C0C",
"- c gray5",
"; c #0E0E0E",
": c gray6",
"> c #101010",
", c #111111",
"< c gray7",
"1 c #131313",
"2 c gray8",
"3 c #151515",
"4 c #161616",
"5 c gray9",
"6 c #181818",
"7 c #191919",
"8 c gray10",
"9 c #1B1B1B",
"0 c gray11",
"q c #1D1D1D",
"w c #1E1E1E",
"e c gray12",
"r c #202020",
"t c gray13",
"y c #222222",
"u c #232323",
"i c gray14",
"p c #252525",
"a c gray15",
"s c #272727",
"d c #282828",
"f c gray16",
"g c #2A2A2A",
"h c gray17",
"j c #2C2C2C",
"k c #2D2D2D",
"l c gray18",
"z c #2F2F2F",
"x c gray19",
"c c #313131",
"v c #323232",
"b c gray20",
"n c #343434",
"m c #353535",
"M c gray21",
"N c #373737",
"B c gray22",
"V c #393939",
"C c #3A3A3A",
"Z c gray23",
"A c #3C3C3C",
"S c gray24",
"D c #3E3E3E",
"F c #3F3F3F",
"G c gray25",
"H c #414141",
"J c gray26",
"K c #434343",
"L c #444444",
"P c #464646",
"I c gray28",
"U c #484848",
"Y c #494949",
"T c gray29",
"R c #4C4C4C",
"E c #4E4E4E",
"W c #505050",
"Q c #535353",
"! c #555555",
"~ c gray36",
"^ c None",
/* pixels */
"^^^^^^^^^^^^^^^^^^^^^^^^^^^^^^^^^^^^^^^^^^^^^^^^^^^^^^^^^^^^^^^^^^^^^^^^^^^^^^^^",
"^^^^^^^^^^^^^^^^^^^^^^^^^^^^^^vqe-,>$;,;=*=;>$#<>19fv^^^^^^^^^^^^^^^^^^^^^^^^^^^",
"^^^^^^^^^^^^^^^^^^^^^^^^^lq,=oX.                   .X@20a^^^^^^^^^^^^^^^^^^^^^^^",
"^^^^^^^^^^^^^^^^^^^^^le>+o              ...             XO=0p^^^^^^^^^^^^^^^^^^^",
"^^^^^^^^^^^^^^^^^^^3%+           .o#38a;<8;=a9:&O.          X$u^^^^^^^^^^^^^^^^^",
"^^^^^^^^^^^^^^^^m7#            $>iD^^^^^^^^^^^^^^d9-o         .%a^^^^^^^^^^^^^^^",
"^^^^^^^^^^^^^^b2+           o;y^^^^^^^^^^^^^^^^^^^^^mt+         .$x^^^^^^^^^^^^^",
"^^^^^^^^^^^^^y@            .5^^^^^^^^^^^^^^^^^^^^^^^^^k,+         Oy^^^^^^^^^^^^",
"^^^^^^^^^^^C<.           .$^^^^^^^^^^^^^^^^^^^^^^^^^^^^^c@          -L^^^^^^^^^^",
"^^^^^^^^^^g=            .p^^^^^^^^^^^^^^^^^^^^^^^^^^^^^^^x&          >W^^^^^^^^^",
"^^^^^^^^^m+            .y^^^^^^^^^^^^^^^^^^^^^^^^^^^^^^^^^Y+          <^^^^^^^^^",
"^^^^^^^^Z@             ,^^^^^^^^^^^^^^^^^^^^^^^^^^^^^^^^^^^k.         .q^^^^^^^^",
"^^^^^^^T*             Op^^^^^^^^^^^^^^^^^^^^^^^^^^^^^^^^^^^^4          &H^^^^^^^",
"^^^^^^^7              *U^^^^^^^^^^^^^^^^^^^^^^^^^^^^^^^^^^^^f.          p^^^^^^^",
"^^^^^^VO              -^^^^^^^^^^^^^^^^^^^^^^^^^^^^^^^^^^^^^L-          2^^^^^^^",
"^^^^^^9               1^^^^^^^^^^^^^^^^^^^^^^^^^^^^^^^^^^^^^^<          @z^^^^^^",
"^^^^^Go               <^^^^^^^^^^^^^^^^^^^^^^^^^^^^^^^^^^^^^^<          X5^^^^^^",
"^^^^^m                ;^^^^^^^^^^^^^^^^^^^^^^^^^^^^^^^^^^^^^^e          .#^^^^^^",
"^^^^^4                $b^^^^^^^^^^^^^^^^^^^^^^^^^^^^^^^^^^^^^s          oq^^^^^^",
"^^^^^&                 7^^^^^^^^^^^^^^^^^^^^^^^^^^^^^^^^^^^^^q          #G^^^^^^",
"^^^^^+                 $L^^^^^^^^^^^^^^^^^^^^^^^^^^^^^^^^^^^^>          *^^^^^^^",
"^^^^^X                  1^^^^^^^^^^^^^^^^^^^^^^^^^^^^^^^^^^^^2          6^^^^^^^",
"^^^^^O                   >^^^^^^^^^^^^^^^^^^^^^^^^^^^^^^^^^^K;         Ol^^^^^^^",
"^^^^^&                    =b^^^^^^^^^^^^^^^^^^^^^^^^^^^^^^^^pX         -^^^^^^^^",
"^^^^^;                     &r^^^^^^^^^^^^^^^^^^^^^^^^^^^^^^^q         ob^^^^^^^^",
"^^^^^0                      .>f^^^^^^^^^^^^^^^^^^^^^^^^^^^^cO         e^^^^^^^^^",
"^^^^^B                        X4f^^^^^^^^^^^^^^^^^^^^^^^^^^5         &^^^^^^^^^^",
"^^^^^E#                         X:7^^^^^^^^^^^^^^^^^^^^^^^h.        :D^^^^^^^^^^",
"^^^^^^p                           .#6A^^^^^^^^^^^^^^^^^^^Z+        &n^^^^^^^^^^^",
"^^^^^^D*                             o>eC^^^^^^^^^^^^^^^S&        &^^^^^^^^^^^^^",
"^^^^^^^w.                               O:1f^^^^^^^^^^^x*       @k^^^^^^^^^^^^^^",
"^^^^^^^^>                                  O*5s^^^^^^^po      o=s^^^^^^^^^^^^^^^",
"^^^^^^^^K*                                    O=3e^^^5X      =f^^^^^^^^^^^^^^^^^",
"^^^^^^^^^n*                                      X=;o     X;0^^^^^^^^^^^^^^^^^^^",
"^^^^^^^^^^F*.                                           .:d^^^^^^^^^^^^^^^^^^^^^",
"^^^^^^^^^^^^>                                           .4M^^^^^^^^^^^^^^^^^^^^^",
"^^^^^^^^^^^^^,$                                           .%0^^^^^^^^^^^^^^^^^^^",
"^^^^^^^^^^^^^^^4+                                           .#5^^^^^^^^^^^^^^^^^",
"^^^^^^^^^^^^^^^^^6+.                                           o2h^^^^^^^^^^^^^^",
"^^^^^^^^^^^^^^^^^^n4%.                                           o9^^^^^^^^^^^^^",
"^^^^^^^^^^^^^^^^^^^^b$                                             #y^^^^^^^^^^^",
"^^^^^^^^^^^^^^^^^^k0#.                                               ;c^^^^^^^^^",
"^^^^^^^^^^^^^^^^5%X      .<:@.                                        $h^^^^^^^^",
"^^^^^^^^^^^^^g8#        ,u^^^a;%                                       Oy^^^^^^^",
"^^^^^^^^^^^^8o        #2^^^^^^^^k3#o                                     e^^^^^^",
"^^^^^^^^^^r=         *y^^^^^^^^^^^^uq&O.                                 .t^^^^^",
"^^^^^^^^c+X         ,^^^^^^^^^^^^^^^^^Bw-+                                XB^^^^",
"^^^^^^^2@         .7^^^^^^^^^^^^^^^^^^^^^By&@                              *!^^^",
"^^^^^^to          1^^^^^^^^^^^^^^^^^^^^^^^^^Zw%.                           .q^^^",
"^^^^^tX          $R^^^^^^^^^^^^^^^^^^^^^^^^^^^^q1X                          -Y^^",
"^^^^d.          .x^^^^^^^^^^^^^^^^^^^^^^^^^^^^^^^e=+                         j^^",
"^^^N@           >^^^^^^^^^^^^^^^^^^^^^^^^^^^^^^^^^^9*                        0^^",
"^^^:            m^^^^^^^^^^^^^^^^^^^^^^^^^^^^^^^^^^^^uo                      $I^",
"^^y.           -^^^^^^^^^^^^^^^^^^^^^^^^^^^^^^^^^^^^^^s+                     Xx^",
"^J%            r^^^^^^^^^^^^^^^^^^^^^^^^^^^^^^^^^^^^^^^z$                     P^",
"^n            Xu^^^^^^^^^^^^^^^^^^^^^^^^^^^^^^^^^^^^^^^^k+                    C^",
"^4            +Z^^^^^^^^^^^^^^^^^^^^^^^^^^^^^^^^^^^^^^^^^q.                   m^",
"QO            @g^^^^^^^^^^^^^^^^^^^^^^^^^^^^^^^^^^^^^^^^^~@                   Y^",
"D.            =^^^^^^^^^^^^^^^^^^^^^^^^^^^^^^^^^^^^^^^^^^^y                   V^",
"5             ;^^^^^^^^^^^^^^^^^^^^^^^^^^^^^^^^^^^^^^^^^^^I                  od^",
"*             %^^^^^^^^^^^^^^^^^^^^^^^^^^^^^^^^^^^^^^^^^^^^$                 &^^",
"g.            @Z^^^^^^^^^^^^^^^^^^^^^^^^^^^^^^^^^^^^^^^^^^^<                 y^^",
"Q.            .b^^^^^^^^^^^^^^^^^^^^^^^^^^^^^^^^^^^^^^^^^^^6                .h^^",
"^%             a^^^^^^^^^^^^^^^^^^^^^^^^^^^^^^^^^^^^^^^^^^^5                >Y^^",
"^9             *^^^^^^^^^^^^^^^^^^^^^^^^^^^^^^^^^^^^^^^^^^^;               .q^^^",
"^vX             x^^^^^^^^^^^^^^^^^^^^^^^^^^^^^^^^^^^^^^^^^W.               *Q^^^",
"^^2             %^^^^^^^^^^^^^^^^^^^^^^^^^^^^^^^^^^^^^^^^^j               Xa^^^^",
"^^Z$             t^^^^^^^^^^^^^^^^^^^^^^^^^^^^^^^^^^^^^^^^$               r^^^^^",
"^^^e             ol^^^^^^^^^^^^^^^^^^^^^^^^^^^^^^^^^^^^^^e.              6^^^^^^",
"^^^^7             $x^^^^^^^^^^^^^^^^^^^^^^^^^^^^^^^^^^^^aO             .4^^^^^^^",
"^^^^^7             Oi^^^^^^^^^^^^^^^^^^^^^^^^^^^^^^^^^^7o             .$^^^^^^^^",
"^^^^^^8@            oq^^^^^^^^^^^^^^^^^^^^^^^^^^^^^^^^0o             =N^^^^^^^^^",
"^^^^^^^k+             $i^^^^^^^^^^^^^^^^^^^^^^^^^^^^7$             O&V^^^^^^^^^^",
"^^^^^^^^^5+            .-i^^^^^^^^^^^^^^^^^^^^^^^^w-X            X-j^^^^^^^^^^^^",
"^^^^^^^^^^g4@             @;ww^^^^^^^^^^^^^^^^s0*#             o*i^^^^^^^^^^^^^^",
"^^^^^^^^^^^^^5&o             .*:<<f35aj5,h90:*X             X&qN^^^^^^^^^^^^^^^^",
"^^^^^^^^^^^^^^^hq&o               ..XoOX..              .O&6a^^^^^^^^^^^^^^^^^^^",
"^^^^^^^^^^^^^^^^^^a86%X.                           ..@=3pc^^^^^^^^^^^^^^^^^^^^^^",
"^^^^^^^^^^^^^^^^^^^^^^jh6-*=&ooX          .Xoo&==>4fh^^^^^^^^^^^^^^^^^^^^^^^^^^^",
"^^^^^^^^^^^^^^^^^^^^^^^^^^^^^tmw5NCcggxMFb,iSi^^^^^^^^^^^^^^^^^^^^^^^^^^^^^^^^^^"
};
