/* XPM */
static char *result[] = {
/* columns rows colors chars-per-pixel */
"80 80 89 1 ",
"  c black",
". c #010101",
"X c #020202",
"o c gray1",
"O c #040404",
"+ c gray2",
"@ c #060606",
"# c #070707",
"$ c gray3",
"% c #090909",
"& c gray4",
"* c #0B0B0B",
"= c #0C0C0C",
"- c gray5",
"; c #0E0E0E",
": c gray6",
"> c #101010",
", c #111111",
"< c gray7",
"1 c #131313",
"2 c gray8",
"3 c #151515",
"4 c #161616",
"5 c gray9",
"6 c #181818",
"7 c #191919",
"8 c gray10",
"9 c #1B1B1B",
"0 c gray11",
"q c #1D1D1D",
"w c #1E1E1E",
"e c gray12",
"r c #202020",
"t c gray13",
"y c #222222",
"u c #232323",
"i c gray14",
"p c #252525",
"a c gray15",
"s c #272727",
"d c #282828",
"f c gray16",
"g c #2A2A2A",
"h c gray17",
"j c #2D2D2D",
"k c gray18",
"l c #2F2F2F",
"z c gray19",
"x c #313131",
"c c #323232",
"v c gray20",
"b c #343434",
"n c gray21",
"m c #373737",
"M c gray22",
"N c #393939",
"B c #3A3A3A",
"V c gray23",
"C c #3C3C3C",
"Z c gray24",
"A c #3E3E3E",
"S c #3F3F3F",
"D c gray25",
"F c #414141",
"G c gray26",
"H c #434343",
"J c #444444",
"K c gray27",
"L c #464646",
"P c #484848",
"I c #494949",
"U c gray29",
"Y c #4B4B4B",
"T c #4C4C4C",
"R c gray30",
"E c gray31",
"W c #515151",
"Q c gray32",
"! c #535353",
"~ c gray33",
"^ c gray34",
"/ c #5D5D5D",
"( c gray37",
") c #5F5F5F",
"_ c gray40",
"` c #6A6A6A",
"' c gray44",
"] c gray48",
"[ c None",
/* pixels */
"[[[[[[[[[[[[[[[[[[[[[[[[[[[[[[[[[[[[[[[[[[[[[[[[[[[[[[[[[[[[[[[[[[[[[[[[[[[[[[[[",
"[[[[[[[[[[[[[[[[[[[[[[[[[[[bur>>#,>%@o.X@%=1,-65fl[[[[[[[[[[[[[[[[[[[[[[[[[[[[[[",
"[[[[[[[[[[[[[[[[[[[[[[vr7:@...                  ..O:9im[[[[[[[[[[[[[[[[[[[[[[[[[",
"[[[[[[[[[[[[[[[[[[[s2#+.                              +%ej[[[[[[[[[[[[[[[[[[[[[[",
"[[[[[[[[[[[[[[[[i=@.             X+::*1;#:%X             X=0[[[[[[[[[[[[[[[[[[[[",
"[[[[[[[[[[[[[[6*X              *rk[[[[[[[[[8>$              +3Z[[[[[[[[[[[[[[[[[",
"[[[[[[[[[[[[8#.              X9[[[[[[[[[[[[[[[8o              +q[[[[[[[[[[[[[[[[",
"[[[[[[[[[[f$.               -[[[[[[[[[[[[[[[[[[C$              .$2[[[[[[[[[[[[[[",
"[[[[[[[[[<.               .9[[[[[[[[[[[[[[[[[[[[x#               X2[[[[[[[[[[[[[",
"[[[[[[[B=                 >[[[[[[[[[[[[[[[[[[[[[[m+               .2[[[[[[[[[[[[",
"[[[[[[x#                 &[[[[[[[[[[[[[[[[[[[[[[[[v                .1[[[[[[[[[[[",
"[[[[[d#                 .b[[[[[[[[[[[[[[[[[[[[[[[[[9                 ;[[[[[[[[[[",
"[[[[S+                  2[[[[[[[[[[[[[[[[[[[[[[[[[[xO                 1[[[[[[[[[",
"[[[[-                   h[[[[[[[[[[[[[[[[[[[[[[[[[[[:                 .q[[[[[[[[",
"[[[9.                  =M[[[[[[[[[[[[[[[[[[[[[[[[[[[dO                 op[[[[[[[",
"[[B%                   5[[[[[[[[[[[[[[[[[[[[[[[[[[[[)&                  :Y[[[[[[",
"[[t                   X5[[[[[[[[[[[[[[[[[[[[[[[[[[[[[1                   y[[[[[[",
"[C&                   Of[[[[[[[[[[[[[[[[[[[[[[[[[[[[[cX                  Om[[[[[",
"[n                    $z[[[[[[[[[[[[[[[[[[[[[[[[[[[[[EO                   7[[[[[",
"[9                    ;~[[[[[[[[[[[[[[[[[[[[[[[[[[[[[[&                   oH[[[[",
"[&                    1`[[[[[[[[[[[[[[[[[[[[[[[[[[[[[[e                   .q[[[[",
"JX                    2][[[[[[[[[[[[[[[[[[[[[[[[[[[[[[s                    =[[[[",
"_.                    1'[[[[[[[[[[[[[[[[[[[[[[[[[[[[[[C                    #C[[[",
"P.                    >/[[[[[[[[[[[[[[[[[[[[[[[[[[[[[[W                    .7[[[",
"K.                    -P[[[[[[[[[[[[[[[[[[[[[[[[[[[[[[[$                    2[[[",
"(.                    $z[[[[[[[[[[[[[[[[[[[[[[[[[[[[[[[-                    >A[[",
"^X                    +j[[[[[[[[[[[[[[[[[[[[[[[[[[[[[[[-                    Os[[",
"[$                    Xq[[[[[[[[[[[[[[[[[[[[[[[[[[[[[[[;                    .s[[",
"[<                     t[[[[[[[[[[[[[[[[[[[[[[[[[[[[[[[%                     l[[",
"[k                     ,H[[[[[[[[[[[[[[[[[[[[[[[[[[[[[m                      9[[",
"[Bo                    .s[[[[[[[[[[[[[[[[[[[[[[[[[[[[[g                      ;[[",
"[[w                     q[[[[[[[[[[[[[[[[[[[[[[[[[[[[[;                      >[[",
"[[NO                    oF[[[[[[[[[[[[[[[[[[[[[[[[[[[g.                      &v[",
"[[[5                     3[[[[[[[[[[[[[[[[[[[[[[[[[[!%                       $i[",
"[[[Z#                    .d[[[[[[[[[[[[[[[[[[[[[[[[[3.                       +6[",
"[[[[mO                    Oj[[[[[[[[[[[[[[[[[[[[[[[5                         X&[",
"[[[[[ao                    X<[[[[[[[[[[[[[[[[[[[[y@.                          o[",
"[[[[[[s+                    X;g[[[[[[[[[[[[[[[[h5+    o@.                    X*[",
"[[[[[[[F,                     X&e[[[[[[[[[[[[s,+     $j4.                    +4[",
"[[[[[[[[[3O                     .+<90jisr>:*X.      %j[[                     #y[",
"[[[[[[[[[[g-O                                     +t[[[pX                    %j[",
"[[[[[[[[[[[[f3&                                 @4b[[[[EX                    -S[",
"[[[[[[[[[[[[[[[g;$o                         .#*7[[[[[[[TX                    <[[",
"[[[[[[[[[[[[[[[[[[dr<%ooX.            XXO#;5y[[[[[[[[[[LX                    ;[[",
"[[[[[[[[[[[[[[[[[[[[[[[zy72e<=#oX#=<03wim[[[[[[[[[[[[[[NX                    e[[",
"[[[[[[[[[[[[[[[[[[[[[[[[[[[[[[[[[[[[[[[[[[[[[[[[[[[[[[[j.                    z[[",
"[[[[[[[[[[[[[[[[[[[[[[[[[[[[[[[[[[[[[[[[[[[[[[[[[[[[[[[9.                   .t[[",
"[[[[[[[[[[[[[[[[[[[[[[[[[[[[[[[[[[[[[[[[[[[[[[[[[[[[[[[t                    oc[[",
"[[[[[[[[[[[[[[[[[[[[[[[[[[[[[[[[[[[[[[[[[[[[[[[[[[[[[[[m                    -N[[",
"[[[[[[[[[[[[[[[[[[[[[[[[[[[[[[[[[[[[[[[[[[[[[[[[[[[[[[[i                    2[[[",
"[[[[[[[[[[[[[[[[[[[[[[[[[[[[[[[[[[[[[[[[[[[[[[[[[[[[[[[,                    1[[[",
"[[[[[[[[[[[[[[[[[[[[[[[[[[[[[[[[[[[[[[[[[[[[[[[[[[[[[[[,                   ow[[[",
"[[[[[[[[[[[[[[[[[[[[[[[[[[[[[[[[[[[[[[[[[[[[[[[[[[[[[[[#                   $D[[[",
"[[[[[[[[[[[[[[[[[[[[[[[[[[[[[[[[[[[[[[[[[[[[[[[[[[[[[[I                    -[[[[",
"[[[[[[[[[[[[[[[[[[[[[[[[[[[[[[[[[[[[[[[[[[[[[[[[[[[[[[b                   .w[[[[",
"[[[[[[[[[j6>%O@+##;3s[[[[[[[[[[[[[[[[[[[[[[[[[[[[[[[[[a                   XR[[[[",
"[[[[[[[w=o          X%y[[[[[[[[[[[[[[[[[[[[[[[[[[[[[[[%                   1[[[[[",
"[[[[[y&               .<U[[[[[[[[[[[[[[[[[[[[[[[[[[[[^o                   Z[[[[[",
"[[[[wX                  >P[[[[[[[[[[[[[[[[[[[[[[[[[[[MX                  &[[[[[[",
"[[[pX                    5[[[[[[[[[[[[[[[[[[[[[[[[[[[<                  .h[[[[[[",
"[[v$                     XP[[[[[[[[[[[[[[[[[[[[[[[[[!$                  ,[[[[[[[",
"[[r                      .p[[[[[[[[[[[[[[[[[[[[[[[[[pO                 ou[[[[[[[",
"[[*                       =[[[[[[[[[[[[[[[[[[[[[[[[[1                  <[[[[[[[[",
"[H                       Xv[[[[[[[[[[[[[[[[[[[[[[[[N#                 @L[[[[[[[[",
"[H                       oQ[[[[[[[[[[[[[[[[[[[[[[[[t                  k[[[[[[[[[",
"[R                       7[[[[[[[[[[[[[[[[[[[[[[[[nO                 q[[[[[[[[[[",
"[GO                     =Y[[[[[[[[[[[[[[[[[[[[[[[[4                .3[[[[[[[[[[[",
"[[1                    *V[[[[[[[[[[[[[[[[[[[[[[[[i                 ;[[[[[[[[[[[[",
"[[r                  O6[[[[[[[[[[[[[[[[[[[[[[[[[v+                ;Z[[[[[[[[[[[[",
"[[j#               #9f[[[[[[[[[[[[[[[[[[[[[[[[[[&               .,[[[[[[[[[[[[[[",
"[[[9.              r[[[[[[[[[[[[[[[[[[[[[[[[[[[,.               >[[[[[[[[[[[[[[[",
"[[[[>              %v[[[[[[[[[[[[[[[[[[[[[[[[[@               o#[[[[[[[[[[[[[[[[",
"[[[[I$              ;[[[[[[[[[[[[[[[[[[[[[[[v*              .=q[[[[[[[[[[[[[[[[[",
"[[[[[C-              $u[[[[[[[[[[[[[[[[[[[D1o              #q[[[[[[[[[[[[[[[[[[[",
"[[[[[[[1O             o<z[[[[[[[[[[[[[[[Z7#              $9[[[[[[[[[[[[[[[[[[[[[",
"[[[[[[[[m-O             .&;0y[[[[[[[hq:=X             .%0[[[[[[[[[[[[[[[[[[[[[[[",
"[[[[[[[[[[l-+.             .ooO@$$+ooX             .@4q[[[[[[[[[[[[[[[[[[[[[[[[[",
"[[[[[[[[[[[[B6;#.                              .X*30[[[[[[[[[[[[[[[[[[[[[[[[[[[[",
"[[[[[[[[[[[[[[[[p4>*@X                    .o*=2rf[[[[[[[[[[[[[[[[[[[[[[[[[[[[[[[",
"[[[[[[[[[[[[[[[[[[[[bhlt23*o        o$14td9t[[[[[[[[[[[[[[[[[[[[[[[[[[[[[[[[[[[["
};
