/* XPM */
static char *b6ab46606a5d43b3fe251eab36a77a3evHO0MKbUEsorA3Ih[] = {
/* columns rows colors chars-per-pixel */
"80 80 230 2 ",
"   c None",
".  c #0B0804",
"X  c #170A04",
"o  c #190F04",
"O  c #180A07",
"+  c #18110A",
"@  c #191311",
"#  c #210605",
"$  c #270906",
"%  c #330503",
"&  c #3D0A04",
"*  c #3D0D0B",
"=  c #360A08",
"-  c #2B1E07",
";  c #281C06",
":  c #311714",
">  c #342305",
",  c #342509",
"<  c #3A2707",
"1  c #2B2415",
"2  c #352914",
"3  c #333634",
"4  c #2E2F2D",
"5  c #460B04",
"6  c #5A0E08",
"7  c #5A0D05",
"8  c #591009",
"9  c #4D1610",
"0  c #65160C",
"q  c #6F140C",
"w  c #75160A",
"e  c #671912",
"r  c #6B1B12",
"t  c #741C14",
"y  c #7B1E12",
"u  c #690E04",
"i  c #492D02",
"p  c #4A340C",
"a  c #45310B",
"s  c #553C0D",
"d  c #583906",
"f  c #503B13",
"g  c #6D2218",
"h  c #423835",
"j  c #523C3A",
"k  c #6D3631",
"l  c #7B510B",
"z  c #7B5514",
"x  c #775317",
"c  c #67440E",
"v  c #53472D",
"b  c #734D37",
"n  c #6A5020",
"m  c #575246",
"M  c #5C5C56",
"N  c #65564F",
"B  c #5C636E",
"V  c #666968",
"C  c #706E68",
"Z  c #63635C",
"A  c #87190C",
"S  c #811C10",
"D  c #8E2417",
"F  c #8E2519",
"G  c #97271A",
"H  c #982618",
"J  c #A32C1D",
"K  c #AA2D1E",
"L  c #A62616",
"P  c #B42D1C",
"I  c #B42817",
"U  c #B6301F",
"Y  c #91352A",
"T  c #A73324",
"R  c #AB3527",
"E  c #B53323",
"W  c #B83121",
"Q  c #B83C2D",
"!  c #B6392A",
"~  c #B83E30",
"^  c #A4372A",
"/  c #C03322",
"(  c #87560A",
")  c #885E17",
"_  c #875C13",
"`  c #955F0C",
"'  c #8B6019",
"]  c #976718",
"[  c #95600F",
"{  c #B97D1E",
"}  c #B57717",
"|  c #A77019",
" . c #BB4334",
".. c #BC4739",
"X. c #BD4A3C",
"o. c #B44437",
"O. c #AC4337",
"+. c #8E6B2F",
"@. c #B27C26",
"#. c #C0642B",
"$. c #BF4F42",
"%. c #B14C40",
"&. c #BD5347",
"*. c #A7584F",
"=. c #8C754B",
"-. c #907566",
";. c #AA726D",
":. c #8A4F49",
">. c #C05144",
",. c #C2574A",
"<. c #C4594D",
"1. c #C45D51",
"2. c #CA645A",
"3. c #C76559",
"4. c #C96E64",
"5. c #CC726A",
"6. c #CC7369",
"7. c #CF7D76",
"8. c #D07D73",
"9. c #D17F79",
"0. c #BC8326",
"q. c #C6831C",
"w. c #DC911F",
"e. c #D38B1C",
"r. c #E8991F",
"t. c #E6961B",
"y. c #F09E1F",
"u. c #C48421",
"i. c #C88927",
"p. c #DC9424",
"a. c #D99429",
"s. c #DD9A32",
"d. c #CE902E",
"f. c #EA9D24",
"g. c #EB9F29",
"h. c #E49926",
"j. c #F19F21",
"k. c #E39E32",
"l. c #EEA126",
"z. c #ECA12C",
"x. c #F2A225",
"c. c #F1A228",
"v. c #F9A729",
"b. c #EAA233",
"n. c #EBA539",
"m. c #F3A936",
"M. c #B58C4C",
"N. c #918571",
"B. c #A8926C",
"V. c #C49851",
"C. c #DAA44E",
"Z. c #EDAC46",
"A. c #EEB254",
"S. c #EFB55B",
"D. c #EFB85E",
"F. c #F1B554",
"G. c #F4BA5D",
"H. c #EAAF52",
"J. c #D3847A",
"K. c #D4897F",
"L. c #D48277",
"P. c #CFA96B",
"I. c #EBB86A",
"U. c #F3C478",
"Y. c #F8C064",
"T. c #97928B",
"R. c #A49891",
"E. c #A7A095",
"W. c #9BA1A7",
"Q. c #A1A7AB",
"!. c #D48A82",
"~. c #D98E84",
"^. c #DC9289",
"/. c #D99288",
"(. c #DB9B93",
"). c #D89C97",
"_. c #C8908C",
"`. c #DEA39C",
"'. c #D1B38D",
"]. c #E2A79E",
"[. c #E9BB9F",
"{. c #DFA8A1",
"}. c #CDB6B4",
"|. c #E2ABA4",
" X c #E0ABA9",
".X c #E3A7A3",
"XX c #E4B1AB",
"oX c #EBBCA5",
"OX c #E6BAB5",
"+X c #E7BCB8",
"@X c #F4C982",
"#X c #FBCE84",
"$X c #F3C888",
"%X c #FDD38D",
"&X c #F1C995",
"*X c #CFC6B5",
"=X c #F9DBA6",
"-X c #F7D9A9",
";X c #F7DBB6",
":X c #E9C8AA",
">X c #FAE1B2",
",X c #FBE5BB",
"<X c #D7C9C3",
"1X c #CDD1D6",
"2X c #CFD0D1",
"3X c #ECCBC6",
"4X c #EDCDCA",
"5X c #EAC5C1",
"6X c #F0CFCB",
"7X c #EBD5CB",
"8X c #F0D6D3",
"9X c #F1D8D6",
"0X c #F4DEDB",
"qX c #EDD9CC",
"wX c #FEECCC",
"eX c #F5E1DD",
"rX c #FCEFD8",
"tX c #FEEED4",
"yX c #FDF1DB",
"uX c #EEE3D2",
"iX c #FAEEE7",
"pX c #F7E8E6",
"aX c #FCF1E5",
"sX c #FEF6EB",
"dX c #FBF3F2",
"fX c #FCF8F7",
"gX c #FCF8F7",
"hX c white",
"jX c #FFFFFF",
"kX c #E3E6EA",
/* pixels */
"                                                  hXhXhXhXhXhXhXhXhXhXhXhXhXhXhXjXjXjXjXhXhXhXhXhXhXhXhXhXhXhX                                                  ",
"                                                  fXfXfXfXfXfXfXfXfXfXfXfXfXfXfXfXfXfXfXfXfXfXfXfXfXfXfXfXfXfX                                                  ",
"                                                0X8X6X6X4X3X3X3X3X3X3X3X3X3X3X3X5X3X3X3X3X5X3X3X3X3X3X3X6X8X8X0X                                                ",
"                                  hXhXhXhXhXhXpX3XXX`./.!.K.!.K.!.K.K.K.K.K.K.!.!.!.!.!.!.K.!.!.!.!.!.!./.(.XX3XpXhXhXhXhXhXhX                                  ",
"                              hXjXjXjXhXhXhXdX8XXX~.4.<.$.X.$.$.$.&.&.$.$.$.>.>.$.&.$.&.>.>.>.>.$.X.X.$.<.4.!.OX9XdXhXhXhXhXhXhXhX                              ",
"                              pXpXeX0X0X0X0X8XOX).6.$.! E !  .X.$.$.$.$.&.$.>.>.$.$.$.$.>.>.>.$...~ ! E ! >.6.^.OX8X0X0X0X0XeXeXpX                              ",
"                          pX6X:XXX{.`.`.).).(.K.4.$.! U E ..1.5.9.!.!.!.!.!.!.!.!.!.!.!.!.!.!.J.5.1...E P Q &.4.K.(.`.).`.`.{.XX+X8XpX                          ",
"                      jXjXeX+X).8.2.3.<.1.3.1.&. .! E E ..3.!.{.5X4X4X3X4X4X4X3X4X3X3X4X4X3X4X5X X!.3.X.! P !  .&.<.1.1.1.3.3.7.).+X0XjXhX                      ",
"                    dXpXeX3X{.9.1.~ ! ! Q ~ .. .~ ~  .X.2.L..X;XpXiXiXiXaXaXiXaXaXaXaXiXaXaXaXeX3X].J.2.>.~ ~ ~  ... .Q ! !  .,.L..X5XpXdXiX                    ",
"                  8X3X+XXX).9.1. .U U Q $.3.4.5.5.5.5.8.K.(.oX&X;X,X,X,X,X,X,X,X,X,X,X,X,X,X,X;X-X&X(.K.8.5.5.4.6.4.3.$.Q E E  .1.8.(.XX+X3X8X                  ",
"            hXdX0X:X{.!.8.3.>.Q W E / <.7.(. XOXOXOX+X+X:X[.&X[.U.U.I.U.U.U.U.U.U.U.U.U.U.I.U.U.$X[.[.oXOX+XOXOXOX X(.7.<. .P E ~ >.2.8.!.`.:X9XdXhX            ",
"          hXhXdX8XXX!.4...Q E U ! ..1.8.`.5XeXpXpXpXiXeX;X=XU.G.Z.n.b.b.n.n.n.n.n.n.n.n.b.b.n.Z.S.I.=XqXeXpXpXpXpXeX5X`.7.<. .E P W ! X.3.!.OX9XdXhXhX          ",
"          hXhXfX0XXXJ.,.! E !  .,.2.L.(.oX;XwXtXwXtXwXwX>X%XI.Z.z.r.r.y.r.x.f.r.f.f.f.r.r.r.r.c.Z.G.%X>XwXtXtXwXtXwX;XoX(.8.2.,. .! W Q &.J.XX9XfXhXhX          ",
"          hXhXgX0X X9.,.Q ~ ,.5.^.].[.&X&X&X%X%X%X%X%X%XU.G.F.m.x.y.r.x.x.y.x.l.y.y.x.l.y.y.y.z.m.F.Y.U.%X%X%X%X%X%X&X&X&XoX].^.5.>.~ ~ &.J.XX0XgXhXhX          ",
"          hXhXdX8X{.8.,.o.$.4.^.+X8X6X-X$XI.A.Z.Z.Z.Z.Z.Z.n.b.g.f.f.f.f.f.f.g.f.f.f.f.f.l.f.f.l.g.b.m.Z.Z.Z.Z.Z.Z.H.I.$X-XwX6X+X(.4.&. .,.L.{.9XdXhXhX          ",
"          pXeX8X+X^.5.>. .&.5._.}.3X*X'.P.V.i.q.{ q.q.u.u.u.u.u.u.u.u.u.q.u.u.u.u.u.u.u.q.u.u.u.u.u.u.i.i.{ e.{ { { V.P.'.*X<X}./.;.&. .>.4.^.OX8X0XpX          ",
"      eX3XOX|.(.K.6.<...Q O.*.-.N.T.N.-.C ' z z l l l l l l z z z x z z z z z x z z z x z z x x z z z l l l l l l x b =.N.N.T.N.-.*.O.Q  .<.5.K.(.|.OX3XeX      ",
"hXhXdX9XOX(.7.3.,.X./ Q R ^ Y k j 3 3 3 2 2 , > > > > > > , , , , , , , , , , , , , , , , , , , , , > > > > > > > > 2 2 2 3 3 m k Y Y E Q ~ ..,.2.8.^.OX9XdXhXhX",
"hXhXdX8XXXK.1. .U P P U K G y 9 : # O O X X o X X O O O O O X X X X X O X O O O O X X X X X X X X X O X O O O O O X O O O O @ : 9 y G K W U P W  .1.!. X8XdXhXhX",
"hXhXdX8XXXL.,.E I I I I L H S 0 5 5 % % % % % % % % % % % = % = * = * = = = = = = = = = * = * * & = = % % % % % % % % % % % % 5 0 y H L I I I I E ,.J.XX8XdXhXhX",
"hXhXdX8X XJ.,.! I I I I L L H A w w q w 0 q q q q q q q q t t t t y t t t r t r t r t r t t y t t t q q q q q q q q q q q q w w A H L I I L I I ! ,.J.XX8XdXhXhX",
"hXhXdX9XXXJ.<.! P P I E ! E E R R T T R T T T T T T R T T T J J J G J T J K K J J T J J J J J J J J T T R ^ R K R T T R K T K R R E E E E P I P Q <.J.XX8XdXhXhX",
"hXhXdX9X XL.<. .! Q ..,.1.3.3.3.2.2.2.2.2.2.2.2.2.2.3.3.&.%.^ G G H G K K W W W W W W E J H G G Y ^ %.&.1.2.2.4.2.2.2.2.2.2.2.2.1.3.3.3.,... .! ~ <.J.|.9XdXhXhX",
"hXhXdXqX XL.,. . .,.4.!.(.`..X`..X.X.X.X.X|.|.|..X.X].`._.;.:.k g e t D K P / / / W E J F t e r k :.;.!.`. X.X.X.X.X.X.X|..X.X.X].].].(.K.4.&... .<.L. X8XdXhXhX",
"hXhXdX8X|.L.&...X.3.(.OXqXpX0XeX0XeX0XeXeXeX0XeXeX0XeX7X}.T.Z h : = 8 t G K U W / W K H w 9 = : h N R.Q.qXeXeXeXpX0XeXeXeX0XeX0XeXeXeXqX+X/.2.$...&.L.|.6XdXhXhX",
"hXhXdX8X{.8.,...<.L.{.qXsXgXgXsXaXyXiXyXiXrXyXyXaXyXaXuX*XN.M 4 @ O & 0 D K W / / W K D 0 & X @ 4 M T.*XuXaXyXaXiXrXrXrXiXrXyXsXsXgXgXgX8X|.8.,...&.L.|.8XdXhXhX",
"hXjXdX8X|.L.,...&.9.{.eXgXgXsXwX,X=X=X=X=X=X=X=X=X=X=X:X'.N.m 1 . X & 0 F K W / / W K F 0 = X X 1 m N.'.&X>X=X=X=X=X=X-X=X=X-X,XwXyXgXdX0X XL.,...,.7.{.8XdXjXhX",
"hXjXdX8X].8.,...<.J.{.9XsXaXwX=X@XI.S.F.D.D.D.G.Y.G.D.H.M.+.v 1 O O * 0 F K W / / E K F 0 * # O , v +.M.H.D.G.G.G.G.D.S.A.G.I.@X=XwXsXdX8X X7.,...,.7.{.8XdXjXjX",
"hXhXdX8X{.8.,...&.J. X9XdXrX>X$XS.n.z.f.f.g.z.z.z.m.z.a.0.' s - O O * e F K W / / W K F e * # X - s ' 0.a.c.m.c.z.g.z.f.f.g.n.S.#X,XrXiX8X}.L.<...,.L.`.8XdXjXjX",
"hXhXdX8X|.8.,...&.9.{.8XpXrX>X@XA.z.t.t.t.f.r.r.y.y.f.w.{ ) s - O # * e F K W / / W K F e 5 O X - s _ } w.f.x.y.f.f.r.t.t.r.g.A.U.>XrXiX8X{.7.,...,.L.|.8XdXjXjX",
"hXhXdX8X|.7.,...<.7.{.8XiXrX;XU.A.g.h.t.t.r.h.f.l.x.l.w.{ _ s - X # * e G K W W / W T F e * # X - s ) { w.f.x.f.f.h.r.t.t.r.k.A.U.>XrXiX8X X7.&...,.L.{.8XdXhXhX",
"hXhXdX6X|.7.,...,.9.{.0XiXrX>X@XA.z.f.r.f.f.f.f.x.x.l.p.{ ) s ; X # * e F K W / / W K F e * # X - s ) { p.z.x.x.l.f.f.h.r.f.z.A.@X;XrXiX8X XL.,...&.L.{.8XdXhXhX",
"jXjXdX8X|.8.,...,.8. X8XiXrX>X@XA.b.f.r.h.h.p.l.x.l.z.p.0.' s - O # * e F K W / / W K F e * # O - s ) { p.g.c.g.g.f.f.r.r.h.b.A.@X;XrXaX8X{.9.&.X.,.7.|.8XiXhXhX",
"jXjXdX8X|.8.,...,.9. X8XiXrX>X@XA.b.f.r.r.l.l.l.c.l.z.p.0.' s - X O * e F T W / / W K F e * O X - s ) { p.f.c.c.g.g.f.f.r.f.b.A.@X>XrXiX0X{.9.1...,.7.|.8XdXhXhX",
"jXjXdX8X|.8.,...,.9.}.8XiXrX>X@XA.b.f.t.r.l.l.z.l.c.l.w.0.l s - X # 5 e F K W / / W K F e * # X - s ) { p.g.c.c.f.f.f.h.r.f.k.F.@X>XrXiX8X X9.&. .,.7.|.8XdXjXjX",
"hXjXdX8X|.8.,...,.7.{.9XiXrX>XU.A.b.f.r.f.h.p.l.c.c.f.w.0._ s - X # * e F K W / / E K F e * # @ - s ) { h.g.c.g.g.g.f.f.r.f.k.F.@X>XrXiX8X{.9.&...,.7.|.8XdXjXjX",
"hXhXdX8X|.8.,...,.7. X8XiXrX>X@XA.b.h.r.r.l.l.l.l.c.l.p.0.( s - X # * e F K E / / W K F e * # X - s ) { h.g.c.c.f.f.f.h.r.f.k.F.@X;XrXiX8X X7.,...,.L.{.8XdXjXjX",
"hXhXdX8X|.8.,...,.7. X8XiXrX>X@XA.b.f.r.h.h.h.l.c.c.l.a.0._ s - X # * e F K W / / W K F e 5 O O - s ' @.a.g.c.c.g.f.f.f.r.f.k.F.@X>XrXaX8X X7.,...,.L.|.8XdXjXjX",
"hXhXdX8X X8.,.X.<.7. X8XiXrX>X@XA.b.f.t.t.l.l.l.c.c.l.p.0.z s - X # * e F K W / / W K F e * # o - s ) { p.g.c.c.g.f.f.t.f.f.b.F.@X>XrXpX8X X7.,...,.L.|.8XdXjXjX",
"hXgXdX8X.X8.,.o.,.7. X8XiXrX;X@XA.b.f.r.l.p.l.l.l.c.l.a.0.' s - X # * e F K W / / W K F e * O X - s ) { p.g.c.c.f.f.f.f.r.j.k.A.@X;XrXdX9X{.9.<...,.8.`.8XdXjXjX",
"hXhXdX8X].7.,. .&.9.{.9XdXrX>X@XA.b.f.r.r.f.h.l.l.c.z.p.0.z s - X # 5 r F K W / / W K F e * # X - s ) { h.g.c.c.g.g.f.f.r.f.k.A.@X>XrXiX9X{.7.,...,.7.|.8XdXhXhX",
"hXhXdX8X|.7.,...<.9. X9XpXrX>X@XA.b.f.r.f.f.h.l.c.c.l.p.0.' s - X O * e F K W / / W K F e * # O - s ) { p.g.c.j.g.f.f.h.r.f.k.A.@X>XrXpX8X}.7.,...,.8.|.8XdXhXhX",
"hXhXdX8X|.8.,...&.9. X8XiXrX;X@XA.b.f.h.h.f.g.l.c.c.l.p.0._ s - O # * e F K W / / W K F e * # O - f ) { p.g.g.c.g.g.f.f.r.f.b.F.@X>XrXiX8X X8.,...,.8. X8XdXhXhX",
"hXhXdX8X|.8.,...&.9. X8XiXrX>X@XA.b.f.t.f.f.h.l.c.c.z.p.0.l s > O O * e F K W / / E K F e 5 O o - s ) { p.g.v.c.g.h.f.h.r.j.k.A.@X>XrXiX8X X7.,...,.7.{.6XdXhXhX",
"hXhXdX8X|.8.,...<.9.{.8XiXrX>X@XF.b.f.r.r.f.f.f.l.c.l.p.0._ s - O O * e F K W / / W K F e * # O - s ) { p.g.g.g.g.f.f.f.r.f.k.F.@X>XrXiX0X{.L.<...,.8.].8XdXhXhX",
"hXhXdX8X|.8.,...&.7.{.0XiXrX>X@XA.b.f.r.f.f.f.z.c.x.l.p.0.' s - o # * e F K W / / W K F e * O X - s ) { p.g.c.c.g.f.f.f.r.f.k.A.U.>XrXiX8X{.7.,...,.L.|.8XdXhXhX",
"hXhXdX8X].8.,...1.9.{.8XiXrX>X@XA.z.l.r.r.l.z.l.x.x.y.w.q.l s - O # * e F K W / / W K F e * # X - s ) { w.j.v.j.g.g.j.f.f.j.b.F.@X>XrXpX8X{.7.&...,.8.{.6XdXjXjX",
"hXhXfXqX{.8.,...&.J.{.8XiXrX;X@XA.b.f.r.l.l.z.l.x.x.l.e.q.z s - X # * e F T W / / W K F e * # X - s ) { p.j.j.v.x.g.j.f.f.j.k.A.@X;XrXdX0X XL.,...&.L.{.8XdXjXjX",
"hXhXdX8X{.L.&...,.L. X9XdXrX>X@XA.k.f.t.w.w.a.a.z.b.b.s.0.' f 1 X # * e F K W / / W K F e 5 O O - c ' 0.b.n.b.k.s.a.w.w.w.r.b.A.@X>XrXiX8X X7.,...,.7.|.8XdXjXjX",
"hXhXdX8X{.L.,...&.7.{.8XpXyX>X@XF.k.w.{ } | ] 0.0.P.P.I.V.N.v 2 O # * e F K W / / W K F e * # O 1 v =.P.P.D.C.0.@.| | } q.w.b.A.#X>XrXiX8X X9.,...,.7.|.8XdXjXjX",
"jXjXdX8X|.L.,...,.7.{.8XaXyX,X@XF.k.q.| ( d n b N.B.'.:XE.B.M 4 + O & 0 F K W / / W K D e = # + 4 m N.'.*X'.P.=.b n c ( | q.s.F.#X>XyXiX8X X7.,. .,.8.|.8XdXhXhX",
"jXjXdX8X`.8.,...<.L.{.0XaXtX>X#XF.k.} ( d i : h C E.*XuX*XE.Z 3 + # & 0 D K W / / W K D 0 & # O 3 B T.2XqX<XW.C 3 1 > d ( 0.s.F.#X>XyXaX8X X7.<...,.7.|.8XdXhXhX",
"jXjXdX8X].7.,...&.9.{.8XiXrX>X#XF.s.} ( i + @ 4 V W.1XkX1XQ.V 3 @ # & 0 D K U / / W K D 0 5 X @ 3 V Q.1XkX1XW.B 4 @ ; i ( } s.F.#X>XyXaX0X{.9.,...,.8.`.qXfXhXhX",
"jXjXdX8X].8.,...1.J.{.9XiXyX>X#XA.s.} ( i @ . 4 B W.1XkX1XQ.V 3 @ # & 0 D K W / / W K D 0 & # + 3 V Q.1XkX1XW.B 4 X o i l } s.F.#X>XtXaX8X{.9.,...,.L.|.8XdXhXhX",
"jXjXdX8X|.7.,...&.9.{.9XaXyX>X#XF.k.{ ( i ; @ 3 B E.2XkX1XW.V 3 O # & 0 D K W / / W K D 0 & # @ 3 V W.2XkX2XW.V 3 @ ; i ( } s.F.#X>XrXpX8X{.7.&...,.8.|.8XdXhXhX",
"jXjXdX8X{.L.,...&.9.XX8XaXyX>X#XF.g.{ ` d a 2 v C E.*XqX*XR.Z 3 + X 5 0 D K W / / E K D 0 5 X @ 3 Z T.*XuX*XE.C v 1 i c ` q.s.F.%X>XrXdX9X X9.,...,.8.|.8XsXhXhX",
"hXhXdX8X|.8.,...1.7. X8XdXrX>X#XA.k.e.} ` l x +.=.P.'.&XP.N.m 2 O # * e F K U W / W K F e & # O 2 m N.P.$X'.B.M.b x l ` } q.b.A.#X>XyXaX8X X7.,...,.L.|.8XdXhXhX",
"hXhXdX8X|.8.,...,.7. X9XpXrX>X@XA.b.p.e.{ { { 0.d.C.H.C.V.+.v 1 O # * e F K W / / W K F e * O O 2 v +.M.C.C.H.d.0.0.0.q.e.w.b.A.U.>XrXaX8X X9.,...&.8.|.8XdXhXhX",
"hXhXdX8X].L.,...,.7.{.8XiXrX;X@XA.b.h.r.r.h.h.h.l.c.z.a.0.' s - O # 5 e G K W / / W K F e * # X - f ' 0.a.b.l.z.b.h.p.t.t.p.b.A.@X;XyXiX8X X9.,...,.7.{.8XdXhXhX",
"hXhXfXqX`.7.,...,.7. X8XiXrX>X@XA.b.f.r.f.x.x.x.x.v.f.p.} ) s - X O * e F K W / / W K F e * # X - s _ { w.l.x.v.c.c.c.l.y.l.b.A.@X>XrXiX8X X7.,...,.L.{.6XdXhXhX",
"hXhXdX8X|.8.,...&.7.{.8XiXrX>X@XA.b.f.f.f.l.z.l.x.x.l.w.} ) s - O O * e F K E W / W K F e * # X - s ' { p.f.x.x.l.l.l.l.r.l.b.H.@X;XrXiX0X{.L.,...,.L.`.6XdXhXhX",
"hXhXdX8X X8.,...&.J. X8XaXrX;X@XA.z.f.r.h.f.f.g.c.c.z.p.0.) s ; O # * e F K W / / W K F e 5 O X - s ) { p.l.x.c.l.h.f.f.r.l.b.A.@X>XrXaX8X{.7.,...,.L.|.8XdXhXhX",
"jXjXdX8X X8.,...1.9.{.0XiXrX>X@XA.b.f.r.r.f.f.g.z.x.l.p.{ ) s - O # * e G K W / / W T F e * # X ; s ) 0.p.z.l.l.l.f.h.r.t.h.b.H.@X>XrXiX8X}.7.&.X.&.L.`.8XdXjXjX",
"jXjXdX8X{.9.,...&.9.{.8XiXrX>X@XA.b.h.r.f.f.f.z.x.x.z.p.{ ' s ; X # * e F K W / / W K F e * # X - s _ { p.z.l.l.z.f.l.r.r.l.b.A.@X;XrXiX8X.XL.,.X.&.L.|.8XdXjXjX",
"jXjXdX6X|.8.,. .<.9. X8XpXpX>X@XA.b.f.r.r.f.f.l.l.z.z.p.0.' s ; X # * e F K W / / W K F e * O O - s ) { p.z.x.c.l.f.f.h.r.f.b.F.@X>XrXaX9X{.J.&...,.L.|.8XdXjXjX",
"jXjXdX8X|.7.,...<.9. X8XiXrX>X#XF.n.f.r.r.f.z.l.l.x.z.p.{ _ s - X # * e F K W / / W K F e * # O - s ) { p.z.c.c.z.f.f.f.r.f.z.F.@X>XyXsX9X X9.<...,.8.|.8XdXjXjX",
"jXjXdX8X{.8.,...<.9. X0XdXyX,X#XF.m.x.r.l.l.l.l.v.v.c.h.u.] s - O # * e F K W / / W K F e 5 # X - s ' u.h.v.v.v.c.c.l.l.r.x.m.G.#X,XyXsX0XXXJ.,...,.L. X8XdXjXjX",
"jXjXdX8X|.L.,...<.9.XX0XsXaX>X#XF.b.x.l.l.l.l.l.v.v.c.h.0.' s - O O * e F K E / / W K F e * # X - s ' u.p.c.v.v.x.l.l.f.y.l.b.F.#X,XyXsX0XXX9.,. .,.8.|.8XdXjXjX",
"hXhXdX8X|.L.,. .,.5.).<XuXqX:XI.H.a.e.e.e.p.p.p.p.p.p.i.| z p ; X # 5 e D K W / / W K F r * # X ; f z | i.p.p.p.p.p.e.e.e.w.s.C.P.:X7X4X5X).5.&...,.8.|.8XdXhXhX",
"hXhXdX8X|.L.,.o.%.*.;.R.E.T.B.N.+.] ] ] ' ] ] ] ] ] ] ' x s , o . # * e G K W / W W K F e * X . + , s x ' ] ] ] ] ] ] ] ] ] +.+.B.B.T.W.R.;.*.%. .<.8.|.8XdXhXhX",
"hXhXdX8XoXJ.<.o.^ Y k N m m v v f f a p p p p p s p p a < - o . . X * r F K W / / W K F r * O . . o ; , p p s p p p p p a p p f v v m m N N Y Y Q <.L.XX8XdXhXhX",
"hXhXdX8X XJ.<.! Y y 9 1 @ @ @ O @ + O o X o o o o + o o o . . . . $ 9 t F K W / / W K G g 9 $ X . . X X o o o o o o X o X X o O @ @ @ : 9 9 t G Q <.J.XX8XdXhXhX",
"hXhXdX8XXXJ.<.E H w 7 5 % # # # # $ $ $ $ $ # # $ # $ # $ $ $ % = 5 8 y H K P W U P K H y e 5 = $ $ $ $ # # $ # $ $ # # $ $ # # O X # % 5 7 w A U ,.J.XX8XdXhXhX",
"hXhXdX8X XL.,.E L A u u 7 7 7 7 7 6 6 6 7 6 7 6 8 8 8 8 7 8 0 8 0 q D D L L I P I I L L D S w e 8 8 0 8 6 6 7 6 7 7 6 7 6 6 6 7 6 7 7 7 u w A L U >.9.XX8XdXhXhX",
"hXhXdX8XXXJ.&.! I L L H G H H H H H G G H H H H H G G G G G H H G J J K K P U U W W E K K J H G G G H H G G H H G H H H H G H H H H H H H L L K Q <.J.XX8XdXhXhX",
"hXhXdX0XOX(.7.1.>.X.X.X.>.>.>.>.$.$.>.>.>.>.>.>.$.$.>.>.>.&.$.$.>.&.$.&.>.>.>.>.>.>.>.>.>.$.>.>.,.>.>.X.>.>.>.>.>.>.>.>.>.>.>.>.$.>.>.>.>.X.X.$.<.5.(.+X0XdXhXhX",
"hXhXfXiX8XOX{.^.~.~.~.^.^.^.^.^.^.^.^.^.^.^.^.^.^.^.^.^.^.^.^.^.^.^.^./././.!./.~././.!.^.^.^.^.^.^.^.^.^.^.^.^.^.^.^.^.^.^.^.^.^.^.^.^.^.~.~.^.^..XOX8XpXfXhXhX",
"hXhXjXdXpXpX9X6X4X3X3X4X6X6X6X6X6X6X6X6X6X6X6X6X6X6X6X6X6X6X6X6X6X4X4X4X4X4X6X4X6X4X4X6X3X4X4X6X6X6X6X6X6X6X6X6X6X6X6X6X6X6X6X6X6X6X6X6X6X3X3X3X8X9XpXiXdXjXhXhX",
"hXhXhXhXgXgXgXgXfXfXfXfXfXfXfXfXfXfXfXfXfXfXfXfXdXfXfXfXfXfXfXfXfXfXfXfXfXfXfXfXfXfXfXfXfXfXfXfXgXfXfXfXdXfXfXfXfXfXfXfXfXfXfXfXfXfXfXfXfXfXfXfXdXfXgXhXhXhXhXhX",
"hXhXhXhXhXhXhXhXhXhXhXhXhXhXhXhXhXhXjXjXhXhXhXhXhXhXhXhXhXhXhXhXjXjXjXjXjXjXhXhXhXhXhXhXhXhXhXhXjXhXhXhXhXhXhXhXjXhXhXhXjXjXjXjXhXhXhXhXjXjXjXjXhXhXhXhXhXhXhXhX"
};
