/* XPM */
static char *result[] = {
/* columns rows colors chars-per-pixel */
"80 80 219 2 ",
"   c #020201",
".  c #090702",
"X  c #0B0902",
"o  c #0B0B0B",
"O  c #110E03",
"+  c #121101",
"@  c #1C1407",
"#  c #1D1A03",
"$  c #1B150A",
"%  c #1E1E1F",
"&  c #131313",
"*  c #211D04",
"=  c #231A0B",
"-  c #212100",
";  c #292504",
":  c #2D2B01",
">  c #2C220C",
",  c #372B0B",
"<  c #3C3904",
"1  c #3E2D10",
"2  c #212121",
"3  c #2A2926",
"4  c #383837",
"5  c #3D3921",
"6  c #1C1D20",
"7  c #4A3E0B",
"8  c #463412",
"9  c #4B3613",
"0  c #4D3A15",
"q  c #513C14",
"w  c #543E18",
"e  c #412F12",
"r  c #52460A",
"t  c #54490A",
"y  c #5A4E0B",
"u  c #545400",
"i  c #5D5805",
"p  c #5E4616",
"a  c #5C5211",
"s  c #665D08",
"d  c #694C1B",
"f  c #614A18",
"g  c #695F15",
"h  c #6C6903",
"j  c #696607",
"k  c #716412",
"l  c #6C6121",
"z  c #4A4A4C",
"x  c #555555",
"c  c #59595A",
"v  c #5A5A58",
"b  c #6E6A52",
"n  c #6E6C65",
"m  c #7B7B7D",
"M  c #83661C",
"N  c #927A16",
"B  c #815E20",
"V  c #8D6723",
"C  c #8E6923",
"Z  c #836021",
"A  c #916A24",
"S  c #9A7324",
"D  c #A97C2A",
"F  c #8C8605",
"G  c #9B8713",
"H  c #9A9801",
"J  c #A18C14",
"K  c #A89317",
"L  c #A1A200",
"P  c #ACAA04",
"I  c #A9A707",
"U  c #B8AF10",
"Y  c #8E8726",
"T  c #AE8725",
"R  c #B8872D",
"E  c #BE8B2F",
"W  c #B28926",
"Q  c #AD9A25",
"!  c #BF8C30",
"~  c #C1B808",
"^  c #C0AA15",
"/  c #D9BE1A",
"(  c #D3B71A",
")  c #C08D2E",
"_  c #C4932D",
"`  c #C89D27",
"'  c #CB9631",
"]  c #D29B33",
"[  c #CCA426",
"{  c #D2A42A",
"}  c #DFAE2C",
"|  c #D0AC21",
" . c #D6A130",
".. c #DBA432",
"X. c #DFAC30",
"o. c #C8B631",
"O. c #E0AF2D",
"+. c #E2BA25",
"@. c #E5B42E",
"#. c #E7B92B",
"$. c #E1AB33",
"%. c #E4B230",
"&. c #DAD901",
"*. c #D8D605",
"=. c #DCC219",
"-. c #D7D110",
";. c #E6DA0A",
":. c #EECE1E",
">. c #E5C71B",
",. c #EFD21C",
"<. c #EEDB12",
"1. c #F5DD16",
"2. c #F5D51E",
"3. c #F6DA1B",
"4. c #F8DC1B",
"5. c #F8D71E",
"6. c #EFEE01",
"7. c #E7E502",
"8. c #F0EC04",
"9. c #F8ED07",
"0. c #F4E70C",
"q. c #F4EC0A",
"w. c #F9ED0A",
"e. c #F9E50F",
"r. c #F6F304",
"t. c #F8F405",
"y. c #F9F40B",
"u. c #F8F709",
"i. c #F6E113",
"p. c #F9E412",
"a. c #F8ED13",
"s. c #F9E41B",
"d. c #F9EF1D",
"f. c #F8F61A",
"g. c #DCC42E",
"h. c #EDC426",
"j. c #EBC725",
"k. c #F0C726",
"l. c #F2CE21",
"z. c #F4D120",
"x. c #F6D924",
"c. c #F8DB25",
"v. c #F9DB2D",
"b. c #F9DD3B",
"n. c #F5DA36",
"m. c #EED330",
"M. c #F9E728",
"N. c #F9F522",
"B. c #F9F921",
"V. c #F9F529",
"C. c #F9E235",
"Z. c #FBE931",
"A. c #FAF83B",
"S. c #918646",
"D. c #938F7A",
"F. c #C1B448",
"G. c #C4B97A",
"H. c #DDC84F",
"J. c #F8DE41",
"K. c #F5DE51",
"L. c #FAE848",
"P. c #FAF74A",
"I. c #FAFB5A",
"U. c #F9F752",
"Y. c #ECE350",
"T. c #DDD676",
"R. c #F0DE76",
"E. c #ECD965",
"W. c #FAE662",
"Q. c #FBE76E",
"!. c #F8E76A",
"~. c #FBF964",
"^. c #FBE873",
"/. c #FBF675",
"(. c #999999",
"). c #97979A",
"_. c #B1AD99",
"`. c #A6A59E",
"'. c #A4A4A4",
"]. c #A6A6A8",
"[. c #A8A8AA",
"{. c #A8A8A8",
"}. c #B1AFA1",
"|. c #C5BE95",
" X c #DED183",
".X c #F4EC9A",
"XX c #FCFA93",
"oX c #FCFC9D",
"OX c #FBF39D",
"+X c #FCF488",
"@X c #E8DEA4",
"#X c #F7EDAC",
"$X c #FDFDA5",
"%X c #FDFDA9",
"&X c #FDF2A6",
"*X c #FEF4B4",
"=X c #FFF6BE",
"-X c #F1E7AD",
";X c #E9DE9F",
":X c #C6C5C5",
">X c #D8D7D5",
",X c #DEDEDD",
"<X c #D8D8D3",
"1X c #E1DEC8",
"2X c #FDFCC4",
"3X c #FBF6C9",
"4X c #FEFCD3",
"5X c #FEFEDD",
"6X c #F4F1D8",
"7X c #DFDFE0",
"8X c #E0E0E0",
"9X c #ECECE7",
"0X c #FDFAE2",
"qX c #F5F4EE",
"wX c #FEFEEC",
"eX c #F7F5E3",
"rX c #F5F5F2",
"tX c #FCFCF5",
"yX c None",
/* pixels */
"yXyXyXyXyXyXyXyXyXyXyXyXyXyXyXyXyXyXyXyXyXyXyXyXyXyXyXyXyXyX                                        yXyXyXyXyXyXyXyXyXyXyXyXyXyXyXyXyXyXyXyXyXyXyXyXyXyXyXyXyXyX",
"yXyXyXyXyXyXyXyXyXyXyXyXyXyXyXyXyXyXyXyXyXyXyXyXyXyXyXyXyXyX                                        yXyXyXyXyXyXyXyXyXyXyXyXyXyXyXyXyXyXyXyXyXyXyXyXyXyXyXyXyXyX",
"yXyXyXyXyXyXyXyXyXyXyXyXyXyXyXyXyXyXyXyXyXyXyXyXyXyXyXyXyXyXo o o o o o o o o o o o o o o o o o o o yXyXyXyXyXyXyXyXyXyXyXyXyXyXyXyXyXyXyXyXyXyXyXyXyXyXyXyXyXyX",
"yXyXyXyXyXyXyXyXyXyXyXyXyXyXyXyXyXyXyXyXyXyXyXyXyXyXyXyXyXyX6 2 2 2 2 6 6 2 2 6 2 2 6 2 6 2 6 2 2 6 yXyXyXyXyXyXyXyXyXyXyXyXyXyXyXyXyXyXyXyXyXyXyXyXyXyXyXyXyXyX",
"yXyXyXyXyXyXyXyXyXyXyXyXyXyXyXyXyXyXyXyXyXyXyXyXyXyXyXyXyX4 z x c c c c c c c c c c c c c c c x x z 4 yXyXyXyXyXyXyXyXyXyXyXyXyXyXyXyXyXyXyXyXyXyXyXyXyXyXyXyXyX",
"yXyXyXyXyXyXyXyXyXyXyXyXyXyXyXyXyXyXyXyXyX            o 6 z m ).'.].[.].].].].].].].].].].].].'.).m z % o .           yXyXyXyXyXyXyXyXyXyXyXyXyXyXyXyXyXyXyXyXyX",
"yXyXyXyXyXyXyXyXyXyXyXyXyXyXyXyXyXyXyXyX.           o o 2 c (.:X>X,X8X8X7X,X7X,X,X7X,X,X7X7X,X>X:X(.x 2 o .             yXyXyXyXyXyXyXyXyXyXyXyXyXyXyXyXyXyXyXyX",
"yXyXyXyXyXyXyXyXyXyXyXyXyXyXyXyXyXyXyXyXo o o o o o o & 3 c ].>X9XqXqXrXqXqXqXqXqXqXqXrXrXrXrX9X<X`.v 3 $ X . . . . . . yXyXyXyXyXyXyXyXyXyXyXyXyXyXyXyXyXyXyXyX",
"yXyXyXyXyXyXyXyXyXyXyXyXyXyXyXyXyXyXyXyX2 2 2 2 % % 3 3 4 n }.1X6XeX0X0XeX0X0X0X5X0XeX0X0X0X0X6X1X`.b 5 > * @ * @ @ @ @ yXyXyXyXyXyXyXyXyXyXyXyXyXyXyXyXyXyXyXyX",
"yXyXyXyXyXyXyXyXyXyXyXyXyXyXyXyXyXyXyX4 z x x x c c c v n D.|.@X#X*X=X*X*X*X*X*X*X*X*X*X*X*X*X#X;XG.S.l y t r 7 0 9 9 e > yXyXyXyXyXyXyXyXyXyXyXyXyXyXyXyXyXyXyX",
"yXyXyXyXyXyXyXyXyXyXyXyXyXyXyXyXo o 2 x m (.].].].].].{.}.|. XR.Q.^.!.!.Q.Q.Q.Q.Q.Q.!.Q.Q.Q.Q.Q.E.H.o.Q J J N S M V M d 1 @ X   yXyXyXyXyXyXyXyXyXyXyXyXyXyXyXyX",
"yXyXyXyXyXyXyXyXyXyXyXyXyXyXyX    & 3 c (.:X,X7X7X7X7X7X1X@XR.K.J.b.b.b.b.b.b.b.b.b.b.b.b.b.b.b.n.m.j.+./ ( | ` _ E D l 8 = X     yXyXyXyXyXyXyXyXyXyXyXyXyXyXyX",
"yXyXyXyXyXyXyXyXyXyXyXyXyXyXyX    & 3 c '.>X9XrXrXrXqXeX6X#X!.b.v.v.x.v.v.v.v.v.v.v.v.v.v.c.c.c.x.x.2.,.l.:.+.} ] ' R B 8 @ .     yXyXyXyXyXyXyXyXyXyXyXyXyXyXyX",
"yXyXyXyXyXyXyXyXyXyXyXyXyXyXyX  o o 2 c ].7XrXtXtXtX0X5X3XOXW.n.c.x.x.v.b.b.b.b.b.b.b.b.v.c.4.c.1.3.3.2.5.l.h.@.] ] ) V 9 @ X     yXyXyXyXyXyXyXyXyXyXyXyXyXyXyX",
"yXyXyXyXyXyXyXyXyXyXyXyXyXyXyX    & 2 c ].7XrXtXwX3X3X*X&X/.L.M.s.s.C.L.W.Q.Q.Q.Q.Q.!.W.L.Z.M.p.p.p.4.4.5.z.k.@.$.] ) V 9 @ .     yXyXyXyXyXyXyXyXyXyXyXyXyXyXyX",
"yXyXyXyXyXyXyXyXyXyXyXyXyXyXyX    o 2 c ].7XrXqX4X&X+XQ.W.L.M.a.w.d.P.^.OX&X*X*X*X*X#XOX^.L.d.w.w.e.s.4.5.l.k.@.$.] ) V 9 @ X     yXyXyXyXyXyXyXyXyXyXyXyXyXyXyX",
"yXyXyXyXyXyXyXyXyXyXyXyXyXyXyX  . & 3 v ].,XeX0X=X/.K.L.b.M.a.a.y.B.U.XX3X5X0X0X0X0X4X3XXXU.B.u.w.0.p.4.3.z.h.@...] ! V 9 = .     yXyXyXyXyXyXyXyXyXyXyXyXyXyXyX",
"yXyXyXyXyXyXyXyXyXyXyXyXyXyXyX. o & 3 v {.,XeX5X*X^.J.v.c.s.w.a.f.V.I.oX4X0XwXtXtXtXeX4XoXY.N.f.q.0.p.3.2.z.h.@.X.] ) A q = O X . yXyXyXyXyXyXyXyXyXyXyXyXyXyXyX",
"yXyXyXyXyXyXyXyXyXyXyXyXyXyXyX6 2 3 4 n }.1X6X3X&XW.n.M.4.a.d.N.V.A.I.oX2X4X5X0X0X5X6X3X.XY.-.-.&.;.<.1.3.2.l.#.X.{ _ S f > = = + yXyXyXyXyXyXyXyXyXyXyXyXyXyXyX",
"yXyXyXyXyXyXyXyXyXyXyXyXyXyX4 z c c n (.|.@X#X.X^.L.M.s.s.M.A.U.I.~./.XX$X$X%X%X*X*X.X.XT.F.U I P U -.<.i.1.z.h.@.} { T B f q 8 1 > yXyXyXyXyXyXyXyXyXyXyXyXyXyX",
"yXyXyXyXyXyXyXyXyXyXyX. o 6 z m (.].}.|. XR.!.W.L.M.a.a.d.P.~.XXoXXXXX/.~.I.I.~.~.!.!.E.F.Y k j h F ~ ;.0.w.i.z.h.h.+.[ T S V B d 1 @ .   yXyXyXyXyXyXyXyXyXyXyX",
"yXyXyXyXyXyXyXyXyXyX    o 6 x ).:X>X1X@XR.K.b.b.M.a.a.y.f.U.XX2X4X2XoX~.A.V.V.V.Z.n.m.g.Q g < : < h P &.6.9.w.4.2.l.>.+.{ _ R D B 8 @ .     yXyXyXyXyXyXyXyXyXyX",
"yXyXyXyXyXyXyXyXyXyX    o 2 c '.>X9X6X#XQ.J.v.c.s.w.y.u.B.I.$X4X0X4X$XI.V.f.y.a.d.c.m.=.K a ; # : i L &.6.9.w.i.3.2.l.h.O. .' R V 8 @ .     yXyXyXyXyXyXyXyXyXyX",
"yXyXyXyXyXyXyXyXyXyX  o o 2 c ].,XqXeX*XQ.b.c.4.p.9.u.u.f.I.$X5XwX5X%XI.B.y.u.q.s.3.:.=.J y - + ; u L &.6.t.y.p.3.2.l.h.@...' ) V 9 @ .     yXyXyXyXyXyXyXyXyXyX",
"yXyXyXyXyXyXyXyXyXyX    o 2 c [.7XqX0X*XQ.b.c.4.e.9.r.u.B.I.%X5XwX5X%XI.f.u.u.t.e.1.,./ G t * O # u L &.8.t.y.p.3.5.z.k.@.$.] ) C 9 @ .     yXyXyXyXyXyXyXyXyXyX",
"yXyXyXyXyXyXyXyXyXyX    o 2 c ].7XqX0X*XQ.b.c.4.e.9.t.u.B.I.%X0XwX5X%XI.B.u.t.9.p.3.,./ J t # + - u L &.8.t.y.p.3.5.z.l.@...] ) V 9 @ .     yXyXyXyXyXyXyXyXyXyX",
"yXyXyXyXyXyXyXyXyXyX    o 2 x ].,XqX0X*XQ.b.c.4.p.9.t.u.B.I.%X5XwX5X%XI.B.y.t.9.e.1.,./ J t * + - u L &.8.r.w.p.3.5.z.#.@...] ) V 9 @ .     yXyXyXyXyXyXyXyXyXyX",
"yXyXyXyXyXyXyXyXyXyX    o 2 c ].,XrX0X*XQ.b.c.4.p.9.t.y.B.I.%X5XwX5X%XI.B.u.t.w.s.3.,.=.J r * + - u L &.8.r.y.p.1.5.z.k.@...' ) V 9 @ .     yXyXyXyXyXyXyXyXyXyX",
"yXyXyXyXyXyXyXyXyXyX    o 2 c ].,XrX0X*XQ.b.c.4.e.9.t.y.B.I.%X5XwX5X%XI.B.u.u.9.p.3.2./ J t * + - u L &.6.r.t.p.5.5.5.k.@...' ) V 9 @ .     yXyXyXyXyXyXyXyXyXyX",
"yXyXyXyXyXyXyXyXyXyX  . o 2 c ].,XqX0X*XQ.b.c.c.e.9.t.u.B.I.%X5XwX5X%XI.B.u.u.9.p.3.,./ G t # + - u L &.r.r.w.p.3.5.5.#.@...] ) V 9 @ .     yXyXyXyXyXyXyXyXyXyX",
"yXyXyXyXyXyXyXyXyXyX    o 2 c ].,XqX0X*XQ.b.c.4.p.q.r.u.B.I.%X5XwX5X%XI.B.u.t.9.p.1.,.=.J y * + - u L &.8.r.w.e.1.5.z.k.@...] ) V 9 @ .     yXyXyXyXyXyXyXyXyXyX",
"yXyXyXyXyXyXyXyXyXyX    o 2 c ].,XqX0X*XQ.b.c.4.e.q.r.u.B.I.%X5XwX5X%XI.B.y.t.w.p.3.,.=.G t # + - u L &.8.t.w.e.5.5.5.#.@.] ] ) V 9 @ .     yXyXyXyXyXyXyXyXyXyX",
"yXyXyXyXyXyXyXyXyXyX    o 2 c ].,XqX0X*XQ.b.c.4.p.9.u.u.B.I.%X5XwX5X%XI.B.u.t.y.p.3.,./ G t * + - u L &.6.r.y.p.4.3.z.h.@...] E V 9 @ .     yXyXyXyXyXyXyXyXyXyX",
"yXyXyXyXyXyXyXyXyXyX  o o 2 c ].,XqX0X*XQ.b.c.4.e.w.u.u.B.I.%X5XwX5X%XI.B.u.t.9.p.3.,.=.J t * + - u L &.r.r.9.p.4.5.z.k.@...] E V 9 @ .     yXyXyXyXyXyXyXyXyXyX",
"yXyXyXyXyXyXyXyXyXyX    o 2 c ].,XqX0X*X^.b.c.4.i.9.t.u.B.I.%X5XwX5X%XI.V.u.t.9.p.3.,./ J t * + - u L &.8.r.y.p.4.5.2.h.@...] ! V 9 @ .     yXyXyXyXyXyXyXyXyXyX",
"yXyXyXyXyXyXyXyXyXyX    o 2 x ].,XqX0X*XQ.b.c.c.e.9.t.u.B.I.%X5XwX5X%XI.B.y.t.9.p.1.,./ J t * + - u L &.8.t.w.p.4.2.l.h.@...] E V 9 @ .     yXyXyXyXyXyXyXyXyXyX",
"yXyXyXyXyXyXyXyXyXyX    o 2 c ].,XqX0X*XQ.b.c.4.e.9.r.u.B.I.%X5XwX5X%XI.B.u.t.y.p.3.2./ J t * + - u L &.6.r.y.i.4.5.z.h.@...] E V 9 @ .     yXyXyXyXyXyXyXyXyXyX",
"yXyXyXyXyXyXyXyXyXyX    o 2 c ].,XrX0X*XQ.b.c.4.i.9.t.u.B.I.%X5XwX5X%XI.B.u.t.9.p.3.,./ J t * + - u L &.6.r.9.p.4.5.z.h.@...] ! V 9 @ .     yXyXyXyXyXyXyXyXyXyX",
"yXyXyXyXyXyXyXyXyXyX    o 2 c ].,XqX0X*XQ.b.x.4.p.9.t.u.B.I.%X5XwX5X%XI.V.u.t.9.p.1.,./ J t * + - u L &.6.r.u.p.4.3.l.h.@...] E V 9 @ .     yXyXyXyXyXyXyXyXyXyX",
"yXyXyXyXyXyXyXyXyXyX    o 2 x ].,XqX0X*XQ.b.c.3.e.w.t.y.B.I.%X5XwX5X%XI.B.u.t.9.p.3.,./ J t * + - u L &.6.r.y.p.4.5.l.h.@...] E V 9 @ .     yXyXyXyXyXyXyXyXyXyX",
"yXyXyXyXyXyXyXyXyXyX    o 2 c ].,XqX0X*XQ.b.c.4.e.q.r.u.B.I.%X5XwX5X%XI.B.u.t.9.p.4.2./ J t * + - u L &.8.t.y.p.4.2.2.h.@...] ! V 9 @ .     yXyXyXyXyXyXyXyXyXyX",
"yXyXyXyXyXyXyXyXyXyX    o 2 x ].,XqX0X*XQ.b.c.4.p.9.r.u.B.I.%X5XwX5X%XI.V.u.t.y.p.4.,./ G t * + - u L &.8.t.w.p.4.5.l.k.@...] E V 9 @ .     yXyXyXyXyXyXyXyXyXyX",
"yXyXyXyXyXyXyXyXyXyX  o o 2 c ].7XqX0X*XQ.b.c.4.e.9.t.y.B.I.%X5XwX5X%XI.B.u.u.9.p.3.,./ J t * + - u L &.r.r.w.p.1.5.2.h.@...] E V 9 @ .     yXyXyXyXyXyXyXyXyXyX",
"yXyXyXyXyXyXyXyXyXyX  . o 2 c ].,XqX0X*XQ.b.c.c.p.q.t.y.B.I.%X5XwX5X%XI.B.y.t.9.p.1.,./ J t * + - u L &.6.r.y.p.4.5.l.h.@...] ! V 9 @ .     yXyXyXyXyXyXyXyXyXyX",
"yXyXyXyXyXyXyXyXyXyX    o 2 x ].,XqX0X*XQ.b.c.4.e.q.t.u.B.I.%X5XwX5X%XI.B.u.t.9.p.1.,./ G t * + - u L &.6.r.y.p.4.5.l.h.@...] R V 9 @ .     yXyXyXyXyXyXyXyXyXyX",
"yXyXyXyXyXyXyXyXyXyX    o 2 c ].,XqX0X*XQ.b.c.4.e.9.t.u.B.I.%X5XwX5X%XI.B.u.u.w.p.3.,./ J t * + - u L &.6.r.9.p.4.5.z.h.@...] ) V 9 @ .     yXyXyXyXyXyXyXyXyXyX",
"yXyXyXyXyXyXyXyXyXyX    o 2 c ].7XqX0X*X^.b.c.4.p.9.u.u.B.I.%X5XwX5X$XI.B.u.t.9.p.3.2./ J t * + - u L &.r.r.y.p.4.5.l.k.@...] ! V 9 @ .     yXyXyXyXyXyXyXyXyXyX",
"yXyXyXyXyXyXyXyXyXyX    o 2 c ].,XqX0X*XQ.b.c.4.p.9.t.u.B.I.%X5XwX5X%XI.V.u.t.9.p.1.,./ J t * + - u L &.8.r.w.p.4.5.l.h.@...] E V 9 @ .     yXyXyXyXyXyXyXyXyXyX",
"yXyXyXyXyXyXyXyXyXyX    o 2 c ].,XqX0X*X^.b.c.4.p.9.t.u.B.I.%X5XwX5X%XI.V.y.w.w.i.3.,./ J t * + - u L &.6.t.9.p.4.4.z.h.@...] E V 9 @ .     yXyXyXyXyXyXyXyXyXyX",
"yXyXyXyXyXyXyXyXyXyX  . o 2 c ].,XqX0X*XQ.b.c.4.p.9.t.u.B.I.%X5XwX0X%X~.M.a.w.e.s.3.:./ J t * + - u L &.6.t.y.i.4.x.z.h.@...] E V 9 @ X     yXyXyXyXyXyXyXyXyXyX",
"yXyXyXyXyXyXyXyXyXyX    o 2 c ].,XqX0X*XQ.b.c.4.p.t.t.y.B.I.%X5XwX0X%X!.Z.s.p.1.4.4.,./ J t * + - u L &.6.t.y.p.4.5.l.h.@...] E V 9 @ .     yXyXyXyXyXyXyXyXyXyX",
"yXyXyXyXyXyXyXyXyXyX    o 2 c ].,XqX0X*XQ.b.c.4.p.q.t.y.B.I.%X5XwX0X*XQ.C.c.4.4.4.2.2./ G t * + - u L &.6.t.9.p.4.5.2.h.@...] E V 9 @ .     yXyXyXyXyXyXyXyXyXyX",
"yXyXyXyXyXyXyXyXyXyX  o o 2 c ].7XqX0X*X!.b.v.3.e.q.t.y.B.I.%X5XwX0X*XQ.b.c.c.5.4.5.l./ J t * + - u L &.6.6.y.p.4.5.z.k.@...] E V 9 @ .     yXyXyXyXyXyXyXyXyXyX",
"yXyXyXyXyXyXyXyXyXyX    o 2 x ].7XqX0X*X^.b.c.4.e.9.t.y.B.I.%X5XwX0X*XQ.b.c.5.4.4.5.2./ J t # + - u L &.6.r.9.p.4.2.z.k.@...] E V 9 @ .     yXyXyXyXyXyXyXyXyXyX",
"yXyXyXyXyXyXyXyXyXyX    o 2 c ].8XqX0X*XQ.b.c.4.i.9.r.u.B.I.%X5XtX0X*XQ.b.c.c.4.4.2.:./ J t * + - u H &.6.r.u.s.4.5.z.k.@...] ) V 9 @ .     yXyXyXyXyXyXyXyXyXyX",
"yXyXyXyXyXyXyXyXyXyX  o o 2 c ].8XrX0X*X^.b.c.4.e.9.t.u.B.I.%X0XwX0X*X^.b.c.4.4.4.2.2./ J t * + - u L &.6.r.9.a.3.5.l.k.@...] E V 9 @ .     yXyXyXyXyXyXyXyXyXyX",
"yXyXyXyXyXyXyXyXyXyX    o 2 c ].>XqX6X*X^.b.c.4.e.t.t.u.f.I.$X5XwX0X#XQ.b.v.3.2.5.2.:./ G t - + ; u L &.8.t.y.p.3.5.l.k.@...] E V 8 @ .     yXyXyXyXyXyXyXyXyXyX",
"yXyXyXyXyXyXyXyXyXyX    o 3 x ].<X9X6X#X!.b.c.3.e.r.t.u.B.U.$X4X0X6X#XE.n.j.,.,.2.:.>.( J y ; - : i L &.8.9.w.i.5.2.2.+.O.] ' R V 9 @ .     yXyXyXyXyXyXyXyXyXyX",
"yXyXyXyXyXyXyXyXyXyX    o 2 x ).:X1X1X;XE.n.x.s.p.q.t.u.f.U.XX2X4X=X.XE.g.g./ / / / ( ^ G u < : < h P ;.8.9.w.1.2.z.k.+.{ _ R D B 8 @ .     yXyXyXyXyXyXyXyXyXyX",
"yXyXyXyXyXyXyXyXyXyXyX  o 6 z m (.`._.G.H.m.z.3.p.9.u.u.f.A.~.XXoX.XT.F.Q J J J J J J G N h i i h F U ;.q.0.1.2.:.+.+.[ W S A Z d 1 @ o   yXyXyXyXyXyXyXyXyXyXyX",
"yXyXyXyXyXyXyXyXyXyXyXyXyXyX4 z x v b S.o.j.2.4.p.9.t.r.u.f.A.U.I.Y.o.Y g a t r t t y y h F H L P U *.i.1.1.2.j.@.O.{ W Z f w 9 e > yXyXyXyXyXyXyXyXyXyXyXyXyXyX",
"yXyXyXyXyXyXyXyXyXyXyXyXyXyXyX6 % 3 5 l Q / 2.3.p.w.t.r.u.u.u.B.V.-.U k < ; * # * * - < i L U *.&.7.<.1.3.2.h.#.$. .' S f 1 = = $ yXyXyXyXyXyXyXyXyXyXyXyXyXyXyX",
"yXyXyXyXyXyXyXyXyXyXyXyXyXyXyXo & & > a G / 2.3.p.w.t.t.u.u.u.u.8.-.I s : # + o X + # : i L *.7.6.0.p.3.3.z.h.@...] ) A w = & o o yXyXyXyXyXyXyXyXyXyXyXyXyXyXyX",
"yXyXyXyXyXyXyXyXyXyXyXyXyXyXyX  . o # y J / l.4.p.w.t.t.r.u.u.u.6.*.P h < ; * # # * ; < h P *.6.q.0.1.2.z.k.h.@...] ) A w = o o o yXyXyXyXyXyXyXyXyXyXyXyXyXyXyX",
"yXyXyXyXyXyXyXyXyXyXyXyXyXyXyX    . # t J =.2.5.i.p.w.w.w.w.y.w.0.;.~ N s u t r r t y s N ~ ;.0.e.e.,.l.#.#.#.O.$.] ) V 0 & o .   yXyXyXyXyXyXyXyXyXyXyXyXyXyXyX",
"yXyXyXyXyXyXyXyXyXyXyXyXyXyXyX    . # y J =.,.4.s.p.p.p.p.p.p.i.i.<./ ^ K J J J J J K K ^ =.<.e.1.2.h.#.#.@.$.$.] ] ) A w = o     yXyXyXyXyXyXyXyXyXyXyXyXyXyXyX",
"yXyXyXyXyXyXyXyXyXyXyXyXyXyXyX  . X * t J / :.5.4.2.3.3.3.3.4.4.3.1.,.>.>./ / / / / / =.>.,.2.5.2.:.@.O.........] ] ! A 0 $ o o o yXyXyXyXyXyXyXyXyXyXyXyXyXyXyX",
"yXyXyXyXyXyXyXyXyXyXyXyXyXyXyX    . * t G ( >.:.2.2.2.:.2.2.2.2.2.2.2.z.,.:.:.l.:.:.,.,.:.5.2.5.l.h.O. .] ] ] ] ' ' R V 0 = o o   yXyXyXyXyXyXyXyXyXyXyXyXyXyXyX",
"yXyXyXyXyXyXyXyXyXyXyXyXyXyXyX    . # t G U ( / / / / / / +.:.l.z.5.l.l.z.z.z.l.l.l.z.z.z.z.l.l.h.+. .) ) ) ) ) R R D Z 9 = o o o yXyXyXyXyXyXyXyXyXyXyXyXyXyXyX",
"yXyXyXyXyXyXyXyXyXyXyXyXyXyXyXyX. X + r k N G J K J J J K U | +.h.#.k.k.k.k.k.k.k.k.k.k.k.k.h.h.+.[ T S V V V V V V B d e @ o . yXyXyXyXyXyXyXyXyXyXyXyXyXyXyXyX",
"yXyXyXyXyXyXyXyXyXyXyXyXyXyXyXyXyXyXyX, 7 r t t y t y y s N W | @.@.@.@.@.@.%.@.@.@.@.@.@.#.@.O.{ T B p 0 9 8 8 9 9 9 e > yXyXyXyXyXyXyXyXyXyXyXyXyXyXyXyXyXyXyX",
"yXyXyXyXyXyXyXyXyXyXyXyXyXyXyXyXyXyXyXyX* * * # * @ * * , f S _ ] ..$......................... ._ S p , = @ @ @ @ @ @ @ yXyXyXyXyXyXyXyXyXyXyXyXyXyXyXyXyXyXyXyX",
"yXyXyXyXyXyXyXyXyXyXyXyXyXyXyXyXyXyXyXyX. . . . . . X O = q V R ' ] ] ] ] ] ] ] ] ] ] ] ] ] ' ' R V q * O X   X X X   X yXyXyXyXyXyXyXyXyXyXyXyXyXyXyXyXyXyXyXyX",
"yXyXyXyXyXyXyXyXyXyXyXyXyXyXyXyXyXyXyXyX.   .   .   . . * 9 M D R ) ) ) ) ) ) ) E E ) ) ) ) E R D B 9 @ O               yXyXyXyXyXyXyXyXyXyXyXyXyXyXyXyXyXyXyXyX",
"yXyXyXyXyXyXyXyXyXyXyXyXyXyXyXyXyXyXyXyXyX            . @ e d B M V V V B V V V V V C V V V V V B d e @ .             yXyXyXyXyXyXyXyXyXyXyXyXyXyXyXyXyXyXyXyXyX",
"yXyXyXyXyXyXyXyXyXyXyXyXyXyXyXyXyXyXyXyXyXyXyXyXyXyXyXyXyX= e 8 8 q 9 9 9 9 9 0 9 9 9 9 9 9 9 9 8 e > yXyXyXyXyXyXyXyXyXyXyXyXyXyXyXyXyXyXyXyXyXyXyXyXyXyXyXyXyX",
"yXyXyXyXyXyXyXyXyXyXyXyXyXyXyXyXyXyXyXyXyXyXyXyXyXyXyXyXyXyX@ @ @ @ @ = @ = @ @ @ @ @ @ @ @ @ @ @ @ yXyXyXyXyXyXyXyXyXyXyXyXyXyXyXyXyXyXyXyXyXyXyXyXyXyXyXyXyXyX",
"yXyXyXyXyXyXyXyXyXyXyXyXyXyXyXyXyXyXyXyXyXyXyXyXyXyXyXyXyXyX. . . . X       X . . .   X . . . . .   yXyXyXyXyXyXyXyXyXyXyXyXyXyXyXyXyXyXyXyXyXyXyXyXyXyXyXyXyXyX",
"yXyXyXyXyXyXyXyXyXyXyXyXyXyXyXyXyXyXyXyXyXyXyXyXyXyXyXyXyXyX                                        yXyXyXyXyXyXyXyXyXyXyXyXyXyXyXyXyXyXyXyXyXyXyXyXyXyXyXyXyXyX",
"yXyXyXyXyXyXyXyXyXyXyXyXyXyXyXyXyXyXyXyXyXyXyXyXyXyXyXyXyXyX                                        yXyXyXyXyXyXyXyXyXyXyXyXyXyXyXyXyXyXyXyXyXyXyXyXyXyXyXyXyXyX"
};
