/* XPM */
static char *dd5cafd9d8734da0d5836fd3d6c7672cHjo3E2NR4ACrEQgr[] = {
/* columns rows colors chars-per-pixel */
"80 80 150 2 ",
"   c None",
".  c #000000",
"X  c #040B02",
"o  c #010A0C",
"O  c #0A0E0E",
"+  c #091705",
"@  c #091A05",
"#  c #000D11",
"$  c #001014",
"%  c #001418",
"&  c #001A1F",
"*  c #0D2508",
"=  c #0C2207",
"-  c #12310A",
";  c #153A0C",
":  c #001C22",
">  c #00272F",
",  c #00282F",
"<  c #192726",
"1  c #1C2A2A",
"2  c #002B33",
"3  c #002F39",
"4  c #00323C",
"5  c #213030",
"6  c #17400D",
"7  c #19440F",
"8  c #1C4F11",
"9  c #1D5111",
"0  c #205612",
"q  c #225C13",
"w  c #266616",
"e  c #276B17",
"r  c #286D17",
"t  c #286E18",
"y  c #2C7719",
"u  c #2D7B1A",
"i  c #003641",
"p  c #003B47",
"a  c #003C48",
"s  c #004957",
"d  c #354040",
"f  c #3B4343",
"g  c #005364",
"h  c #00677B",
"j  c gray25",
"k  c #455354",
"l  c #475758",
"z  c #535454",
"x  c #485F60",
"c  c #556F70",
"v  c #2F821C",
"b  c #31851C",
"n  c #32891D",
"m  c #36911F",
"M  c #379620",
"N  c #379920",
"B  c #399C21",
"V  c #3BA222",
"C  c #3DA824",
"Z  c #40AE25",
"A  c #41B226",
"S  c #43B827",
"D  c #46BE28",
"F  c #47C229",
"G  c #48C52A",
"H  c #49C92B",
"J  c #006D83",
"K  c #007086",
"L  c #00738A",
"P  c #00798F",
"I  c #007B94",
"U  c #00849E",
"Y  c #008AA5",
"T  c #008DA9",
"R  c #0098B6",
"E  c #00A7C8",
"W  c #00B2D5",
"Q  c #00B6DA",
"!  c #00BADF",
"~  c #00BCE2",
"^  c #00C1E7",
"/  c #00C5EC",
"(  c #00C8EF",
")  c #00CAF2",
"_  c #00CFF8",
"`  c #00D5FF",
"'  c #0AD7FF",
"]  c #00D9FF",
"[  c #0DD8FF",
"{  c #17DAFF",
"}  c #1CDBFF",
"|  c #25DEFF",
" . c #2BDFFF",
".. c #30DEFF",
"X. c #42E4FF",
"o. c #53E8FF",
"O. c #5DEAFF",
"+. c #63ECFF",
"@. c #6CEEFF",
"#. c #71EFFF",
"$. c #91B0B2",
"%. c #98B1B2",
"&. c #95BDBF",
"*. c #ACB1B2",
"=. c #B2B2B2",
"-. c #81C2C4",
";. c #8FC3C5",
":. c #8DD1D3",
">. c #91D5D7",
",. c #A0C2C5",
"<. c #A1CCCE",
"1. c #BEC4C5",
"2. c #9EECEF",
"3. c #9FEFF1",
"4. c #83F3FF",
"5. c #8CF6FF",
"6. c #90F6FF",
"7. c #99F7FF",
"8. c #9DFAFF",
"9. c #A3EAED",
"0. c #A2F1F4",
"q. c #A6F7FA",
"w. c #A5FBFF",
"e. c #A9FCFF",
"r. c #B1FCFF",
"t. c #BBFDFF",
"y. c #C4C5C5",
"u. c #CBF7FA",
"i. c #C2FCFF",
"p. c #CEFCFF",
"a. c #D3FFFF",
"s. c #D1FCFF",
"d. c #D5FEFF",
"f. c #D5F8FA",
"g. c #D9FDFF",
"h. c #D8FDFF",
"j. c #DAFDFF",
"k. c #DDFFFF",
"l. c #E6FDFF",
"z. c #EEFEFF",
"x. c #F6FEFF",
"c. c #F7FEFF",
"v. c #F4FEFF",
"b. c #F1F9FA",
"n. c #FAFAFA",
"m. c #FAFFFF",
"M. c #FDFFFF",
"N. c #FCFFFF",
"B. c white",
"V. c #FEFFFF",
/* pixels */
"                                        . . . . . . . . . . . . . . . . . . . . . . . . . . . . . . . . . . . . . . . .                                         ",
"                                        . . . . . . . . . . . . . . . . . . . . . . . . . . . . . . . . . . . . . . . .                                         ",
"                                        . . . . . . . . . . . . . . . . . . . . . . . . . . . . . . . . . . . . . . . .                                         ",
"                                        . . . . . . . . . . . . . . . . . . . . . . . . . . . . . . . . . . . . . . . .                                         ",
"                                        % % % % % % % % % % % % % % % % % % % % % % % % % $ % % % % % % % % % % % % % %                                         ",
"                    . . . . . . . . . > W ~ ~ Q ! ! ~ Q Q ~ ~ Q Q ~ ~ Q ! ! ! ! ~ Q ~ Q ~ ~ ~ Q ! ! ~ Q Q ~ ~ Q ! ! ~ I . . . . . . . . .                       ",
"                    . . . . . . . . . > ) ] ] ` ] ] ` ] ] ] ` ] ] ] ` ] ] ] ] ] ] ` ] ` ` ] ] ] ] ] ` ] ] ] ` ] ] ] ] U . . . . . . . . . .                     ",
"                    . . . . . . . . . > ( ` ` ` ] ` ` ` ` ` ` ` ` ` ` ` ` ` ` ` ` ` ` ` ` ` ` ` ] ` ` ` ` ` ` ` ` ` ] U . . . . . . . . . .                     ",
"                    . . . . . . . . . > ) ] ` ` ` ` ` ` ` ` ` ] ` ` ` ` ' ` ` ` ` ` ` ` ] ` ` ` ` ` ` ` ` ` ` ` ] ` ] U . . . . . . . . . .                     ",
"                    $ $ $ $ $ $ # # # i ) ` ` ` ' [ [ [ [ [ [ [ [ [ [ [ [ [ ' [ [ [ [ [ [ [ [ [ [ [ [ [ [ [ ' ` ` ` ] Y # # $ $ # # $ $ % #                     ",
"          . . . . : E Q Q Q Q Q Q Q Q ~ ` ` ` ` } 5.6.6.6.6.6.6.6.6.6.6.6.6.6.6.6.6.6.6.6.6.6.6.6.6.6.6.6.6.O.` ` ` ` ( Q Q Q Q Q Q Q Q ~ J . . . .             ",
"          . . . . : ) ] ] ] ] ] ] ` ] ] ` ` ` ` | w.e.e.e.e.e.e.e.e.e.e.e.e.e.e.e.e.e.e.e.e.e.e.e.e.r.e.e.e.#.` ` ` ` ] ] ] ] ] ] ` ] ] ] L . . . . .           ",
"          . . . . : / ` ` ` ` ` ` ` ` ` ` ` ` ` | w.w.w.e.w.e.e.e.e.e.e.e.w.e.e.e.e.e.e.e.e.e.e.e.e.e.e.e.e.@.` ` ` ` ` ` ` ` ` ` ` ` ` ] P . . . . .           ",
"          . . . . : / ] ` ` ` ` ` ` ` ` ` ` ` _ } w.e.w.e.e.e.e.e.e.e.w.e.e.e.e.e.e.e.e.e.e.e.e.e.e.e.e.e.e.@.` ` ` ` ` ` ` ` ` ` ` ` ` ] P . . . . .           ",
"          # # # # 2 / ` ` ` ` ' ' ' ' [ ' ' ' '  .e.e.e.e.q.3.9.2.2.0.e.e.e.e.e.e.e.r.e.q.2.2.2.9.0.e.e.e.r.#.' ' ' ' ' ' [ ' ' ' ` ` ` ] I o o # # o           ",
". . . . & E W W W Q ` ` ` ` { 4.5.5.5.5.5.5.5.5.7.i.p.i.p.<.5 1 1 < x u.i.p.p.i.u.i.i.s.&.1 1 1 < c p.i.i.p.r.5.5.5.5.5.5.5.5.5.o.` ` ` ] / W W W Q h . . . .   ",
". . . . : ^ ] ] ] ] ` ` ` ` } 8.e.e.e.e.e.e.e.e.r.p.p.s.s.,.o . . . d u.p.s.p.s.p.s.s.s.$.. . . . k p.p.s.s.i.e.e.e.e.e.e.e.e.e.+._ ` ` ` ] ] ] ] ] L . . . . . ",
". . . . & ^ ] ] ` ` ` ` ` ` } 8.e.e.e.e.e.e.e.e.r.p.s.p.s.,.X . . . d u.s.p.s.p.p.p.s.d.$.. . . . k p.s.p.s.i.w.e.e.e.e.e.e.e.r.+.` ` ` ` ` ` ` ` ] L . . . . . ",
". . . . : / ` ` ` ` ` ` ` ` } 8.e.e.e.e.e.e.e.w.r.p.s.s.s.,.X . . . d u.p.s.s.p.s.p.s.s.$.. . . . k s.p.s.s.i.e.e.e.e.e.e.e.e.e.+.` ` ` ` ` ` ` ] ] J . . . . . ",
". . . . & ~ ] ` ` ` ` ` ` ` } 8.e.e.e.e.e.e.e.e.r.p.s.s.d.,.O . . . d u.s.s.s.s.s.s.s.d.%.. . . . k s.s.s.d.i.e.e.e.e.e.e.e.e.e.+.` ] ` ` ` ` ` ` ] L . . . . . ",
". . . . : ~ ] ] ` ` ` ` ` ` } 8.e.w.e.r.u.i.i.p.s.v.v.v.n.1.X . . . f b.m.c.c.m.c.m.c.m.=.. . . . z m.c.c.c.l.i.p.i.i.t.e.e.e.e.+._ ` ` ` ` ` ` ` ] L . . . . . ",
". . . . & ~ ` ` ` ` ` ` ` ` } 8.e.e.e.r.p.p.s.s.h.B.B.B.B.y.O . . . j n.N.N.N.N.N.N.N.N.=.. . . . z N.N.N.N.z.s.s.s.h.t.e.w.e.e.+.` ` ` ` ` ` ` ` ] L . . . . . ",
". . . . : / ] ` ` ` ` ` ` ` } 8.e.e.e.e.p.s.s.p.h.B.B.B.B.y.O . . . j n.N.N.N.N.N.N.N.N.=.. . . . z N.N.N.N.v.s.s.s.s.i.e.e.e.e.+.` ` ] ` ` ` ` ` ] K . . . . . ",
". . . . : ~ ` ` ` ` ` ` ` ] } 8.e.e.e.e.p.p.s.p.h.B.B.B.B.y.X . . . j n.N.N.N.N.N.N.N.N.=.. . . . z N.N.N.N.z.p.s.p.s.i.e.e.e.e.+.` ` ` ` ` ` ` ` ] K . . . . . ",
". . . . : ~ ] ` ` ` ` ` ` ` } 8.e.e.w.r.i.s.s.p.h.m.N.N.N.y.X . . . j n.N.N.N.N.N.N.N.N.=.. . . . z N.N.N.N.z.p.p.s.s.i.w.e.w.e.+._ ` ` ` ` ` ` ] ] L . . . . . ",
". . . . : / ] ` ` ` ` ` ` ` } 8.e.e.e.e.r.r.r.r.r.t.t.t.i.;.O . . . d f.j.j.j.k.j.j.j.k.%.. . . . k h.h.h.h.h.s.p.p.s.i.e.e.e.e.+.` ` ` ` ` ` ` ` ] K . . . . . ",
". . . . : ~ ] ` ` ` ` ` ` ` } 8.e.e.w.e.w.e.e.w.e.w.w.w.e.-.X . . . d u.p.p.p.p.p.p.p.d.$.. . . . k p.p.s.p.p.p.s.p.s.t.e.e.e.e.+.` ] ` ] ` ` ` ` ] L . . . . . ",
". . . . : ~ ` ` ` ` ` ` ` ` } 8.e.w.e.e.e.w.e.e.e.e.e.e.e.-.o . . . d u.s.p.s.p.p.s.p.s.$.. . . . k s.p.s.p.s.s.p.s.s.i.e.e.e.e.+.` ` ` ` ` ` ` ` ] L . . . . . ",
". . . . : ^ ] ` ` ` ` ` ` ` } 8.e.e.e.e.w.e.w.e.w.e.e.e.e.-.O . . . d u.p.s.p.s.p.p.s.d.%.. . . . k s.s.s.p.s.s.s.s.p.i.e.w.e.e.+._ ` ` ` ] ` ] ` ] J . . . . . ",
". . . . & ~ _ _ _ _ ` ` ` ` { 7.w.w.w.w.w.w.w.w.w.e.e.w.e.-.O X o . f u.p.p.p.p.p.p.p.s.$.O X X . l p.s.p.p.p.i.i.i.u.t.w.w.w.w.+.` ` ` ` _ _ _ _ ` L . . . . . ",
"          4 4 4 3 s ) ] ` ` ' | | | | | | | | | X.w.w.e.e.0.-.-.-.-.:.r.r.r.r.r.r.r.r.r.9.-.-.-.#.>.r.r.r.r.4......... .| | | | { ` ` ` ] T 3 4 4 4 >           ",
"          . . . . : / ] ` ` ` ` ` ` ` ` _ ` ` ` | w.w.w.e.e.e.e.e.e.e.e.w.e.w.e.e.e.e.e.e.e.t.9.9.e.e.e.e.e.@._ ` ' ` _ ' ` ` ] ` ` ` ] ] L . . . . .           ",
"          . . . . : / ] ` ` ` ` ` ` ` ` ` ` ` ` | w.e.e.e.e.e.e.e.e.e.e.e.e.e.e.e.w.e.w.e.e.e.w.e.w.e.e.e.e.@.` ` ` ` ` ` ` ` ` ` ` ` ` ] L . . . . .           ",
"          . . . . : / ] ` ` ` ] ` ` ` ` ` ` ` ` } w.e.e.e.e.w.e.e.e.e.e.e.w.e.w.e.e.e.e.w.e.e.e.e.e.w.e.e.e.@.` ` ` ` ` ` ` ` ` ` ` ] ` ] P . . . . .           ",
"          . . . . : ~ ` _ ` ` _ _ ` _ ` ` ` ` ` | 8.w.w.w.w.e.w.e.e.w.e.w.e.w.w.w.w.w.e.w.w.w.w.w.w.w.w.w.e.@.` ` ` ` ` _ ` _ _ ` _ _ ` ` L . . . . .           ",
"                    i i i 4 i i i i i g ) ` ` ` ' |  . . .|  .|  . .|  .|  . .|  . . .|  . . . .|  . . . . .} ` ` ` ] R i i i i i i i i i 2                     ",
"                    . . . . . . . . . > ) ` ` ` ` ` _ ` ` ` ` ` ` ` ` ` ] ` ` ` ` ` ` ` ` ` ` ` ` ` ` ` ` ` ` ` ` ` ] U . . . . . . . . . .                     ",
"                    . . . . . . . . . > ( ] ` ` ` ` ` ` ` ` ` ` ` ` ` ` ` ` ` ` ` ` ` ` ` ` ` ` ` ` ` ` ` ` ` ` ` ` ] U . . . . . . . . . .                     ",
"                    . . . . . . . . . > ) ` ` ` ` ` ` ` ` ` ` ] ` ` ` ` ` ` ` ` ` ` ` ` ` ` ` ` ` ` ` ` ` ` ` ` ` ] ] U . . . . . . . . . .                     ",
"                    . . . . . . . . . > / ` _ ` ` _ ` ` ` _ ` ` _ ` _ ` ` ` _ ` ` _ ` ` _ ` ` ` _ ` ` _ ` _ ` ` ` _ ] U . . . . . . . . . .                     ",
"                              . . . . o i a a p p p p p p p p p p p p p p p p p p p p p p p p p p p p p p p p p p p a > . . . . .                               ",
"                              . . . . . . . . . . . . . . . . . . . . . . . . . . . . . . . . . . . . . . . . . . . . . . . . . .                               ",
"                              . . . . . . . . . . . . . . . . . . . . . . . . . . . . . . . . . . . . . . . . . . . . . . . . . .                               ",
"                              . . . . . . . . . . . . . . . . . . . . . . . . . . . . . . . . . . . . . . . . . . . . . . . . . .                               ",
"                              . . . . . . . . . . . . . . . . . . . . . . . . . . . . . . . . . . . . . . . . . . . . . . . . . .                               ",
"          . . . . . . . . . .                               . . . . = b b n n b b n b n w . . . . .                               . . . . . . . . .             ",
"          . . . . . . . . . .                               . . . . - F G G H G G G G H n . . . . .                               . . . . . . . . . .           ",
"          . . . . . . . . . .                               . . . . - D F F F F F F G G b . . . . .                               . . . . . . . . . .           ",
"          . . . . . . . . . .                               . . . . - D F F F F F F F G n . . . . .                               . . . . . . . . . .           ",
"          . . . . . . . . . .                               . . . . - D F F F F F F F G n . . . . .                               . . . . . . . . . .           ",
". . . . @ u b v b v b b v b y X . . . . . . . . .           . . . . - D F F F F F F F G n . . . . .           . . . . . . . . . 6 b b b b b u b b b 9 . . . .   ",
". . . . @ A G G G G F G G H V X . . . . . . . . .           . . . . - D F F F F F F F F n . . . . .           . . . . . . . . . 9 G F G G G G G F H e . . . . . ",
". . . . @ Z F F F F F F F G V X . . . . . . . . .           . . . . - D F F F F F F F G n . . . . .           . . . . . . . . . 9 G F F F F F F F G w . . . . . ",
". . . . @ A G F F F F F F F V X . . . . . . . . .           . . . . - D F F F F F F F G n . . . . .           . . . . . . . . . 8 G F F F F F F F G w . . . . . ",
". . . . @ A G F F F F F F G V X . . . . . . . . .           . . . . - D F F F F F F F G n . . . . .           . . . . . . . . . 8 G F F F F F F F G e . . . . . ",
". . . . @ C F F F F F F F F A b u u u w X . . . . . . . . . . . . . - D F F F F F F F F n . . . . . . . . . ; u u u u u u u u u N F F F F F F F F G w . . . . . ",
". . . . @ A G F F F F F F F F G G G H V X . . . . . . . . . . . . . - D F F F F F F F G b . . . . . . . . . 7 G H G G G H G G G G F F F F F F F F G w . . . . . ",
". . . . @ C F F F F F F F F F F F F G B X . . . . . . . . . . . . . - D F F F F F F F F n . . . . . . . . . 7 G F F F F F F F F F F F F F F F F F G e . . . . . ",
". . . . + C F F F F F F F F F F F F G V X . . . . . . . . . . . . . - D F F F F F F F G n . . . . . . . . . 7 F F F F F F F F F F F F F F F F F F G w . . . . . ",
". . . . @ S G F F F F F F F F F F F G B X . . . . . . . . . . . . . - D F F F F F F F G n . . . . . . . . . 7 F F F F F F F F F F F F F F F F F F G w . . . . . ",
". . . . + C H F F F F F F F F F F F F A u u y y y u y y u q . . . . - D F F F F F F F G n . . . . * u y u y m F F F F F F F F F F F F F F F F F F G w . . . . . ",
". . . . + A G F F F F F F F F F F F F F G G G G G G G G H N X . . . - D F F F F F F F G b . . . . 6 G G G G G F F F F F F F F F F F F F F F F F F G e . . . . . ",
". . . . + A F F F F F F F F F F F F F F F F F F F F F F G M X . . . - D F F F F F F F G n . . . . 6 F F F F F F F F F F F F F F F F F F F F F F F G w . . . . . ",
". . . . + A F F F F F F F F F F F F F F F F F F F F F F G M . . . . - D F F F F F F F G n . . . . 6 F F F F F F F F F F F F F F F F F F F F F F F G w . . . . . ",
". . . . @ A G G G G F F F F F F F F F F F F F F F F F F G M X . . . - D F F F F F F F G b . . . . 6 F F F F F F F F F F F F F F F F F F F F G G G H e . . . . . ",
"          8 9 9 9 w S F F F F F F F F F F F F F F F F F G M X . . . - D F F F F F F F G n . . . . 6 F F F F F F F F F F F F F F F F F F F m 8 9 9 9 ;           ",
"          . . . . @ A F F F F F F F F F F F F F F F F F G M . . . . - D F F F F F F F G n . . . . 6 F F F F F F F F F F F F F F F F F F G r . . . . .           ",
"          . . . . @ A G F F F F F F F F F F F F F F F F G m X . . . - D F F F F F F F G b . . . . 6 F F F F F F F F F F F F F F F F F F G r . . . . .           ",
"          . . . . @ A F F F F F F F F F F F F F F F F F F M X . . . - D F F F F F F F G b . . . . 6 F F F F F F F F F F F F F F F F F F G r . . . . .           ",
"          . . . . @ S H G G G G G G G F F F F F F F F F G M X . . . - D F F F F F F F G n . . . . 6 F F F F F F F F F F G G G G G G G G H r . . . . .           ",
"                  @ 9 0 0 0 0 0 0 0 0 e D F F F F F F F F Z e e e e b D F F F F F F F F C r r r e n F F F F F F F F G M 0 0 0 0 0 0 0 0 q 6                     ",
"                    . . . . . . . . . * A G F F F F F F F F G G G G G F F F F F F F F F F G G G G G F F F F F F F F G u . . . . . . . . . .                     ",
"                    . . . . . . . . . * A F F F F F F F F F F F F F F F F F F F F F F F F F F F F F F F F F F F F F G y . . . . . . . . . .                     ",
"                    . . . . . . . . . * S F F F F F F F F F F F F F F F F F F F F F F F F F F F F F F F F F F F F F G u . . . . . . . . . .                     ",
"                    . . . . . . . . . * D G G G G G G G G G F G G G G G G G F G F G G G G G G G F G G G G G G G G H H y . . . . . . . . . .                     ",
"                                      @ q q q q q q q q q q q q q q q q q q q q q q q q q q q q q q q q q q q q q q q 7                                         ",
"                                        . . . . . . . . . . . . . . . . . . . . . . . . . . . . . . . . . . . . . . . .                                         ",
"                                        . . . . . . . . . . . . . . . . . . . . . . . . . . . . . . . . . . . . . . . .                                         ",
"                                        . . . . . . . . . . . . . . . . . . . . . . . . . . . . . . . . . . . . . . . .                                         ",
"                                        . . . . . . . . . . . . . . . . . . . . . . . . . . . . . . . . . . . . . . . .                                         "
};
