/* XPM */
static char *_8c1ea1ca7a44a928433c9e392e60170PhvTxaUyE2qiPGdB[] = {
/* columns rows colors chars-per-pixel */
"80 80 120 2 ",
"   c None",
".  c #000000",
"X  c #040B03",
"o  c #110200",
"O  c #1C0300",
"+  c #180D03",
"@  c #071204",
"#  c #081504",
"$  c #091A05",
"%  c #1C1103",
"&  c #220300",
"*  c #2E0500",
"=  c #3D0600",
"-  c #221703",
";  c #0C2006",
":  c #0D2408",
">  c #112D09",
",  c #12310A",
"<  c #15390C",
"1  c #460700",
"2  c #7F0C00",
"3  c #403E04",
"4  c #403F0A",
"5  c #17400D",
"6  c #18410D",
"7  c #1C4B10",
"8  c #1D5011",
"9  c #205712",
"0  c #225C13",
"q  c #266616",
"w  c #266816",
"e  c #286D17",
"r  c #2A7319",
"t  c #2C7819",
"y  c #554906",
"u  c #545105",
"i  c #54510D",
"p  c #665907",
"a  c #40403A",
"s  c gray25",
"d  c #54534B",
"f  c gray33",
"g  c #860D00",
"h  c #8A0D00",
"j  c #920E00",
"k  c #9D0F00",
"l  c #A81100",
"z  c #D21400",
"x  c #D91500",
"c  c #E41600",
"v  c #EB1700",
"b  c #FF1700",
"n  c #F31800",
"m  c #FF1900",
"M  c #FF2703",
"N  c #FF2F04",
"B  c #FF3305",
"V  c #FF4107",
"C  c #FF5E0D",
"Z  c #FF660F",
"A  c #FF6E10",
"S  c #FF7911",
"D  c #2F801B",
"F  c #32871D",
"G  c #338B1E",
"H  c #36931F",
"J  c #379620",
"K  c #399C21",
"L  c #3CA322",
"P  c #3FAD25",
"I  c #40AF25",
"U  c #41B126",
"Y  c #44B927",
"T  c #46BE28",
"R  c #47C229",
"E  c #48C429",
"W  c #B2AC0A",
"Q  c #BAAB0C",
"!  c #B2AD1D",
"~  c #E38B16",
"^  c #FF8715",
"/  c #FF8E16",
"(  c #EB9317",
")  c #FF9317",
"_  c #F79E17",
"`  c #FF9718",
"'  c #FF9C19",
"]  c #C5BE0B",
"[  c #CBBB0D",
"{  c #FFA216",
"}  c #FFAD17",
"|  c #FFA518",
" . c #FFA818",
".. c #FFB017",
"X. c #FFB71C",
"o. c #C5BF20",
"O. c #FFCD13",
"+. c #FFD612",
"@. c #FFD813",
"#. c #FFED0E",
"$. c #FFF60E",
"%. c #FFF90F",
"&. c #FFED10",
"*. c #FFF110",
"=. c #FFDB23",
"-. c #FDF428",
";. c #FFF929",
":. c #FFF13C",
">. c #FFF941",
",. c #B2B1A0",
"<. c #B2B2B2",
"1. c #FFF899",
"2. c #C5C4B1",
"3. c #FFFDAA",
"4. c #C5C5C5",
"5. c #FFFDDD",
"6. c #FFFEE5",
"7. c #FFFFE9",
"8. c #FFFFF6",
"9. c #FFFFFF",
/* pixels */
"                                        . . . . . . . . . . . . . . . . . . . . . . . . . . . . . . . . . . . . . . . .                                         ",
"                                        . . . . . . . . . . . . . . . . . . . . . . . . . . . . . . . . . . . . . . . .                                         ",
"                                        . . . . . . . . . . . . . . . . . . . . . . . . . . . . . . . . . . . . . . . .                                         ",
"                                        . . . . . . . . . . . . . . . . . . . . . . . . . . . . . . . . . . . . . . . .                                         ",
"                                        O O O O O O O O O O O O O O O O O O O O O O O O O O O O O O O O O O O O O O O O                                         ",
"                      . . . . . . . . . j c c c c c c c c c c c c c c c c c c c c c c c c c c c c c c c c c c c c c c x * . . . . . . . . .                     ",
"                    . . . . . . . . . . k m m m m m m m m m m m m m m m m m m m m m m m m m m m m m m m m m m m m m m n * . . . . . . . . .                     ",
"                    . . . . . . . . . . k m m m m m m m m m m m m m m m m m m m m m m m m m m m m m m m m m m m m m m n * . . . . . . . . .                     ",
"                    . . . . . . . . . . k m m m b b b b m m m m m m m m m m m m m m b m m m m m m m m m m m m m m m m n * . . . . . . . . .                     ",
"                    O O O O O O O O O O l m m m m M M M M M M M M M M M M M M M M M M M M M M M M M M M M M M m m m m n 1 O O O O O O O O O                     ",
"            . . . . g v c c c c c c c c n m m m b Z ) / / / / / / / / / / / / / / / / / / / / / / / / / / / ^ B m m m m c c c c c c c c c z & . . . .           ",
"          . . . . . h m m m m m m m m m m m m m b A { ' ' ' ' ' ' ' ' ' ' ' ' ' ' ' ' ' ' ' ' ' ' ' ' ' ' ' ' B b m m m m m m m m m m m m v & . . . .           ",
"          . . . . . h m m m m m m m m m m m m m m A ' ' ' ' ' ' ' ' ' ' ' ' ' ' ' ' ' ' ' ' ' ' ' ' ' ' ' ' ` B b m m m m m m m m m m m m v & . . . .           ",
"          . . . . . h m m m m m m b m b m b m b b A ' ' ' ' ' ' ' ' ' _ ' ' ' ' ' ' ' ' ' ' ' ' ' ' ' ' ' ' ` B b m m m m m m m m m m m m v & . . . .           ",
"          O O O O O k m m b m M M M M M M M M M M S  .| | | ( ~ ~ ~ ~ { | | | | | |  .| | ( ~ ~ ~ ~ { |  .| | B M M M M M M M M M m m m m v = O O O O           ",
". . . . . g c c c c n m m b b C ) / / / / / / / / O.*.&.&.&.p + % % % Q *.&.&.&.&.&.&.&.&.y + + % % [ *.&.&.&.{ / / / / / / / / ^ N m m m m c c c c z & . . . . ",
". . . . . g m m m m m m m m b Z { ' ' ' ' ' ' ' ' @.%.%.%.%.u . . . . W %.%.$.%.%.%.%.%.$.3 . . . X ] %.$.$.$...' ' ' ' ' ' ' ' ` N b m m m m m m m c & . . . . ",
". . . . . g m m m m m m m m m Z { ' ' ' ' ' ' ' ' +.%.$.$.$.u . . . . W %.%.$.%.$.$.$.$.*.3 . . . X ] %.$.$.*.} ' ' ' ' ' ' ' ' ) N b m m m m m m m c & . . . . ",
". . . . . g m m m m m m m m m Z ' ' ' ' ' ' ' ' ' +.%.$.$.$.u . . . . W %.%.$.$.$.$.%.%.*.3 . . . X ] %.$.$.$.} ' ' ' ' ' ' ' ' ) N b m m m m m m m v & . . . . ",
". . . . . g m m m m m m m m m Z { ' ' ' { | | | | =.;.;.;.;.i . . . . ! ;.;.;.;.;.;.-.-.-.4 . . . X o.;.;.;.-.X.{ | | | ' ' ' ' ` N b m m m m m m m v O . . . . ",
". . . . . g m m m m m m m m m Z ' ' ' ' O.&.&.&.#.1.7.6.6.6.d . . . . ,.7.6.6.6.6.6.6.6.6.a . . . X 2.7.6.6.5.:.#.&.&.&.} ' ' ' ) N b m m m m m m m v & . . . . ",
". . . . . g m m m m m m m m b Z ' ' ' ' @.%.%.%.%.3.9.9.9.9.f . . . . <.9.9.9.9.9.9.9.9.8.s . . . o 4.9.9.9.8.>.%.%.*.*.} ' ' ' ` N b m m m m m m m c & . . . . ",
". . . . . g m m m m m m m m b Z ' ' ' ` +.%.%.%.$.3.9.9.9.9.f . . . . <.9.9.9.9.9.9.9.9.9.s . . . X 4.9.9.9.8.>.%.%.$.*. .' ' ' ) N m m m m m m m m c & . . . . ",
". . . . . g m m m m m m m m b Z ' ' ' ' +.%.%.%.%.3.9.9.9.9.f . . . X <.9.9.9.9.9.9.9.9.8.s . . . X 4.9.9.9.8.>.$.%.%.*.} ' ' ' ` N m m m m m m m m v O . . . . ",
". . . . . g m m m m m m m m b Z ' ' ' ' +.&.&.&.&.3.7.7.6.6.d . . . . ,.7.6.6.6.6.6.6.6.6.a . . . X 2.7.6.6.5.:.#.#.#.#. .' ' ' ) N b m m m m m m m c & . . . . ",
". . . . . g m m m m m m m m b Z ' ' ' ' ' ' | | | =.;.;.;.;.i . . . . ! ;.;.;.;.;.;.;.;.-.4 . . . X o.;.;.;.;.X.| | | { ' ' ' ' ` N b m m m m m m m v & . . . . ",
". . . . . g m m m m m m m m m Z ' ' ' ' ' ' ' ' ' +.%.$.%.%.u . . . . W %.%.%.$.%.$.%.%.#.3 . . . X ] %.$.$.$.} ' ' ' ' ' ' ' ' ) N b m m m m m m m v O . . . . ",
". . . . . g m m m m m m m m b Z ' ' ' ' ' ' ' ' ' +.%.$.*.$.u . . . . W %.*.%.$.%.%.*.*.*.3 . . . X ] %.$.$.*...' ' ' ' ' ' ' ' ` N b m m m m m m m c & . . . . ",
". . . . . g m m m m m m m m b Z | ' ' ' ' ' ' ' ' +.%.%.$.%.u . . . . W %.%.%.%.%.%.%.%.&.y . . . o ] %.%.%.*.} ' ' ' ' ' ' ' ' ` N b m m m m m m m c & . . . . ",
". . . . . g c c c c n m m m b C ) ` ) ) / / / ) / O.*.&.&.&.p + % % % Q $.&.&.&.&.&.&.&.&.y + % - - [ *.&.&.&.{ / / / / / / / / ^ N m m m m c c c c z & . . . . ",
"          O O O O O k m m m m M M M M M M M M M M S | | | | ( ~ ~ ~ ~ _ | | |  .| | | | _ ~ ~ ~ ~ ~ _ | { | { V M M M M M M M M M m m m m v = O O O O           ",
"          . . . . . h m m m m m b b b b b b b b b A ' ' ' ' ' ' ' ' ' ' ' ' ' ' ' ' ' ' _ { ' ' ' ' ' ' ' ' ` B b m m b m m b m m m m m m v & . . . .           ",
"          . . . . . h m m m m m m m m m m m m m m A { ' ' ' ' ' ' ' ' ' ' ' ' ' ' ' ' ' ' ' ' ' ' ' ' ' ' ' ` B b m m m m m m m m m m m m v * . . . .           ",
"          . . . . . j m m m m m m m m m m m m m m A ' ' ' ' ' ' ' ' ' ' ' ' ' ' ' ' ' ' ' ' ' ' ' ' ' ' ' ' ' B b m m m m m m m m m m m m v & . . . .           ",
"            . . . . g c c c c c c c c c n m m m m Z ) / / / / / ) / / / / / ) / / / / / ) / / / / / ) / ) / ^ B b m m m c c c c c c c c c z & . . . .           ",
"                    O O O O O O O O O O l m m m b M M M M M M M M M M M M M M M M M M M M M M M M M M M M M M m m m m n 1 O O O O O O O O O                     ",
"                    . . . . . . . . . . k m m m b b m b m m b m m m b m m m b m m b m b m b m m m m m m m b m m m m m n * . . . . . . . . .                     ",
"                    . . . . . . . . . . k m m m m m m m m m m m m m m m m m m m m m m m m m m m m m m m m m m m m m m n * . . . . . . . . .                     ",
"                    . . . . . . . . . . l m m m m m m m m m m m m m m m m m m m m m m m m m m m m m m m m m m m m m m n * . . . . . . . . .                     ",
"                      . . . . . . . . . g c c c c c c c c c c c c c c c c c c c c c c c c c c c c c c c c c x c c c c x * . . . . . . . . .                     ",
"                              . . . . . o O O O O O O O O O O O O O O O O O O O O O O O O O O O O O O O O O O O O O O O . . . . .                               ",
"                              . . . . . . . . . . . . . . . . . . . . . . . . . . . . . . . . . . . . . . . . . . . . . . . . . .                               ",
"                              . . . . . . . . . . . . . . . . . . . . . . . . . . . . . . . . . . . . . . . . . . . . . . . . . .                               ",
"                              . . . . . . . . . . . . . . . . . . . . . . . . . . . . . . . . . . . . . . . . . . . . . . . . . .                               ",
"                              . . . . . . . . . . . . . . . . . . . . @ # # # # # # @ # # . . . . . . . . . . . . . . . . . . . .                               ",
"            . . . . . . . . .                               . . . . . t P P P P P P P P P > . . . .                               . . . . . . . . . .           ",
"          . . . . . . . . . .                               . . . . . F E E E E E E E E T , . . . .                               . . . . . . . . . .           ",
"          . . . . . . . . . .                               . . . . . F E E E R R R R R T , . . . .                               . . . . . . . . . .           ",
"          . . . . . . . . . .                               . . . . . F E R R R R R R R T , . . . .                               . . . . . . . . . .           ",
"          @ # # # # # @ # # #                               . . . . . F E R R R R R R R T , . . . .                               # $ # # # # @ # # #           ",
". . . . . q P P P P P P I I I 7 . . . . . . . . .           . . . . . F E E R R R R R R T , . . . .           . . . . . . . . . X H P P P P P P P P K $ . . . . ",
". . . . . e E E E E E E E E E 8 . . . . . . . . .           . . . . . F E R R R R R R R T , . . . .           . . . . . . . . . X L E E E E E E E E U $ . . . . ",
". . . . . q E E R R R R R R E 7 . . . . . . . . .           . . . . . F E E R R R R R R T , . . . .           . . . . . . . . . X L E R R R R R R R U $ . . . . ",
". . . . . q E R R R R R R R E 8 . . . . . . . . .           . . . . . F E R R R R R R R T , . . . .           . . . . . . . . . X L E E R R R R R E P $ . . . . ",
". . . . . q E E R R R R R R E 0 @ # # # X . . . .           . . . . . G E R R R R R R R T , . . . .           # # # # # # # # # ; L E R R R R R R E P $ . . . . ",
". . . . . w E E R R R R R R R Y P P P I 6 . . . . . . . . . . . . . . F E R R R R R R R T , . . . . . . . . . H I P P P P P P P P T R R R R R R R R U $ . . . . ",
". . . . . w E R R R R R R R R E E E E E 7 . . . . . . . . . . . . . . F E E E E R R R R T , . . . . . . . . X K E E E E E E E E E R R R R R R R R R I $ . . . . ",
". . . . . w E E R R R R R R R R R R T E 7 . . . . . . . . . . . . . . F E E R R R R R R T , . . . . . . . . X J E R R R R R R R R R R R R R R R R R U $ . . . . ",
". . . . . w E E R R R R R R R R R R R E 7 . . . . . . . . . . . . . . F E R R R R R R R T , . . . . . . . . X J E R R R R R R R R R R R R R R R R R P $ . . . . ",
". . . . . w E R R R R R R R R R R R R E 9 @ # # # # # # # $ . . . . . F E R R R R R R R T , . . . . @ # # # $ K E E R R R R R R R R R R R R R R R E U $ . . . . ",
". . . . . w E E R R R R R R R R R R R R U P P P P P P P P P < . . . . F E E R R R R R R T , . . . X F P P P P T R R R R R R R R R R R R R R R R R E P $ . . . . ",
". . . . . q E E R R R R R R R R R R R R E E E E E E E E R E 6 . . . . F E E R R R R R R T , . . . . J E E E E T R R R R R R R R R R R R R R R R R R P $ . . . . ",
". . . . . w E R R R R R R R R R R R R R R R R R R R R R R R 6 . . . . F E R R R R R R R T , . . . X J E R R R R R R R R R R R R R R R R R R R R E E P $ . . . . ",
". . . . . w E E E E R R R R R R R R R R R R R R R R R R R R 6 . . . . G E R R R R R R R T , . . . . J E R R R R R R R R R R R R R R R R R R E E E E U $ . . . . ",
". . . . . q P P P P Y R R R R R R R R R R R R R R R R R R R 6 . . . . F E E R R R R R R T , . . . . J E E R R R R R R R R R R R R R R R R T I P P P K $ . . . . ",
"          @ # # # @ t E R R R R R R R R R R R R R R R R R R 6 . . . . F E E R R R R R R T , . . . X K E E E R R R R R R R R R R R R R R R Y > @ # # #           ",
"          . . . . . r E R R R R R R R R R R R R R R R R R R 6 . . . . F E E E R R R R R T , . . . . J E R R R R R R R R R R R R R R R R R U $ . . . .           ",
"          . . . . . e E R R R R R R R R R R R R R R R R R R 6 . . . . F E E R R R R R R T , . . . . J E R R R R R R R R R R R R R R R R E Y $ . . . .           ",
"          . . . . . e E E E E E R E E E R R R R R R R R R R < . . . . F E R R R R R R R T , . . . . J E R R R R R R R R E E E E E E E E E Y $ . . . .           ",
"            . . . . q U P P P P P P P P Y R R R R R R R R R 7 # # @ # G E R R R R R R R R 6 @ # $ $ K E R R R R R R R R I P P P P P P P P L $ . . . .           ",
"                    @ # @ # # # # # # @ D E R R R R R R R R Y P P P I Y R R R R R R R R R P P P P P T R R R R R R R R Y , # # # # # # # # #                     ",
"                    . . . . . . . . . . t E R R R R R R R R E R E E E R R R R R R R R R R R E E E E R R R R R R R R R Y : . . . . . . . . .                     ",
"                    . . . . . . . . . . t E R R R R R R R T R R R R R R R R R R R R R R R R R R R R R R R R R R R T R Y : . . . . . . . . .                     ",
"                    . . . . . . . . . . t E E E E E E E E E E E E E E E E E E E E E E E E E E E R E E E E E E E E E E Y : . . . . . . . . .                     ",
"                      . . . . . . . . . r U P P P P P P P I P P P P P P P I P P P P P P P P P P P P P P P P P P P P P L : . . . . . . . . .                     ",
"                                        @ # # # # # # # # # # @ # # # # @ @ # # # @ # # # @ # # # # # # # # # # # # # #                                         ",
"                                        . . . . . . . . . . . . . . . . . . . . . . . . . . . . . . . . . . . . . . . .                                         ",
"                                        . . . . . . . . . . . . . . . . . . . . . . . . . . . . . . . . . . . . . . . .                                         ",
"                                        . . . . . . . . . . . . . . . . . . . . . . . . . . . . . . . . . . . . . . . .                                         ",
"                                        . . . . . . . . . . . . . . . . . . . . . . . . . . . . . . . . . . . . . . . .                                         "
};
