/* XPM */
static char *result[] = {
/* columns rows colors chars-per-pixel */
"80 80 124 2 ",
"   c black",
".  c #020202",
"X  c gray1",
"o  c #0C0C0C",
"O  c gray5",
"+  c #0E0E0E",
"@  c gray6",
"#  c #0F0F10",
"$  c #101010",
"%  c #111111",
"&  c #151515",
"*  c gray9",
"=  c #181818",
"-  c #1D1D1D",
";  c #1D1D1E",
":  c #1E1E1F",
">  c gray13",
",  c #222222",
"<  c gray14",
"1  c #252525",
"2  c gray15",
"3  c gray16",
"4  c #2A2A2A",
"5  c #2C2C2C",
"6  c #2C2C2D",
"7  c #2D2D2D",
"8  c gray18",
"9  c #2F2F2F",
"0  c gray19",
"q  c #313131",
"w  c #323232",
"e  c #343434",
"r  c #373737",
"t  c gray22",
"y  c #3A3A3A",
"u  c #3A3A3B",
"i  c #3E3E3F",
"p  c gray25",
"a  c #464646",
"s  c #494949",
"d  c gray30",
"f  c #505050",
"g  c #515151",
"h  c #A2A2A3",
"j  c #AAAAAB",
"k  c #AFAFB0",
"l  c #B3B3B4",
"z  c #B5B5B6",
"x  c #BABABB",
"c  c #BBBBBC",
"v  c #BCBCBD",
"b  c #BDBDBE",
"n  c #BEBEBF",
"m  c #BFBFC0",
"M  c #C0C0C1",
"N  c #C1C1C2",
"B  c #C2C2C3",
"V  c #C3C3C4",
"C  c #C4C4C5",
"Z  c #C5C5C6",
"A  c #C6C6C7",
"S  c #C7C7C8",
"D  c #C8C8C9",
"F  c gray79",
"G  c #C9C9CA",
"H  c #CACACB",
"J  c #CDCDCE",
"K  c #CECECE",
"L  c #D0D0D1",
"P  c #D1D1D2",
"I  c #D1D2D4",
"U  c #D3D3D4",
"Y  c #D2D3D5",
"T  c #D3D3D5",
"R  c #D3D4D5",
"E  c #D3D4D6",
"W  c gray83",
"Q  c #D5D5D5",
"!  c #D5D5D6",
"~  c #D4D5D7",
"^  c #D5D5D7",
"/  c #D5D6D7",
"(  c #D6D6D7",
")  c #D5D6D8",
"_  c #D6D7D8",
"`  c #D6D7D9",
"'  c #D7D8D9",
"]  c #D7D8DA",
"[  c #D8D8D8",
"{  c #D8D8D9",
"}  c gray85",
"|  c #D8D8DA",
" . c #D9D9DA",
".. c #D9D9DB",
"X. c #DADADA",
"o. c #DADADB",
"O. c gray86",
"+. c #DBDBDC",
"@. c #DCDCDD",
"#. c #DFDFE0",
"$. c #DFDFE1",
"%. c #DFE0E1",
"&. c #E0E0E1",
"*. c #E0E0E2",
"=. c #E1E1E2",
"-. c #E2E2E3",
";. c #E2E2E4",
":. c #E2E3E4",
">. c #E3E3E4",
",. c #E3E3E5",
"<. c #E3E4E5",
"1. c #E4E4E5",
"2. c #E4E4E6",
"3. c #E5E5E6",
"4. c #E5E6E7",
"5. c #E6E6E6",
"6. c #E6E6E7",
"7. c #E7E7E8",
"8. c #E8E8E9",
"9. c #E9E9EA",
"0. c #EAEAEB",
"q. c #EBEBEC",
"w. c #ECECED",
"e. c None",
/* pixels */
"e.e.e.e.e.e.e.e.e.e.e.e.e.e.e.e.e.e.e.e.e.e.e.e.e.e.e.e.e.e.e.e.e.e.e.e.I I I I I I I I I I I I I I I I I I I I e.e.e.e.e.e.e.e.e.e.e.e.e.e.e.e.e.e.e.e.e.e.e.e.",
"e.e.e.e.e.e.e.e.e.e.e.e.e.e.e.e.e.e.e.e.e.e.e.e.e.e.e.e.e.e.e.e.e.e.e.e.I I I I I I I I I I I I I I I I I I I I e.e.e.e.e.e.e.e.e.e.e.e.e.e.e.e.e.e.e.e.e.e.e.e.",
"e.e.e.e.e.e.e.e.e.e.e.e.e.e.e.e.e.e.e.e.e.e.e.e.e.e.e.e.e.e.e.e.e.e.e.e.I I I I I I I I I I I I I I I I I I I I e.e.e.e.e.e.e.e.e.e.e.e.e.e.e.e.e.e.e.e.e.e.e.e.",
"e.e.e.e.e.e.e.e.e.e.e.e.e.e.e.e.e.e.e.e.e.e.e.e.e.e.e.e.e.e.e.e.e.e.e.e.I I I I Y Y Y Y Y Y Y Y Y Y Y Y Y Y Y Y e.e.e.e.e.e.e.e.e.e.e.e.e.e.e.e.e.e.e.e.e.e.e.e.",
"e.e.e.e.e.e.e.e.e.e.e.e.e.e.e.e.e.e.e.e.e.e.e.e.e.e.e.e.I I I I I I I I I I I Y #.-.-.-.-.-.-.-.-.-.-.-.-.-.-.=.~ I I I I I I I I I I I e.e.e.e.e.e.e.e.e.e.e.e.",
"e.e.e.e.e.e.e.e.e.e.e.e.e.e.e.e.e.e.e.e.e.e.e.e.e.e.e.e.I I I I I I I I I I I T >.7.7.7.7.7.7.7.7.7.7.7.7.7.7.3.~ I I I I I I I I I I I e.e.e.e.e.e.e.e.e.e.e.e.",
"e.e.e.e.e.e.e.e.e.e.e.e.e.e.e.e.e.e.e.e.e.e.e.e.e.e.e.e.I I I I I I I I I I I T >.7.7.7.7.7.7.7.7.7.7.7.7.7.7.3.~ I I I I I I I I I I I e.e.e.e.e.e.e.e.e.e.e.e.",
"e.e.e.e.e.e.e.e.e.e.e.e.e.e.e.e.e.e.e.e.e.e.e.e.e.e.e.e.I I I I Y Y Y Y Y Y Y E ,.7.7.7.7.7.7.7.7.7.7.7.7.7.7.3.) Y Y Y Y Y Y Y I I I I e.e.e.e.e.e.e.e.e.e.e.e.",
"e.e.e.e.e.e.e.e.e.e.e.e.e.e.e.e.e.e.e.e.e.e.e.e.I I I I I I I Y #.-.-.-.-.-.-.-.6.7.7.7.7.7.7.7.7.7.7.7.7.7.7.7.>.-.-.-.-.-.-.*.E I I I I I I I e.e.e.e.e.e.e.e.",
"e.e.e.e.e.e.e.e.e.e.e.e.e.e.e.e.e.e.e.e.e.e.e.e.I I I I I I I Y >.7.7.7.7.7.7.7.7.7.7.7.7.7.7.7.7.7.7.7.7.7.7.7.7.7.7.7.7.7.7.3.~ I I I I I I I e.e.e.e.e.e.e.e.",
"e.e.e.e.e.e.e.e.e.e.e.e.e.e.e.e.e.e.e.e.e.e.e.e.I I I I I I I Y >.7.7.7.7.7.7.7.7.7.7.7.7.7.7.7.7.7.7.7.7.7.7.7.7.7.7.7.7.7.7.3.~ I I I I I I I e.e.e.e.e.e.e.e.",
"e.e.e.e.e.e.e.e.e.e.e.e.e.e.e.e.e.e.e.e.e.e.e.e.Y Y Y Y Y Y Y E >.7.7.7.7.7.7.7.7.7.7.7.7.7.7.7.7.7.7.7.7.7.7.7.6.6.6.6.7.7.7.3.) Y Y Y I I I I e.e.e.e.e.e.e.e.",
"e.e.e.e.e.e.e.e.e.e.e.e.e.e.e.e.e.e.e.e.I I I Y $.-.-.-.-.-.-.-.6.7.7.7.7.7.7.7.7.7.7.7.7.7.7.7.7.7.7.7.7.7.7.4...` ` | 3.7.7.7.>.-.-.&.E I I E <.7.7.7.e.e.e.e.",
"e.e.e.e.e.e.e.e.e.e.e.e.e.e.e.e.e.e.e.e.I I I Y >.7.7.7.7.7.7.7.7.7.7.7.7.7.7.7.7.7.7.7.7.7.7.7.7.7.7.7.7.7.7.3.~ I I E 1.7.7.7.7.7.7.3.~ I I E 1.7.7.7.e.e.e.e.",
"e.e.e.e.e.e.e.e.e.e.e.e.e.e.e.e.e.e.e.e.I I I Y >.7.7.7.7.7.7.7.7.7.7.7.7.7.7.7.7.7.7.7.7.7.7.7.7.7.7.7.7.7.7.3.~ I I E 1.7.7.7.7.7.7.3.~ I I E 1.7.7.7.e.e.e.e.",
"e.e.e.e.e.e.e.e.e.e.e.e.e.e.e.e.e.e.e.e.I I I Y >.7.7.7.7.7.7.7.7.7.7.7.7.7.7.7.7.7.7.7.7.7.7.7.7.7.7.7.7.7.7.3.~ I I E >.6.6.6.6.6.6.1.~ I I E 1.7.7.7.e.e.e.e.",
"e.e.e.e.e.e.e.e.e.e.e.e.e.e.e.e.e.e.e.e.I I I Y >.7.7.7.7.7.7.7.7.7.7.7.7.7.7.7.7.7.7.7.7.7.7.7.7.7.7.7.7.7.7.3.~ I I I / _ _ _ _ _ _ ) Y I I E 1.7.7.7.e.e.e.e.",
"e.e.e.e.e.e.e.e.e.e.e.e.e.e.e.e.e.e.e.e.I I I Y >.7.7.7.7.7.7.7.7.7.7.7.7.7.7.7.7.7.7.7.7.7.7.7.7.7.7.7.7.7.7.3.~ I I I I I I I I I I I I I I E 1.7.7.7.e.e.e.e.",
"e.e.e.e.e.e.e.e.e.e.e.e.e.e.e.e.e.e.e.e.I I I Y >.7.7.7.7.7.7.7.7.7.7.7.7.7.7.7.7.7.7.7.7.7.7.7.7.7.7.7.7.7.7.3.~ I I I I I I I I I I I I I I E 1.7.7.7.e.e.e.e.",
"e.e.e.e.e.e.e.e.e.e.e.e.e.e.e.e.e.e.e.e.Y Y Y E >.7.7.7.7.7.7.7.7.7.7.7.7.7.7.7.7.7.7.7.7.7.7.7.7.7.7.7.7.7.7.3.) Y Y Y Y Y Y Y Y Y Y Y Y Y Y ~ 2.7.7.7.e.e.e.e.",
"e.e.e.e.e.e.e.e.e.e.e.e.e.e.e.e.I I I Y %.:.:.:.6.7.7.7.7.7.7.7.7.7.7.7.7.7.7.7.7.7.7.7.7.7.7.7.7.7.7.7.7.7.7.7.<.:.:.:.:.:.:.:.:.:.:.:.:.:.:.>.6.7.7.7.e.e.e.e.",
"e.e.e.e.e.e.e.e.e.e.e.e.e.e.e.e.I I I Y :.7.7.7.7.7.7.7.7.7.7.7.7.7.7.7.7.7.7.7.7.7.7.7.7.7.7.7.7.7.7.7.7.7.7.7.7.7.7.7.7.7.7.7.7.7.7.7.7.7.7.7.7.7.7.7.e.e.e.e.",
"e.e.e.e.e.e.e.e.e.e.e.e.e.e.e.e.I I I Y :.7.7.7.7.7.7.7.7.7.7.7.7.7.7.7.7.7.7.7.7.7.7.7.7.7.7.7.7.7.7.7.7.7.7.7.7.7.7.7.7.7.7.7.7.7.7.7.7.7.7.7.7.7.7.7.e.e.e.e.",
"e.e.e.e.e.e.e.e.e.e.e.e.e.e.e.e.I I I Y :.7.7.7.7.7.7.7.7.7.7.7.7.7.7.7.7.7.7.7.7.7.7.7.7.7.7.7.7.7.7.7.7.7.7.7.7.7.7.7.7.7.7.7.7.7.7.7.7.7.7.7.7.7.7.7.e.e.e.e.",
"e.e.e.e.e.e.e.e.e.e.e.e.e.e.e.e.I I I Y :.7.7.7.7.7.7.7.7.7.7.7.7.7.7.7.7.7.7.7.7.7.7.7.7.7.7.7.7.7.7.7.7.7.7.7.7.7.7.7.7.7.7.7.7.7.7.7.7.7.7.7.7.7.7.7.7.7.7.7.",
"e.e.e.e.e.e.e.e.e.e.e.e.e.e.e.e.I I I Y :.7.7.7.7.7.7.7.7.7.7.7.7.7.7.7.7.7.7.7.7.7.7.7.7.7.7.7.7.7.7.7.7.7.7.7.7.7.7.7.7.7.7.7.7.7.7.7.7.7.7.7.7.7.7.7.7.7.7.7.",
"e.e.e.e.e.e.e.e.e.e.e.e.e.e.e.e.I I I Y :.7.7.7.7.7.7.7.7.7.7.7.8.8.8.8.7.7.7.7.7.7.7.7.7.7.7.7.7.7.7.7.7.7.7.7.7.7.7.7.8.8.8.8.7.7.7.7.7.7.7.7.7.7.7.7.7.7.7.7.",
"e.e.e.e.e.e.e.e.e.e.e.e.e.e.e.e.I I I Y :.7.7.7.7.7.7.7.7.7.7.6.@. . .o.1.7.7.7.7.7.7.7.7.7.7.7.7.7.7.7.7.7.7.7.7.7.7.6.+. . .o.3.7.7.7.7.7.7.7.7.7.7.7.7.7.7.7.",
"e.e.e.e.e.e.e.e.e.e.e.e.e.e.e.e.I I I Y :.7.7.7.7.7.7.7.7.7.8.+.g 5 7 y Z 9.7.7.7.7.7.7.7.7.7.7.7.7.7.7.7.7.7.7.7.7.8.( s 5 7 p J 9.7.7.7.7.7.7.7.7.7.7.7.7.7.7.",
"e.e.e.e.e.e.e.e.e.e.e.e.e.e.e.e.I I I Y :.7.7.7.7.7.7.7.7.7.8.{ 5     # v 0.7.7.7.7.7.7.7.7.7.7.7.7.7.7.7.7.7.7.7.7.8.P ,     * A 9.7.7.7.7.7.7.7.7.7.7.7.7.7.7.",
"e.e.e.e.e.e.e.e.e.e.e.e.e.e.e.e.I I I Y :.7.7.7.7.7.7.7.7.7.8.{ 5     # v 0.7.7.7.7.7.7.7.7.7.7.7.7.7.7.7.7.7.7.7.7.8.P ,     * A 9.7.7.7.7.7.7.7.7.7.7.7.7.7.7.",
"e.e.e.e.e.e.e.e.e.e.e.e.e.e.e.e.I I I Y :.7.7.7.7.7.7.7.7.7.8. .t o + ; m 0.7.7.7.7.7.7.7.7.7.7.7.7.7.7.7.7.7.7.7.7.8.U 9 O + < F 9.7.7.7.7.7.7.7.7.7.7.7.7.7.7.",
"e.e.e.e.e.e.e.e.e.e.e.e.e.e.e.e.I I I Y :.7.7.7.7.7.7.7.7.7.7.1.V x c n #.8.7.7.7.7.7.7.7.7.7.7.7.7.7.7.7.7.7.7.7.7.7.>.N c c m =.7.7.7.7.7.7.7.7.7.7.7.7.7.7.7.",
"e.e.e.e.e.e.e.e.e.e.e.e.e.e.e.e.I I I Y :.7.7.7.7.7.7.7.7.7.7.7.9.0.0.0.8.7.7.7.7.7.7.7.7.7.7.7.7.7.7.7.7.7.7.7.7.7.7.7.0.0.0.0.7.7.7.7.7.7.7.7.7.7.7.7.7.7.7.7.",
"e.e.e.e.e.e.e.e.e.e.e.e.e.e.e.e.I I I Y :.7.7.7.7.7.7.7.8.8.8.8.7.7.7.7.7.7.7.7.7.7.7.7.7.7.7.7.7.7.7.7.7.7.7.7.7.7.7.7.7.7.7.7.8.8.8.8.7.7.7.7.7.7.7.7.7.7.7.7.",
"e.e.e.e.e.e.e.e.e.e.e.e.e.e.e.e.I I I Y :.7.7.7.7.7.7.6.O.[ [ } 1.7.7.7.7.7.7.7.7.7.7.7.7.7.7.7.7.7.7.7.7.7.7.7.7.7.7.7.7.7.7.5.X.[ [ X.3.7.7.7.7.7.7.7.7.7.7.7.",
"e.e.e.e.e.e.e.e.e.e.e.e.e.e.e.e.I I I Y :.7.7.7.7.7.8.@.f 3 4 r V 9.7.7.7.7.7.7.7.7.7.7.7.7.7.7.7.7.7.7.7.7.7.7.7.7.7.7.7.7.8.Q a 3 4 i K 9.7.7.7.7.7.7.7.7.7.7.",
"e.e.e.e.e.e.e.e.e.e.e.e.e.e.e.e.I I I Y :.7.7.7.7.7.8. .8     @ c 0.7.7.7.7.7.7.7.7.7.7.7.7.7.7.7.7.7.7.7.7.7.7.7.7.7.7.7.7.8.L >     = D 9.7.7.7.7.7.7.7.7.7.7.",
"e.e.e.e.e.e.e.e.e.e.e.e.e.e.e.e.I I I Y :.7.7.7.7.7.8. .8     @ v q.8.8.8.8.8.8.8.8.8.8.8.8.8.8.8.8.8.8.8.8.8.8.8.8.8.8.8.8.9.P >     = D 9.7.7.7.7.7.7.7.7.7.7.",
"e.e.e.e.e.e.e.e.e.e.e.e.e.e.e.e.I I I Y :.7.7.7.7.7.8.o.u O @ - l @.o.o.o.o.o.o.o.o.o.o.o.o.o.o.o.o.o.o.o.o.o.o.o.o.o.o.o.o.+.A 6 + @ 2 H 9.7.7.7.7.7.7.7.7.7.7.",
"e.e.e.e.e.e.e.e.e.e.e.e.I I I I I I I Y :.7.7.7.7.7.7.3.A b m z d 0 w w w w w w w w w w w w w w w w w w w w w w w w w w w w q p j m n B =.7.7.7.7.7.7.7.7.7.7.7.",
"e.e.e.e.e.e.e.e.e.e.e.e.I I I I I I I Y :.7.7.7.7.7.7.7.9.0.q.+.7                                                             * G w.0.0.7.7.7.7.7.7.7.7.7.7.7.7.",
"e.e.e.e.e.e.e.e.e.e.e.e.I I I I I I I Y :.7.7.7.7.7.7.7.7.7.8.{ 5                                                             * A 9.7.7.7.7.7.7.7.7.7.7.7.7.7.7.",
"e.e.e.e.e.e.e.e.e.e.e.e.I I I I E E E ~ >.7.7.7.7.7.7.7.7.7.8.X.y + % % % % % % % % % % % % % % % % % $ X     . + % % % % % $ 2 G 9.7.7.7.7.7.7.7.7.7.7.7.7.7.7.",
"e.e.e.e.e.e.e.e.e.e.e.e.I I I Y $.,.,.,.6.7.7.7.7.7.7.7.7.7.7.1.S m m m m m m m m m m m m m m m m m M k :     % h N m m m m m V =.7.7.7.7.7.7.7.7.7.7.7.7.7.7.7.",
"e.e.e.e.e.e.e.e.e.e.e.e.I I I Y ;.7.7.7.7.7.7.7.7.7.7.7.7.7.7.7.9.0.0.0.0.0.0.0.0.0.0.0.0.0.0.0.0.0.q.( 1     & A w.0.0.0.0.0.0.7.7.7.7.7.7.7.7.7.7.7.7.7.7.7.7.",
"e.e.e.e.e.e.e.e.e.e.e.e.I I I Y ;.7.7.7.7.7.7.7.7.7.7.7.7.7.7.7.7.7.7.7.7.7.7.7.7.7.7.7.7.7.7.7.7.7.8.W 1     & C 9.7.7.7.7.7.7.7.7.7.7.7.7.7.7.7.7.7.7.7.7.7.7.",
"e.e.e.e.e.e.e.e.e.e.e.e.I I I Y ;.7.7.7.7.7.7.7.7.7.7.7.7.7.7.7.7.7.7.7.7.7.7.7.7.7.7.7.7.7.7.7.7.7.8.! e $ % 1 A 9.7.7.7.7.7.7.7.7.7.7.7.7.7.7.7.7.7.7.7.7.7.7.",
"e.e.e.e.e.e.e.e.e.e.e.e.I I I Y ;.7.7.7.7.7.7.7.7.7.7.7.7.7.7.7.7.7.7.7.7.7.7.7.7.7.7.7.7.7.7.7.7.7.7.1.S N N C =.7.7.7.7.7.7.7.7.7.7.7.7.7.7.7.7.7.7.7.7.7.7.7.",
"e.e.e.e.e.e.e.e.e.e.e.e.I I I Y ;.7.7.7.7.7.7.7.7.7.7.7.7.7.7.7.7.7.7.7.7.7.7.7.7.7.7.7.7.7.7.7.7.7.7.7.9.9.9.9.7.7.7.7.7.7.7.7.7.7.7.7.7.7.7.7.7.7.7.7.7.7.7.7.",
"e.e.e.e.e.e.e.e.e.e.e.e.I I I Y ;.7.7.7.7.7.7.7.7.7.7.7.7.7.7.7.7.7.7.7.7.7.7.7.7.7.7.7.7.7.7.7.7.7.7.7.7.7.7.7.7.7.7.7.7.7.7.7.7.7.7.7.7.7.7.7.7.7.7.7.7.7.7.7.",
"e.e.e.e.e.e.e.e.e.e.e.e.E E E ~ >.7.7.7.7.7.7.7.7.7.7.7.7.7.7.7.7.7.7.7.7.7.7.7.7.7.7.7.7.7.7.7.7.7.7.7.7.7.7.7.7.7.7.7.7.7.7.7.7.7.7.7.7.7.7.7.7.7.7.7.7.7.7.7.",
"I I I I e.e.e.e.I I I Y *.1.1.1.6.7.7.7.7.7.7.7.7.7.7.7.7.7.7.7.7.7.7.7.7.7.7.7.7.7.7.7.7.7.7.7.7.7.7.7.7.7.7.7.7.7.7.7.7.7.7.7.7.7.7.7.7.7.7.7.7.7.7.7.e.e.e.e.",
"I I I I e.e.e.e.I I I Y -.7.7.7.7.7.7.7.7.7.7.7.7.7.7.7.7.7.7.7.7.7.7.7.7.7.7.7.7.7.7.7.7.7.7.7.7.7.7.7.7.7.7.7.7.7.7.7.7.7.7.7.7.7.7.7.7.7.7.7.7.7.7.7.e.e.e.e.",
"I I I I e.e.e.e.I I I Y -.7.7.7.7.7.7.7.7.7.7.7.7.7.7.7.7.7.7.7.7.7.7.7.7.7.7.7.7.7.7.7.7.7.7.7.7.7.7.7.7.7.7.7.7.7.7.7.7.7.7.7.7.7.7.7.7.7.7.7.7.7.7.7.e.e.e.e.",
"I I I I e.e.e.e.E E E ~ :.7.7.7.7.7.7.7.7.7.7.7.7.7.7.7.7.7.7.7.7.7.7.7.7.7.7.7.7.7.7.7.7.7.7.7.7.7.7.7.7.7.7.7.7.7.7.7.7.7.7.7.7.7.7.7.7.7.7.7.7.7.7.7.e.e.e.e.",
"e.e.e.e.I I I Y *.1.1.1.6.7.7.7.7.7.7.7.7.7.7.7.7.7.7.7.7.7.7.7.7.7.7.7.7.7.7.7.7.7.7.7.7.7.7.7.7.7.7.7.7.7.7.7.7.7.7.7.7.7.7.7.7.7.7.7.7.7.7.7.7.7.7.7.e.e.e.e.",
"e.e.e.e.I I I Y -.7.7.7.7.7.7.7.7.7.7.7.7.7.7.7.7.7.7.7.7.7.7.7.7.7.7.7.7.7.7.7.7.7.7.7.7.7.7.7.7.7.7.7.7.7.7.7.7.7.7.7.7.7.7.7.7.7.7.7.7.7.7.7.7.7.7.7.e.e.e.e.",
"e.e.e.e.I I I Y -.7.7.7.7.7.7.7.7.7.7.7.7.7.7.7.7.7.7.7.7.7.7.7.7.7.7.7.7.7.7.7.7.7.7.7.7.7.7.7.7.7.7.7.7.7.7.7.7.7.7.7.7.7.7.7.7.7.7.7.7.7.7.7.7.7.7.7.e.e.e.e.",
"e.e.e.e.I I I Y =.3.3.3.7.7.7.7.7.7.7.7.7.7.7.7.7.7.7.7.7.7.7.7.7.7.7.7.7.7.7.7.7.7.7.7.7.7.7.7.7.7.7.7.7.7.7.7.7.7.7.7.7.7.7.7.7.7.7.7.7.7.7.7.7.7.7.7.e.e.e.e.",
"e.e.e.e.e.e.e.e.~ ~ ~ ) >.7.7.7.7.7.7.7.7.7.7.7.7.7.7.7.7.7.7.7.7.7.7.7.7.7.7.7.7.7.7.7.7.7.7.7.7.7.7.7.7.7.7.7.7.7.7.7.7.7.7.7.7.7.7.7.7.7.7.7.e.e.e.e.e.e.e.e.",
"e.e.e.e.e.e.e.e.I I I Y -.7.7.7.7.7.7.7.7.7.7.7.7.7.7.7.7.7.7.7.7.7.7.7.7.7.7.7.7.7.7.7.7.7.7.7.7.7.7.7.7.7.7.7.7.7.7.7.7.7.7.7.7.7.7.7.7.7.7.7.e.e.e.e.e.e.e.e.",
"e.e.e.e.e.e.e.e.I I I Y -.7.7.7.7.7.7.7.7.7.7.7.7.7.7.7.7.7.7.7.7.7.7.7.7.7.7.7.7.7.7.7.7.7.7.7.7.7.7.7.7.7.7.7.7.7.7.7.7.7.7.7.7.7.7.7.7.7.7.7.e.e.e.e.e.e.e.e.",
"e.e.e.e.e.e.e.e.I I I Y -.7.7.7.7.7.7.7.7.7.7.7.7.7.7.7.7.7.7.7.7.7.7.7.7.7.7.7.7.7.7.7.7.7.7.7.7.7.7.7.7.7.7.7.7.7.7.7.7.7.7.7.7.7.7.7.7.7.7.7.e.e.e.e.e.e.e.e.",
"e.e.e.e.e.e.e.e.I I I Y -.7.7.7.7.7.7.7.7.7.7.7.7.7.7.7.7.7.7.7.7.7.7.7.7.7.7.7.7.7.7.7.7.7.7.7.7.7.7.7.7.7.7.7.7.7.7.7.7.7.7.7.7.7.7.7.e.e.e.e.e.e.e.e.e.e.e.e.",
"e.e.e.e.e.e.e.e.I I I Y -.7.7.7.7.7.7.7.7.7.7.7.7.7.7.7.7.7.7.7.7.7.7.7.7.7.7.7.7.7.7.7.7.7.7.7.7.7.7.7.7.7.7.7.7.7.7.7.7.7.7.7.7.7.7.7.e.e.e.e.e.e.e.e.e.e.e.e.",
"e.e.e.e.e.e.e.e.I I I Y -.7.7.7.7.7.7.7.7.7.7.7.7.7.7.7.7.7.7.7.7.7.7.7.7.7.7.7.7.7.7.7.7.7.7.7.7.7.7.7.7.7.7.7.7.7.7.7.7.7.7.7.7.7.7.7.e.e.e.e.e.e.e.e.e.e.e.e.",
"e.e.e.e.e.e.e.e.I I I Y =.3.3.3.3.3.3.3.3.3.3.3.7.7.7.7.7.7.7.7.7.7.7.7.3.3.3.3.7.7.7.7.7.7.7.7.3.3.3.3.7.7.7.7.7.7.7.7.7.7.7.7.3.3.3.3.e.e.e.e.e.e.e.e.e.e.e.e.",
"e.e.e.e.e.e.e.e.e.e.e.e.~ ~ ~ ~ ~ ~ ~ ~ ~ ~ ~ ) ,.7.7.7.7.7.7.7.7.7.7.6.| ~ ~ ) 1.7.7.7.7.7.7.4.] ~ ~ _ 1.7.7.7.7.7.7.7.7.7.7.3.' ~ ~ ~ e.e.e.e.e.e.e.e.e.e.e.e.",
"e.e.e.e.e.e.e.e.e.e.e.e.I I I I I I I I I I I Y >.7.7.7.7.7.7.7.7.7.7.6.) I I T >.7.7.7.7.7.7.3.^ I I E 1.7.7.7.7.7.7.7.7.7.7.3.~ I I I e.e.e.e.e.e.e.e.e.e.e.e.",
"e.e.e.e.e.e.e.e.e.e.e.e.I I I I I I I I I I I Y >.7.7.7.7.7.7.7.7.7.7.6.) I I T >.7.7.7.7.7.7.3.^ I I E 1.7.7.7.7.7.7.7.7.7.7.3.~ I I I e.e.e.e.e.e.e.e.e.e.e.e.",
"e.e.e.e.e.e.e.e.e.e.e.e.I I I I I I I I I I I Y =.3.3.3.3.3.3.3.3.3.3.1.) I I R -.3.3.3.3.3.3.,.~ I I E -.3.3.3.7.7.7.7.3.3.3.>.~ I I I e.e.e.e.e.e.e.e.e.e.e.e.",
"e.e.e.e.e.e.e.e.e.e.e.e.e.e.e.e.e.e.e.e.I I I I E ~ ~ ~ ~ ~ ~ ~ ~ ~ ~ ~ e.e.e.e.~ ~ ~ ~ ~ ~ ~ ~ I I I I ~ ~ ~ ~ e.e.e.e.~ ~ ~ ~ e.e.e.e.e.e.e.e.e.e.e.e.e.e.e.e.",
"e.e.e.e.e.e.e.e.e.e.e.e.e.e.e.e.e.e.e.e.I I I I I I I I I I I I I I I I e.e.e.e.I I I I I I I I I I I I I I I I e.e.e.e.I I I I e.e.e.e.e.e.e.e.e.e.e.e.e.e.e.e.",
"e.e.e.e.e.e.e.e.e.e.e.e.e.e.e.e.e.e.e.e.I I I I I I I I I I I I I I I I e.e.e.e.I I I I I I I I I I I I I I I I e.e.e.e.I I I I e.e.e.e.e.e.e.e.e.e.e.e.e.e.e.e.",
"e.e.e.e.e.e.e.e.e.e.e.e.e.e.e.e.e.e.e.e.I I I I I I I I I I I I I I I I e.e.e.e.I I I I I I I I I I I I I I I I e.e.e.e.I I I I e.e.e.e.e.e.e.e.e.e.e.e.e.e.e.e.",
"e.e.e.e.e.e.e.e.e.e.e.e.e.e.e.e.e.e.e.e.e.e.e.e.e.e.e.e.e.e.e.e.e.e.e.e.e.e.e.e.I I I I e.e.e.e.e.e.e.e.e.e.e.e.e.e.e.e.e.e.e.e.e.e.e.e.e.e.e.e.e.e.e.e.e.e.e.e.",
"e.e.e.e.e.e.e.e.e.e.e.e.e.e.e.e.e.e.e.e.e.e.e.e.e.e.e.e.e.e.e.e.e.e.e.e.e.e.e.e.I I I I e.e.e.e.e.e.e.e.e.e.e.e.e.e.e.e.e.e.e.e.e.e.e.e.e.e.e.e.e.e.e.e.e.e.e.e.",
"e.e.e.e.e.e.e.e.e.e.e.e.e.e.e.e.e.e.e.e.e.e.e.e.e.e.e.e.e.e.e.e.e.e.e.e.e.e.e.e.I I I I e.e.e.e.e.e.e.e.e.e.e.e.e.e.e.e.e.e.e.e.e.e.e.e.e.e.e.e.e.e.e.e.e.e.e.e.",
"e.e.e.e.e.e.e.e.e.e.e.e.e.e.e.e.e.e.e.e.e.e.e.e.e.e.e.e.e.e.e.e.e.e.e.e.e.e.e.e.I I I I e.e.e.e.e.e.e.e.e.e.e.e.e.e.e.e.e.e.e.e.e.e.e.e.e.e.e.e.e.e.e.e.e.e.e.e."
};
