/* XPM */
static char *e3c5404544eb416bbcf35cf3473fb305IlZktBxldLQyizt1[] = {
/* columns rows colors chars-per-pixel */
"80 80 117 2 ",
"   c #002705",
".  c #002906",
"X  c #002D09",
"o  c #01330D",
"O  c #01380F",
"+  c #053610",
"@  c #033A11",
"#  c #0A3F17",
"$  c #0A3F18",
"%  c #044316",
"&  c #064719",
"*  c #0B441A",
"=  c #064D1C",
"-  c #0B4A1D",
";  c #06511E",
":  c #0D4C20",
">  c #114C21",
",  c #075220",
"<  c #0B5522",
"1  c #0A5C26",
"2  c #0E5F29",
"3  c #125426",
"4  c #135E2B",
"5  c #195C2D",
"6  c #0E612A",
"7  c #0F692E",
"8  c #13632D",
"9  c #10692F",
"0  c #156530",
"q  c #1E6334",
"w  c #126C31",
"e  c #1B6B35",
"r  c #187036",
"t  c #1C743A",
"y  c #1C7C3E",
"u  c #206636",
"i  c #216837",
"p  c #236A39",
"a  c #24753F",
"s  c #1E7F40",
"d  c #247640",
"f  c #297542",
"g  c #227C41",
"h  c #2C7F49",
"j  c #1F8042",
"k  c #248245",
"l  c #278448",
"z  c #2B8349",
"x  c #2B8C4E",
"c  c #32844D",
"v  c #2B8F50",
"b  c #338750",
"n  c #368A53",
"m  c #388D55",
"M  c #2C9252",
"N  c #319455",
"B  c #369C5B",
"V  c #39995B",
"C  c #39A05F",
"Z  c #3F9D61",
"A  c #3AA160",
"S  c #3BA362",
"D  c #3CA362",
"F  c #3CA462",
"G  c #3CA463",
"H  c #3CA563",
"J  c #3FA464",
"K  c #3EA865",
"L  c #3EA866",
"P  c #409E61",
"I  c #41A164",
"U  c #43A366",
"Y  c #43A466",
"T  c #44A567",
"R  c #45A568",
"E  c #45A668",
"W  c #46A769",
"Q  c #42AC69",
"!  c #43AC69",
"~  c #44AC6A",
"^  c #45AE6C",
"/  c #48AB6C",
"(  c #46B06D",
")  c #47B06D",
"_  c #47B16E",
"`  c #47B36F",
"'  c #48B06F",
"]  c #48B26F",
"[  c #49B370",
"{  c #48B571",
"}  c #4AB472",
"|  c #4AB572",
" . c #4BB672",
".. c #4DB674",
"X. c #4CB774",
"o. c #4DB975",
"O. c #4FB976",
"+. c #4FB977",
"@. c #4EBB77",
"#. c #4FBC78",
"$. c #50B977",
"%. c #50BC78",
"&. c #51BD79",
"*. c #52BE7B",
"=. c #52BF7B",
"-. c #53C17C",
";. c #53C17D",
":. c #55C37E",
">. c #55C47F",
",. c #56C47F",
"<. c #56C480",
"1. c #57C782",
"2. c #58C682",
"3. c #59C783",
"4. c #59C883",
"5. c #5BC985",
"6. c #5ACA84",
/* pixels */
"2.2.2.2.1.2.2.2.2.5.2.2.,.} F M s w 1 = + @ + > q b T @.1.2.2.2.2.2.2.2.2.2.2.2.2.2.2.2.2.2.2.2.2.6.6.2.;.{ H M y w 1 = O o @ > u c I $.1.2.6.1.1.2.2.2.1.1.1.1.",
":.:.:.:.:.:.:.:.:.4.2.1.%.[ A v y 7 1 = @ O O > i c U $.;.1.1.:.:.:.:.:.:.:.:.:.:.:.:.:.:.:.:.:.4.:.2.:.;._ C M y w 1 = % O O > u b R $.1.2.2.2.:.:.:.:.>.>.;.>.",
"%.%.%.%.#.#.@.@.#.%.%.#.X.! B x y 7 1 & @ O O > i c U $.:.1.:.%.%.$.%.%.%.%.%.%.%.%.@.@.%.%.%.%.%.%.;.$.o.! B x y 7 1 & O O @ > u c E X.:.<.;.%.%.%.$.$.#.#.@.o.",
"_ _ _ _ _ _ _ _ [ [ X.} ~ D M g w 6 ; % O O @ > i b T $.;.;.#.X.[ _ _ _ _ _ _ _ _ _ _ _ _ _ _ _ [ } } [ E Z N g w 6 ; % O o @ > p b I $.%.:.@.} [ _ _ ` _ { ( ( ",
"A A A A A A A A A A A A B N k t 9 < & @ + o + > p b E $.%.$.` K A A Z B A A A A A A A A A C A C H A A A B M z t 8 < - @ O o O > p b E $.#.#._ K A A B A Z H S C ",
"v v v v v v v v M M M v x k a 8 < & # O X X + > p n E $.$.X.F B M x x x v M v v v v v v M x M M M M M M x k t 8 < = @ O X o + > p n R @.#.} K B M x x x v v x M ",
"y y y s y s s s s s y s y e 8 < * # @ X X X + > p n E X.X.~ B x j s y y y y y y y s y y y y y y s s s s y w 8 < - @ O X X X + > p n T X.@.! B x k s y y y s y s ",
"w 9 w 9 9 9 9 9 w w w w 7 2 < & @ o X .   X + > p b P [ ^ A v y w 7 7 7 7 w 7 w 7 w w 9 w 9 9 9 7 w w w 7 2 < - @ O X . . . O > p b J _ ^ A M y w 7 7 7 7 7 w 7 ",
"1 1 1 1 1 1 1 1 1 1 1 1 1 ; = @ O X X     X + - q h V F A N k w 6 1 1 1 1 1 1 1 1 1 1 1 2 1 1 1 1 1 1 1 1 , = @ O X . . . . + > q z V T A N g e 6 1 1 1 1 1 1 1 ",
"; = ; ; ; = ; ; = ; ; ; = & % @ @ X X     X + * 5 f v V N z t 4 , ; = = = = ; = ; = ; ; = ; = ; = ; ; = = = @ @ O X X . . X + * 4 d b N M l t 4 , = & = = , = , ",
"% % & % % % % % % % % % % @ @ O X X X     X o * 3 e g l g t 0 < % % % @ # % & & % % % % % % % % & % % % % @ @ + X X X . . X + # 3 e d k k t 8 < & % @ % % % @ % ",
"O O O O O O O O @ @ @ @ @ O o o X X X X X X X $ = 4 w t w 0 < & @ O O + o @ @ @ @ O @ @ @ O O O @ @ O @ @ @ + o X X X . . X + @ : 8 w t r 9 3 & @ O o O @ @ @ @ ",
"o o o X o o o o X o o o o o X X X X X X X X o O - < 6 7 2 < = @ O o X X X o X X o o o o o X o o o o X o X X o X X X X X X X X @ & < 6 7 6 < - @ O X X o X o X + ",
"X X X X X X X . X X . X . X X X X X X X . X X O % & ; < , = # O o X X X X X X X X . . X X X . X . X X X X X X X X X X X . X o + % = , < , = @ @ o X . X X X X X ",
"                        . . . . . X X .   X X o O @ % & % @ @ o X . X . X X . X . .   .   .   .   .         . . . . . .   X X X O @ % & & @ @ X X X X . X X X X ",
"                            . . . .   .     . X o @ @ @ @ O o X . X . X X X X . . .                       . . . . . . . . . X X X O @ @ @ @ X X X   X X X X X X ",
"X X   . X . X . X X X X   X   . X X X X . X X X + X + + + o X X X X X X X X X X X X . X X . X . . X . X X X X X X     X X X X X X + + @ o o o X X X X X X X X X ",
"+ + + + + + + + + + + + + + + + + + + + + + + + + @ @ + + + O o o X o X X o X X o o + O + O O O + + O + + + + + + + + + + + + + + + + + + @ o o o o X X o X X X ",
"> > > > > > > > > > > > > > > > > > > > > > > > > > > > - * $ # + + O X o o + + # * > > > > > > > > > > > > > > > > > > > > > > > > > : : $ $ $ @ o + o X X X X ",
"i i i i p p p p p p p p p p p p p p p p p p p p p p p u q 5 3 - & % + + X + # * 3 5 u p p p p p p p p p p p p p p p p p p p p p p p p p q 5 3 : & # @ @ O X X X ",
"c c n c b n n n n n n n n n n n n n n n m n n n m m n b z a e 8 < = * o o + # > u f h m m m m n n n n n n n n n n n n n n n n n n n n n z f e 8 < = % @ O o X X ",
"E U U U T E E T U U E E T T T T R E E U E E E E W E E P V v a w 6 , % O + + * 5 f m P W E E E T E E E I R E R U R E R R E E E E E E W P V x g w 6 , & @ O o X X ",
"$.$.$.$.X.X.] X.X.X.] X.X.X.X.X.X./ X.X./ ..[ X.X.X.X.[ I N k t 6 1 & @ o + > u h P / $.#.o.X. .X.X.X.X.X...[ [ X.X.X.' ..X.X.X.X.@.X.^ A N l t 8 < & % O o X X ",
",.,.:.:.%.$.X.] [ ~ ] } } ~ ` ` X.^ [ [ [ X.] [ [ X.^ ~ F N k e 6 ; % O o + > p n R $.,.-.-.X.` / [ ^ [ [ [ ' [ [ / ' ' ' ' ' ' [ [ [ ^ J N k r 2 ; & % o X X . ",
"5.6.4.,.@.} ! K H C H H H H H H J D J D H H H H K K K C N l y 9 < & O O o @ > p m / %.,.-.} Q K K C C C C K K C D J J H H H H H K L K A N l t 0 < = % + + o X X ",
"6.5.,.%.} F B M M M M M M M M M M M M M M M M M M M M M k a 8 3 & % o o o O > p m / %.:.X.Q C N M M M M M M M M M M M M M M M M M M M v k y 0 < = @ + + o X o X ",
"4.1.-.X.! B x k y y y y j y j y y y y y j s s s s s s y r 8 < - % o X X X + > p n W } } Q C x k y y y y j s j a a s s s y s s s s s y t e 9 < & @ @ + X X X X X ",
",.$.@.~ B x y w 7 7 7 7 w 7 7 7 w 9 w w w 9 7 7 w w 7 7 6 ; - @ O X . . X + > p b T ` _ C v y 9 7 7 7 7 w w 9 7 w 7 7 w w 7 w w w w w 7 6 , - @ @ X o X X X X X ",
"} _ ! C N g w 6 1 1 1 1 1 1 1 1 1 1 2 1 1 2 1 1 6 6 1 1 ; & @ O X     . . + * i z V J H N g r 6 1 ; 6 1 1 1 1 1 1 1 1 1 6 6 ; 6 1 6 1 1 , : @ + X X X X X o X o ",
"F C B M k e 6 < = & = = ; = ; ; ; ; = ; = = = ; ; , ; = & % O o X X X   X O * 5 a x N N l a 6 ; = = = = ; ; ; ; = ; ; ; = = = ; = ; ; = & @ @ + X X X X X X X X ",
"M x x k t 8 < * % % % % % % % % % % % % % % % % % % % % % O o o X X     . o * 3 e a l k t 8 ; = % % % % & % % % % % % % % % % % % % & @ @ @ + X X X X X o X o X ",
"j y t w 8 < * @ O O o O O O O O @ o @ @ O O @ @ O O O O O o o o X X X X X o * - 6 r t r 8 < & O O O O O O O O O O O O O % O @ o @ @ @ @ @ @ o o X X X X X X X X ",
"w 7 7 6 < - # O X X X X X X + X o X o o X + X X X o X o o X X X X X X X X X @ - < 2 7 2 < = @ O o X o X o o o o o X o o X o o o o o o o X o X o X X o X X X X X ",
"6 6 ; ; & + o X X X X X X X X X X X X X X X X X X X X X X X X X X X . X X X @ # = , , , & # o o . . X X . X . X X X X X X X X . X X . X X . X X X . . X X X X X ",
"; & = % % o o .         . . . . . X . X X X X X X .         . X X X . . . X X @ @ % & % @ O X .           . . . . X . X X . X . . . . .   . . X . . . X . X . . ",
"O % O O @ X . .           . . . . . X X X X X X . . X       . . . .   . . . X X + @ @ @ O o . .           . . . . . . X X X X X . . .         . . . . . . . .   ",
"O O O O o o . X X X X X . X X X X X X X X X X X X . X . X X X X X X X . X X X o o o @ + o o X X . X X X . X . X X X X X X X X o   X X   X X X X X X X X X X . X ",
"O @ @ + + + + + + + + + + + X + o o o X o X X o o o + + + + + + + + + + + + O O + + + + + + + + + O + + + + + o o o X X X X X X o + + + + + + + + + + + + + + + ",
"> > > > > > > > > > > > > - * * $ @ + + X X X + + $ * > > > > > > > > > > > > > > > > : > > > > > > > > > * * * # @ @ o + X + + + $ * > > > > > > > > > > > > > ",
"i p i i p p p p p p p p p q 4 3 : = @ + + X + + > > 5 p p p p p p p p p p p p p p u p p p p p p p p p p i u 5 3 - & % @ o X + + * 3 5 u p p p p p p p p p p p p ",
"n n c n n n n n m m m m b z f e 2 < & % O o o $ > u f c n n n n n n n n n n n n n n b n n n n n n n n n b z f e 8 < = % O o O # > u f c n n n n n n n n n n n n ",
"T T T I T E E E T E T E I V v g w 2 , & @ O + - 5 f n P I / R E E E E E T T T T T T T T U R U E R / R R I V b g w 2 ; & O O + * 5 f n P U / R E E E U I E E E E ",
"} X.] @.X.[ X.X.X.X.@.X.] T N k t 6 < & @ O + : q h P } $.$.@.X.X.@.X.] } o.} { X.[ X.[ } X.X.{ $.X.X.X.] F N k t 7 , & @ O + > q h Z [ $.+.@.X.X.X.[ X.X.[ } { ",
"^ X./ } / [ [ ^ } } } } ~ F N g r 2 , & @ o + > p n E #.1.:.%.X./ / X./ _ ` { _ [ [ [ ` ` ' ` ` [ ..X.[ ^ D M k e 6 , % O o + > p n E @.<.<.$.X.[ ' ] [ [ [ ` { ",
"H A H H T F F J K K J K C B l t 9 < & @ o o @ > p m / %.>.;.@.! J H H H A H H H Z H A H H H H H D T K H C N l y 9 < & @ O o @ > p n / *.<.;.` ^ J J S J H A F J ",
"M M M M M M M M M M M M x k a 0 < - % O X X @ > p m / #.-.#.J B N M x M M M M M M M M M M M M M M M N M M k t 0 < - % O X X @ > p n / *.;.@.L B N M v M M M M M ",
"j s s s y j s y s s j y y w 8 < * @ o X X X + > p n Q o.{ _ V x k y y y y j s s s s y y y y s y y j j j y e 8 < * @ O X X X + > p n ! o.{ J B x s y y y y y y s ",
"7 w 7 w 7 9 w 7 9 w w w 9 6 < - @ O X X   X + > p n V _ _ C v s w 7 7 7 7 7 7 w w 9 w w w 9 9 w w w w w 7 4 < - @ O X .   X + > p b J ` _ K v s w 7 7 7 7 w w w ",
"1 1 1 1 2 1 1 1 1 1 2 1 1 ; = % @ X X .   X o > q h V Z D N k w 6 1 1 1 1 1 2 1 1 1 1 1 1 1 2 1 1 1 6 1 1 ; & % O X X     X o > q z V T A N k w 8 1 1 1 1 1 1 1 ",
"; ; = ; ; ; ; ; = ; ; ; = & % O + X X     X + * 5 d v N M z t 4 ; = & = = = = = ; = ; = ; = = = ; ; ; ; = - % O O X X     X o * 8 d b N N k t 8 , = = & = = ; = ",
"% % % % % % % % % % % & & @ O o X X X   . X + & 3 e d l k t 8 < & % @ % % % % % % % % % % % % % % % % % % @ O o X X X . X X o * 3 e d k k t 0 < & % % % @ % % % ",
"O @ O @ O O O O O O O O O O o o X X X X . X X $ < 4 w t r 0 < & @ O O O @ @ @ @ @ @ + @ @ @ @ @ O O o @ O O O o X X X X X X X # : 8 w t w 8 3 & @ O o o @ @ @ @ ",
"o o o o o X X o o o o o o o X X X X X X X X X @ - , 6 7 6 < & @ O o X X X o o X o o o X X X + X O o o o X o o X X X X X X X X @ & < 6 7 6 < - @ O o X o o X X o ",
". X X X X X X X   X X X . X X X X X X X X X X + $ = , , , = # O o X . X X X X X X . X X X X X X X . X X X . X X X X X X   X X O % = , < , = @ @ X X . X X X X X ",
".                           . . X     X     X + @ @ & % % @ @ o X . . X X X X X . .   .       . .           . . X   X   .   X o o @ % & & @ @ X X . . . X X X X ",
".                             . . . .     X . X X o @ @ @ O o X X X . X X X . . .             . .   .         . . . . .     X X X @ @ @ @ @ o X X . X X X X X X ",
"X X . X . X . X X X . X . X . X X X X X X X . X o X + o @ o o X X X X X X X X X X X X X X   X X . X . X .   X X X X X . X . X X + o + o + X o X X X X X X X X X ",
"O + + + + + + + + + + + + + + + + + + + + + + + + @ @ + + + + o o X o X X X o o X + + + + + + + + + + + + + + + + + + + + + + + + + + @ @ @ o o o X o X X X X X ",
"> > > > > > > > > > > > > > > > > > > > > > > > > > > > - * & @ @ O o X o X o @ $ > : > > > > > > > > > > > > > > > > > > > > > > > > > : * $ $ @ @ + X + X X X ",
"p u u u p p p p p p p p p p p p p p p p p p p p p p p q q 5 3 : * % @ O o X # * > 5 q p p p p p p p p p p p p p p p p p p p p p p p p u 5 5 3 : & # @ @ + X X X ",
"c b b b c n n n n n n n m n n n n n n n n n n n n m n b h d e 4 < = @ O o + # > u f b n n n n n n n n n n n n n n n n n m n n n n n n b h f e 8 < = % @ o X X X ",
"E U U E U U E R E E E E E E E E E E E R E E E E W W W P V x d w 1 ; & @ @ + * 5 f n Z I / / R R E E R E U U R R E E E T E E E E R E R U V v d w 2 , & @ @ o X X ",
"$.$.$.$.X.$.X.$.X.] X.X.X.} [ } } } } } } } } } X.X.X.[ F V l t 7 , & @ + + > q h P / @.$.$...[ [ ..$.X.X.[ X.X.X.X.X.[ X.X.X.X.X.X.[ ] F N l t 7 , = % @ X X X ",
"2.:.:.%.$.X.X./ X.^ / ] ] ] ] ] ' ' } [ [ } [ } [ X._ / J M k w 6 , % @ o + > p n E $.<.:.*...[ [ ' ' ' [ [ ^ [ ' / ' ' ' [ [ / X.X.[ ^ J M k w 6 , & @ @ X X X ",
"5.5.4.;.@.} ! K H A H A H A A H A H K H C K C K K K B A C l t 9 < = @ o o @ > p m / *.1.;.} _ L H A A A H H S S A J H H H H H H K K H C N l y 8 < & & @ o X X X ",
"5.5.2.%._ K B M x M M M M M M M M M M M M M M M M M M M j y e ; = @ @ X X + > p m / %.;.o.L C M M M M M M M M M M M M M M M M M M M M v k y 8 < : @ @ @ o X X X ",
"5.2.-.X.K B x j y y y y j s s s s s s s y s a s j j j y r 0 ; - + + X . X @ > p n E X.@.! B x j y y y y s s s s s s s s s s y j j j j y r 8 < - @ + o o o X X X ",
":.$.X.~ B x y r 7 7 7 7 7 w 7 w w 7 w 7 9 w w 7 w w w 9 6 ; & % + X X . X + > p n I / ^ A v j r 7 7 7 7 7 7 w w 9 w 9 9 w 7 w 7 w w w 7 6 < & @ + o X X X X X o ",
"} } ~ B M g e 6 1 1 1 1 1 1 1 1 6 1 1 1 1 1 1 1 1 1 6 < ; - % o o X .     + - q z V T A N k w 6 1 1 1 1 6 1 1 1 1 1 1 1 1 1 1 1 1 1 1 1 < & % O o X X X X X X X ",
"H A V M l e 7 , = = & = , , , , ; ; ; ; ; ; ; ; ; ; ; = & % O o X .   . X O * 5 d b N M z t 6 < ; & & ; ; ; = ; = = = ; = , = , , = = = & % @ o X X X . X X X + ",
"M x x k t 8 < & @ % % % @ % % % % % % % % % % % % % % % % O O o X X .   X X & 3 e g k k t 8 < * % % % % % % % % % % & @ % % @ & % % % % @ @ O X X X X X X o X X ",
"j y t w 8 < * @ @ o @ + @ + + + @ o @ O O O O O O O + O O o o X X X X   X + * : 8 w t e 9 < * @ O O O O O O O O @ @ @ @ @ @ @ + @ @ @ + O O o X X o X X X X X X ",
"w w 7 6 , - @ O X X X o o o o o X o o X X + X o o o o o X o X o X X X X X + @ & < 6 7 6 < = @ + X X o o X o o X o o o X X o o o o o o o + X X o X X X o X X X o ",
"6 1 1 ; = % @ X X X X X X X . X X X X X X X X X X X X X X X X X X X X X X X @ @ = , < < : % + X . . X X X X X X X X X X X X X X X X X . X X X X X X X X X X X X ",
"; ; = & @ @ O X X X X X X X X X X X X X X X X X X X X X X X X X o X X X X o + @ % & = & @ @ + X X . . X X X X X X X X X X X X X X X X X X X X X X X X X X + o X ",
"% % % @ @ @ X X . . X X . X X X X X X X X X X X X X X . X X X X X X X X X o o @ @ @ @ @ @ @ X o X X X X X X X X X X X X X X X X X X X X X X X o + X X o X X X X ",
"O O O O o o X X X X X X X o X X X X X X X X X X X X X X X X o X o X X o X X X @ @ @ @ O + o X X X X X X X X X X X X X X X o o X X X X X X X X X X X X X o X X X ",
"o o o o X X o X X X X o X X X X X X X o o X X X o X X X X X X X X X X X o X X X X o X X o X X X X X X X X o X X X X X X X X X X X X X X X o X X X X X X X X X X ",
"X X X X X X X X X X o X X X X X X X X X X X X X X X o X X o o X X X X X X X X X X X X X X X X X o X X X X X X o X X X X X X X X X X X X X X X o X o X o X X X X ",
". X . X X X X o X X X X o X X o o X X o X o X X o X X X X X X X o X X o X X X X X X X X X X o X X X o X X o X X X X o X X + X X X X o X X o X X X X X X o X X + "
};
