/* XPM */
static char *_653b6d3ec194880de5523bf04884590dResLBp1xIW48Iiu[] = {
/* columns rows colors chars-per-pixel */
"80 80 207 2 ",
"   c None",
".  c #010000",
"X  c #030000",
"o  c #020101",
"O  c #030101",
"+  c #030202",
"@  c #040101",
"#  c #050101",
"$  c #060101",
"%  c #040202",
"&  c #050202",
"*  c #050303",
"=  c #060202",
"-  c #070202",
";  c #070303",
":  c #080202",
">  c #090202",
",  c #080303",
"<  c #090303",
"1  c #0A0303",
"2  c #0B0303",
"3  c #090404",
"4  c #090505",
"5  c #0A0404",
"6  c #0B0404",
"7  c #0A0505",
"8  c #0B0505",
"9  c #080606",
"0  c #080707",
"q  c #0A0606",
"w  c #0B0606",
"e  c #0B0707",
"r  c #0C0404",
"t  c #0D0404",
"y  c #0C0505",
"u  c #0D0505",
"i  c #0E0505",
"p  c #0F0505",
"a  c #0C0606",
"s  c #0D0606",
"d  c #0C0707",
"f  c #0D0707",
"g  c #0F0606",
"h  c #0E0707",
"j  c #0F0707",
"k  c #0A0808",
"l  c #0B0808",
"z  c #0C0808",
"x  c #0D0808",
"c  c #0C0909",
"v  c #0F0808",
"b  c #0E0909",
"n  c #0F0909",
"m  c #0C0B0B",
"M  c #0D0B0B",
"N  c #0E0A0A",
"B  c #0F0A0A",
"V  c #0E0B0B",
"C  c #0F0B0B",
"Z  c #0D0C0C",
"A  c #0F0C0C",
"S  c #0E0D0D",
"D  c #0F0E0E",
"F  c #100505",
"G  c #100606",
"H  c #110606",
"J  c #120606",
"K  c #130606",
"L  c #130707",
"P  c #140707",
"I  c #150707",
"U  c #160707",
"Y  c #100808",
"T  c #110808",
"R  c #100909",
"E  c #110909",
"W  c #120909",
"Q  c #130909",
"!  c #100A0A",
"~  c #110A0A",
"^  c #100B0B",
"/  c #110B0B",
"(  c #120A0A",
")  c #120B0B",
"_  c #130B0B",
"`  c #140909",
"'  c #160808",
"]  c #170808",
"[  c #140A0A",
"{  c #140B0B",
"}  c #150B0B",
"|  c #110C0C",
" . c #100D0D",
".. c #110D0D",
"X. c #120D0D",
"o. c #130D0D",
"O. c #120E0E",
"+. c #130F0F",
"@. c #150C0C",
"#. c #140D0D",
"$. c #150D0D",
"%. c #160C0C",
"&. c #160D0D",
"*. c #140F0F",
"=. c #160E0E",
"-. c #160F0F",
";. c #170F0F",
":. c #180808",
">. c #190808",
",. c #190909",
"<. c #1A0909",
"1. c #1B0909",
"2. c #1C0909",
"3. c #1C0A0A",
"4. c #1D0A0A",
"5. c #1E0A0A",
"6. c #1F0A0A",
"7. c #1F0B0B",
"8. c #180F0F",
"9. c #111010",
"0. c #151010",
"q. c #141111",
"w. c #151111",
"e. c #171010",
"r. c #161111",
"t. c #171111",
"y. c #171212",
"u. c #161313",
"i. c #171414",
"p. c #161515",
"a. c #171515",
"s. c #181010",
"d. c #191010",
"f. c #181212",
"g. c #191212",
"h. c #181313",
"j. c #191313",
"k. c #1A1212",
"l. c #1A1313",
"z. c #181414",
"x. c #191414",
"c. c #181515",
"v. c #1B1414",
"b. c #1A1515",
"n. c #1B1515",
"m. c #191717",
"M. c #1A1616",
"N. c #1B1616",
"B. c #1A1717",
"V. c #1B1717",
"C. c #1D1616",
"Z. c #1C1717",
"A. c #1E1616",
"S. c #1F1717",
"D. c #1A1818",
"F. c #1A1919",
"G. c #1C1818",
"H. c #1D1818",
"J. c #1C1919",
"K. c #1D1919",
"L. c #1F1818",
"P. c #1E1919",
"I. c #1F1919",
"U. c #1C1A1A",
"Y. c #1C1B1B",
"T. c #1E1A1A",
"R. c #1F1A1A",
"E. c #1E1B1B",
"W. c #1D1C1C",
"Q. c #1F1C1C",
"!. c #200B0B",
"~. c #210B0B",
"^. c #220C0C",
"/. c #230C0C",
"(. c #201818",
"). c #211818",
"_. c #201A1A",
"`. c #211A1A",
"'. c #201B1B",
"]. c #211B1B",
"[. c #221A1A",
"{. c #231A1A",
"}. c #231B1B",
"|. c #201C1C",
" X c #201D1D",
".X c #211D1D",
"XX c #221D1D",
"oX c #231D1D",
"OX c #201E1E",
"+X c #211E1E",
"@X c #201F1F",
"#X c #211F1F",
"$X c #221E1E",
"%X c #231F1F",
"&X c #251E1E",
"*X c #232222",
"=X c #242020",
"-X c #242222",
";X c #282121",
":X c #282424",
">X c #282626",
",X c #2A2727",
"<X c #2D2828",
"1X c #312C2C",
"2X c #302E2E",
"3X c #373333",
"4X c #393737",
/* pixels */
"                                                                                                                                                                ",
"                                                                                                                                                                ",
"                                                                                                                                                                ",
"                                                                                                                                                                ",
"                                                                                                                                                                ",
"                                                                                                                                                                ",
"                                                                                                                                                                ",
"                                                                                                                                                                ",
"                                                                                                                                                                ",
"                                                                                                                                                                ",
"                                                Q.D                                                                                                             ",
"                                                * O N                                                                                                           ",
"                                              D.* O O * u.                                                =X                                                    ",
"                                            Q.0 O O O O O N           O.3 G.    G.s G.                    m.                                                    ",
"                                          *X9.D * O O * ; ; N  X     X3 3 < u.Z.O.< s <X              D.D m.                                                    ",
"                                                D.; * O ; ; ; 3 u.Y 3 3 3 < < < 3 3 3 3 O.f.m.$.m.O.3 ; <                                                       ",
"                                                  3 * ; ; ; < < < < 2 2 < s s 2 < s s 2 < < < < < < < ; < m.                                                    ",
"                                                  3 * ; < ; < < < 2 s 2 2 2 2 2 2 2 2 2 2 2 s 2 < < < < < m.                                                    ",
"                                                  3 < < < < 2 2 2 2 2 2 s F s s F s s s s 2 s 2 s 2 < < < 3 m.                                                  ",
"                                                O.< < < < < s 2 s F s F s F F F F F F F F F s F s 2 s 2 2 2 2 G.                                                ",
"                                              N < < < 3 2 s s F F F F F F F F F F F F F F Y F F F F s s 2 2 < s $. X        u.D u.  Q.@X                        ",
"                                              3 < 2 < 2 2 s F F F F F F P P P P P P P P F F P F F F F F F s s 2 < < N u.m.3 O ; 3 D D.                          ",
"                                            =X< 2 2 s 2 F F Y F F P ' Y P P P P P P P P P P ' F F P F F F s 2 2 2 < ; ; ; ; 3                                   ",
"                                              s s 2 2 s s F F F P P P P P P :.' :.:.P :.P ' ' ' P P F F F F F s 2 s < ; ; ; u.                                  ",
"                                              8.< 2 F F F ' F P P P :.' :.:.:.:.:.:.:.:.:.' ' ' P P P P P F F F 2 s 2 < < ; u.                                  ",
"                                     X3X  1X}.u.2 F F F F P ' P :.:.:.:.:.:.:.:.:.:.:.4.:.:.:.:.:.P P P ' Y F F F 2 2 < < < O.                                  ",
"                                  N ; 3 Y < 2 s F F F F P P ' :.:.:.:.:.:.4.:.3.4.:.:.:.:.:.:.:.:.:.' P P F F F F s 2 s < < N                                   ",
"                          m. X:XQ.3 < < < s 2 s F Y F ' P ' ' :.:.:.4.:.4.:.4.3.4.4.4.4.4.4.4.:.:.:.:.:.' ' P P F F s 2 3 3 3                                   ",
"                          k O ; ; < < < s 2 s F F F P P :.:.:.4.4.:.:.4.3.3.3.3.4.4.4.4.4.:.4.4.4.4.:.:.:.' P F F F F 2 s < < Z.                                ",
"                        D.u.O ; ; ; < 2 2 s F F F ' P P ' :.:.:.:.4.4.4.3.3.!.!.4.4.!.4.4.4.4.4.4.:.:.:.:.' P P F F F 2 < < < O.>X                              ",
"                          4X; ; < < < 2 s F F F ' ' P ' :.:.4.:.4.4.4.!.4.4.!.4.4.!.!.!.4.!.4.4.4.4.4.:.:.:.' ' ' F F s s F }.                                  ",
"                           X; ; ; < 2 s F F F P F ' :.:.:.:.4.4.4.4.4.4.!.!.!.!.!.!.!.!.4.!.!.4.4.4.4.4.:.:.' ' ' F F s 2 m.                                    ",
"                          $.; ; < 2 s s F F P P P :.:.:.:.2.4.4.!.4.!.!.!.!.!.!./.!.!.!.!.!.!.!.3.3.3.4.:.:.:.' ' F F F $.                                      ",
"                          3 ; < < 2 s F F F P P :.:.:.:.2.4.4.4.!.!.!.!.!.!.!.!.!.!./.!./.!.!.!.!.3.4.4.4.:.:.' ' ' F F f.                                      ",
"                         X* < < s 2 s F F ' P P :.:.:.4.4.4.4.!.!.!.!.!.!.!././.!././.!.!.!.!.!.!.4.4.4.:.4.:.:.P F F s Z.                                      ",
"                        G.< < < 2 s F F F ' P :.:.4.2.4.4.4.!.!.!.!.!.!.!././.!././.!./././.!./.!.!.!.4.4.4.:.:.P P ' F {.                                      ",
"                         X< < < 2 s F F P P ' :.:.:.4.4.2.!.!.!.!./.!.!./.!././././.!././././.!.!.!.!.4.4.:.:.:.' P Y F }.                                      ",
"                      2XO.< < s s F F P P P :.:.:.4.4.4.!.!.!.!.!.!./././././././././././.!./.!.!.!.!.4.4.4.:.:.' P P F }.                                      ",
"                        N < < s 2 F F P P :.:.:.4.4.4.4.!.!./.!././.!./.!././././././././.!././.!.!.!.!.4.:.:.:.' P P F }.                                      ",
"                        Y < < 2 s F F P ' :.:.:.:.4.4.!.!.!.!.!./.!././././././././././././.!.k.!.!.!.4.4.4.4.:.:.P F F $.                                      ",
"                        m.< s 2 F F P P P :.:.:.4.4.4.!.!.!.!./././.!./././././././././././././.!.!.!.!.4.4.:.:.:.P F F Y Z.                                    ",
"                          3 < 2 s F F P :.:.:.4.4.4.4.!.!.!.!./.!./././././././././././././././.!.!.4.4.4.4.:.:.:.P P F F Y                                     ",
"                          s < s s F P P P :.:.4.4.4.!.!.!.!././.!./././././././././././././././.!.!.!.4.4.4.4.:.:.P F Y s s }.                                  ",
"                          f.s 2 F F P P :.:.:.4.4.4.4.!.!././.!./././././././././././././././././.!.4.4.4.4.:.:.' P F F F 3 $.                                  ",
"                            s 2 F F P P :.:.:.4.4.4.!.!.!.!./.!././././././././././././././././.!.!.!.!.4.:.4.:.' P P F s s s f.$.k O. X                        ",
"                            F 2 F F P P :.:.4.:.4.4.!.!./.!./././././././././././././././.!./.!.!.!.!.4.4.4.:.:.' ' F F 2 2 2 < ; N                             ",
"                            Y s F F P P ' :.:.4.4.!.!.!.!.!.!././././././././././././././.!./.!.!.!.!.4.4.:.:.:.P P F F F 2 < < O.                              ",
"                          $.3 s F F F P ' :.4.:.4.4.!.!.!././././././././././././././././././.!.!.!.4.4.4.4.:.:.P P F F s 2 < Y                                 ",
"                          s 3 s s F F P P :.4.4.4.4.!.!.!././.!./.!./././././././././.!././.!.!.!.!.4.4.:.4.:.' P P F F Y $.f.                                  ",
"                          s < < F F P P :.:.:.:.:.4.4.!.!.!.!././././.!./.!./././.!././.!.!.!.!.!.4.4.4.4.:.:.' P F Y F }.                                      ",
"                          Y < s s F F F P :.:.4.4.4.4.!.!.!.!.!.!././././.!./.!./.!./.!.!./.!.!.4.4.4.4.4.:.:.P P P F Y                                         ",
"                          f.< 2 s F F P P :.:.:.:.4.4.4.!.!./.!.!.!.!.!./././.!./.!./.!.!.!.!.!.4.4.4.2.:.:.:.P P F F }.                                        ",
"                          u.< < 2 s F P P P :.:.4.:.4.4.!.!.!.!./.!.!./.!.!.!.!.!.!./.!.!.!.!.!.4.4.:.:.:.:.:.P F F Y                                           ",
"                            O.< s F F F P P ' :.:.4.:.4.4.4.4.!.!.!.!.!.!.!.!.!.!.!.!.!.3.!.4.4.4.4.4.:.:.:.P P P F $.                                          ",
"                              s 2 2 F F P P :.:.:.4.4.4.4.4.4.!.!.!.!.!.!.!.!.!.4.!.!.!.4.!.3.3.4.:.4.:.:.P P P F F $.                                          ",
"                              }.s s s F F P P :.:.:.:.4.4.4.4.!.4.4.4.!.!.!.4.!.4.!.4.4.4.!.3.:.:.4.:.:.' ' P F F F }.                                          ",
"                                m.2 s F F P P P :.:.:.:.:.4.4.4.4.4.4.4.4.!.4.4.4.4.4.4.4.4.:.4.4.:.:.P P P P F s 8.                                            ",
"                                  Y 2 F F F F P ' :.:.:.:.4.:.4.4.4.4.4.4.4.4.4.:.4.4.4.4.:.4.:.:.:.:.P P P F F F $.                                            ",
"                                  G.2 2 F F F P ' ' :.:.:.:.4.:.:.4.:.4.4.:.4.4.4.4.:.4.:.:.:.:.:.P P P P F F s s $.                                            ",
"                                    s s s F F P P F ' :.:.:.:.:.4.:.4.:.:.4.:.:.:.4.:.:.:.:.:.:.:.P P P P F F F s s f.Z.G.                                      ",
"                                  G.s s 2 F F F F F ' ' :.:.:.:.:.:.:.:.:.:.:.:.:.:.:.:.:.:.' P P P P F F F s F < s Y m.m.G.                                    ",
"                                  3 3 3 s 2 s F F ' F P P P P :.:.:.:.:.:.:.:.:.:.:.:.' P P P P P F F F F F 2 2 Y oX                                            ",
"                                Q.< ; < 2 2 2 s F F F P P P P P P P P :.:.P :.' P P P P P P P P F F F F s 2 3 '                                                 ",
"                                ,XG.$.O.$.F s s s F F F F F P P P P P P P P P P P P P P P F F Y F F Y ' s s O.                                                  ",
"                                            }.f.Y F F F F F F F F P F F P F Y P F F F ' 8.' s F F s $.    oX                                                    ",
"                                                    Z.$.s F F F F P F P P F F F F $.}.      f.F s s k.                                                          ",
"                                                        8.s F s F 2 F s F F F s Y               oXoX                                                            ",
"                                                        }.s s Y Z.Z.}.$.Z.8.' $.;X                                                                              ",
"                                                        Z.3 F                                                                                                   ",
"                                                          3 Z.                                                                                                  ",
"                                                          u.                                                                                                    ",
"                                                           X                                                                                                    ",
"                                                           X                                                                                                    ",
"                                                                                                                                                                ",
"                                                                                                                                                                ",
"                                                                                                                                                                ",
"                                                                                                                                                                ",
"                                                                                                                                                                ",
"                                                                                                                                                                ",
"                                                                                                                                                                "
};
