/* XPM */
static char *e6042a4e304b4848d2070cda2f20f212cruoDfIth1AZU0eo[] = {
/* columns rows colors chars-per-pixel */
"80 80 184 2 ",
"   c None",
".  c #6B7C77",
"X  c #797F7B",
"o  c #8F6E6B",
"O  c #8A726E",
"+  c #967F7F",
"@  c #9B6A67",
"#  c #A87575",
"$  c #B57979",
"%  c #D75A5A",
"&  c #E84F4E",
"*  c #FF4747",
"=  c #FF4847",
"-  c #F54C4C",
";  c #FF4A4A",
":  c #FA4748",
">  c #FF534D",
",  c #E95252",
"<  c #E75253",
"1  c #FF5454",
"2  c #FF5C52",
"3  c #FF5B5B",
"4  c #F75D5D",
"5  c #D0675A",
"6  c #FE614E",
"7  c #FE6A4F",
"8  c #FF6255",
"9  c #FE6C5C",
"0  c #F66156",
"q  c #FE7757",
"w  c #C76666",
"e  c #C97768",
"r  c #FF6666",
"t  c #FF6B66",
"y  c #FF6D69",
"u  c #FF7465",
"i  c #FE7C64",
"p  c #F37373",
"a  c #56847E",
"s  c #59837E",
"d  c #9C8D7A",
"f  c #B48677",
"g  c #FE8455",
"h  c #FF8A57",
"j  c #FE9559",
"k  c #FEAD5E",
"l  c #FEA25B",
"z  c #FEB65F",
"x  c #FE8264",
"c  c #FE8B63",
"v  c #FE8468",
"b  c #FE8C6C",
"n  c #FE9362",
"m  c #FE9B62",
"M  c #FE8471",
"N  c #FE8A74",
"B  c #FE9C75",
"V  c #FE9578",
"C  c #C4A07F",
"Z  c #FEA461",
"A  c #FEAC61",
"S  c #FEB561",
"D  c #FEB862",
"F  c #FEBC6C",
"G  c #FEB768",
"H  c #FEAC7D",
"J  c #FEA676",
"K  c #FEC073",
"L  c #FEC47B",
"P  c #5A8781",
"I  c #598A86",
"U  c #648D88",
"Y  c #7B8D8D",
"T  c #65928F",
"R  c #7B9787",
"E  c #7D9A8B",
"W  c #639696",
"Q  c #6A9797",
"!  c #669999",
"~  c #6C9D9D",
"^  c #639798",
"/  c #739A96",
"(  c #6FA0A0",
")  c #73A2A2",
"_  c #7BA4A4",
"`  c #7EA9A9",
"'  c #00CCFF",
"]  c #0CCFFF",
"[  c #10CFFF",
"{  c #16D1FF",
"}  c #1BD2FF",
"|  c #2DD6FF",
" . c #3CD8FE",
".. c #46DAFF",
"X. c #54DDFF",
"o. c #5EDFFF",
"O. c #64DEFA",
"+. c #67E1FF",
"@. c #75E3FE",
"#. c #828A8A",
"$. c #958080",
"%. c #879F8F",
"&. c #939F8C",
"*. c #959797",
"=. c #B38F8B",
"-. c #8CA594",
";. c #84ADAD",
":. c #91AFAB",
">. c #9CB0A2",
",. c #8DB3B3",
"<. c #92B7B7",
"1. c #97B9B9",
"2. c #9ABCBC",
"3. c #9DB7B3",
"4. c #ACB0AA",
"5. c #FF9982",
"6. c #D2B58C",
"7. c #FEAD81",
"8. c #FEB383",
"9. c #FEBD86",
"0. c #FFBE8A",
"q. c #B9C2B3",
"w. c #D9C192",
"e. c #EAC58E",
"r. c #FEC782",
"t. c #FEC985",
"y. c #FEC38A",
"u. c #F2C98E",
"i. c #FECC8E",
"p. c #F1C78D",
"a. c #E2C390",
"s. c #FECE90",
"d. c #F7CB90",
"f. c #FED093",
"g. c #FFD49C",
"h. c #FDCBAA",
"j. c #FFD6A2",
"k. c #FFD8A5",
"l. c #FEDBAB",
"z. c #F5DDB6",
"x. c #FFDFB5",
"c. c #FFE0B7",
"v. c #FFE1BB",
"b. c #A9C6C6",
"n. c #B2CCCD",
"m. c #BFD4D4",
"M. c #82E7FF",
"N. c #8DE7FB",
"B. c #89E5F9",
"V. c #93E9FD",
"C. c #9CEBFD",
"Z. c #93E7F9",
"A. c #BDEDF3",
"S. c #B3EBF3",
"D. c #DADACC",
"F. c #C2D6D6",
"G. c #CFDFDF",
"H. c #DBDDD1",
"J. c #DFD6D6",
"K. c #E3E5CF",
"L. c #FCE4C3",
"P. c #FDE7C9",
"I. c #F6E9CE",
"U. c #FFE9CA",
"Y. c #E8EBDA",
"T. c #F9ECD7",
"R. c #FCF0DF",
"E. c #C7EAE7",
"W. c #D6E4E4",
"Q. c #DBE5E5",
"!. c #DEEAE9",
"~. c #C6EFF2",
"^. c #D1F4FB",
"/. c #E6E6E6",
"(. c #E3ECEC",
"). c #EAEBEB",
"_. c #E5ECE0",
"`. c #F0EFEF",
"'. c #E8F0E7",
"]. c #FCF1E0",
"[. c #EBF3F2",
"{. c #F3F4F4",
"}. c #F5F8F8",
"|. c #FFFFFF",
/* pixels */
"                                                                                                                                                                ",
"                                                                                                                                                                ",
"                                                                                                                                                                ",
"                                                                          *                                                                                     ",
"                                                                        * * *                                                                                   ",
"                                                                      * * * * =                                                                                 ",
"                                                                    * * * * * *                                                                                 ",
"                                                                    = * * * * *                                                                                 ",
"                                                  * * * * * *       * * * * *                                                                                   ",
"                                                  * * * * * * * * * * * * * *                                                                                   ",
"                                                  * * * * * * * * * * ; 1 3 3 r r r r r r r r r r r r r r r r r                                                 ",
"                                                    * * * * * * * ; 3 r r r r r r r r r r r r r r r r r r r r r r r r r                                         ",
"                                                      * * * * * 3 r r r r r r r r r r r r r r r r r r r r r r r r r r r r r r                                   ",
"                                                        * * * 3 r r r r r r r r r r r r r r r r r r r r r r r r r r r r r r r r r                               ",
"                                                      * * * 3 r r r r r r r r r r r r r r r r r r r r r y r r r r r r r r r r r r r                             ",
"                                                    * * * 1 r r r r r r r r r r r r r r r r r r r r r r r r r r r r r r r r r r r r r                           ",
"                                                * * * * ; r r r r r r r r r r r r r r r r r r r r r r r r r r r r r r r r r r r r r r r                         ",
"                                              * * * * * 1 r r r r r r r r r r y r r r r r y r r r r r r r r y r r r r r r r r r r r r r r                       ",
"                                            * * * * * ; r r r r r r r r r r r r r r r r r r r r r r r r r r r r r r r r r r r r r r r r r                       ",
"                                            * * * * * > r r r r r r r r r r r r r r r r r r r r r r r r r r r r r r r r r r r r r r r r r r                     ",
"                                          * * * * * * 3 r r r r r r r r r r r r r r r r r r r r r y r r r r r r r r r r r r r r r r r r r r                     ",
"                                        * * * = * * ; r r r r r r r r r r r r r r r r r r r r r r r r r r r r r r r r r r y r r r r r y r r                     ",
"                                        * * * * * * > r r r r r r r r r r r r r r r r r r r r r r r r r r r r r r r r r r r r r r r r r r r r                   ",
"                                        * * * * * * 1 r r r r r r r r r r r r r r r r r r r r r r r r r r r r r r r r r r r r r r r r r r r r                   ",
"                                      * * = * * * * 1 r r r r r r r r y r r r r r r r r r r r r r r r r r r r r r r r r r r r r r r r r r r r                   ",
"                                      = * * * * * * 3 r r r r r r r r r r r r r r r r r r r r r r r r r r r r r r r r r r r r r r r r r r r r                   ",
"                                      * * * * * * = 1 r r r r r r r r r r r r r r r r r r r r r r r r r r r r r r r r r r r r r r r r r r r r                   ",
"                                      * * * * * * = 1 r r r r r r r r r r r r r r r r r r r r r r r r r r r r r r y r r r r r r r r r r r r r                   ",
"                                      * * * * = * * 1 r r r r r r r r r r r r r r r r r r r r r r r r r r r r r r r r r r r r r r r r r r r r                   ",
"                                      * * * * * * * 1 r r r r r r r r r r r r r r r y r r r r r r r y r r r r y y r r r r r r r r r r r r r r                   ",
"                                      * = * * * * * ; r r r r r r r r r r r r r r r r r r r r r r r r r r r r i i r r r r r r r r r r r r r r                   ",
"                                      * * * * * * * ; r r r r r r r r r r r r r r r r r r r r r r r r r r r r n c r r r r r r r r r r r r r r                   ",
"                                      * * * * * * * = 3 r r r r r r r r r r r r r r r r r r r r r r r r r r t Z m r r r r r r r r r r r r r r                   ",
"                                      * * * * * * * = 1 r r r r r r r y r r r r r r r r r r r r r r r r t y c D A u r r r r r r r r r r r r                     ",
"                                      * * * * * * = * = 3 r r r r r r r r y r r r r r r r r t t y u i x c j S D z Z x t t t r r r r r r r r                     ",
"                                      * * * * * * * * = 2 9 r r r y u u u u u u i i x c c n m Z A A S S G G S G D D D k Z n n c c x r r                         ",
"                                      * * * * * * * 6 j z c r r r u Z S S S S S G F K L L L L r.t.t.t.t.t.t.y.t.t.r.L L F F D S z A u                           ",
"                                      * * * * * * 7 k D S c r r r u A S S S F r.i.v.R.'.I.l.f.f.s.s.s.s.s.s.s.s.s.f.f.v.I.v.f.L G k t                           ",
"                                      * * * * * > l S S z c r r r u A S S F y.f.U.^.X.| ..S.l.i.s.s.s.s.s.s.s.s.i.g.Y.C.+.@.(.l.i.J y                           ",
"                                      * * * * * q z S S S i r r r u S S D t.s.l.^.| ' ' ' { E.f.s.s.s.s.s.s.s.s.f.I.+.' ' ' ..Y.g.8.r                           ",
"                                      * * * * * g z z z A u r r r i z z F i.i.T.B.' ' ' ' ' O.k.i.s.s.s.s.s.s.i.g.A.] ' ' ' ' Z.l.7.r                           ",
"                                      * * = * * q z z z m r r r r i S S L i.f.].X.' ' ' ' '  .z.i.s.s.i.s.s.s.i.l.B.' ' ' ' ' +.v.7.r                           ",
"                                      * * * * * 6 z D S x r r r r x z S r.f.f.R.o.' ' ' ' ' ..z.i.s.s.s.s.s.s.i.l.Z.' ' ' ' ' @.v.B r                           ",
"                                      * * * * * = g S Z t r r r r c S S r.i.s.U.C.' ' ' ' ' B.j.i.i.s.s.s.s.s.i.g.E.} ' ' ' ] S.j.M r r                         ",
"                                    * * * * * * * ; g i r r r r r n D S r.s.s.k.[.X.' ' ' ..K.s.s.s.s.s.s.s.s.s.s.L.N.{ ' ] @.I.8.y r r                         ",
"                                    * * * * * * * * 1 r r r r r r Z z z L s.s.s.c.[.V.+.N.Y.g.s.s.s.s.s.s.s.s.s.s.f.P.~.C.~.I.s.M r r r                         ",
"                                  * * * * * * * * * 3 r r r r r r q S D K f.i.s.f.k.v.L.c.f.s.s.s.i.s.s.s.s.s.s.s.s.f.j.l.j.y.N r r r r r                       ",
"                                  * * * * * * * * 1 r r r r r r 3 ; 6 h A y.s.s.f.f.f.f.s.s.s.s.s.s.s.s.s.s.s.s.s.f.s.s.y.B r r r r r r r                       ",
"                                * * * = * * * * ; r r r r r r r 1 * * - 5 d 6.6.w.a.e.u.u.u.u.u.u.u.u.u.i.i.y.y.9.8.B x 8 = = r r r r r r r                     ",
"                              * * * * * * * * ; 1 r r r r r r r ; : % . . . . U ~ / / E E R R R %.q.>.-.&.d e 0 2 ; * * * * = 3 r r r r r r                     ",
"                            * * * * * * * * * ; 3 r r r r r r r ; % . a a a s P W ! ! ! ! ^ ! ^ ,.}.n.! W P s o & * * * * * * 1 r r r r r r                     ",
"                            * * * = * * * * * > r r r r r r r 1 * @ a a a a a s T ! ! ! ! ! ! ! ~ <._ ! ! W s a o - * * * * * ; r r r r r r                     ",
"                            * * * * * * * * = ; r r r r r r r ; * $ . . a s a s W ! ! ! ! ! ! ! ! W W ! ! W P a . & * * * * * * 1 r r r r                       ",
"                          * * = = * * * * * * * 1 3 r r r r > * * V D.;.U a a P W ! ! ! ! ! ! ! ! ` b.) ! W a W =.: * * = * * * =   r                           ",
"                          * * * * * * * * * * * * ; 1 1 1 ; * * 2 8.k.I.H.4.X T ! ! ! ! ! ! ! ! ! n.}.<.W / 3.K.h.2 * * * = * * *                               ",
"                            * * * * * * * = * * * * * * * * * * i i.i.i.j.V w Q ! ! ! ! ! ! ! ! ! ) ,.~ ) D.v.g.s.b * * * * * * *                               ",
"                            * * * * * * * = * * * * * * = = = i y.s.s.f.9.8 & Y ! ! ! ! ! ! ^ ! ! ! W W f 0.f.i.s.0.u = = = * *                                 ",
"                              * * * * * * * * = * * * * * ; b i.s.s.s.s.b : - *.) ) ) ~ ~ ~ ~ ~ ~ ~ ( _ % b i.i.i.f.y.x ; * * *                                 ",
"                              * * * * * * * * * * * * * ; b i.s.s.s.s.9.2 * 0 J.(.Q.Q.W.W.W.W.W.W.Q.Q./.p 1 H s.s.i.f.i.b = * *                                 ",
"                                = * * * * * * * * * * * i s.s.s.s.s.s.v * * w ` ;.,.<.1.2.2.2.2.1.<.,.;.$ * 9 i.f.i.i.f.i.x *                                   ",
"                                  * * * * * * * * * * 2 9.s.s.s.s.f.J ; * < #.! ! ! W ! W ! W ! ! ! ! W Q % = b f.i.s.s.s.y.                                    ",
"                                      * * * * * * * * b s.s.s.s.s.8.1 * - $.! ! ! ! ! ! ! ! ! ! ! ! ! ! ! #.< 1 H f.s.s.s.s.s.                                  ",
"                                        = * * * * * * B s.s.i.i.8.8 * - # ! ! ! ! ! ! ! ! ! ! ! ! ! ! ! ! ! $.- 8 8.s.i.s.s.s.                                  ",
"                                              * * * * 9 9.y.y.B 2 * - # ! ! ! ! ! ! ! ! ! ! ! ! ! ! ! ! ! ! ! # : c s.s.s.s.s.                                  ",
"                                                    = * 1 9 8 ; * * w Q ! ! ! ! ! ! ! ! ! ! ! ! ! ! ! ! ! ! ~ Q       s.s.s.                                    ",
"                                                                  , Y ! ! ! ! ! ! ! ! ! ! ! ! ! ! ! ! ! ! ! ! ! !                                               ",
"                                                                    ~ ! ! ! ! ! ! ! ! ! ! ! ! ! ! ! ! ! ! ! ! ! !                                               ",
"                                                                    F.` ! W ! ! ! ! ! ! ! ! ! ! ! ! ! ! ! ! ! ! <.                                              ",
"                                                                      !.b.` ~ W ! ! ! ! ! ! ! ! W W W W ! ~ <.F.[.                                              ",
"                                                                          [.G.n.1.;.` ) ) ) ) ) _ ;.<.b.F.(.}.                                                  ",
"                                                                            |.|.|.}.[.(.(.!.!.(.[.[.{.{.`.).                                                    ",
"                                                                            |.|.|.|.|.|.      ).)./././././.                                                    ",
"                                                                            |.|.|.|.|.|.        /./././././.                                                    ",
"                                                                            |.|.|.|.|.|.        /./././././.                                                    ",
"                                                                            |.|.|.|.|.|.        /./././././.                                                    ",
"                                                                            |.|.|.|.|.            /././././.                                                    ",
"                                                                            |.|.|.|.|.            /././././.                                                    ",
"                                                                            |.|.|.|.                /./././.                                                    ",
"                                                                              |.|.                  /././.                                                      ",
"                                                                                                                                                                "
};
