/* XPM */
static char *ee0a5d570c4d462fb482e0a8656edd9faa48glSbIP2v2MtG[] = {
/* columns rows colors chars-per-pixel */
"80 80 181 2 ",
"   c None",
".  c #6B7D78",
"X  c #966C69",
"o  c #8F706C",
"O  c #867470",
"+  c #A97676",
"@  c #B67A7A",
"#  c #D65554",
"$  c #DA5F5F",
"%  c #E94E4D",
"&  c #FF4545",
"*  c #FF4A47",
"=  c #F54B4B",
"-  c #FF4B4B",
";  c #FF4749",
":  c #FF544C",
">  c #E95151",
",  c #FF5353",
"<  c #FF5D52",
"1  c #FF5B5B",
"2  c #F75D5D",
"3  c #D1675A",
"4  c #FE614D",
"5  c #FE6A4E",
"6  c #FF6254",
"7  c #FE6C5C",
"8  c #F66155",
"9  c #FE7C54",
"0  c #FE7458",
"q  c #C86666",
"w  c #CA7868",
"e  c #FF6666",
"r  c #FF6A66",
"t  c #FF6D69",
"y  c #FF7365",
"u  c #FE7B64",
"i  c #F37474",
"p  c #56857F",
"a  c #5D827D",
"s  c #7A807C",
"d  c #9D8E7B",
"f  c #B58778",
"g  c #FE8554",
"h  c #FF8B56",
"j  c #FE9658",
"k  c #FEAE5E",
"l  c #FEA35B",
"z  c #FEB55F",
"x  c #FEB85F",
"c  c #FE8364",
"v  c #FE8C63",
"b  c #FE8568",
"n  c #FE8D6C",
"m  c #FE9462",
"M  c #FE9C62",
"N  c #FE8572",
"B  c #FE8B75",
"V  c #FE9C75",
"C  c #FE9976",
"Z  c #FEA561",
"A  c #FEAC61",
"S  c #FEB560",
"D  c #FEB861",
"F  c #FEBC6B",
"G  c #FEAD7E",
"H  c #FEA477",
"J  c #FEC174",
"K  c #FEC57C",
"L  c #FEC87F",
"P  c #558680",
"I  c #598984",
"U  c #588781",
"Y  c #648E89",
"T  c #7C8E8E",
"R  c #69948F",
"E  c #7E9A8B",
"W  c #7B9787",
"Q  c #629594",
"!  c #669A9A",
"~  c #6C9D9D",
"^  c #6B9797",
"/  c #719E9A",
"(  c #759994",
")  c #6FA1A1",
"_  c #74A3A3",
"`  c #7CA4A4",
"'  c #7DA9A9",
"]  c #00CDFF",
"[  c #06D0FF",
"{  c #0ED2FF",
"}  c #14D3FF",
"|  c #29D7FF",
" . c #39D9FE",
".. c #44DBFF",
"X. c #53DEFF",
"o. c #64DFFA",
"O. c #5EE0FF",
"+. c #67E2FF",
"@. c #76E4FE",
"#. c #838B8B",
"$. c #978181",
"%. c #969898",
"&. c #B4908C",
"*. c #94A08D",
"=. c #8BA393",
"-. c #83ADAD",
";. c #80A7A7",
":. c #98B1A8",
">. c #8DB3B4",
",. c #87B0B0",
"<. c #91B6B6",
"1. c #94B8B8",
"2. c #9ABCBC",
"3. c #9EB8B4",
"4. c #ADB1AB",
"5. c #FE9682",
"6. c #C5A180",
"7. c #D3B68D",
"8. c #FEAC81",
"9. c #FEB282",
"0. c #FEBA86",
"q. c #FEBF89",
"w. c #FEB588",
"e. c #BAC3B4",
"r. c #DAC293",
"t. c #EBC68F",
"y. c #FEC985",
"u. c #FEC48B",
"i. c #F2C98F",
"p. c #FECC8D",
"a. c #FEC781",
"s. c #E3C491",
"d. c #FECF91",
"f. c #F7CC91",
"g. c #FED092",
"h. c #FFD49B",
"j. c #FDCCAB",
"k. c #FFD6A1",
"l. c #FFD9A5",
"z. c #FEDCAC",
"x. c #F8DDB4",
"c. c #FFE2BA",
"v. c #FFE0B6",
"b. c #A7C5C5",
"n. c #AEC9C9",
"m. c #B3CDCE",
"M. c #8FE9FD",
"N. c #86E6FB",
"B. c #94E9FC",
"V. c #99ECFF",
"C. c #A0EBFB",
"Z. c #B7ECF2",
"A. c #DBDBCD",
"S. c #C2D6D6",
"D. c #DCDED2",
"F. c #E0D7D7",
"G. c #FCE5C3",
"H. c #F5EACF",
"J. c #FFE9CB",
"K. c #FBE7C9",
"L. c #E7EAD7",
"P. c #F6EBD4",
"I. c #FBEED9",
"U. c #C8EBE8",
"Y. c #D5E3E3",
"T. c #DAE6E6",
"R. c #DEEAEA",
"E. c #C4EFF3",
"W. c #C9F3FC",
"Q. c #DAF5F9",
"!. c #E7E7E7",
"~. c #E2EAEA",
"^. c #EAECEC",
"/. c #E6EDE1",
"(. c #F0EFEF",
"). c #E9F0E8",
"_. c #FCF1E1",
"`. c #ECF3F2",
"'. c #F4F8F8",
"]. c #FFFFFF",
"[. c #F3F3F3",
/* pixels */
"                                                                                                                                                                ",
"                                                                                                                                                                ",
"                                                                                                                                                                ",
"                                                                                    &                                                                           ",
"                                                                                  & & &                                                                         ",
"                                                                                ; & & & &                                                                       ",
"                                                                                & & & & & &                                                                     ",
"                                                                                & & & & & &                                                                     ",
"                                                                                  ; ; ; & &       & & & & & &                                                   ",
"                                                                                  ; & & & & ; & & & & & & & &                                                   ",
"                                                e e e e e e e e e e e e e e e e e 1 , , - & & & & & & & & & &                                                   ",
"                                        e e e e e e e e e e e e e e e e e e e e e e e e e , - ; & & & & & &                                                     ",
"                                  e e e e e e e e e t e e e e e e e e e e e e e e e e e e e e , ; & & & &                                                       ",
"                              e e e e e e e e e e e e e e e e e e e e e e e e e e e e e e e e e 1 & & &                                                         ",
"                            e e e e e e e e e e e e e e e e e e e e e e e e e e e e e e e e e e e , & & &                                                       ",
"                          e e e e e e e e e e e e e e e e e e e t e e e e e e e e e e e e e e e e e , & & *                                                     ",
"                        e e e e e e e e e e e e e e e e e e e e e e e e e t e e e e e e e e e e e e e - & & & &                                                 ",
"                      e e e e e e e e e e e e e e e e e t e e e e e e e e e e e e e e e e e e e e e e , & & & & &                                               ",
"                      e e e e e e e e e e e e e e e e e e e e e e e e e e e e e e e e e e e e e e e e e ; & & & & &                                             ",
"                    t e e e e e e e e e e e e e e e e e e e e e e e e e e e e e e e t e e e e e e e e e , & & & & &                                             ",
"                    e e e e e e e e e e e e e e e e e e e e e e e e e e e e e e e e e e e e e e e e e e 1 * & & & & &                                           ",
"                    e e e e e e e e e e e e e e e e e e e e e e e e e e e e e e e e e e e e e e e e e e e ; & & & & & &                                         ",
"                  e e e e e e e e e e e e e e e e e e e e e e e e e e e e e e e e e e e e e e e e e e e e - & & & & & *                                         ",
"                  e e e e e e e e e e t e e e e e e e e e e e e e e e e e e e e e e e e e e e e e e e e e - & & & & & &                                         ",
"                  e e e e e e e e e e e e e e e e e e e e e e e e e e e e e e t e e e e e e e e e e e e e , & & & & & & &                                       ",
"                  e e e e e e e e e e e e e e e e e e e e e e e e e e e e e e e e e e e e e t e e e e e e , & & & & & & &                                       ",
"                  e e e e e e e e e e e e e e e e e e e e t e e e e e e e e e e e e e e e e e e e e e e e , & & & & & & &                                       ",
"                  e e e e e e e e e e e e e e e e e e e e e e e e e e e e e e e e e e e e e e e e e e e e , & & & & & & &                                       ",
"                  e e e e e e e e e e e e e e e e e e e e e e e e e e e e e e e e e e e e e e e e e e e e , & & & & & & &                                       ",
"                  e e e e e e e e e e e e t e e t e e e e e e e e e e e e e e e t e e e e e e e e e e e e : & & & & & & &                                       ",
"                  e e e e e e e e e e e e e e c c e e e e e e e e e e e e e e e e e e e e e e e e e e e e - & & & & & & &                                       ",
"                  e e e e e e e e e e e e e e v m e e e e e e e e e e e e e e e e e e e e e e e e e e e e ; & & & & & & &                                       ",
"                  e e e e e e e e e e e e e e M A e e e e e e e e e e e e e e e e e e e e e e e e e e e 1 & & & & & & & &                                       ",
"                    e e e e e e e e e e e e u A D v e e e e e e e e e e e e e e e e e e e e e e e e e e , & & & & & & & &                                       ",
"                    e e e e e e e e e e y c Z D D z M v c u t r t e e e e e e e e e e e e e e e e e e 1 * & & & & & & & &                                       ",
"                        e e c v v m m Z A S D D S D F D D D S A Z M m n v c c u u u y y u y e e e e r 4 * & & & & & & & &                                       ",
"                          y A z D D F J K a.a.y.y.p.y.p.y.p.y.y.a.a.K K K J F F D S S S S A y e e e m k j 4 & & & & & & &                                       ",
"                          y A F K h.c.J.c.h.d.d.d.d.d.d.d.d.d.d.d.d.z.P.^._.c.p.y.F D S D A y e e e v D x k 5 & & & & & &                                       ",
"                          e H p.z.R.N.O.B.L.h.d.d.d.d.d.g.d.d.g.d.z.Z...| X.W.J.g.p.F z z A y e e e v z D x l : & & & & &                                       ",
"                          r 9.h./...] ] ] +.P.d.d.d.d.d.d.d.d.g.g.U.} ] ] ] | Q.z.g.a.D D z y e e e u z z D D 5 & & & & &                                       ",
"                          e 9.z.B.[ ] ] ] [ Z.h.g.g.d.d.d.d.g.p.z.O.] ] ] [ ] N.P.g.g.F D S u e e e r A x x z g & & & & &                                       ",
"                          e 8.G.+.] ] ] ] ] M.z.p.d.d.d.g.d.g.p.x. .] ] ] ] ] O._.g.g.K D D u e e e e M x z x 9 & & & & &                                       ",
"                          e V x.@.] ] ] ] ] B.z.p.g.d.g.p.d.d.d.x...] ] ] ] [ O._.g.d.a.D D c e e e e v z x z < & & & & &                                       ",
"                        e e B l.Z.] ] ] [ } U.h.d.d.d.d.g.g.d.p.h.N.] ] ] ] ] B.J.d.d.y.D D v e e e e r A x g & & & & & &                                       ",
"                        e e e w.H.@.[ [ { M.G.g.d.d.d.d.d.d.d.d.d.L...] ] ] O.`.l.d.d.y.S D m e e e e e v g - & & & & & & &                                     ",
"                        e e e N d.P.E.V.E.K.g.g.d.d.d.d.d.d.d.d.p.h.L.M.+.B.`.v.d.d.d.a.D D Z e e e e e e - & & & & & & & &                                     ",
"                      e e e e e B u.l.z.l.g.d.d.d.d.d.d.d.d.d.d.d.d.g.v.J.G.l.d.d.d.d.J D k 9 e e e e e e 1 & & & & & & & & &                                   ",
"                      e e e e e e 7 V u.p.g.g.g.d.d.d.d.d.d.d.d.d.d.d.d.g.d.d.g.d.g.y.A h < * 6 e e e e e e , & & & & & & & &                                   ",
"                    e e e e e e e & * < c H 9.q.u.u.p.d.d.i.i.i.i.i.i.i.i.i.s.7.r.f f 3 = & & 1 e e e e e e e ; & & & & & & & &                                 ",
"                    e e e e e e 1 & & & & & - : 8 w d *.=.:.e.=.W W W ( =.( / / R a p a O # & , e e e e e e e , & & & & & & & & &                               ",
"                    e e e e e e , & & & & & & % O . I ! ! m.'.,.! ! ! ! ! ! ! Q p p p p p . # ; e e e e e e e 1 ; & & & & & & & & &                             ",
"                    e e e e e e & & & & & & = o P P Q ! ! ` <.) ! ! ! ! ! ! ! Q p p p p p P X & , e e e e e e e - & & & & & & & & &                             ",
"                      e e e e , & & & & & & % . p P Q ! ! ! ! ! ! ! ! ! ! ! ! Q p p p p p Y q & - e e e e e e e - & & & & & & & & &                             ",
"                          e   & & & & & & & = &.R P Q ! _ b.-.! ! ! ! ! ! ! ! ! I p p Y ,.A.B & & - e e e e 1 , & & & & & & & & & & &                           ",
"                              & & & & & & & < j.D.3./ ^ <.'.n.! ! ! ! ! ! ! ! ^ R . 4.D.K.l.0.: & & - , , : ; & & & & & & & & & & & &                           ",
"                              & & & & & & & n g.k.G.A.` ~ >._ ! ! ! ! ! ! ! ! ~ ^ q 8.h.d.d.d.c & & & & & & & & & & & & & & & & & &                             ",
"                                & & & & & y u.p.d.d.q.f ! ! ! ! ! ! ! ! ! ! ! ! T > < u.d.d.g.u.c ; & & & & & & & & & & & & & & & &                             ",
"                                & & & * c u.g.d.d.d.n 3 ` ) ) ) ) ) ) ~ ) ) _ _ %.= & n d.d.d.g.p.n ; & & & & & & & & & & & & & &                               ",
"                                ; & & n p.g.g.d.d.8.* i T.T.T.Y.Y.Y.T.T.Y.R.R.R.F.2 & < q.d.d.d.g.d.n * & & & & & & & & & & & & &                               ",
"                                  & c p.g.g.g.d.u.7 & @ -.>.1.1.2.2.2.2.1.1.>.,.' q & & b d.d.d.d.d.p.u & & & & & & & & & & & &                                 ",
"                                    u.g.d.d.d.g.n & 3 ( ! ! ! ^ ! ! ! ! ! ! ! ! ! T > & : H g.g.d.d.d.q.< & & & & & & & & & &                                   ",
"                                  g.g.d.d.d.g.8., > #.! ! ! ! ! ! ! ! ! ! ! ! ! ! ! $.= & < G g.d.d.d.g.n & & & & & & & *                                       ",
"                                  g.d.d.d.g.w.< = $.! ! ! ! ! ! ! ! ! ! ! ! ! ! ! ! ! + = & < 9.d.d.d.g.V * & & & & & &                                         ",
"                                  d.d.d.d.d.b ; + ! ! ! ! ! ! ! ! ! ! ! ! ! ! ! ! ! ! ^ + & & < C u.p.0.7 & & & &                                               ",
"                                    g.g.g.      ^ ! ! ! ! ! ! ! ! ~ ! ! ! ! ! ! ! ! ! ! ^ q & & * < 7 < & &                                                     ",
"                                              ! ! ! ! ! ! ! ! ! ! ! ! ! ! ! ! ! ! ! ! ! ! T >                                                                   ",
"                                              ! ! ! ! ! ! ! ! ! ! ! ! ! ! ! ! ! ! ! ! ~ ! )                                                                     ",
"                                              1.~ ! ! ! ! ! ! ~ ! ! ! ! ! ! ~ ! ! ! ! ! ' S.                                                                    ",
"                                              `.S.<._ ! ! ! ! ! ! ! ! ! ! ! ! ! ! ~ ' n.~.                                                                      ",
"                                                  '.R.S.b.1.-._ _ _ _ _ _ ' -.1.n.Y.`.                                                                          ",
"                                                    ^.(.[.[.`.^.~.~.R.~.^.`.'.].].].                                                                            ",
"                                                    !.!.!.!.^.^.^.      ].].].].].].                                                                            ",
"                                                    !.!.!.!.!.!.        ].].].].].].                                                                            ",
"                                                    !.!.!.^.!.!.        ].].].].].].                                                                            ",
"                                                    !.!.!.!.!.!.        ].].].].].].                                                                            ",
"                                                    !.!.!.!.!.            ].].].].].                                                                            ",
"                                                    !.!.!.!.!.            ].].].].].                                                                            ",
"                                                    !.!.!.!.                ].].].].                                                                            ",
"                                                      !.!.!.                  ].].                                                                              ",
"                                                                                                                                                                "
};
