/* XPM */
static char *_9a8b18359f04137c0504433cea735f7yGFzd80POW0ZJhs8[] = {
/* columns rows colors chars-per-pixel */
"80 80 171 2 ",
"   c None",
".  c #000000",
"X  c #090602",
"o  c #0C0903",
"O  c #120D04",
"+  c #171106",
"@  c #191306",
"#  c #201708",
"$  c #251B09",
"%  c #2A1F0B",
"&  c #2B200B",
"*  c #31240D",
"=  c #36290E",
"-  c #3B2B0F",
";  c #3E2E10",
":  c #402F11",
">  c #443312",
",  c #4A3714",
"<  c #4E3A14",
"1  c #533D16",
"2  c #574117",
"3  c #584117",
"4  c #5F4817",
"5  c #5E4518",
"6  c #604719",
"7  c #634919",
"8  c #694E1B",
"9  c #6D501C",
"0  c #73541D",
"q  c #76581F",
"w  c #795A1F",
"e  c #7E611E",
"r  c #7E5D22",
"t  c #885718",
"y  c #8C5B1A",
"u  c #905F1C",
"i  c #94621D",
"p  c #99671E",
"a  c #9A691E",
"s  c #AC7F1D",
"d  c #825F23",
"f  c #846222",
"g  c #8A6623",
"h  c #8D6824",
"j  c #9A6721",
"k  c #936B25",
"l  c #9C6A21",
"z  c #9D7226",
"x  c #9B7329",
"c  c #A16E23",
"v  c #A57223",
"b  c #AB7625",
"n  c #A07C24",
"m  c #AD7926",
"M  c #A0772A",
"N  c #A67A2A",
"B  c #AC7E2C",
"V  c #B07E24",
"C  c #B27E29",
"Z  c #AF831D",
"A  c #B0831F",
"S  c #B5891F",
"D  c #BC931D",
"F  c #AE812D",
"G  c #B58423",
"H  c #BB8B25",
"J  c #B5822C",
"K  c #BD862D",
"L  c #BE882E",
"P  c #BE9121",
"I  c #BE8930",
"U  c #DAB51F",
"Y  c #DDB91F",
"T  c #E2BE1F",
"R  c #C08E26",
"E  c #C08A2E",
"W  c #C59921",
"Q  c #CD9E27",
"!  c #C5922D",
"~  c #CC972E",
"^  c #CE992F",
"/  c #C48E31",
"(  c #C79132",
")  c #CD9533",
"_  c #C99534",
"`  c #CA9534",
"'  c #CA9634",
"]  c #CB9635",
"[  c #CA9635",
"{  c #CC9735",
"}  c #CD9734",
"|  c #CF9734",
" . c #CA9433",
".. c #CD9935",
"X. c #CE9835",
"o. c #CF9935",
"O. c #CE9A34",
"+. c #D09735",
"@. c #D09735",
"#. c #D09935",
"$. c #D19834",
"%. c #D29934",
"&. c #D39A35",
"*. c #D19B36",
"=. c #D39B36",
"-. c #D29B37",
";. c #D59B35",
":. c #D49B36",
">. c #D59C36",
",. c #D49D37",
"<. c #D49C36",
"1. c #D79D37",
"2. c #D59E37",
"3. c #D69E37",
"4. c #D79E37",
"5. c #D49C36",
"6. c #D59E38",
"7. c #D79E3A",
"8. c #D89E3B",
"9. c #DAAE27",
"0. c #D3A52A",
"q. c #D6A52D",
"w. c #D1AA28",
"e. c #DCAD2D",
"r. c #D7B022",
"t. c #DAB222",
"y. c #DFB827",
"u. c #DFB22C",
"i. c #DEB129",
"p. c #D7A133",
"a. c #D6A132",
"s. c #D8A037",
"d. c #DDA736",
"f. c #DBA536",
"g. c #DFAB34",
"h. c #D9A038",
"j. c #D9A138",
"k. c #D8A038",
"l. c #DBA138",
"z. c #DBA238",
"x. c #DDA338",
"c. c #DDA439",
"v. c #DAA13A",
"b. c #E1B727",
"n. c #E4B62F",
"m. c #E6B92D",
"M. c #E6B82E",
"N. c #E9BD2E",
"B. c #E0A937",
"V. c #E2AE34",
"C. c #E3AA3A",
"Z. c #E2AA39",
"A. c #E1A839",
"S. c #E3B232",
"D. c #E9B436",
"F. c #E9B633",
"G. c #EABB30",
"H. c #ECBA33",
"J. c #ECBD30",
"K. c #E6C123",
"L. c #E9C423",
"P. c #EFC826",
"I. c #EDC22B",
"U. c #F2CD25",
"Y. c #F0C52B",
"T. c #F3C92A",
"R. c #F5D223",
"E. c #F8D425",
"W. c #F7D820",
"Q. c #F8D823",
"!. c #F2C231",
/* pixels */
"                                                            . . . . . . . . . . . . . . . . . . . .                                                             ",
"                                                            @ @ @ O O o X . . . . . . X X O O + @ @                                                             ",
"                                                      . @ ; 1 4 6 1 > & @ . . . . . X + & > 1 5 5 1 ; @ .                                                       ",
"                                        . X . . . X . O & 2 f x B x r < % o . . . . o % 1 r x B x f 3 & o . X . . X . X                                         ",
"                                      $ & - - - > ; ; , 4 f N ( _ J h 5 & o . . . . o & 5 h I ' ( N f 4 > ; > ; ; ; = * $                                       ",
"                                . . $ ; 7 r k x x x z x N I } *.[ J g 3 & o . . . . o & 2 g F ' -.' I N x x x x x k r 4 > @ X .                                 ",
"                              + @ $ ; 7 h F } 3.v.3...@...3.v.s.[ F f 1 % o . . . . o & 2 r F ' k.c.7.$.' ..3.s.-._ J h 6 ; $ @ +                               ",
"                        o $ - < 5 9 f x J ' s.s.*. .K J K ( $.*.' F f 2 % o . . . . X & 2 f F _ *.$. .L L E _ ;.v.k.' J x f 9 3 < - $ o                         ",
"                    . . o % < q x J _ -.k.-.;. .K V c j c C E ) _ F g 2 & o . . . . o & 2 g F _ } E V v a l m K ' *.3.7.$.( J x q < % o . .                     ",
"                    . . X $ 1 f J ..c.v.*._ E J m v c c b J  .@._ F f 2 & o . . . . o & 2 f F _ ) K b i y u p v C L ! 3.c.c.-.J f 1 $ X . .                     ",
"                    . . X $ 1 f J ..;.) K m v c v C G E / @.1.1.' F f 2 % o . . . . o & 2 g F (  .E m p y y y y i l m L ' *.-.F f 1 $ X . .                     ",
"                    + @ $ - 4 f B / E K m l p c m K ~ 4.B.Z.Z.x.' F f 2 % o . . . . o & 2 g F _  .E m a y t t y i i v m L ( I F f 6 ; $ @ +                     ",
"              o $ ; 1 6 9 r f k v m m B m m B H ! 0.i.m.J.J.D.B...F f 1 % o . . . . o & 2 g F '  .K b a y y i l v b C V m m v x k f w 8 4 < ; $ o               ",
"          . . o $ < r x J K J v j j j b C / ) a.n.m.P.U.T.T.H.B...F d 1 % o . . . . o & 2 f F ( ) K b a u i v C /  .E J m c a a v J K J x r < & o . .           ",
"          . . o & 2 f F ) @.E b p u p c J  .k.V.N.Y.R.R.U.T.N.V.O.F f 1 % o . . . . o & 2 f F _ ) K b p i p v J  .$.$.! H A Z G P ..-.-.J f 1 & o . .           ",
"          . . o & 2 f J ) ) E b p y j c C ( p.V.N.P.R.R.R.T.J.D.O.F r 1 % o . . . . o & 2 g F _ ( E b p u p v J  .3.f.e.9.r.r.t.i.S.d.-.F r 1 % o . .           ",
"          . . o & 2 e F ( _ K b p u j c C ( 1.V.M.P.U.R.U.T.J.V.$.F d 1 % o . . . . o & 2 f F _ ) E b p u p v C ( 1.V.m.Y.U.U.U.T.J.S...B r < & o . .           ",
"          . . X $ 1 f F ' ) E b p u i c C  .p.B.H.P.U.R.U.T.J.V...B d 1 % o . . . . o & 2 g F _ ( E b p u p v C ( 1.V.N.T.E.W.E.T.J.V...N r , $ X . .           ",
"          . . O & 2 f F (  .K b p u p v C ( 3.V.M.Y.U.R.R.T.J.V...F d 1 % o . . . . o & 2 g F _ ( K b p u j v K ( 1.V.m.P.R.R.R.Y.!.S.O.B e 2 & o . .           ",
"        & = - > 3 0 h N J K J V v c b C / ' p.g.m.P.R.R.U.T.J.V...F f 1 % o . . . . o & 2 f F (  .E b p u u v C ( 1.B.S.M.N.I.P.I.I.M.q.( x e 4 , ; = &         ",
". . o $ , 8 f k z v l l v v m C K / / ] } -.s.V.m.I.U.R.R.T.J.V...F d 1 % o . . . . o & 2 g F _  .E b j u p v C ( 7.c.d.B.V.S.m.N.I.L.I.y.w.W F x r 8 > $ o . . ",
". . o & 2 f B ( ( K b j u i v J / -.8.v.8.8.s.g.m.I.U.R.U.T.J.V.*.F d 1 % o . . . . o & 2 f F _  .K b p u p v K  .-.v.v.v.v.s.g.M.I.U.R.U.P.J.V.' B r < % o . . ",
". . o & 2 f F ..@.E b i y u v C ( -.v.v.8.k.s.g.m.I.U.E.R.T.J.V...F d 1 & o . . . . o & 2 g F ( ( K v u y u v C / $.7.7.7.7.8.g.n.I.U.Q.R.T.!.D.a.F r 1 % o . . ",
". . o & 1 f F _ ) E b j i i v J  .3.v.v.v.k.f.V.m.I.U.U.R.T.J.V.$.F d 1 % o . . . . o & 2 g F  .) E b p u p b C  .3.v.v.k.k.f.g.M.I.U.R.E.T.J.V...F r 1 % o . . ",
". . o & 1 f F _ %.~ H G Z S P Q q.e.V.S.S.S.S.m.I.P.R.W.E.T.J.V...F d 1 % o . . . . o & 2 f F } O.~ R G Z S P Q q.e.S.S.S.S.S.M.L.U.R.R.U.T.J.V...B d 1 % o . . ",
". . o % 1 r B ' f.u.i.t.U Y Y L.L.U.P.U.P.P.P.U.R.W.W.W.U.Y.J.V...F d 1 % o . . . . o % 1 f F ..f.V.i.t.Y Y b.K.L.U.Y.P.P.U.P.U.R.R.W.W.R.T.N.V...B r < % o . . ",
". . o % < r F O.g.H.Y.U.U.R.R.R.R.U.R.U.R.R.R.R.R.R.R.U.U.Y.H.V...F f 1 % o . . . . o % 1 d B ..V.M.I.P.P.W.R.R.R.R.R.R.R.R.R.R.W.R.R.U.Y.Y.H.B.-.B r < % o . . ",
". . o % 1 r B ..g.D.H.J.!.I.I.I.I.Y.N.I.N.I.I.I.I.I.I.m.M.F.D.B...F d 1 % o . . . . o % 1 f F ..B.D.H.N.I.I.I.I.I.I.N.I.I.N.I.I.I.N.I.N.J.F.D.d.[ F d < % o . . ",
". . o % 1 d F ' v.A.B.d.d.f.f.f.d.d.f.f.f.d.f.f.f.f.f.f.f.B.A.s.' F f 2 % o . . . . o % 1 f F } d.Z.A.d.g.f.f.f.f.f.f.f.f.f.f.f.f.f.f.f.d.c.Z.v.[ F r 1 % o . . ",
". . o % 1 d F _ 3.7.+. .E L L L L K L L L L L L I K L L / ) 3.3.' F f 2 & o . . . . o % 2 f F ) 3.3.+./ E L L L L L L L K L L L K K L I / ) 3.7.[ F f 1 % o . . ",
". . o & 1 e F _ +. .K b c l l j l j l a j j l j j p j z b K / $.' F f 3 & o . . . . o & 2 f F _ +. .K m z l l a l l j l l j j j a p j l b K ( } ( F f 1 & o . . ",
". . o & 2 d F ( _ E b a y y y y u i i i i i i i i u i a s C E $.( J f 2 & o . . . . o & 2 g F  . .E m a u t y y u i i i i i i i i i i i s J ( } ' F e 2 & o . . ",
". . o & 1 e F ( ( E b p y y u a c m m B m m m m S S D D W Q q.4.' F f 1 & o . . . . o & 2 g F _ _ L b i y y u l v b m m B m C V G S D D W Q 0.p.' B r 1 % o . . ",
". . o & 2 f F _ ( K b p u p c C /  .+.-.$...%.a.e.b.T K.L.N.m.V...F d 1 & o . . . . o & 2 f F _  .K b a u i c C E ) +.-.+.} $.;.e.b.K.L.K.I.F.g...B r 1 % o . . ",
". . o & 1 f F ( ( E b p u p v J  .-.c.v.c.c.f.S.N.Y.R.E.E.T.J.D...F f 1 % o . . . . o & 2 f F _  .E b a u p c K  .3.v.x.v.v.d.V.M.Y.R.W.R.T.!.V...B r 1 % o . . ",
". . o & 1 f F _  .E b p u p v K  .7.v.v.v.v.c.V.m.P.R.E.E.T.J.V...F d 1 % o . . . . o & 2 g F ' ) K b p u p v K  .;.l.l.x.v.f.V.M.P.R.R.R.T.J.D.O.B r < % o . . ",
". . o & 1 f F (  .K v p u p v J ( ;.8.l.v.v.s.g.m.I.U.R.U.T.J.V.-.F d 1 % o . . . . o & 2 g F ( ! E b p u p v C ( 7.8.v.v.v.v.g.m.I.U.R.R.T.J.V.O.F r 1 % o . . ",
". . o & 1 d F  .) E b p u p v C ( ;.v.v.v.1.f.g.m.I.U.R.R.T.J.V...F d 1 % o . . . . o & 2 g F _ ( E b p u u v C ( -.v.v.v.7.c.g.n.I.U.R.U.T.J.V.' F r < % o . . ",
". . o & 1 f C ( ) K b p u p v J  .;.v.v.v.v.s.g.m.P.U.R.U.T.J.V...F d 1 % o . . . . o & 2 f F _ ( K b p u p v K  .$.v.v.k.k.f.g.M.P.U.R.R.T.J.V.O.F r 1 % o . . ",
". . o & 1 d C ( ) E b p u p v J E 3.8.v.v.s.s.g.m.I.U.R.E.T.J.V...F d 1 % o . . . . o & 2 f F _ @.E b p u a v C ( 3.k.v.k.k.f.g.F.P.U.R.U.T.J.V.O.F r < % o . . ",
". . o & 1 f B ( ) K b p u p v J  .3.8.v.v.v.s.V.m.I.U.R.R.Y.J.V...F d 1 % o . . . . o & 2 g F ( ( E v p u p s J  .$.v.v.8.7.s.V.M.I.R.R.R.T.J.V...B d 1 % o . . ",
". . o & 2 f F _  .K b p u i v J  .;.v.l.8.v.s.g.M.I.U.R.U.U.J.V...F d 1 % o . . . . o & 2 f F _ ( E b p u u c J ( 3.v.v.v.v.f.g.M.I.P.R.R.T.J.V...B r < % o . . ",
". . o & 1 e F (  .K b i y i c C / ;.8.8.7.k.s.g.n.L.U.R.U.T.J.V.-.B d 1 % o . . . . o & 2 g F  .( E b p y i z J / $.8.8.7.7.s.g.M.I.U.R.R.Y.!.V...B r < % o . . ",
". . o & 1 f F _  .L m a i p v J ! 3.8.v.v.v.f.g.m.I.U.R.R.T.J.V.$.F d 1 % o . . . . o & 2 g F  .( E b a u j v J  .3.v.v.v.k.f.g.M.L.U.R.U.Y.N.S...F d < % o . . ",
". . o & 1 f F ' O.~ P G Z S P Q q.g.S.S.S.S.S.m.L.U.U.W.U.T.N.V...F d 1 % o . . . . o & 2 f F ' %.~ R A Z S P Q e.e.S.S.S.S.n.m.I.P.R.R.R.T.H.V...F r < % o . . ",
". . o % 1 r B ' f.g.u.t.Y t.T K.L.P.P.P.P.P.P.R.R.W.W.E.E.T.J.V...F d 1 % o . . . . o % 1 f F ..B.e.i.t.Y t.T K.L.P.P.P.P.Y.P.R.R.W.W.W.R.Y.!.V...F r 1 % o . . ",
". . o % 1 r F ..g.H.I.Y.U.R.R.R.R.R.R.R.R.R.R.R.R.R.R.U.U.Y.H.g...F f 1 % o . . . . o % 1 d B ..V.H.J.T.P.R.R.R.R.R.R.U.R.R.R.R.R.R.R.R.Y.Y.H.g...F r < % o . . ",
". . o & < r F ' d.D.H.I.I.I.I.I.I.I.I.N.I.J.I.I.I.I.N.N.H.D.D.d...F d 1 % o . . . . o % 1 f F ..B.D.J.J.I.!.I.I.I.I.I.I.N.N.I.I.N.I.I.m.H.H.D.c...B r 1 % o . . ",
". . o % 1 d B ' l.Z.A.d.d.s.d.d.f.f.f.d.f.f.f.f.f.f.f.f.d.B.A.x.' F f 1 % o . . . . o & 2 f F ' 4.C.C.f.x.d.f.d.f.f.f.f.f.f.f.g.f.f.f.f.f.d.A.x.} B f 1 % o . . ",
". . o % 1 e F ' 3.7.+.( / K L K I I K I L L L K L K L I / +.;.8.' F f 2 % o . . . . o & 2 f F ' 4.1.%./ E E K K L L L L L L I K L K L L / ..;.3._ B d 1 % o . . ",
". . o & 1 f F _ .. .J b c l j l l l l l l j l j a a j l b J  .} ' F g 2 & o . . . . o & 2 f F _ %.( K b c j j a l j l j l j j j a a j l b J ) @._ F d 2 & o . . ",
". . o & 1 e F ( ) E V a y y y y u i u i i i i i i i i a b G E O._ F f 2 & o . . . . o $ 2 g F _ ) E V a u y y u u i i i i i i i i i i a v J ! @.! F d 1 & o . . ",
". . o & 1 f B _ ( E b p y y i a c b m m m m m G G S D D W Q 0.;.) F f 2 & o . . . . o & 2 g F _ ( E b u y y u j c m m B m m V V G S D D W Q 0.a.' F e 1 % o . . ",
". . o & 1 f F _ ) K b p i i c B /  .$.-.} } O.a.9.b.b.K.L.P.H.B...F f 1 % o . . . . o & 2 f F _ ( E b p u p c V /  .+.-.....$.a.9.b.K.L.L.N.F.g.' F r 1 % o . . ",
". . o & 2 f F _  .E b a u p v J  .7.c.v.x.v.c.V.m.Y.Q.Q.R.T.J.V.$.B d 1 % o . . . . o & 2 g F ( ( K b p u p v K  .-.v.c.v.v.c.S.N.Y.R.E.R.T.J.D.O.F r < % o . . ",
". . o & 1 f B (  .K b p u p v J  .7.v.x.v.v.f.V.m.Y.R.Q.R.T.J.D.O.B d 1 % o . . . . o & 2 g F _ @.E b p u p v C ) -.v.x.v.v.c.V.M.Y.U.E.E.U.J.S.O.F r < % o . . ",
". . o & 1 e F '  .E b p u p v C ! ;.8.v.8.v.f.g.m.P.U.R.E.T.J.V.O.F d 1 % o . . . . o & 2 g F ' ( K b p u p v J ( ;.v.v.v.8.s.V.M.I.R.R.R.Y.J.V...B r < % o . . ",
". . o & 1 f F (  .K b p u u v E ( 3.v.v.v.8.f.g.m.I.U.R.U.T.J.V...F d 1 % o . . . . o & 2 f F _ ( E b p u p v J  .;.8.l.8.v.f.g.M.L.P.R.R.T.J.V...B r < % o . . ",
". . o & 2 f F (  .E v p u p v C / ;.v.v.v.8.s.g.m.I.U.R.R.T.J.V.O.F f 1 % o . . . . o & 2 f F ( @.E b p u p v J ( ;.8.v.v.7.s.V.M.I.P.R.R.T.J.V.-.B r 1 % o . . ",
". . o & 1 f F _  .K b p u p b C  .3.v.v.8.v.f.g.m.I.U.E.U.T.J.V.O.F d 1 % o . . . . o & 2 g F ' ( E b p u p v J ( ;.v.v.v.p.f.g.M.I.R.R.U.Y.!.V...B r 1 % o . . ",
". . o & 1 f F (  .E b a u p v C / 3.8.l.k.k.f.g.n.I.U.R.R.T.J.V.-.F d 1 % o . . . . o & 3 f J (  .K v p u p v J ( 7.v.v.v.k.v.g.M.L.U.R.R.T.H.V...F r < % o . . ",
". . o & 1 f F  .) E b j u p b C  .7.1.v.v.k.v.g.m.I.U.R.U.T.J.V...F d 1 % o . . . . o & 2 g B  . .E b p u j c J ( -.v.v.8.k.f.g.M.I.R.R.E.T.J.V.O.F r 1 % o . . ",
". . o & 1 f C  .( K b u u u v C / -.7.k.7.7.k.g.M.L.U.R.E.Y.J.V...F d 1 % o . . . . o & 2 g C ( ) E v u y i c C / -.k.k.7.7.v.g.n.I.U.R.T.Y.J.S...F r < % o . . ",
". . o & 1 d m  .( E m j u a b C ' -.v.v.v.v.f.g.M.P.P.R.U.T.J.V...F d 1 % o . . . . o & 2 f C ( ) E b l i p v J  .3.v.v.v.k.f.g.M.I.R.R.R.T.H.V...B d < % o . . ",
". . o % 1 f B _ $.~ R S Z S P Q q.e.S.S.S.S.S.m.I.U.R.R.R.Y.!.g...F d 1 % o . . . . o & 3 f J ' $.~ R S Z S P Q q.u.S.S.S.S.S.m.I.U.R.R.R.T.N.D.O.F r 1 % o . . ",
". . o % 1 r B ..f.e.i.t.U Y T L.L.P.Y.U.P.P.P.U.R.W.W.W.R.Y.J.S...F d 1 % o . . . . o % 1 f F ' f.g.i.t.U Y T K.L.I.P.P.P.P.P.U.R.W.W.R.R.Y.N.g...B r < % o . . ",
". . o % 1 r B ..B.H.I.U.U.U.R.R.R.R.R.R.R.U.R.R.R.R.U.R.P.I.H.g...F f 1 % o . . . . o % 1 d F ..g.H.I.Y.P.R.R.R.R.R.R.R.Q.R.R.R.R.R.R.R.Y.Y.J.V...F r < % o . . ",
". . o % < r F ..A.D.H.J.I.I.I.I.I.N.I.I.I.I.I.I.I.I.I.m.H.H.D.d...B f 1 % o . . . . o % 1 d F ..g.D.J.J.I.I.I.I.I.I.I.I.N.I.N.I.I.I.N.N.N.F.D.c...F r 1 % o . . ",
". . o % 1 w F ..x.B.B.d.f.d.s.x.f.f.f.f.f.f.f.f.f.f.f.s.c.d.C.v.} F f 1 % o . . . . o % 1 f F ' l.A.g.d.f.f.f.f.f.f.f.f.f.f.f.f.f.f.f.f.d.Z.Z.v.' B f 1 % o . . ",
". . o % 1 f F _ 3.3.+./ E K E E L L L L L L K L L K L / ( ' 3.7.' F f 2 % o . . . . o % 2 f F ' 8.-.+. ./ L L L L L L L L L I K K I K / / } ;.3.' F r 1 % o . . ",
". . o & 1 r F _ +. .K m c l j a j j j j l l l p j j a l b K ( } _ F f 2 & o . . . . o & 2 f F ' $. .K m z l l j j l l j j l j j j j a l m K  .}  .B f 2 & o . . ",
". . o & 2 f F  . .E m l y y y u i i i i i i i i i i i a v G ! ) _ F g 2 & o . . . . o & 2 g F _  .E m a y y t u u i i i i i i i i i i a v G E ) ' B f 1 & o . . ",
". . o & 2 e F _  .L b i y y u a v b m B m m m m A S D D W Q q.p.' F f 1 & o . . . . o & 2 f F (  .E b i u y u a v b b C B m m G A G D D W Q q.a.) F r 1 % o . . ",
". . o & 1 f F (  .K b a u p c V /  .+.-.$.O.O.a.9.b.b.L.L.I.H.g...F f 1 % o . . . . o & 2 g F _  .K b p u u c C E ) +.+.+...$.a.9.b.K.L.L.N.F.B.O.F r 1 % o . . ",
". . o & 1 f F _  .E b p u p v C ( -.c.c.c.c.c.S.H.P.R.Q.E.T.N.S.$.F d 1 % o . . . . o & 2 g F _ ~ K b p u p v C  .7.l.x.v.c.c.V.H.Y.R.W.E.T.J.S...B r < % o . . ",
". . o & 1 e F ( ) K b p u p v K  .7.v.v.v.v.c.V.M.P.R.R.E.U.J.V...F d 1 % o . . . . o & 2 f F _ ) E b p u p b K  .7.8.x.v.v.c.S.M.P.U.W.E.U.J.V...B r 1 % o . . ",
". . o & 1 f B _  .K b p u p v J ( ;.8.l.8.k.v.g.m.P.U.R.U.T.H.V.O.F d 1 & o . . . . o & 2 g F ( ( E b p u p v J  .$.8.v.v.7.s.g.M.I.R.R.R.Y.J.S...F r 1 % o . . ",
". . o & 1 f F _ ) K b p u p v J ( ;.v.v.v.v.f.g.m.I.R.R.U.T.J.V...F d 1 & o . . . . o & 2 f F _ ( K b p u u v C  .;.v.v.v.v.f.g.M.I.P.R.R.Y.J.V.' F r 1 % o . . ",
". . o & 2 f F _  .K b p u p c J  .;.v.v.v.7.s.g.n.I.U.R.U.T.J.D...F d 1 % o . . . . o & 2 g F  .) E b p u p v K ( 3.1.v.v.k.s.g.M.P.U.R.R.T.J.V.O.F r < % o . . ",
". . o & 1 f B ( ) K b p u p c J / 3.8.v.v.p.f.g.M.I.U.R.U.T.J.V...F d 1 & o . . . . o & 2 g F  .( E b p u a v C ( ;.v.v.8.k.f.g.M.L.U.R.T.T.!.g.O.F r < % X . . "
};
