/* XPM */
static char *result[] = {
/* columns rows colors chars-per-pixel */
"80 80 24 1 ",
"  c #5F371A",
". c #5F391B",
"X c #792601",
"o c #6E340D",
"O c #77350D",
"+ c #78360E",
"@ c #7B380F",
"# c #6B3612",
"$ c #643917",
"% c #6E3914",
"& c #613719",
"* c #62391B",
"= c #6B3D1C",
"- c #733A14",
"; c #7C3911",
": c #773F19",
"> c #6E411D",
", c #75421C",
"< c #7C451E",
"1 c #7C481F",
"2 c #764521",
"3 c #7B4720",
"4 c #764922",
"5 c #7B4820",
/* pixels */
"X+OO+O+@@+@+++++++++++++++++++++++OO+O++@+++++O++OO+OO+O++OOOOO+;;++++;+++++;++X",
"@<,<<33:<<:<33<<<<<<<<<<<<<<<3<<<<<<<<<<<3<<<<<<<<<<<<<<<<<<<<<<3<<<<<<<2<<<<<<+",
"@<43:333333333335<33333333<23333333333233333333333333333333333533333<<<3<52<2:::",
";<43333333333333555<33333333333333333333333333333333333333333333333322333<<<>=&#",
";<4533333333333335333333333333333333333333<333333333333333333333333333333333>&&#",
"@<5333333333333333333333333333333333333333553333333<3333333333333333333333332>=%",
"@<<<33333333333355553<333333333333333333333335333333333333333333333333333333<<<-",
";<3<3333333333335<5<<53333333333333333333333335<33333333333335333333<3333335<5<:",
";<45<333333333335555553333335<333333333333333333333333333<3333<53<333333333333<-",
";<43<33333333333522555333333333333333333333333333333333355333335333333<333333<<-",
";<25<333333333332>=>2333333333333333333333333333335533333333333333333333333333<-",
"@<23333333333332=..*&>33<<33333333333333333<333333<333353333333333333333333333<-",
"@<<<33333333333=&..* *235555333333333333333333<333<533353333333333333333333333<-",
";<5<<333333333,*&*..  =3<555333333333333333<33333335333<<333333333<33333333333<:",
"@<553333333333,*..&**&=553333333333333333333333333333333553333<53<333333333323<-",
"@345<3333333333*&&**& >55333333333333333333333333333333333333335333333333333<<<-",
";<52<55333335<32* *.*=223333333333<3333533335<333333335333<5333333333353333333<-",
"@<23<53333335533==**=25533333333355333353333533333<333<53353333333333353333333<:",
"@<<3<233<3333<3532223353333333333333333<<5333333335533333333533333332253333333<-",
";<33<3333333353333333553333333333333333335333333333333333333<33333333353333333<-",
";<43<5333333333333332533333333333333333333333333333333333353513533333333333333<-",
";<43<53333333333333353335533333333333333333335333335335<3333253333333222333333<-",
";<45<23333333333353333333<333335333<33553333<533333<33353333333333322&==233333<-",
";<45<33<3333333333333333333333333355333<3333333333353333335<333333>**&*.=23333<:",
";<<<333<333333333333335333333333335333333333333333<3333333333333<2&.******2333<-",
";<3<<333333333333333335233333333335<33333333<33333533335<33333333=&&**** *2333<-",
";<33333333333333333333333333535533333333335553333333333<553333<332&.****&*23<3<-",
";<23<33333333333333333533333555<3333<333333<5333333353333333333522*&******2<33<-",
";<43<3333333333333333333333333553333533333333333533333333333335<32=..**.*=<<333-",
";<43<333333333333333333333<3335<33335333333333333333333533333351332&***&=2<<33<-",
";<<<<333333333333333<333333333<<33<5333333533<33333<3333333333333322===>2333333-",
";<<<<333333333333333553353<333<<335333333333355333353333333333333<<32223333333<-",
";<43<33333333333333333455233555533333333<5533355333333333333333333<<<<3<533233<-",
";<43<33333333333333333335333533533333333333333<333333333333333<53355<<35535533<-",
";<43<33333333333333333533343333233333333333333333333<5333533335333335555335333<-",
"@<233333<33333333333333:*=:333553<33333333333333333353335<33333333355555333333<-",
"@<<<333333333333333333>*&&*>55553333333333333335<533333333333333333<5<33333333<-",
";<33<33333333333333333*&.. =,55333333333553333353533<3333333335333333333333333<-",
";<23<33333333333333352*&*&&*,553333333333<33333<33335333333333<1333333333333333-",
";<45<33333353333333355=&&&&=2553333335<33333333333335333<333351<33333333333333<:",
";<553333333333333333332=  *255333333333333333333333333355533355333353333333333<-",
"@<53333333333333333333322,,55333333333333333333335<3333<33333<3333<53333333333<-",
"@<<332333333333333333333533<33333333333333333355333533533333333333333333333333<-",
";<3<3333333333333333333335<<333333333<333333333<333333313333333333333333333333<-",
"@<45333333333333333333333333<3333333333333333333353335<55533333<333333333333333-",
"@<45<3333333333333333333331353333333333333333333333333523<3333553533333<3<3333<-",
";<42333<333333333333333333335333333333333333333333333333333333333<3333333333333-",
";<23<33<333333333333335333333333333333333313333335<333333333333333333333333333<-",
";;<5533<333333333333332555333333333533335<3333<3335333333<33333333333333333333<-",
";<55<2333333333333333333<53355333335333333333353333333335555333333333333333333<-",
";<45<33333333<533333355333333<33333<335333333333<3333333333<5533333333333333333-",
";<45<3333333333355<33<33333333333333335<35333533533333333335555<333333333333333-",
";<43533333333333333333333<333333333333333333333333333<33555<3<3533333333333333<-",
";<233333335333333333333355333333335<3333333333533333353552,====2333533333333333-",
";<<3<333<<<53333335533333333<333335333335<333333333333352=** **=:3<333333333333-",
";<3<<333<5335333333<33333333553333333333533335<3533335<<=* ***  *255<<33335533<-",
";<44523<33335335553333535<3333<3333333333333<5333333333,$*****..&=2333333333333-",
";<43<33<33333333<333335<533335533333333333333335<333352=**$*******>33333333333<-",
";<43<3353333<33333<433333333333333355533333333333335332**********&>233333333333-",
";<43<35533333335335<33333333333333<53<33333333333333332* *.*.****&>53333333333:-",
";<2<<55<<3<3355533353333333333333333333333333333333335,=.*$*****&&>53333333333<-",
";<2<<<5<<3<333<533333333333333333333333333333333333<1552*** **** =2553333333333-",
";<435555<333333333333333553333333353333333333333333<<553>******.&>5553333332333-",
";<435555533333333335<5333<3355<3335<33333333333333333355,=*****$22533333333333<-",
";<43322254333333333333333333353333333333333333333<33355533>===>233333333333333<-",
";<433=**=254333333333333353533333333333333<33333455<,53533535233335333333333333-",
";<232..**>33333333333333333<3333335<<33333553333<3<333333333533333333333333333<-",
";<23=..*&=352333333333333333<33333535533333333355353333355<3533333333333333333<-",
";<42=&&& =3335<33333333<3335535333333333333333<533333333333333<4333333333333333-",
";<432=&&=23353<333333333333333333333333333553333533333333333335<33333333333333<-",
";<43<2>>2355533<3333333333<5333333333333333<3333<53333333355333533333333333333<-",
";<4<<<<235353333333333333333333333355<333333333333333333333<3333353333333333333-",
";<<<<3333<553333333335<33333333353333333<533<533333333333533333333331333333333<-",
";<233333555<333353335<43333333335<3333555333533333333333<533333333335233333333<-",
";<535323335<333333333<33353333<533<4333<33333333333315<533333355333331335<3333<-",
";<4533333355333333333533<5333335335<33333333333335332551333335<133333333533333<-",
";<25333332333355<3331133<41<3333<53552<13333<111<51251123355551233513313333333<-",
";<23333<333333555333<13351<13333113311113333112533<1351<33,1311<33<<33<1331133<-",
";<22322<33<33225<1<,<<<1<,<<<<<<<<<1<,<<<<,5<<<<<<<<<<<<<<<<<<<<3<<<<<<<<<,1<<<-",
"+;2:<:::<:::::::,,,,,,,,,,,,,,,,,,,,,,,,,,,,,,,,,,,,,,,,,,,,,,,,,,,,,,,,,,,,,,:o"
};
