/* XPM */
static char *result[] = {
/* columns rows colors chars-per-pixel */
"80 80 173 2 ",
"   c #1B0F0A",
".  c #1E100B",
"X  c #2A0E09",
"o  c #22140B",
"O  c #2C130B",
"+  c #27180D",
"@  c #2A180B",
"#  c #311607",
"$  c #331C0F",
"%  c #2D1C13",
"&  c #291F18",
"*  c #341E15",
"=  c #361F18",
"-  c #3F230D",
";  c #372316",
":  c #3C2313",
">  c #3A251B",
",  c #3D2A1B",
"<  c #3F3021",
"1  c #4A2307",
"2  c #44250D",
"3  c #48250F",
"4  c #572509",
"5  c #5C2B0D",
"6  c #432612",
"7  c #442915",
"8  c #4C2C14",
"9  c #432C1C",
"0  c #4C2E19",
"q  c #522E14",
"w  c #5E2F12",
"e  c #4D311C",
"r  c #533016",
"t  c #54331B",
"y  c #5B361B",
"u  c #5D3A1E",
"i  c #652B08",
"p  c #6C290D",
"a  c #6A310D",
"s  c #613616",
"d  c #6D3413",
"f  c #663A16",
"g  c #643A1B",
"h  c #6C3E1F",
"j  c #713314",
"k  c #753D1C",
"l  c #442F23",
"z  c #473024",
"x  c #4D3323",
"c  c #4E3A2A",
"v  c #543521",
"b  c #5A3520",
"n  c #553A22",
"m  c #5D3C23",
"M  c #533A29",
"N  c #633D23",
"B  c #693F24",
"V  c #633F2A",
"C  c #67401E",
"Z  c #6C401F",
"A  c #7A451F",
"S  c #79481F",
"D  c #534129",
"F  c #5E422C",
"G  c #5D4A31",
"H  c #664526",
"J  c #6A4325",
"K  c #674827",
"L  c #6C4827",
"P  c #65432A",
"I  c #6C452A",
"U  c #67492B",
"Y  c #69482B",
"T  c #734526",
"R  c #7D4521",
"E  c #754826",
"W  c #7D4A25",
"Q  c #724629",
"!  c #754A2C",
"~  c #7A4D2D",
"^  c #7C512E",
"/  c #644731",
"(  c #634931",
")  c #6C4C32",
"_  c #754C31",
"`  c #7A4E31",
"'  c #765431",
"]  c #7C5331",
"[  c #745038",
"{  c #7C5539",
"}  c #7E5A3D",
"|  c #775944",
" . c #785E45",
".. c #804522",
"X. c #824C25",
"o. c #894F26",
"O. c #824D29",
"+. c #8C4F2B",
"@. c #825026",
"#. c #8C5225",
"$. c #83522D",
"%. c #8A552E",
"&. c #8D592D",
"*. c #915220",
"=. c #91572D",
"-. c #925A2E",
";. c #9A5C2E",
":. c #835433",
">. c #895632",
",. c #875935",
"<. c #8C5A34",
"1. c #815638",
"2. c #845A3A",
"3. c #8B5D3A",
"4. c #945732",
"5. c #945E34",
"6. c #995E33",
"7. c #935F38",
"8. c #8D613C",
"9. c #956136",
"0. c #9B6235",
"q. c #96623A",
"w. c #9B643B",
"e. c #9D683E",
"r. c #A16435",
"t. c #A96535",
"y. c #A76837",
"u. c #AA6A37",
"i. c #A2673A",
"p. c #A46A3C",
"a. c #AC6D3D",
"s. c #B26D36",
"d. c #B0673A",
"f. c #B16C3D",
"g. c #BB6E3D",
"h. c #AE703E",
"j. c #B67136",
"k. c #BB7236",
"l. c #B1713E",
"z. c #BA743D",
"x. c #BF793F",
"c. c #C0773E",
"v. c #835C42",
"b. c #8B5F41",
"n. c #8D6243",
"m. c #926542",
"M. c #9B6641",
"N. c #976A44",
"B. c #9C6A42",
"V. c #9D6E49",
"C. c #9F704C",
"Z. c #A46D41",
"A. c #AB6E40",
"S. c #A36F49",
"D. c #B06F40",
"F. c #A57145",
"G. c #AE7141",
"H. c #A47049",
"J. c #AC7449",
"K. c #AE784C",
"L. c #B37443",
"P. c #B97543",
"I. c #B67845",
"U. c #BA7944",
"Y. c #B37749",
"T. c #B87748",
"R. c #B5794B",
"E. c #BA7B4B",
"W. c #A77651",
"Q. c #B27B51",
"!. c #B87E51",
"~. c #B27F58",
"^. c #C27A43",
/* pixels */
"D F J L U U K U K K K K L L K K K K K K K K J J K K K K K K K K H K K K K K H K K K K K K K K K K K K K K K K K K K K K K K K K K J K L L K H K K U L L L U G G ",
"n F J ! ' ' ' ] ] ] ' ' ^ :.' ^ ^ ] ] ] ] ] ] ' ] ] ^ ] ] ] ] ] ] ] ] ] ] ] ] ] ' ] ] ] ] ^ ] ' ^ ' ] ] ] ' ] ] ] ] ' ' ^ ] ' ] ^ ^ ^ ] ^ ^ ] { ' ] ] ^ Q H P G ",
"u g k O.3.q.B.w.e.e.N.B.B.B.e.e.e.e.e.e.e.e.e.e.e.N.e.e.B.w.e.w.e.M.B.w.e.B.e.B.e.B.e.e.e.e.e.e.e.e.e.e.B.e.e.e.e.e.e.e.e.e.e.e.e.B.B.e.B.B.M.w.M.B.e.:.~ T H F ",
"g J ..O.<.B.G.P.x.L.L.Y.R.R.I.L.G.L.G.L.L.L.L.L.G.L.L.G.L.G.L.L.L.G.L.L.G.G.L.G.L.G.G.L.L.L.L.J.L.L.L.L.G.L.G.G.L.G.L.L.G.Y.G.L.J.L.P.R.I.L.L.P.L.J.w.%.$.W Q L ",
"g E +.+.>.w.h.x.^.U.P.L.a.A.L.P.P.U.U.U.U.U.P.U.U.U.U.P.P.U.P.P.I.U.U.U.U.U.U.U.U.P.U.U.U.U.P.P.I.U.U.U.U.I.U.U.x.U.U.I.U.U.E.U.L.L.u.A.L.I.U.U.P.a.9.%.X.%.^ U ",
"g W r.w.<.%.-.a.P.I.i.W t t >.a.x.z.l.l.l.j.l.l.l.h.j.l.l.j.P.l.l.l.l.l.l.l.l.l.l.L.l.l.l.l.l.L.h.h.l.l.l.l.L.l.h.l.l.l.h.l.z.j.e.' y y :.p.I.x.y.4.%.%.5.0.] L ",
"g @.f.G.q.$.@.9.A.J.5.g o o L p.U.P.G.a.a.f.a.a.h.h.h.h.a.a.h.h.h.h.G.h.h.h.h.h.a.a.h.a.h.h.A.a.h.h.h.h.h.h.h.h.a.h.a.h.h.a.l.j.8.F O @ J e.K.p.&.%.$.q.i.0.$.L ",
"f @.f.T.J.q.$.@.7.A.7.J % % ! p.I.P.G.G.L.l.D.L.G.G.h.L.L.G.G.G.G.G.G.G.G.G.G.G.G.G.L.G.G.h.L.D.G.G.G.G.h.G.G.G.h.h.G.G.G.L.P.l.q.( * : Y q.F.8.@.>.q.Z.p.6.^ L ",
"f O.d.T.E.J.i.%.%.5.9.:.H K 8.Z.L.P.G.G.L.A.P.A.A.P.G.G.G.G.G.G.G.L.a.A.D.D.D.D.D.D.D.A.D.L.A.D.D.D.a.P.A.P.D.D.G.L.G.G.G.G.L.L.Z.1.I I 3.q.9.&.&.p.G.h.p.6.^ U ",
"g O.D.P.x.U.L.w.%.W 8.B.F.p.Z.a.p.a.A.Z.A.A.p.p.p.p.p.p.a.p.a.a.a.p.a.p.A.p.A.p.A.p.p.A.a.p.p.a.p.a.p.p.p.p.p.p.p.p.A.p.A.Z.Z.Z.p.a.G.F.V.<.W &.e.L.x.l.y.7.] U ",
"g X.f.L.e.%.O.3.<.:.%.&.9.0.-.-.&.=.&.&.%.4.4.7.7.w.q.9.9.9.q.7.q.q.7.7.7.7.7.7.7.7.7.7.q.7.7.7.7.7.q.7.7.7.7.w.9.7.4.>.&.=.&.=.&.5.0.q.4.%.%.:.>.%.4.e.y.6.^ U ",
"g +.P.G. .e 6 ) n.e.>.S W W W W X.W X.W W W ~ _ ` ~ ~ ^ ~ ~ ~ ~ ~ ~ ~ ~ ~ ~ ` ` ~ ~ ` ~ ~ ~ ~ ~ ~ ~ ` ~ ~ ~ ] ` ~ W W W W S X.X.W ~ W W W %.q.{ H 7 b 3.w.0.] U ",
"d o.g.S.[ & . M 8.V.8.S ~ :.8.8.<.<.3.3.,.:.Q g y y y y s y y y y y y y y g s b y g s b y y y y g s y b b u y y g Q ] <.<.<.<.7.8.2.] W S w.W.] 7 o > { w.r.%.I ",
"g o.g.J. .< ; U 8.V.&.S $.8.e.8.8.m.B.H.Z.7.~ y r q r t t t r r t y y t t t t y t t t b t r r t y y y t t t 8 q g ` e.e.B.e.q.8.n.N.3.$.#.Z.~.2.y : z 2.w.0.W L ",
"g +.f.L.V.8.>.w.e.e.>.@.6.p.e.} ) 1.M.G.T.P.w.~ N m H J I P B N J ! ! L I I P B I B Q V V B B _ _ T Q V I P m B :.e.I.U.L.p.2.) 1.m.9.-.&.p.!.h.9.:.8.e.p.6.^ L ",
"g ..D.P.L.h.h.L.p.q.>.@.r.y.8.K l m <.A.U.^.L.M.] Q I ! _ _ Q P I ] 1.] ~ _ _ _ _ ` ` _ _ B Q ` :.>.` ! Q I Q :.M.L.U.E.z.0.P < F :.9.0.=.p.E.I.h.h.h.h.p.9.^ I ",
"g X.d.T.D.D.L.D.A.7.:.O.i.p.^ 8 . 6 W p.L.z.I.Q.B.$.T J ' ` _ Q ! :.:.:.` ` ` ` ` ` ` ` _ _ ! :.,.:.` ! J ! >.Z.R.R.z.U.l.4.e   , E 5.5.&.r.E.I.l.l.G.h.p.6.~ U ",
"N X.d.P.Y.D.D.P.A.7.>.O.0.p.8.( z F ,.F.L.j.P.E.P.p.%.E Q ! ! T Q :.,.1.O.` ` O.O.O.O.` ! k Q :.,.>.~ Q ! >.u.L.P.L.l.L.L.q.I l F { q.7.%.p.R.I.l.l.G.h.p.6.` U ",
"d O.D.T.L.l.D.l.A.7.>.~ 9.p.C.n.2.n.B.F.h.l.s.x.^.U.0.$.! I Q T ~ >.,.+.O._ ~ ~ ` O.~ ! ! k E >.>.O.T T :.p.U.x.l.f.h.h.G.S.n.v.n.V.q.7.%.p.E.I.h.l.l.A.y.6.' U ",
"N ..d.T.L.L.f.l.p.7.>.$.5.p.G.L.J.J.G.h.h.l.a.f.I.I.I.p.:.Q N J k :.,.$.` ` ` ` ` ` ` ` _ ! T :.1.E O.%.e.L.U.l.l.a.a.h.G.G.G.J.J.G.w.-.%.p.E.I.l.l.h.a.p.6.` I ",
"s O.f.P.L.h.h.l.p.q.>.$.<.p.l.z.x.x.l.h.h.h.h.h.G.P.E.I.q.:.B B _ 1.,.:.~ ` _ ` ` ~ _ ` ! Q Q ` ` ~ >.i.L.E.z.h.h.h.h.h.A.l.z.c.U.f.6.&.%.e.E.P.f.l.h.p.p.0.^ I ",
"g O.D.L.Y.h.l.l.a.w.$.W >.0.y.l.j.j.l.h.h.h.h.h.A.f.z.U.R.M.1.T B 1.1.O.` _ ` ` ` ~ ` ` _ Q B Q ~ >.p.R.I.L.h.h.h.h.h.h.l.l.j.j.a.p.4.$.%.p.E.P.l.l.h.h.y.9.^ U ",
"N ..f.P.L.G.l.l.a.w.%.~ ! :.w.u.u.h.h.h.h.h.h.h.A.a.f.P.T.Y.i.O.k ` :.:.` ~ ! ~ ~ ~ ` ` _ J J E >.p.L.I.z.h.h.h.h.h.h.h.h.h.h.u.p.4.~ E $.B.E.P.j.h.h.p.r.0.^ I ",
"N O.a.L.L.h.h.L.a.w.>.! N U 2.w.p.F.F.h.h.h.a.h.f.D.D.D.D.T.T.e.>.Q ! :.O.~ ~ ~ ~ O.` ! T B J :.i.P.I.L.h.h.h.h.h.h.h.G.G.h.p.p.n.] m u ^ p.E.P.f.l.h.h.p.9.~ U ",
"g O.D.P.h.h.h.h.h.e.&.E t q J :.e.F.p.G.G.h.h.h.h.h.h.h.f.P.U.Y.S.+.W T ! ` ~ ~ ~ ^ ~ ! T T >.B.L.I.z.f.a.h.h.h.h.h.h.G.a.p.p.q.` m 8 q $.Z.E.U.f.l.a.A.i.6.' U ",
"g ..d.T.I.h.h.h.h.e.<.^ t 8 q J 2.q.p.h.h.G.F.h.h.h.G.G.p.L.P.E.T.M.+.Q Q ! ` ' ~ ~ ! ! ! >.p.R.R.L.h.a.l.a.h.a.h.h.G.h.p.p.9.:.H 7 - r $.A.E.P.l.h.G.A.p.6.^ K ",
"d O.d.T.l.h.h.l.h.0.8.^ P t 3 8 J $.0.u.p.G.F.L.G.h.G.h.a.h.G.P.T.L.Z.>.E I ! ` ` ! T ! >.Z.P.P.L.h.a.L.h.h.a.L.h.G.F.u.y.0.^ C 8 7 e N :.A.E.P.f.l.G.A.i.6.^ L ",
"N O.D.D.L.h.h.l.u.0.5.$._ N q 6 0 J %.w.p.a.h.h.h.h.G.h.G.G.a.l.T.E.Y.7.:.Q L _ ! Q E >.B.L.T.L.h.h.A.G.l.a.h.h.G.h.a.p.9.$.C 8 8 v m I >.p.E.P.l.l.h.a.p.5.~ U ",
"b ..d.T.Y.D.h.l.h.0.<.:.$.! P t 6 8 H 2.e.y.u.h.h.h.h.h.h.h.A.a.G.P.P.P.p.$.E J P W >.i.I.I.L.L.G.G.a.L.h.G.G.h.l.a.p.w.1.F 8 6 v P Q ~ :.p.E.I.f.l.h.p.p.7.^ U ",
"B O.d.P.D.A.h.f.a.w.<.$.$.^ _ V e 6 8 H :.0.p.a.h.h.a.h.h.h.G.a.a.G.P.U.G.w.^ T T :.Z.L.U.L.A.a.A.G.a.a.h.h.G.h.a.p.w.] H q 0 u / ` ! ~ :.p.E.L.l.l.h.h.p.6.^ U ",
"g O.D.P.Y.A.D.L.a.0.8.$.~ ~ ' _ N 0 2 r L >.w.p.p.h.h.h.h.L.a.a.h.a.l.P.R.Y.9.%.>.e.R.E.P.l.h.h.a.G.L.a.h.h.h.p.p.9.$.u 8 8 u Y { ` Q ! <.p.E.x.l.h.h.p.i.7.] U ",
"g ..D.P.Y.D.f.D.a.0.&.^ ~ ~ ` ~ Q m t 3 r H :.w.p.a.h.h.h.A.a.L.h.h.h.h.L.L.p.i.A.L.I.L.l.f.A.h.h.a.L.h.h.h.h.p.q.^ H 7 6 m ^ %.:._ L ! %.p.E.I.l.h.h.h.p.6.' U ",
"g O.A.P.L.G.h.l.D.6.4.1.` ` ~ ~ ! Q H t 8 8 H &.w.r.a.a.a.L.G.h.h.h.h.h.a.h.l.L.T.R.L.l.h.h.h.h.h.h.h.L.f.p.p.7.$.N 8 : e _ :.-.O._ I ! %.p.E.R.h.l.h.a.p.6.] U ",
"g O.D.P.L.G.h.h.A.w.>.O.` k ` _ ! ! ' ! D 2 8 H :.w.p.a.a.G.G.G.a.G.a.a.a.a.L.I.P.L.a.a.a.h.h.h.h.h.h.h.a.p.e.:.g 8 6 e P { <.%.:.! I E %.Z.E.L.h.h.h.h.i.6.~ I ",
"g O.a.P.L.h.h.L.A.6.<.1.` ` ` _ Q ~ $.{ Q r 3 8 H :.0.p.a.A.h.h.h.a.h.a.h.l.L.U.L.G.a.a.h.h.a.h.G.G.a.a.A.7.>.N 8 8 0 m ! 1.,.%.` _ Q ! >.p.E.P.h.h.h.a.i.6.] Y ",
"s O.a.L.I.L.h.l.D.i.>.+.~ ~ ` ! L E $.2.{ J r 3 8 H >.e.p.a.h.h.G.h.a.h.L.I.L.L.h.h.l.a.h.l.l.l.h.h.Z.p.q.>.s q 3 t P I ! :.>.$.O._ Q ! +.Z.E.P.h.h.h.A.p.6.` U ",
"g O.D.P.I.h.h.G.A.w.4.:.~ ~ _ _ ! ! ~ ,.,.~ B e 7 0 K :.e.p.a.h.G.a.A.L.L.L.l.l.h.a.l.h.h.h.l.G.a.p.p.q.:.N 8 6 y V _ _ ! ] >.>.` _ I ! >.p.E.I.l.h.h.a.p.5.~ I ",
"g O.d.P.L.G.h.h.p.6.>.:.W ~ ` ! Q ! ^ :.>.O.Q P e : e J <.0.p.p.h.a.P.R.I.L.l.h.h.G.l.h.h.l.G.A.a.i.w.:.m 0 , v Q ` ~ k Q :.>.>.:._ B ! %.p.E.I.j.h.h.a.y.5.~ U ",
"g O.d.T.L.G.f.D.a.w.4.:.~ ~ _ ! Q ! ~ >.:.O.~ _ P t 7 0 J $.0.r.p.L.P.L.L.l.h.h.G.a.h.l.l.h.a.u.r.6.W g 8 7 y I ` ` ! Q ! ` >.>.:.Q I ! >.p.E.L.a.h.a.a.y.7.^ U ",
"g O.d.T.L.G.h.f.a.w.>.:.` ` ` ! Q ! O.:.1.~ ~ :.` U q 6 r Z 8.p.L.I.P.P.G.a.a.h.f.a.G.G.h.a.p.y.w.>.J 0 7 r L ' :.` _ Q ! O.>.%.] ! Q ! >.Z.E.P.l.l.h.a.r.0.^ U ",
"g O.d.T.J.D.D.D.A.6.4.:.W _ ` ! Q W :.:.:.` ~ O.` ` V x 0 h 7.G.U.I.z.h.a.l.h.G.f.f.G.G.a.p.t.p.w.>.N 8 v P ~ ~ ` _ ` B ! 1.>.%.` _ Q ~ >.Z.E.P.f.l.G.G.i.7.' I ",
"g O.d.T.T.D.A.D.A.r.3.:.~ ! ` ` Q ! O.:.1.~ W ~ :.` I N g W e.L.I.L.h.h.h.a.h.h.L.G.G.A.p.r.r.p.p.q.! u P ! ~ :.~ ` ! Q Q ` >.%.O._ I T %.p.E.P.l.h.h.p.p.6.` U ",
"g O.d.T.L.L.D.D.a.6.>.:.~ _ _ ! Q ! ~ ,.:.O.~ ` ` _ J E %.r.I.I.l.h.h.h.h.h.h.a.h.G.A.Z.w.w.i.a.L.L.w.$.L I _ ` ` O.~ I I :.:.>.:._ I ! %.Z.E.L.h.h.h.a.y.6.^ I ",
"g O.d.T.L.A.D.D.a.w.<.:.~ ~ ` ~ Q T ` :.>.~ ~ _ ! T ! >.Z.Y.I.I.h.h.h.h.h.h.l.h.h.a.p.w.w.p.p.h.l.L.L.p.:.! I _ ` ` ~ I Q ` ,.$.` ` I ~ %.i.E.P.h.l.G.a.t.6.^ U ",
"N O.D.P.L.G.h.h.A.6.4.O.~ ` ` Q Q ! ` >.:.O.! ` T E %.e.R.T.P.h.h.h.h.G.a.h.L.G.G.p.w.r.p.p.A.a.l.L.R.R.w.$.Q Q ` ` ! I ! ` >.%.:._ I T %.p.E.L.j.h.h.a.p.5.^ U ",
"g ..D.L.L.h.h.L.A.i.<.1.~ ` ` ! Q E ` 1.:.~ Q Q ! >.p.Y.T.L.a.h.h.h.l.A.a.L.G.A.p.w.0.y.a.h.D.A.G.h.L.I.D.Z.>.Q B ! ` Q ! 1.>.>.] ! I T >.p.E.z.l.h.h.a.y.5.^ L ",
"g ..D.P.L.G.h.h.a.6.4.$.! ` ` ` Q T ` :.:.! T T :.B.I.U.P.G.a.h.h.h.h.h.l.G.G.Z.p.0.p.p.h.l.h.h.h.h.l.z.^.R.7.1.Q Q ! Q ! :.>.>.^ ! L ! %.p.E.x.f.h.h.a.i.6.' U ",
"B O.f.I.L.h.h.D.A.w.<.$.~ ! ` ~ T ! :.,.` T W %.Z.R.I.L.L.A.G.f.a.h.G.h.G.a.u.i.r.p.a.h.G.h.G.h.G.h.a.h.L.T.T.Z.+.W B V Q ` >.+.$._ L ! ,.p.E.I.h.h.h.a.p.6.` U ",
"g O.d.P.I.h.h.h.h.w.<.:.~ ! ` ~ Q Q O.O.` ! %.i.L.T.L.G.a.G.G.D.a.G.G.G.A.a.i.r.i.p.p.h.h.G.G.h.h.h.a.a.L.P.T.L.e.$.T B I ` >.%.` _ I ! >.p.E.I.l.h.h.h.p.9.^ U ",
"g O.D.P.L.h.h.G.a.w.<.O.~ ~ ` _ ! ` ` ! ~ >.M.R.T.P.l.h.G.G.A.D.l.G.h.h.p.p.7.5.4.w.p.p.a.h.L.A.G.a.A.L.a.h.L.I.R.e.$.J V :.>.>.O._ Q ! >.p.E.L.l.h.h.a.r.7.^ K ",
"g O.d.T.L.G.h.f.a.0.<.:.~ ~ ` _ ! B B ! 4.Z.L.P.L.l.h.h.G.G.G.h.L.a.f.u.p.q.~ J I { e.p.u.h.G.G.G.l.A.A.A.G.l.L.T.L.i.O.Q ` $.,.:.! Q T %.Z.R.I.h.h.h.a.t.9.' U ",
"g O.d.T.L.G.h.L.a.w.<.$.~ ~ ` _ Q V Q >.i.T.T.P.l.a.h.h.h.h.h.G.l.h.f.p.6.,.N 8 e P <.0.y.a.A.G.L.a.A.L.G.G.a.h.P.U.R.7.+.` ` :.1._ Q ! :.p.E.I.l.h.h.a.p.9.~ U ",
"g ..d.T.D.D.a.l.a.w.<.O.~ ! _ T B T >.Z.Y.P.z.h.a.l.h.h.h.h.h.G.h.Z.p.q.` N 8 - - 0 J %.w.p.p.A.A.G.L.a.a.G.G.a.D.L.T.R.Z.>.W ! _ _ Q T :.p.E.I.h.l.h.a.p.5.^ U ",
"N O.d.T.T.D.a.L.A.w.<.:.~ ~ ~ T T %.i.L.R.L.h.a.h.h.G.h.h.G.h.G.p.Z.q.1.B q 3 8 8 8 8 H { q.p.a.A.G.G.G.h.h.h.h.a.D.L.E.Y.i.>.E ! ! Q ! %.Z.E.I.l.h.f.a.y.6.^ U ",
"g O.d.T.Y.G.A.f.a.6.4.:.~ Q T E >.Z.T.P.L.G.a.h.h.h.h.h.G.h.h.h.p.q.:.N 0 6 v / K t 2 8 F %.w.p.p.A.l.l.l.l.h.a.D.a.D.L.E.T.i.>.Q P U Q :.p.E.I.s.l.h.a.p.5.^ U ",
"g O.d.T.L.A.a.L.D.i.>.:.! Q E ,.Z.R.E.L.l.G.h.h.h.h.h.h.h.h.a.p.q.:.N 8 6 t P ` _ J t 7 8 B >.q.p.a.a.L.h.h.h.G.G.l.a.L.L.T.D.w.>.Q B T >.Z.E.I.h.h.h.a.y.5.^ L ",
"g X.f.P.l.h.h.L.A.7.4.` Q Q :.Z.R.T.P.G.a.G.h.h.h.a.A.L.A.a.p.w.:.N 8 6 t I _ :.:.~ P r 6 8 g ,.e.y.p.a.a.L.G.a.a.L.G.a.L.L.T.T.e.] B J >.Z.E.P.l.h.h.a.p.6.] I ",
"g X.f.z.I.h.h.h.A.w.,.W ~ :.Z.J.R.P.G.h.a.l.G.h.l.l.G.A.A.p.0.$.B q 8 y K _ ` ` ^ ~ ! P t 6 8 J >.i.p.a.A.G.G.G.G.a.h.A.a.A.P.U.J.B.~ W >.M.R.P.f.h.h.h.i.6.^ U ",
"g X.a.L.I.h.h.l.D.7.$.~ >.M.Y.E.z.l.a.h.A.h.h.h.h.G.a.a.i.q.:.N 8 8 t L _ :.` ~ ~ ^ ] ` P 0 2 q J <.w.i.p.f.G.G.h.l.h.G.h.f.f.z.R.K.9.$.$.e.E.P.l.l.a.p.t.6.` I ",
"g O.h.L.K.h.h.l.A.7.:.O.7.D.U.U.z.j.h.h.l.l.l.G.G.h.a.u.w.` m 7 7 m Q ^ :.~ ` ~ ` ~ ~ ` ~ m e 6 0 H :.i.p.a.A.G.L.a.h.h.h.a.g.k.x.x.e.&.%.e.E.P.h.h.G.G.p.9.' U ",
"f X.a.L.I.h.h.l.p.q.$.$.w.G.P.l.h.h.G.h.h.l.l.h.h.a.p.6.>.N 6 6 0 _ 1.$.O.! ~ _ ~ ~ ~ O.' Y m t 8 0 J %.0.p.p.h.h.l.h.h.h.h.h.h.l.L.a.9.%.e.E.I.j.h.h.h.p.5.^ U ",
"g X.f.P.L.h.h.l.a.9.$.$.0.A.F.V.n.N.F.G.l.h.j.f.a.p.w.:.b 8 : q J 1.2.:.~ ` ~ ~ ~ ~ ~ _ ~ Q Q I y 8 r g 1.q.t.u.h.h.h.l.G.F.B.n.N.H.q.9.&.p.E.z.f.l.h.a.y.7.^ K ",
"g X.d.P.L.h.l.l.a.q.$.$.0.p.q.) M U 8.Z.l.l.f.a.p.w.$.B 8 6 9 N E ,.,.:._ ~ _ ~ ~ ~ ` ` _ E W { L y 8 8 J ] 0.p.a.a.l.P.L.w._ c ( 2.9.5.&.p.E.U.l.f.l.a.y.5.' U ",
"g X.d.P.L.L.L.l.a.q.$.$.p.p.^ 0 . 7 W p.U.s.f.i.w.:.g 8 6 0 V Q ~ :.,.O.~ ~ ` ~ ~ ~ ` _ ! T E ,.1.! r 2 8 J %.0.p.p.G.I.L.<.e   , Q <.9.&.i.E.U.l.P.L.a.p.6.` K ",
"f X.d.T.P.L.I.L.A.7.:.O.i.p.,.m ; e :.p.j.s.u.q.:.N 8 8 v V _ Q ~ :.1.1.! ` ` ` ~ ` ` ! _ B ! ,.>.$.B v 8 0 N :.w.p.p.z.l.9.m % x ' 9.9.%.p.E.E.z.G.L.G.p.9.^ L ",
"g X.d.R.F.e.0.p.Z.m.:.O.0.p.m.' P ' q.F.a.t.6.1.m 0 6 e P _ ! Q T 1.,.O.~ ! ` ` ~ ! ~ ` T I ! :.<.+.` V 0 6 0 P ,.q.p.a.l.e.{ P [ b.q.5.#.p.!.J.e.0.w.F.p.;.~ U ",
"f o.g.G.b.b q E 7.B.<.@.5.p.H.C.V.C.H.Z.Z.7.O.g 8 2 t P ` _ T T T :.:.^ ~ E ! ! ! ~ ~ ! ! I T ] :.+.` Q H t 3 q Z $.q.Z.p.F.S.V.H.V.e.&.#.F.!.9.h r B 3.w.;.$.L ",
"f o.g.S.| = X V 3.V.<.W $.9.e.Z.F.p.w.w.4.>.T y q q J ~ ` ` E Q T :.:.~ ~ ~ ~ ~ ~ ~ ` ! T T E ^ :.:.:.` ! J q q g ! :.4.q.e.p.p.S.M.<.O.@.e.K.>.q # 7 { w.r.$.L ",
"g o.g.W.| = X V 8.V.>.S W $.#.#.#.#.%.%.$.~ ! I I ! ~ >.$.1.O.O.:.:.$.$.$.] $.^ O.:.` :.O.~ ~ >.:.:.$.$.>.` ! I I ! ~ $.O.o.*.*.#.%.W R X.5.S.:.t $ z } w.r.O.U ",
"s o.D.D.m.I B 1.8.8.>.$.9.w.0.0.;.;.9.9.7.7.7.7.q.M.w.M.M.7.7.M.w.w.q.e.w.w.w.0.w.7.M.q.e.q.w.q.7.w.M.q.q.M.M.q.7.7.q.7.w.6.6.;.5.w.M.q.%.&.<.:.' L ~ q.i.0.^ U ",
"g O.D.P.z.a.A.M.<.@.>.q.F.K.K.K.F.G.J.L.L.L.R.T.T.T.R.L.R.T.R.R.Y.Y.Y.L.Y.Y.Y.Y.T.R.R.Y.R.L.Y.Y.T.T.R.L.R.R.T.R.R.Y.L.G.G.J.J.J.J.Y.R.F.w.:.W 3.B.p.h.h.i.7.' I ",
"N O.A.P.I.L.Z.4.@.&.8.3.^ :.e.G.Y.Y.J.G.G.L.L.L.P.P.T.L.D.D.L.L.L.Y.L.L.L.L.L.L.L.L.L.L.L.P.L.L.D.Y.L.L.L.L.P.R.L.L.L.L.Y.L.L.L.S.e.:.:.8.7.>.%.9.p.L.l.u.5.~ U ",
"s X.f.T.L.F.5.X.%.w.9.~ 8 e $.p.U.L.G.h.l.a.h.l.A.l.h.h.f.l.h.l.L.l.h.h.h.h.h.l.G.h.h.h.h.h.h.h.A.a.l.a.h.h.l.l.l.h.h.h.G.h.z.l.q.! 0 t ^ w.w.%.o.9.Z.F.p.6.$.U ",
"g X.f.D.H.%.^ %.p.J.5.g o + L r.c.P.l.h.l.h.h.h.h.G.h.h.h.h.h.l.a.l.f.l.l.h.h.h.h.h.h.h.h.l.h.h.f.l.l.l.l.h.h.h.s.h.l.h.h.l.z.j.<.F o @ J q.K.r.#.$.<.S.p.r.$.U ",
"B ..t.i.8.$.$.w.h.K.0.L 7 9 ^ p.x.z.h.h.h.s.h.h.G.G.h.h.h.h.h.h.l.h.l.h.h.h.h.h.G.L.h.h.h.h.h.h.h.h.h.l.h.h.h.h.h.h.h.h.h.f.z.j.q.( , 9 W B.R.A.;.%.%.q.i.w.$.U ",
"N W 4.4.%.&.0.A.I.I.p.0.<.<.e.G.G.h.F.h.h.h.G.G.G.G.h.h.h.h.h.h.A.G.A.A.h.G.h.G.A.a.h.h.h.h.G.h.h.h.G.G.G.G.G.G.h.h.h.h.G.G.G.l.Z.B.<.<.M.A.G.L.p.7.%.$.&.7.{ ) ",
"N Q +.%.>.q.Z.a.h.p.p.a.F.p.Z.p.p.Z.F.p.p.Z.F.Z.p.Z.F.p.p.F.p.p.p.Z.A.A.Z.p.p.Z.p.p.p.Z.p.Z.Z.Z.Z.p.p.p.F.p.p.p.p.p.Z.Z.p.A.Z.p.G.Z.p.G.F.p.p.h.A.Z.q.%.$.:.' U ",
"b N R O.8.e.e.0.0.q.0.w.e.e.w.0.q.9.q.0.q.0.0.9.w.0.9.0.q.0.q.w.q.w.q.7.9.w.w.0.w.w.w.q.q.0.0.q.q.q.q.0.9.w.w.0.q.q.0.9.q.q.9.9.9.w.0.e.w.w.0.9.w.e.e.>.$.E K K ",
"q w j k T W W ..S S X.X.X.X.S A R R R R R R R ..R R A ....A W S ..R ..R R R A ..A R A R R R ..R R A ..R R R ..R W S W S R R S E W W W W S S A A R W W A k a y y ",
"1 4 p j d d d d d f a d a d j d d j d d j d d d d d j d d j d j d d d d d j j d j j d d j d d d d d j d d d d d d d d d d d d d d d a d d d d d d d d d a i 5 5 "
};
