/* XPM */
static char *result[] = {
/* columns rows colors chars-per-pixel */
"80 80 97 2 ",
"   c #17110A",
".  c #1C140D",
"X  c #261C12",
"o  c #291D12",
"O  c #321E12",
"+  c #2F2013",
"@  c #362316",
"#  c #3C2314",
"$  c #332618",
"%  c #3C2D1D",
"&  c #3D3121",
"*  c #432515",
"=  c #4A2715",
"-  c #4E2816",
";  c #432F1D",
":  c #4B2C19",
">  c #522A17",
",  c #562C18",
"<  c #5B2F1A",
"1  c #5E301A",
"2  c #63331C",
"3  c #6E391F",
"4  c #413222",
"5  c #653820",
"6  c #6C3C22",
"7  c #763D22",
"8  c #793F23",
"9  c #744024",
"0  c #7D4225",
"q  c #75472A",
"w  c #7B4A2B",
"e  c #684D33",
"r  c #7E5132",
"t  c #715C40",
"y  c #854526",
"u  c #894727",
"i  c #894728",
"p  c #8E4929",
"a  c #934C2A",
"s  c #984F2C",
"d  c #84502F",
"f  c #97522E",
"g  c #9A512D",
"h  c #845130",
"j  c #8E5A36",
"k  c #9D5530",
"l  c #9C5833",
"z  c #955E3A",
"x  c #A1532E",
"c  c #A15731",
"v  c #A45932",
"b  c #AC5B33",
"n  c #B55D33",
"m  c #B26136",
"M  c #B76439",
"N  c #B86639",
"B  c #C46638",
"V  c #C06D3F",
"C  c #CC6A3A",
"Z  c #D46F3D",
"A  c #CF703F",
"S  c #D7703E",
"D  c #DD733F",
"F  c #BE7041",
"G  c #C26F41",
"H  c #C97140",
"J  c #CE7946",
"K  c #D17744",
"L  c #DE7340",
"P  c #DA7B46",
"I  c #D67E4A",
"U  c #E17540",
"Y  c #E37A45",
"T  c #E17F49",
"R  c #B99C6D",
"E  c #BFA071",
"W  c #D6804A",
"Q  c #DF804A",
"!  c #D08552",
"~  c #DA8650",
"^  c #DE8D57",
"/  c #E1814A",
"(  c #E9864D",
")  c #E9884E",
"_  c #E68D55",
"`  c #EA8B51",
"'  c #F68E52",
"]  c #EB955C",
"[  c #FF9456",
"{  c #FF9A5B",
"}  c #FEA263",
"|  c #E3B37B",
" . c #F2B478",
".. c #F3BA7D",
"X. c #F6BF82",
"o. c #FFCA8A",
"O. c None",
/* pixels */
"O.c ' [ [ [ [ [ [ [ [ [ [ [ [ [ [ [ [ [ [ [ [ [ [ [ [ [ [ [ [ [ [ [ [ [ } O.O.O.O.O.O.) { [ [ [ [ [ [ [ [ [ [ [ [ [ [ [ [ [ [ [ [ [ [ [ [ [ [ [ [ [ [ { [ [ o.O.",
"2 y P / T T T T T Y / P T T T T Y U Y T T Y / P T T T T T T / / / / / P _ X.O.O.O.O.9 A Q Q / / / / / / T T / / / / T T Q / / / Y U ) / / / / / / / / ) / /  ...",
"> 2 a s s a s s s s s s s s s s s s s s s s s s s s s s s s s s s s s s x Y b % % = , u f a g s s s f a s s s s g g g g g g f g x a a x g g g a a g a g g g S U ",
"- 1 p a a a a a a a a a a a a a a a a a a a a a a a a a a a a a a a a a x U l X X * , u a a a a a a a a a a a a a a a a a a a a a a a a a a a a a a a a a g Z U ",
"- 1 p a a a a a a a a a a a a a a a a a a a a a a a a a a a a a a a s a x U l o X * , y s a a s a a a s a a a s a a g a a a g a a a a a s s a a a a g a a g C U ",
"- 1 a a a a a a a a a a a a a a a a a a a a a a a a a s a a a a a a a a x U g o X * , y a a a a s a a a a a a s g a a a a a a a a a s a a s a s g a a a a g Z U ",
"- < a a a a a a a a a a a a a a a a a a a a a a a a a a a a a a a a a a x U c o X * , u a s a a a s a s s a s a a a a a a a a a a a a a a a a a a a g a a a C U ",
"> < p a a a a a a a a a a a a a a a a s a a a a a a a a a a a a a a a a x D l o X * , u a a s a a a a a a a a a a a a g a a a a a a s a a s a s a a a a a g C U ",
"> 1 p a a a a a a a a a a a a a a a a a a a a a a a a a a a a a s a a a x U g o X * , y a s a a a a a a a s a s a g a a a a a a a a a g a a a a s a a a a s Z U ",
"- 1 p a a s a a a a a a a a a a a s a a a a a s a a a a a a a a a a a a x U c o X * < y a a a a a a s a a a a a a a a g a g a a a a a a a a a a a a a a s s C U ",
"- 1 a a a a a a a a a a a a a a a a a a a a a a a a a a a a a a a a a a x U c o X # , y a a a a a a s a a a a a a g a a a a s a a a s a g a a a a a s a a s C U ",
"- 1 a a a a a a a a a a a a a a a a a a a a a a a a a a a a a a a a a a x D l o o * < y a a a a a a a a a a a g a a a a a s a a s a a a a a a g a s a a a s Z U ",
"> 1 p a a a a a a a a a a a a a a a a a a a a a a a a a a a a a a a a a g D g o X * , y f a a a a s a a a a a a a a g a a a a a a a a s a a a a a s a a a s C U ",
"- 1 p a a a a a a a a a a a s a a a a a a a a a a a a s a a a a a a a a x D l o X * , y a a a a a a a a a a a a a a a a s a a a a s a a a a s a a a s a a s C U ",
"> 1 p a a a a a a a a a a a a a a a a a a a a a a a a a a a a a a a a a x U x o X * , y s a a a a a a a a a a a a a a a a a a a a a a s s a a s a a a a a s Z U ",
"> 1 p a a a a a a a a a a a a a a a a a a a a a a a a a a a a a a a a a x U g o + # , y a a a a a a a a a a a a a a a a a a a a a a a a a a a a s a s a s g C U ",
"- 1 a a a a a a a a a a a a a a a a a a a a a a a a a a a a a a a a a a x U g o X * , u a a a a a a a a a a a a a a a a a a a a s a a a a a s a a a a a a s C U ",
"- 1 p a a a a a a a a a a a a a a a a a a a a a a a a a a a a a a a a a x D k o X * , y a a a a a a a a a a a a a a a a a a a a a a a a a a a a a a a a a a C U ",
"- 1 p a a a a a a a a a a a a a a a a a a a a a a s a a a a a a a a a a x U k o o * , y a a a a a a a a a a a a a a a a a a a a a a a a a a a a a a a a a s S U ",
"- 1 p a a a a a a a a a a a a a a a a a a a a a a a a a a a a a a a a a x U k o o * , u a a a a a a a a a a a a a a a a a s a a a a a a a a a a a a a a a f C U ",
"> 1 p a a a a a a a a a a a a a a a a a a a a a a a a a a a a a a a a a x U k o o * , y a a a a a a a a a a a a a a a a a a a a a a a a a a a a a a a a a a C U ",
"- 1 p a a a a a a a a a a a a a a a a a a a a a a p a a a a a a a a a a x D k o X # , y a a a s a a s a a a a a a a a a a a a s f p a a a s a a a s a a a g C U ",
"- 1 u u p u p p p p p p p p p p p p p p p p a p p p p p p p p p p p p u g S a o o # , y p p p p a p p u p u p u a p p u p u a u p p p p p p p p p p p p p a B S ",
"= = , 1 1 1 1 1 < < < < < < < 1 < < < < < < < 1 1 1 , < < < 1 1 < < 1 < 2 9 : o o O * , < < < < 1 1 1 1 1 1 1 1 1 1 , 1 1 1 1 1 1 , 1 1 , 1 1 1 1 < < < 1 1 3 u ",
"O.* * = * * = * * = * * * * * = * * * = * * * = * * = * * * = * * = = * = # X o X X O * = * = * * = * * * = * * = * * * = * * = * * * * * * * * = * * * * = < O.",
"O.O.. o o o o o o o o o o X o o o o o o o o o o o o o o o o o o o X o o X X o X X X X X o X o o o o X o X o o X o o o o o o o o + X o o o o o o o o o X o $ O.O.",
"O.O.  X X . X X X X X X X X X X X X o o X X X X X X X X . X X X X X X X X X X X X X X X X X X . X X X X X X X X X o o o X o X X X X X X X X X X X X X X X $ O.O.",
"O.O.w i d d d d d d d d d d w i w : . o X X @ q d d d d d d d i d d w d d d d w d d d d d d d d d d d d d d d d w % X o o X @ q d d r h d d d d d d h h h j O.O.",
"O.f ' [ [ [ [ [ ' [ [ [ [ [ [ [ } E 4 X X @ 5 Q [ [ [ [ [ [ [ [ [ [ [ [ [ [ [ [ [ [ [ [ [ [ [ [ [ [ [ [ [ [ [ [ } R & X X + 6 ) [ [ [ [ [ [ [ [ [ [ [ [ ' [ o.O.",
", 7 m M m m M m M M M M M n M m G ] z o X # 2 c M m M m M m M m m M M M M M M m M m M M m M M M m M M M M M m N N ] j X o * 2 v M M N N N M M M M M M M n B / ] ",
"- 1 p a a a a a p a a p a a p a g D c o o # , y a a p a a a a a a a p a a a a p a a a p a a a a p a p a p a a a v U f X X * , u a a a p p a a a p a p a a a C U ",
"- 1 p a a a a a a a a a a a a a x U c o X * , y a a a a a a a a a a a a a a a a a a a a a a a a a a a a a a a a c U g X X * , y a a a a a a a a a a a a a s C U ",
"- 1 p a a a a a a a a a a a a h k L c o X * > y a a a a a a a a a a a a a a a a a a a a a a a a a a a a a a a a x U s o o * , y s a a a a a a a a a a a a s C U ",
"- 1 p a a a a a a a a a a a a a c L c o X * > y a a a a a a a a a a a a a a a a a a s a a a a a s a a a a a a a x D s X o * , y a a a a a a s a a a a a a s C U ",
"- 1 p s a a p a a a a a a a a a x L c X o * > y a a a a a s a a a a a a a a a a a a a a a a a a a a a a a a a a x U s X o * , u a a a a a a a a a a a a a s C U ",
"> 1 p h a a a a a a a a a a a a x L c o o # > y a a a a a a a a a a a a a a a a a a a a a a a a a a a a a a a a x U s O o * , y a a a a a a a a a a a a a s C U ",
"- 1 a a a a a a a a a a a a a a x L c X o * > y a a a a a a a a a a a a a a a a a a a a a a a a a a a a a a a a k D f X o * , y a a a a a a a a a a a a a s C U ",
"- < p a a a a a a p a a a a a a x L c o o # , y a a a a a s a a a a a a a a a a a a a a a a a a a a a a a a a a x D f o o # , y a a a a a a a a a a a a a s C U ",
"- 1 p a a p a a a a a p a a a p x L c X X * , y a a a a a a a a a a a a a a a a a a a a a a a a a a a a a a a a x D f X o * , u a a a a a a s a a a a a a a C U ",
"> < p a a a a p a a a a a a a a k L c o X * , y a a a a a a a a a a a a a a a a a a a a a a a a a a a a a a a a x D f o o * , u s a a a a a a a a a a a a s C U ",
"- < p a a p a a a a a a a a a p x L c X X # , y a a a a a a a a a a a a a a a a a a a a a a a a a a a a a a a a x U g o o * < u s a a a a a a a a s a a a a C U ",
"> < p a a a a a a a a a a p a a x L c o o * > y a a a a p a a p a a a s a a a a a a a a a a a a a a a a a a a a x D g X X # , y a a a a a a a a a a a a a a C U ",
"- 1 a a a a a a a a a p a a a a x L k o o # , y a a p a a a a f a a a a a a a a a a a a a a a a a a a a a a a a x D g X X = , u a a a a a a a a a a a a a s C U ",
"- 1 p a a a a p a a a a a a a h x L c o X * > y a a a a a a a p a a a a a a a a a a a a a a a a a a a a a a a a x U g X X # , y a a a a a a a a a a a a a a C U ",
"- 1 p f a a a a p a a a a a a p k L c o o # , y a a a a a a a a a a a a a a a a a a a a a a a a a a a a a a a a x U f o o * , u a a a a a a a a a a a a a a C U ",
"- 1 p p p a a a a a a a a a a a c L c o X * , y a p a a a a p a a a p a a a a a a a a p a a a a a a a a a a a a x U f X X % , u a a a a a a a a a a a a a s C D ",
"- 1 p a a a p f a a a a p a a a k L c X X * , y a a a a a a a a a a a a p a a p a a a a a a a p a a a a a a a a x D f X X * , u a a a a a a a a a a a a a s C U ",
"- 1 p a a a a p a a p a a a a a x L c o o # , 0 a a a a a p a a a a a a a a a a a a a a a a a a a a a a a a a p c U g X o # , y s a a a a a a a a a a a a s C U ",
"- 1 p a a a a a a p a a a a a p g U x o X * > y a a a a a a a a a a a a a a a a a a a p a a a a a a a a a a a a k D g X X * , u a a a a a a a a a a a a a s C U ",
"- 1 p s a a a a a a a a a a a a x U c o + # > y a a a a a a a a a a a a a a a a a a a a a a a a a a a a a a a a x D g X X * , y a a a a a s a a a s a a a s C U ",
"= > 7 7 7 7 7 7 7 7 7 7 7 7 9 7 y b 0 o X # = 3 7 7 8 7 7 7 7 7 7 7 8 8 7 7 8 7 8 8 8 8 8 7 8 8 8 8 8 8 8 8 8 8 y b 8 X o @ - 3 8 7 7 7 8 8 8 8 8 8 8 8 7 8 g n ",
"O.* = = - - = - - - = - = - - - : , + X X X @ = - - - - - - - > - = = > = = = = = = - - = = - - = = = = - - = = > - + X o + # = > = = = = - = - = - - = - > < O.",
"O.O.o # @ O @ @ O @ @ # @ @ @ O @ o o o X X X @ O # @ O # O O @ @ @ O # + @ @ @ @ @ # O @ @ @ O # # @ O @ O @ @ @ + X X o X o O # @ @ @ O @ @ @ # O @ @ @ * O.O.",
"O.O.. X X X X X X X X X X X X X X X X X X X X X X X X X X o X o X X X X X X X X X X X X X X X X X X X X o o X X X X X X X X X X X X X X X X X X X o X X X $ O.O.",
"O.O.o @ @ @ @ @ $ @ @ @ $ @ $ @ @ @ @ @ @ @ @ @ @ $ @ $ $ @ $ $ @ @ @ @ $ X + X X + o @ @ @ @ $ @ @ @ @ @ @ @ @ @ $ @ @ $ @ @ @ $ @ $ @ # @ @ @ @ @ @ @ @ ; O.O.",
"O.k J I I I W I I I I I I I I I I W W I I W I I I I I I I I I I W W I W ! t X X X + : N W W W W W W W W W W W W W W W W W W W W W W W W W W W W W W W W W ~ X.O.",
"5 i T ( ( ( ( ( ( ( ( ( ( ( ( ( ( ( ( ( ( ( ( ( ( ( ( ( ( ( ( ( ) ( ( ( ] | e o X # 9 A ` ) ) ) ) ) ) ) ) ) ) ) ) ) ) ) ) ( ( ( ) ) ) ( ( ( ( ( ( ( ) ( ) ` ..X.",
"> 2 a s s s s f s s f s s s s s g f a g s s g a s s s s s f g f s f f s x Y l o X * < p g g a f a g g a g g g a g g f a g g a g f g f g f f s f f s f s g g H Y ",
"- < p a a a a p a a p a p a a a p a a a a a a a a a p a a a p a a p a p x D g o X # , y a a a a a a a a a a a a a a a a a a a a a p a a a a a p a a a a a s C L ",
"> < p p a a a a a a a a a a a a a a a a a a a a a a a a a a a a a a a a g L g o + # , y a a a a a a a p a a a d a a a a a a a a a a a p a a a a a a p a a s C L ",
"> < p a a a a a a p a a a a a p a a a p a a f p a a a a p f p a p a a a x L k X X * , y a a a p a a a a a a a a a a a a a p a a p a a a a p a a a a a a a s C L ",
"- < p a a a a p a a a a a a a a a a p f a a p a p a a a a a a a a a a p x L k o X * , y a a a a a a p a a a a a a p a a a a a a f p a a a f p a a p a a a a C L ",
"> 1 p a a p a a a a p a a a a a f p a a a a a a a a p a a a f p a a a a g L g X X # , y a a a a p a a a a a a a a a a a a a a a a a p f a a a a a a a p a a C U ",
"- 1 p a a a a p a a a a a p a a p a a a a p a a p a a a a a p a a a a a x L k o + # , w a a a a a a a a a a a a p a p a a a a p a a a p a a a p a a a a a a C U ",
"- < p a a a a a a a a a a a a a a a a a a a a a a a a p a a a a a a a p k L k X X * , y a a a a a a a a a a a a a a p a a a a a a a a a a a a p p a a a a a C L ",
"> 1 p a a p a a a a p p a a a a a p a a a a a a a p a a a a a p a a a a x L k X X * , y a a p a a a a a a p a a a a a a p a a a a a a h a a a a a a a a a a C U ",
"- 1 p a a a p a a a a a p a a p a a a p a p a a a a a a a p a a a a a a x L s X X # , y a a a a p a a p a a a p a a a a a a a a a a a a a a a a a a a a a s H U ",
"- 1 p a p a a a a a a a a a a a a a a a a a a p a a a a a a a a a a p a x L k X X * , y a a a a a a a a a a a a a a h a a a a p a a a a a p a a a a a a a a B U ",
"> 1 i a a a a p a a a p a a a a p a a a a a a a p a a a a a p a p a a p s L x X X * , y p a a a p f a a p a a a a a a a p a a a a a a a a a a p a a a a a a C L ",
"- 1 p a a p a a p a a a p a a p a a a a a p a a a a p a a a a a a a a a x L k X X * , y a p a a a p a a f p a a a a a a a a a a a a a h a a a a a a a a a a C L ",
"- 1 i a a a a p p a a p a a p a p p a p a a a a a p p a a a a a a a a a x L k X X * , y a a a a a a a a a a p a a a a p a a a p a a a a a a a a a a a a a a C L ",
"- 1 i a a a a a a p a a a a a a a a a a a a p a a a a a a a p a a a p p x L k X X * , y a a a a a a p f p a a a a a a a a a a a a p a a a a a a a a a a a a C L ",
"- 1 p a p a a a a a a p a a a a a a a a p a a a a a a a a a a a a p a p x L k X o * , y a a p a p a a a p a a a a a a a a a a a a a a p a a a a a a a a a a C U ",
"> 1 p a a a p a p a a a a a a a a p a a a a p a p a a a p a a p a a a a x L k X o * , y a a a a a a p a a a a a p a a a a a a a a a a a a a a a a a a a a a C U ",
"- 1 p p a a a p a p p a a p a p p a a p a a a p a a a a a a a a a p a p x L s X o * , y a a a a a a f p a a a a a a p f a a p a a a a a a p a a a a p a a a C U ",
"- 1 p a a p a a a p p a a p a a a a a a a p a a a a a p p a a a a p a a x L k X X * , y a a a a p a a a a p a a a a a p a a a a a p a a a a a a h a a a a a C L ",
"- 1 p p a a p a a a p a a a p p a a a a a a a a a a a a a a a a a a a a k L z X X # , y a a a a f p a a a a a a a p a a a a a a a a a a a a a a a a a a a a G L ",
"- 1 i p p p p p p p i p p p p p p i p p i i p p p p p i i p a i p p p p s L a X . @ > y p i p p p p p p p p p p p p p p p p i p p p p p p p p p p p p p p a B L ",
"* = , < < , 1 < < < < < 1 < < < < < < < < < < , < < , < < < < < < < < < 2 8 O.O.O.O.* , < < < , < < < < < < < < < < < < < < < < < < < < < < < < < < < < < < 6 i ",
"O.* = = = - = = - = = = = = = = - - - - - * - - - - - - - - - - = = - - : O.O.O.O.O.O.* * - - - : = = = = = = = : = : * - * - - : * = = = = = = = = = = = - > O."
};
