/* XPM */
static char *b5fcad4c1d3e4fed920f0c48d6d8c6fe6ekUdpHCnuqxzA21[] = {
/* columns rows colors chars-per-pixel */
"80 80 154 2 ",
"   c #4C6885",
".  c #4C6986",
"X  c #4D6986",
"o  c #4D6A87",
"O  c #4C6784",
"+  c #4B6784",
"@  c #4B6683",
"#  c #4B6582",
"$  c #4A6380",
"%  c #4A627F",
"&  c #49607D",
"*  c #495F7C",
"=  c #4C6A87",
"-  c #496280",
";  c #485F7C",
":  c #465B79",
">  c #455977",
",  c #455876",
"<  c #455775",
"1  c #4B6481",
"2  c #485F7D",
"3  c #465A77",
"4  c #435573",
"5  c #42516F",
"6  c #414F6D",
"7  c #404E6C",
"8  c #4D6A86",
"9  c #475C79",
"0  c #435473",
"q  c #414E6C",
"w  c #3F4968",
"e  c #3E4665",
"r  c #3D4564",
"t  c #4B6783",
"y  c #4A6481",
"u  c #41506E",
"i  c #3E4867",
"p  c #3C4362",
"a  c #3B405F",
"s  c #3A3F5E",
"d  c #414F6E",
"f  c #4A6582",
"g  c #49627F",
"h  c #48607D",
"j  c #48617E",
"k  c #49617E",
"l  c #475E7B",
"z  c #435370",
"x  c #3F4B6A",
"c  c #3D4563",
"v  c #3A3D5C",
"b  c #393C5B",
"n  c #3F4B69",
"m  c #425270",
"M  c #475F7C",
"N  c #4D6885",
"B  c #4A6280",
"V  c #475B79",
"C  c #445775",
"Z  c #435371",
"A  c #3B4362",
"S  c #393D5C",
"D  c #383C5B",
"F  c #3D4866",
"G  c #404D6C",
"H  c #4C6683",
"J  c #465977",
"K  c #435472",
"L  c #42506E",
"P  c #3F4C6A",
"I  c #3C4563",
"U  c #3B4160",
"Y  c #393F5E",
"T  c #393E5D",
"R  c #383D5C",
"E  c #3A4160",
"W  c #3C4463",
"Q  c #3D4766",
"!  c #495F7D",
"~  c #3E4766",
"^  c #3D4665",
"/  c #3C4261",
"(  c #3A3E5D",
")  c #3F4867",
"_  c #445573",
"`  c #475C7A",
"'  c #3B4060",
"]  c #3A405F",
"[  c #455875",
"{  c #475E7C",
"}  c #465A78",
"|  c #445876",
" . c #435574",
".. c #404C6B",
"X. c #3D4765",
"o. c #393B5A",
"O. c #3A405E",
"+. c #4B6684",
"@. c #455976",
"#. c #425371",
"$. c #404D6B",
"%. c #3F4A69",
"&. c #49617F",
"*. c #3D4664",
"=. c #3C4462",
"-. c #3B4361",
";. c #3C4361",
":. c #3B4261",
">. c #3B4260",
",. c #3C4564",
"<. c #425170",
"1. c #445674",
"2. c #445675",
"3. c #455776",
"4. c #445472",
"5. c #3E4A68",
"6. c #435471",
"7. c #4B6583",
"8. c #4A6482",
"9. c #3A3E5E",
"0. c #404C6A",
"q. c #4D6B88",
"w. c #4D6C89",
"e. c #485D7B",
"r. c #414E6D",
"t. c #3F4967",
"y. c #41506D",
"u. c #4C6987",
"i. c #445673",
"p. c #435674",
"a. c #393D5D",
"s. c #465B78",
"d. c #435372",
"f. c #4C6985",
"g. c #404F6D",
"h. c #404E6B",
"j. c #3E4866",
"k. c #3B415F",
"l. c #3A3F5D",
"z. c #424F6D",
"x. c #43526F",
"c. c #49607E",
"v. c #465877",
"b. c #465876",
"n. c #475D7A",
"m. c #4C6785",
"M. c #4D6C88",
"N. c #4B6482",
"B. c #465978",
"V. c #4A6381",
"C. c #485E7C",
"Z. c #393B5B",
"A. c #3A3E5C",
"S. c white",
/* pixels */
"                                                          . X o o o o o o o o X .                                                                               ",
"                                                            . . . . . . . . . .                                                                                 ",
"                                                          O + @ @ @ @ @ @ @ @ + O                                                                               ",
"                                                        @ # $ % & & * * & & % $ # @                                                                             ",
"                              . . . . . . . . . . = .   @ - ; : > , < < , > : ; - @   . . .                                                                     ",
"                              X X X X X X X X X o o X   1 2 3 4 5 6 7 7 6 5 4 3 2 1   X 8 X                                                                     ",
"                              . . . . . . . . . = o . + - 9 0 q w e r r e w q 0 9 - + . o . .                                                                   ",
"                            O + @ @ @ @ @ @ @ @ + O t y ; < u i p a s s a p i d < ; y +                                                                         ",
"                          @ f $ g h h h h h h h j k h l > z x c a v b b v a c n m > M g y @ +                                                                   ",
"          X X X X 8 o X N @ B ; V > , < , , , , > > , C Z 7 i A s S D D S s A F G Z , 9 & $ H N X o X X X X X X X X X X X X X X X X X X X X                     ",
"          X X X X o o X   1 ; J K L 6 q q 6 6 6 6 u 6 q P i I U Y T R R T Y E W Q x u K 3 ! 1   X o o X X X X X X X X X X X X X X X X X X X                     ",
"          . . . . = o . + - 9 0 q w ~ ^ e ~ ~ ~ ~ ~ ~ ~ r W / U s s ( ( s s a U p r ) q _ ` - + . o = . . . . . . . . . . . . . . . . . . .                     ",
"        O + @ @ @ + O t y ; < u i p ' ] a U U U U U U U U a ] s s s s s s s s s s a p i u [ ; y t O + @ @ @ @ @ @ @ @ @ @ @ @ @ @ @ @ @ @ + O                   ",
"      @ f $ g h h j j h l > z x c a ( S v ( ( ( ( ( ( ( ( ( s s s s s s s s ( ( S ( a c x z > l h k j h h h h h h h h h h h h h h h h h g $ f @                 ",
".   O f g { } | C C C C  .m ..X.U v b o.o.b b b S S T T T T s s s s s s s s s T S T O.A i 7 Z C , > > , , , , , , , , , , , , , , < , > V ; B @ N X X X         ",
"8   +.$ { @.#.6 7 7 7 7 $.%.X.p O.S b o.o.b b b S S T T T T s s s s s s s s s T T T s U I i P q 6 u 6 6 6 6 6 6 6 6 6 6 6 6 6 6 q q 6 L K J ; 1   X 8 X         ",
"o . @ &.: K G i ^ r r ^ ^ W p U a ( ( ( ( ( ( ( ( s s s s s s s s s s s s s s s s s s U / W r ~ ~ ~ ~ ~ ~ ~ ~ ~ ~ ~ ~ ~ ~ ~ ~ ~ e ^ ~ w q 0 9 - + . = . .       ",
"o . @ k } z n *.=.-.;.=.=.p ;.:.>.U U U U U U U a ] s s s s s s s s s s s s s s s s s s ] a U U U U U U U U U U U U U U U U U U a ] ' p i d < ; y +             ",
"o . @ &.: K G i ^ ,.r ^ ^ ^ ^ ~ ~ ~ ~ ~ ~ ~ ~ r W / U s s s s s s s s s s s s s s s s s s ( ( ( ( ( ( ( ( ( ( ( ( ( ( ( ( ( ( ( v S ( a c n m > M g y @ +       ",
"8   +.$ { @.#.6 7 $.$.7 7 7 7 6 6 6 6 L L L 6 $.w *./ ] s ( s s s s s s s s s s s s s s s T T T T T T T T T T T T T T T T T T S b b b ( U ^ P <.1.: ; - # O   . ",
".   O f g { } | C 1.2.C C C C , , , , J } J 3.4.6 w W a s ( ( s s s s s s s s s s s s s s T T T T T T T T T T T T T T T T T T S S b b S s :.*.5.7 6.> ; $ +.  8 ",
"      @ f $ g h h h h h h h h h h h j k g k ; } 6...*.U s T ( s s s s s s s s s s s s s s s s s s s s s s s s s s s s s s s s s ( ( ( s s a :.W ~ G K : g @ . o ",
"        O + @ @ @ @ @ @ @ @ @ @ @ @ @ @ 7.8.&.` _ G ^ U 9.T ( s s s s s s s s s s s s s s s s s s s s s s s s s s s s s s s s s ] a U U U U >.;.*.n z } k @ . o ",
"          . . . . . . . . . . . . .   + # $ h } Z 0.*.U s T ( s s s s s s s s s s s s s s s s s s s s s s s s s s s s s s s s U / W r ~ ~ ^ r ^ i G K : &.@ . o ",
"          X X X X o o q.q.q.w.w.q.o   # &.e.J 4.r.t.W a s ( ( s s s s s s s s s s s s s s T T T T T T T T T T T T T T T S T Y U I i P q 6 q 7 7 y.#.@.{ $ +.  8 ",
"          X X X X o o q.q.q.w.w.q.u.@ k V i.5 0.i r :.] s ( s s s s s s s s s s s s s s s T T T T T T T T T T T T T T S S T s A i 7 Z C , , | C , } { g f O   . ",
"                    . . . . = o . + - ` _ q ) r p U a s s s s s s s s s s s s s s s s s s ( ( ( ( ( ( ( ( ( ( ( ( ( ( v S ( a c x z > l h j j h h g $ f @       ",
"                  O + @ @ @ + O t y ; [ u i p a s s s s s s s s s s s s s s s s s s s s ] a U U U U U U U U U U U U U a ] ' p i u < ; y t O + @ @ @ + O         ",
"                @ f $ g h h j j h l > z x c a ( S ( ( s s s s s s s s s s s s s s s s U / W r ~ ~ ~ ~ ~ ~ ~ ~ ~ ~ ~ ~ e ^ ~ w q 0 9 - + . o = . . . .           ",
"          .   O f &.l } | C C C C p.m G F A s T a.T s s s s s s s s s T T T T a.S T Y U I i P q 6 u 6 6 6 6 6 6 6 6 6 q q 6 L K J ; 1   X o o X X X X           ",
"        . .   + $ l , #.6 7 7 7 7 $.n F W E Y T T T s s s s s s s s s T T T T S S T s A i 7 Z C , > > , , , , , , , , , < , > V ; B @ N X o 8 X X X X           ",
"        . X   @ &.s.d.$.i ^ r r ^ ^ ,.p :.a s s s s s s s s s s s s s ( ( ( ( v S ( a c x z > l h k j h h h h h h h h h h h h g $ f @                           ",
"        . X f.@ k 3 m n *.=.-.;.=.=.;.>.U ] s s s s s s s s s s s s ] a U U U a ] ' p i u < ; y t O + @ @ @ @ @ @ @ @ @ @ @ @ @ + O                             ",
"        . X   @ &.s.d.$.i ^ r r ^ ^ ,.p :.a s s s s s s s s s s s U / W r ~ ~ e e ~ w q 0 9 - + . o = . . . . . . . . . . . . . .                               ",
"        . .   + $ l , #.6 7 7 7 7 $.n F W E Y T S T T T T T S T Y U I i P q 6 6 6 6 L K J ; 1   o q.q.q.q.q.q.q.q.q.q.q.q.q.q.q.o o X X X X                     ",
"          .   O f &.l } | C C C C p.m G F A s T S S T T T S S T s A i 7 Z C , , , , > V ; B @ N o o q.q.q.q.q.q.q.q.q.q.q.q.q.q.o o X X X X                     ",
"                @ f $ g h h j j h l > z x c a ( S v ( ( ( v S ( a c x z > l h j j h h g $ f @     . . . . . . . . . . . . . . . . . . . . .                     ",
"                  O + @ @ @ + O t y ; < u i p ' ] a U U U a ] ' p i u < ; y t O + @ @ @ + O       O + @ @ @ @ @ @ @ @ @ @ @ @ @ @ @ @ @ @ + O                   ",
"                    . . . . = o . + - 9 0 q w ~ ^ e ~ ~ ~ e ^ ~ w q 0 9 - + . o = . . . . .     @ f $ g h h h h h h h h h h h h h h h h g $ f @                 ",
"                    X X X X o o X   1 ; J K L 6 q q 6 6 6 q q 6 L K J ; 1   o q.q.q.q.q.q.o o N @ B ; V > , < , , , , , , , , , , < , > V ; B @ N X o X X X X X ",
"                    X X X X 8 o X N @ B ; V > , < , , , , , < , > V ; B @ N o o q.q.q.q.q.q.o   1 ; J K L 6 q q 6 6 6 6 6 6 6 6 q q 6 L K J ; 1   X o o X X X X ",
"                                    @ f $ g h h h h h h h h h h h g $ f @     . . . . . = o . + - 9 0 q w ~ ^ e ~ ~ ~ ~ ~ ~ ~ ~ e ^ ~ w q 0 9 - + . = = . . . . ",
"                                      O + @ @ @ @ @ @ @ @ @ @ @ @ @ + O       O + @ @ @ + O t y ; < u i p ' ] a U U U U U U U U a ] ' p i u < ; y t O + @ @ @ @ ",
"                                        . . . . . . . . . . . . . . . .     @ f $ g h h j j h l > z x c a ( S v ( ( ( ( ( ( ( ( v S ( a c x z > l h j j h h h h ",
"                                    . . o o q.q.q.q.q.q.q.q.q.q.q.q.q.o o N @ B ; V > , , , , C Z 7 i A s T S S T T T T T T T T S S T s A F G m p.C | | C C C C ",
"                                    . . o o q.q.q.q.q.q.q.q.q.q.q.q.q.q.o   1 ; J K L 6 6 6 6 q P i I U Y T S T T T T T T T T T T S T Y E W F n $.7 g.7 7 7 7 7 ",
"                                        . . . . . . . . . . . . . . = o . + - 9 0 q w ~ e e ~ ~ r W / U s s s s s s s s s s s s s s s s a :.p ,.^ ^ ^ ^ ^ ^ ^ ^ ",
"                                      O + @ @ @ @ @ @ @ @ @ @ @ @ @ + O t y ; < u i p ' ] a U U U a ] s s s s s s s s s s s s s s s s s ] U >.;.=.=.=.=.=.=.=.=.",
"                                    @ f $ g h h h h h h h h h h h h j k h l > z x c a ( S v ( ( ( ( s s s s s s s s s s s s s s s s s s a :.p ,.^ ^ ^ ^ ^ ^ ^ ^ ",
"                    X X X X 8 o X N @ B ; V > , < , , , , , , , , , > > , C Z 7 i A s S b b b b b S S T T T T T T T T T T T T T T S T Y E W F n $.7 g.7 7 7 7 7 ",
"                    X X X X o o X   1 ; J K L 6 q q 6 6 6 6 6 6 6 6 6 u 6 q P i I U Y S S b b b b S S T T T T T T T T T T T T T S S T s A F G m p.C | | C C C C ",
"                    . . . . = o . + - 9 0 q w ~ ^ e ~ ~ ~ ~ ~ ~ ~ ~ ~ ~ ~ ~ r W / U s s ( ( ( ( ( ( ( ( ( ( ( ( ( ( ( ( ( ( ( ( v S ( a c x z > l h j j h h h h ",
"                  O + @ @ @ + O t y ; < u i p ' ] a U U U U U U U U U U U U U a ] s s s ] a U U U U U U U U U U U U U U U U U U a ] ' p i u < ; y t O + @ @ @ @ ",
"                @ f $ g h h j j h l > z x c a ( S v ( ( ( ( ( ( ( ( ( ( ( ( ( ( ( s s U / W r ~ ~ ~ ~ ~ ~ ~ ~ ~ ~ ~ ~ ~ ~ ~ ~ ~ e ^ ~ w q 0 9 - + . = = . . . . ",
"          .   O f &.l } | C | , , 2.Z 7 i A s T S S T T T S S b b b b b b b b b S S Y U I i P q 6 u 6 6 6 6 6 6 6 6 6 6 6 6 6 6 q q 6 L K J ; 1   X o o X X X X ",
"        . .   + $ l , #.6 7 7 q 6 7 P i I U Y T S T T T T S S b b b b b b b b b b S s A i 7 Z C , > > , , , , , , , , , , , , , , < , > V ; B @ N X o X X X X X ",
"        . X   @ &.s.d.$.i ^ r ^ ~ e r W / U s s s s s s s s ( ( ( ( ( ( ( ( ( v S ( a c x z > l h k j h h h h h h h h h h h h h h h h h g $ f @                 ",
"        . X f.@ k 3 m n *.;.>.U U U U a ] s s s s s s s s ] a U U U U U U U U a ] ' p i u < ; y t O + @ @ @ @ @ @ @ @ @ @ @ @ @ @ @ @ @ @ + O                   ",
"        . X   @ g : K h.j.I :.k.s l.( ( ( s s s s s s s U / W r ~ ~ ~ ~ ~ ~ ~ e ^ ~ w q 0 9 - + . o = . . . . . . . . . . . . . . . . . . .                     ",
"        . .   + $ ; J K 6 x Q W E Y T T T s s s s ( s ] / *.w $.z.L 5 L L L L z.z.L x._ s.c.@ = q.w.w.q.q.q.q.q.q.q.q.o o X X X X X X X X X                     ",
"          .   O # B 2 9 < Z G F A s T S T s s s ( ( s a W w 6 4., J } } J J J v.b.J } n.c.y m.o q.w.M.q.q.q.q.q.q.q.q.o o X X X X X X X X X                     ",
"                O @ N.B 2 B.Z 0.r U s T ( s s s ( T s U *...6.} ; k % g k k k k k k k $ y @ + . . . . . . . . . . . . .                                         ",
"                m.O +.N.&.` _ G ^ U 9.T ( s s s ( T 9.U ^ G _ ` &.y N.8.V.V.V.V.V.V.V.y 8.# 7.@ @ @ @ @ @ @ @ @ @ @ @ + O                                       ",
"                O @ N.B 2 B.Z 0.r U s T ( s s s ( T s U r ..Z } C.k % g k k k k k k k k k h h h h h h h h h h h h h g $ f @                                     ",
"          .   O # B 2 9 < Z G j.A s T S S T T T S S T s A i 7 Z C > J J J J J J J J J J J , , , , , , , , , C C C , } l &.f O   .                               ",
"        . .   + $ ; J K 6 x Q W E Y T S T T T T T S T Y U I i P q 6 L L L L L L L L L L L 6 6 6 6 6 6 6 6 6 7 $.7 y.#., l $ +   . .                             ",
"        . X   @ g : K h.j.I :.k.s ( ( ( ( ( ( ( ( ( ( l.a >.p I X.X.~ ~ ~ ~ ~ ~ ~ ~ ~ ~ ~ ~ ~ ~ ~ ~ ~ ~ ~ e ^ r ^ i $.d.s.&.@   X .                             ",
"        . X f.@ k 3 m n *.;.>.U U U U U U U U U U U U U >.:.;.p =.p ;.:.>.U U U U U U U U U U U U U U U U U U >.;.*.n m 3 k @ f.X .                             ",
"        . X   @ &.s.d.$.i ^ r ^ e ~ ~ ~ ~ ~ ~ ~ ~ ~ ~ ~ ~ ~ ~ ^ ^ W p U a ( ( ( ( ( ( ( ( ( ( ( ( ( ( ( ( s a :.W ~ $.K : &.@   X .                             ",
"        . .   + $ l , #.6 7 $.7 6 6 6 6 6 6 6 6 6 6 6 6 6 6 6 7 $.%.X.p O.S b o.Z.b b b b b b b b Z.o.b S s :.*.5.7 #.@.{ $ +   . .                             ",
"          .   O f &.l } | C C C , , , , , , , , , , , , , , , | p.m ..X.U v b o.o.b b b b b b b b o.o.b A.U ^ P <.1.: ; g # O   .                               ",
"                @ f $ g h h h h h h h h h h h h h h h h h j k h l > z x c a ( S v ( ( ( ( ( ( ( ( v S ( a c n m > M g y @ +                                     ",
"                  O + @ @ @ @ @ @ @ @ @ @ @ @ @ @ @ @ @ @ + O t y ; < u i p ' ] a U U U U U U U U a ] ' p i d < ; y +                                           ",
"                    . . . . . . . . . . . . . . . . . . . = o . + - 9 0 q w ~ ^ e ~ ~ ~ ~ ~ ~ ~ ~ e ^ ~ w q 0 9 - + . o . .                                     ",
"                    X X X X X X X X X X X X X X X X X X X o o X   1 2 3 4 5 u 6 6 u u u u u u u u 6 6 u 5 4 3 2 1   X 8 X                                       ",
"                    . . . . . . . . . . . . . . . . . . . . = .   @ - ; : > , < , , , , , , , , , , < , > : ; - @   . . .                                       ",
"                                                                  @ # $ % & & & & & & & & & & & & & & & & % $ # @                                               ",
"                                                                    O + @ @ @ @ @ @ @ @ @ @ @ @ @ @ @ @ @ @ + O                                                 ",
"                                                                      . . . . . . . . . . . . . . . . . . . .                                                   ",
"                                                                    . X o o o o o o o o o o o o o o o o o o X .                                                 "
};
